<?xml version="1.0" encoding="UTF-8"?>
<!DOCTYPE svg PUBLIC "-//W3C//DTD SVG 1.1//EN" "http://www.w3.org/Graphics/SVG/1.1/DTD/svg11.dtd">
<!-- Creator: CorelDRAW X6 -->
<svg xmlns="http://www.w3.org/2000/svg" xml:space="preserve" width="300px" height="298px" version="1.1" style="shape-rendering:geometricPrecision; text-rendering:geometricPrecision; image-rendering:optimizeQuality; fill-rule:evenodd; clip-rule:evenodd"
viewBox="0 0 300000 298448"
 xmlns:xlink="http://www.w3.org/1999/xlink">
 <defs>
  <style type="text/css">
   <![CDATA[
    .fil1 {fill:none;fill-rule:nonzero}
    .fil3 {fill:black}
    .fil2 {fill:#B3B3B3}
    .fil0 {fill:#B3B3B3;fill-rule:nonzero}
   ]]>
  </style>
 </defs>
 <g id="Capa_x0020_1">
  <metadata id="CorelCorpID_0Corel-Layer"/>
  <path class="fil0" d="M149219 66303c489,-1058 915,-2257 1238,-3449 323,1189 746,2384 1234,3439 4298,41 8522,391 12650,1035 554,-1115 -343,-3352 -1988,-5579 3300,123 6009,-644 5864,-2202 -361,-3863 -3032,-3530 -3151,-7682 -34,-1202 -1226,-1677 -2900,-1677 -1963,0 -4588,654 -6785,1551 3215,-4756 3932,-13118 1212,-13201 -72,-3 -141,-3 -211,-4l-3 0 -3 0 -4 0 -3 0 -4 0 -3 0 -4 0 -3 0 -3 0c-1692,0 -2615,556 -3526,1113 -1047,639 -2079,1278 -4243,1071 -2579,-246 -2470,5253 -1348,9483 -2867,-2806 -7466,-4789 -10126,-4789 -1081,0 -1843,327 -2037,1061 -991,3750 1632,4358 313,8297 -678,2024 2858,3153 6572,3410 -3639,2965 -6371,7604 -5318,9261 4104,-674 8305,-1062 12581,-1140zm1164 -12150c814,0 1475,660 1475,1475 0,814 -660,1475 -1475,1475 -814,0 -1475,-660 -1475,-1475 0,-814 660,-1475 1475,-1475z"/>
  <path class="fil0" d="M35101 106619c-1324,450 7590,23927 6874,24199 -349,134 -4582,-4737 -8975,-9608 -4619,-5122 -9416,-10244 -10062,-9549 -1261,1357 14348,18267 13922,18852 -207,285 -6716,-3423 -13404,-7133 -7045,-3908 -14290,-7815 -14577,-7053 -562,1485 28616,18433 28271,19526 -169,533 -8376,-832 -16743,-2197 -8805,-1435 -17787,-2871 -17767,-2097 40,1509 22032,4601 22394,5620 361,1020 -24994,1615 -25035,2619 -40,1004 31996,1782 32573,2409 580,626 -30887,8213 -30461,10140 224,1014 7697,-822 14807,-2657 6417,-1657 12536,-3312 12757,-2875 465,924 -26777,13505 -25524,14863 636,689 9092,-3052 17366,-6791 8023,-3627 15872,-7254 16252,-6842 770,835 -27282,23638 -24737,25348 1297,871 8108,-5406 14602,-11684 6242,-6035 12191,-12068 12672,-11754 980,642 -17205,30575 -14685,30375 2522,-201 17953,-29138 18949,-28897 994,241 -6319,24778 -4633,25348 851,289 2467,-5058 3973,-10404 1477,-5241 2848,-10483 3293,-10415 899,137 3991,18354 5613,20531 1621,2176 -1197,-17841 -2236,-25194 -1041,-7353 3552,2326 6507,6365 531,725 1064,1453 1573,2125l979 -4579c-5693,-13883 -22521,-48596 -24500,-48593 -13,0 -25,2 -38,5z"/>
  <path class="fil0" d="M133690 266357c-1003,7914 2076,24638 2753,29089 703,4613 1833,3720 924,-1390 -908,-5110 -1244,-16880 -794,-20943 96,-875 215,-2021 360,-3356 -540,1093 -1164,2189 -1885,3282 -490,-2677 -943,-4862 -1358,-6682z"/>
  <polygon class="fil0" points="197785,245137 197836,245042 197836,245042 "/>
  <polyline class="fil1" points="197239,246062 197241,246057 197244,246053 197246,246050 197249,246045 197251,246041 197254,246037 197257,246034 197259,246029 197262,246026 197264,246022 197268,246017 197270,246014 197272,246010 197275,246006 197277,246002 197281,245998 197283,245994 197285,245989 197288,245986 197288,245986 197290,245982 197292,245978 197296,245973 197298,245970 197298,245970 197301,245966 197303,245961 197305,245957 197309,245954 197311,245950 197311,245950 197314,245945 197316,245942 197318,245938 197321,245933 197321,245933 197324,245929 197324,245929 197327,245926 197329,245922 197331,245917 197334,245913 197334,245913 197337,245910 197337,245910 197340,245905 197342,245901 197344,245897 197347,245892 197347,245892 197349,245889 197349,245889 197353,245885 197355,245881 197357,245876 197360,245872 197360,245872 197362,245869 197362,245869 197365,245864 197366,245864 197368,245860 197370,245856 197373,245852 197375,245848 197375,245848 197377,245844 197377,245844 197381,245840 197383,245835 197385,245831 197388,245828 197390,245824 197393,245819 197394,245819 197396,245815 197398,245811 197401,245806 197403,245803 "/>
  <polyline class="fil1" points="196604,246902 196609,246897 196614,246892 196618,246887 196622,246882 196627,246877 196627,246877 196631,246872 196631,246872 196635,246866 196635,246866 196640,246862 196640,246862 196644,246857 196649,246851 196654,246846 196658,246841 196662,246836 196667,246831 196671,246825 196675,246820 196679,246816 196684,246810 196688,246805 196692,246799 196693,246799 196697,246794 196698,246794 196702,246789 196702,246789 196706,246783 196706,246783 196711,246778 196711,246778 196715,246774 196715,246774 196719,246768 196719,246768 196724,246763 196724,246763 196728,246757 196728,246757 196732,246752 196732,246752 196737,246747 196737,246747 196741,246741 196742,246741 196745,246736 196746,246736 196750,246730 196751,246730 196754,246725 196755,246725 196759,246720 196759,246720 196764,246714 196764,246714 196768,246709 196768,246709 196772,246704 196772,246704 196776,246698 196776,246698 196781,246693 196781,246693 196785,246687 196789,246682 196794,246676 196798,246670 196802,246666 196807,246659 196812,246654 196816,246649 196821,246643 196825,246638 196829,246632 196834,246626 196838,246621 196838,246621 196842,246615 196846,246610 196851,246604 196855,246599 196859,246593 196864,246587 196868,246582 196872,246576 196877,246570 196881,246565 196885,246559 "/>
  <polyline class="fil1" points="196362,247160 196366,247157 196369,247153 196374,247149 196377,247145 196380,247142 196381,247142 196384,247138 196388,247134 196392,247130 196395,247127 196399,247123 196403,247119 196407,247115 196410,247112 196410,247112 196413,247107 196415,247107 196418,247104 196421,247100 196425,247097 196429,247092 196433,247088 196436,247085 196436,247085 196440,247081 196440,247081 196444,247076 196444,247076 196448,247073 196451,247069 196455,247065 196459,247061 196463,247058 196466,247054 196466,247054 196469,247049 196471,247049 196474,247046 196477,247042 196481,247037 "/>
  <polygon class="fil0" points="191092,246631 191117,246634 191117,246634 "/>
  <polyline class="fil1" points="187567,246624 187578,246626 187587,246627 187587,246627 187597,246629 187608,246630 187617,246632 187617,246632 187627,246635 187627,246635 187637,246636 187638,246636 187648,246638 187648,246638 187657,246639 187667,246641 187667,246641 187678,246642 187678,246643 187687,246644 187687,246644 187697,246645 187697,246645 187707,246648 187707,246648 187717,246649 187718,246649 187727,246651 187727,246651 187756,246655 187756,246655 187776,246657 187777,246658 187795,246660 187796,246660 187835,246666 187835,246666 187845,246667 187845,246667 187854,246668 187855,246668 187864,246669 187865,246670 187874,246670 187875,246671 187913,246676 187914,246676 187932,246678 187933,246678 187951,246680 187952,246680 187980,246683 187980,246683 187990,246684 187990,246684 188000,246685 188000,246685 188008,246685 188009,246686 188018,246686 188019,246687 188028,246687 188029,246688 188037,246688 188039,246688 188047,246690 188048,246690 188057,246691 188058,246691 188067,246691 188068,246692 188076,246692 188076,246693 188086,246693 188086,246693 188095,246694 188096,246694 188104,246695 188105,246695 188114,246695 188115,246695 188124,246696 188124,246696 188133,246697 188133,246697 188142,246697 188143,246697 188189,246700 188190,246700 188143,246697 "/>
  <polyline class="fil1" points="154319,256326 154320,256328 154320,256328 154322,256329 "/>
  <path class="fil0" d="M207987 249422l11 0c221,1 359,34 402,104 605,971 -3188,3144 -6198,4226 -1628,586 -723,515 485,444 1025,-60 2270,-121 2367,221 210,743 -3198,1116 -3348,1923 -74,401 1857,23 3766,-355 1943,-386 3865,-770 3628,-334 -472,864 -10549,2423 -10935,3193 -386,772 8302,8 6874,1199 -1428,1191 -4467,794 -4709,1619 -144,486 235,1174 -376,1335 84,861 -4574,-612 -8957,-1550 7619,4189 16330,4437 14897,5161 -2033,1119 -7765,-326 -12633,-1771 -4163,-1237 -7693,-2472 -7735,-2105 -93,798 13495,6503 14859,8603 1366,2100 -16256,-6793 -18761,-8144 -2505,-1351 3093,4214 9109,7751 6017,3537 10696,2628 10717,4498 14,1324 -4927,88 -9581,-1265 3992,1535 8774,3205 9796,4662 1360,1945 -12539,-1128 -19757,-5701 -3433,-2176 -9815,-7782 -14411,-11957 556,620 1155,1315 1803,2095 9754,12244 19405,16463 24140,19369 4733,2907 -11854,-4295 -18867,-9921 -5122,-4109 -11082,-11400 -13924,-15034l-669 -223c2896,3499 8428,10247 9990,12640 2147,3287 11123,11610 16079,14008 4956,2399 1914,2861 -1709,927 -3624,-1932 -11294,-7300 -18102,-15725 -2575,-3188 -5422,-6299 -7564,-8811 1290,2117 2602,4240 3362,5388 1871,2831 14044,18587 16945,20414 2902,1828 3144,3189 283,1591 -2861,-1601 -14718,-12945 -18114,-18207 -2617,-4059 -7713,-11801 -7732,-14514l-947 -894c-197,-8 -389,85 -562,326 -939,1303 7121,18962 9920,23502 2797,4540 11814,17695 10350,17370 -1464,-325 -11615,-13280 -14295,-19128 -2680,-5849 -6342,-13271 -7206,-16811 -864,-3543 -4764,-8354 -1815,4944 2950,13297 6923,23123 9384,27083 2461,3961 1159,5204 -1628,1387 -2788,-3819 -5917,-10876 -6936,-13974 -1020,-3099 -3715,-14307 -4177,-18220 -461,-3914 -1718,-18230 -2734,-3518 -1015,14712 -310,21967 2,26363 313,4395 73,15566 -228,13863 -305,-1703 -674,-9720 -1260,-13013 -490,-2753 -2126,-13802 -2155,-20730 1997,-8248 1356,-11269 -1111,-17749 17,-591 -40,-1137 -177,-1625 428,359 1248,826 2309,1399 416,-796 1177,-3033 2106,-5930 695,68 1391,129 2091,181 -985,3591 -1604,6275 -1313,6704 288,425 1796,-2383 3821,-6558 1080,48 2166,75 3255,85 -2602,4629 -5321,7648 -3685,8133 669,198 2782,-3357 5321,-8136 1035,-11 2067,-36 3093,-84 -3331,6479 -6741,8959 -4894,10014 864,493 3360,-4318 6067,-10077 1167,-68 2328,-155 3480,-270 -563,1414 -1076,2626 -1476,3480 -2204,4723 -6637,7468 -4610,8330 950,404 4134,-5542 7318,-11945 948,-108 1894,-228 2832,-366 -472,1115 -952,2198 -1429,3213 -3319,7073 -6215,10008 -5123,10438 1092,431 6074,-7561 9154,-12637 304,-501 605,-1039 903,-1602 927,-176 1849,-364 2766,-569 -801,1875 -1706,3770 -2667,5504 -3886,7017 -8192,9812 -7205,10528 1069,827 5464,-5839 9583,-12508 846,-1368 1679,-2736 2470,-4039 931,-234 1856,-477 2774,-740 -1077,2566 -2207,5054 -2831,6203 -1536,2834 -7802,11400 -7053,11657 750,257 4554,-5573 8268,-10880 1522,-2174 3087,-5134 4453,-7849 712,-231 1421,-470 2124,-718 -1271,3354 -2930,7153 -4117,9071 -2367,3821 -8074,10374 -7241,10666 834,294 3283,-3054 5690,-6059 2119,-2648 6132,-9993 8573,-14591l72 113c154,242 341,465 557,671 -1126,3500 -3096,8770 -4019,10308 -1625,2709 -7304,9420 -6391,9727 911,306 5702,-5700 7174,-7524 1256,-1556 4281,-7236 6381,-10900 287,83 575,155 865,220 -2125,2400 -4830,6369 -3621,8957 -173,321 -340,610 -499,855 -1496,2336 -4987,6255 -7070,8526l1591 -696c2058,-1779 5057,-4166 6684,-5823 351,-358 726,-781 1113,-1246 1421,665 2614,765 4275,643l12 -1c-2027,2373 -3694,4214 -3070,3985 530,-194 2411,-1996 4435,-3999 675,66 1252,283 2048,794 1756,1126 3431,-231 3736,61 1139,-379 2532,-953 3884,-1587 848,1108 1870,1914 3068,2013 -266,311 -559,630 -879,952 2343,-617 4197,-1029 4996,-1029z"/>
  <path class="fil0" d="M208203 30087c1467,3741 1997,27068 1796,31038 -83,1609 -320,4519 -573,7409 -275,-3855 -797,-8765 -1010,-13558 -568,-12680 -4072,-23077 -6148,-27420 -1137,-2382 -2610,-3962 -3213,-3962 -497,1 -403,1072 955,3649 3010,5708 5692,19799 5432,24392 -34,1675 -19,3374 38,5063 -706,-3294 -1540,-6888 -2561,-10732 -2337,-8795 -10596,-23665 -11228,-23665 -99,0 -9,369 324,1191 2446,6033 8619,16722 9309,35054 69,1183 151,2251 243,3221 -1434,-7134 -3557,-16852 -5282,-21290 -3279,-8433 -12562,-19504 -14368,-19504 -193,-2 -299,124 -306,392 -51,2086 3303,6987 6003,11212 -3058,-3998 -6394,-8069 -7745,-8069 -174,0 -316,67 -418,211 -1282,1778 3765,4173 6983,11692 3217,7521 4631,16661 3206,13645 -1423,-3015 -11867,-23654 -12038,-20724 -172,2931 8681,17758 8040,18446 -643,688 -11523,-17153 -16524,-17815 -1855,-313 6191,5976 10466,15223 -3482,-3932 -6855,-8560 -7370,-7687 -433,729 5190,11855 7064,15521 -6692,-3458 -14156,-6463 -18474,-5826l0 0c-647,96 -1253,213 -1814,349 -124,436 -249,826 -364,1149 -48,136 -99,273 -151,407 1254,-295 2527,-481 3692,-481 2076,-1 4399,756 4470,3201 40,1400 348,2016 1189,3074 779,981 1306,1793 1625,2795 3602,-534 7083,-1009 7770,-809 872,254 -3155,999 -7493,2061 20,149 39,302 53,461 33,358 -1,722 -107,1065 -39,129 -86,252 -141,369 1632,-347 2956,-594 3350,-522 1162,212 -4554,2032 -7464,3536 150,341 282,689 388,1038 5118,-1178 14222,-4593 19004,-3616 -5101,1084 -10732,4269 -15140,7061 963,213 1922,435 2874,681 3267,-1480 6414,-2872 7819,-3240 2655,-697 11350,-3034 11997,-2111 650,924 -9372,3308 -12791,4733 -681,284 -1805,915 -3128,1720 1198,369 2384,766 3559,1184 2772,-1188 5279,-2169 6892,-2600 4359,-1163 8999,-2619 9581,-1762 582,855 -9357,3070 -14246,5030l-200 82c1273,490 2532,1009 3776,1556 6683,-2284 13271,-4680 13757,-3973 420,608 -6985,3083 -11760,4881 1349,634 2679,1301 3989,2002 6355,-2409 11703,-4085 12038,-2905 375,1177 -4079,1070 -10829,3565 1154,641 2292,1307 3413,1997 4668,-1751 8889,-3089 9349,-2357 562,897 -2140,1553 -7090,3800 965,638 1918,1290 2856,1965 3664,-1672 6329,-2617 6696,-2000 938,1586 -1896,1789 -5545,2839 976,725 1933,1472 2876,2237 2761,-1274 4654,-1885 4918,-1290 557,1259 -701,1813 -3226,2696 773,660 1537,1332 2288,2019 1685,-630 2781,-879 3012,-575 545,721 -110,1312 -1513,1980 737,707 1461,1429 2173,2162 894,-353 1395,-451 1386,-219 -8,186 -247,517 -670,959 714,753 1412,1520 2099,2298 248,-150 458,-267 626,-349 413,872 753,1621 976,2211 117,140 237,278 353,419 840,-1858 2946,-3708 5810,-5155 3016,-1525 6079,-5589 12578,-11724 6500,-6134 15779,-25217 18325,-30059 2543,-4841 856,-4785 -1839,669 -2695,5451 -10560,16792 -13808,20311 -3247,3520 -11004,12201 -17927,18276 -6922,6076 1558,-3150 6377,-8018 4817,-4871 13255,-20720 14993,-24234 1736,-3515 6958,-11336 7857,-13153 897,-1817 -7093,8555 -9854,12919 -2761,4365 -7137,11699 -18322,24874 -11185,13174 -2420,-1205 -136,-5218 2287,-4015 7534,-16463 8726,-20094 1191,-3632 3145,-12465 3171,-18005 23,-5539 -2071,-5271 -2501,177 -432,5447 -3512,17478 -9972,32073 -6461,14598 -6798,7347 -5150,3404 1646,-3940 3350,-13488 4887,-20869 1537,-7382 964,-26660 -189,-27983 -40,-45 -79,-67 -117,-67 -1080,0 -1694,17633 -2193,23649l0 0c-515,6228 -5188,28493 -6979,29070 -178,57 -347,66 -507,34 1123,-1951 2032,-8150 2272,-20688 455,-7326 -2846,-26270 -4432,-29769 -628,-1382 -1120,-1992 -1395,-1992 -419,1 -332,1427 556,3689z"/>
  <path class="fil0" d="M121996 8721l4 0c1323,1 10479,8015 10479,8015 227,3276 -2103,1767 -5244,-957 -3141,-2722 -5646,-5785 -5388,-6954 15,-70 67,-103 149,-104z"/>
  <path class="fil0" d="M148320 15066l22 0c442,2 759,76 915,241 -3270,3729 -17284,8746 -16846,5576 0,0 1548,-1258 2461,-1728 798,-410 10260,-4090 13448,-4090z"/>
  <path class="fil0" d="M130734 6858c-321,4267 517,6916 1680,7833 0,0 1295,-1663 1294,-6727 -1,-5063 667,-7966 667,-7966 0,0 -3320,2592 -3641,6859z"/>
  <path class="fil0" d="M132483 17223c0,0 5823,-807 9674,-4909 3851,-4102 4786,-9701 4786,-9701l-14460 14609z"/>
  <path class="fil0" d="M140266 26234c-4312,1747 -8905,5160 -8905,5160 -486,3606 17721,-6554 19345,-8070 336,-313 270,-447 -82,-447 -1354,0 -6939,1972 -10358,3357z"/>
  <path class="fil0" d="M136935 32002c-2924,1717 -6451,4522 -6451,4522 1767,3449 15933,-6538 17507,-8515 287,-359 199,-512 -152,-512 -1581,0 -8512,3100 -10904,4505z"/>
  <path class="fil0" d="M146527 31782c-1005,1824 -4398,2966 -9070,5556 -4672,2589 -7754,4662 -7754,4662 -363,2732 5030,287 10837,-2512 5128,-2472 6652,-8015 6245,-8015 -54,0 -141,97 -259,309z"/>
  <path class="fil0" d="M133807 45428c-2494,1749 -4904,3517 -4904,3517 -170,1544 1810,1227 4440,102 -141,-933 -92,-1835 210,-2975 62,-237 149,-450 254,-644z"/>
  <path class="fil0" d="M148700 35955c-1624,1514 -8094,5027 -10972,6827 -519,325 -1140,735 -1807,1187 383,-87 785,-127 1187,-127 1253,0 2651,310 4053,822 562,-379 1088,-750 1562,-1101 1083,-804 2076,-1731 2941,-2663 271,-512 629,-945 1094,-1258 1722,-2112 2657,-3939 2320,-3939 -69,1 -194,80 -378,252z"/>
  <path class="fil0" d="M134086 51836c-2866,1636 -5817,3193 -5817,3193 291,2015 2640,1477 5464,84 14,-283 69,-564 162,-839 335,-1001 374,-1636 191,-2438z"/>
  <path class="fil0" d="M127039 66614c3,255 442,1057 706,1129 1532,418 5231,-2041 7808,-4031 742,-1611 1939,-3212 3014,-4430 -343,-80 -686,-170 -1023,-275 -4361,2744 -9078,4825 -9938,2481 0,0 3297,-2964 6153,-4110 182,-73 391,-163 624,-267 619,796 1616,1356 2723,1750 -4261,4675 -10066,7753 -10066,7753z"/>
  <path class="fil0" d="M116676 49558l160 146c86,-251 234,-487 457,-696 1561,-1461 3864,805 4894,1880 1551,1622 2895,3572 3971,5581 1130,311 1676,-83 1844,-891 0,0 -3138,-3907 -8708,-8246 -1346,-1048 -2578,-2021 -3676,-2912 478,921 799,1902 958,2929 113,732 142,1470 100,2208z"/>
  <path class="fil0" d="M109828 32917l3 0c68,2 122,60 134,171 99,921 12704,10082 15333,12354 2627,2274 3476,4715 3476,4715 -228,2133 -4393,-904 -11526,-6737 -9086,-7510 -7913,-10503 -7421,-10503z"/>
  <path class="fil0" d="M114912 35220c6084,5883 14105,12241 14575,8548 0,0 -1887,-2754 -3853,-4125 -1966,-1372 -7610,-6062 -9971,-7234 -1101,-547 -2661,-1252 -3396,-1252 -841,0 -602,923 2645,4063z"/>
  <path class="fil0" d="M121583 34224c4837,4007 8231,6601 8601,4235 0,0 -1897,-2942 -5392,-5776 -3495,-2834 -8632,-7069 -9300,-7966 -42,-58 -74,-85 -96,-85 -312,0 1659,5841 6187,9591z"/>
  <path class="fil0" d="M116140 22426c1465,3105 8946,7683 9746,8540 800,857 4905,3960 5188,2212 0,0 -1877,-3186 -4618,-5400 -2214,-1786 -8533,-6202 -10113,-6202 -378,0 -486,251 -203,850z"/>
  <path class="fil0" d="M116373 14358c1010,2348 5386,7123 8884,9514 3496,2389 6358,5674 6591,3914 0,0 -2223,-4026 -6171,-7261 -3266,-2676 -8186,-6752 -9217,-6752 -217,0 -262,178 -87,584z"/>
  <path class="fil0" d="M119645 9362l0 0c10,12 2607,3062 5663,5524 3061,2465 7068,6702 7068,6702 -333,3744 -5933,-1690 -9215,-5295 -3276,-3598 -3515,-6919 -3516,-6930z"/>
  <path class="fil0" d="M148620 18448l15 0c308,3 434,92 283,298 -779,1064 -5174,4830 -9158,6271 -3983,1440 -7916,3059 -7756,1340 0,0 613,-1493 2578,-2407 1966,-915 6837,-2930 7688,-3556 683,-502 5053,-1946 6350,-1946z"/>
  <path class="fil0" d="M248692 106440c-320,84 -2774,-4573 -5358,-9209 -2624,-4705 -5381,-9390 -6182,-9073 -1588,629 10564,22257 10091,22781 -236,257 -4561,-3409 -8973,-7062 -4509,-3733 -9107,-7452 -9527,-6953 -829,988 17701,17463 17898,18461 100,516 -4553,345 -9133,163 -4302,-171 -8541,-353 -8714,13 -360,758 14554,3836 18309,3464 3754,-374 5672,1169 5672,1169 1676,2537 8189,13502 12843,17065 4652,3561 2113,-449 -368,-4342 -2481,-3892 -9262,-11082 -3291,-7724 5972,3356 22232,12483 20905,10360 -1327,-2122 -15949,-10882 -15766,-11701 86,-387 4611,121 9370,591 5314,525 10919,1003 10959,138 74,-1639 -23465,-3573 -23340,-4509 127,-937 30168,-4508 31186,-6607 1017,-2099 -30803,3505 -31027,2447 -224,-1057 29900,-12831 29281,-15592 -329,-1472 -8734,2529 -16574,6439 -6858,3420 -13285,6772 -13499,6332 -460,-941 23726,-22797 22980,-24329 -383,-783 -5800,3871 -11080,8503 -5030,4412 -9935,8805 -10245,8459 -639,-711 15501,-20828 13988,-21839 -765,-512 -5502,5495 -10044,11470 -4445,5848 -8707,11667 -8877,11317 -344,-707 9718,-28504 8841,-28805 -434,-149 -2870,5088 -5305,10326 -2474,5322 -4950,10644 -5331,10316 -754,-653 3955,-20591 2670,-21131 -646,-273 -2373,7649 -4061,15565 -1660,7788 -3283,15570 -3807,15536 -1055,-69 -5849,-30826 -7313,-30840 -5,0 -13,0 -18,1 -1406,221 3482,28632 2838,28801z"/>
  <path class="fil0" d="M21364 181696l3 0c62,1 156,38 283,114 1671,1014 14619,13992 11450,14442 0,0 -3985,-3071 -6494,-6301 -2314,-2983 -6001,-8254 -5243,-8255z"/>
  <path class="fil0" d="M25994 182918l3 0c67,1 155,25 267,71 2049,861 13885,10462 11387,12779 0,0 -3214,-2314 -5366,-4379 -2032,-1949 -7417,-8471 -6291,-8472z"/>
  <path class="fil0" d="M29806 183326c1785,416 3561,3013 6870,6348 3307,3335 5797,5448 5797,5448 2398,-345 -961,-4325 -4716,-8571 -2528,-2856 -6063,-3516 -7561,-3515 -727,0 -974,155 -391,290z"/>
  <path class="fil0" d="M32819 180492c1670,1013 6187,5646 8399,7652 2209,2005 7322,5995 7322,5995 2895,-483 -3857,-7322 -7856,-10410 -3056,-2359 -7009,-3596 -7959,-3596 -293,0 -301,118 94,358z"/>
  <path class="fil0" d="M38499 180031c2006,738 5596,4148 7792,5860 2198,1711 7548,7331 7548,7331 3450,-1534 -4892,-8101 -8015,-10945 -2137,-1944 -5715,-2625 -7122,-2625 -648,0 -835,144 -203,379z"/>
  <path class="fil0" d="M47387 179293l8 0c12,0 25,1 38,2 1632,134 15022,10505 11653,12945 0,0 -3297,-2081 -4948,-4225 -1636,-2120 -8207,-8722 -6749,-8723z"/>
  <path class="fil0" d="M50165 179322c7114,2109 12622,12116 12622,12116 3254,-101 -2149,-6989 -4113,-9157 -1098,-1212 -2770,-2019 -4510,-2481 -1373,-364 -2790,-514 -3999,-478z"/>
  <path class="fil0" d="M55700 178413c1733,1353 6385,5808 8645,8439 2259,2633 4148,4780 4148,4780 3411,-890 -1881,-6470 -5166,-9770 -2253,-2265 -5824,-3685 -7280,-3914 -666,-103 -890,40 -347,464z"/>
  <path class="fil0" d="M62021 179206c1960,501 6271,5296 8966,8592 -404,-932 -795,-1870 -1167,-2818l-193 -480 -247 -626c-169,-434 -335,-870 -498,-1309 -87,-236 -173,-472 -260,-709l-12 -32c-3031,-2525 -5722,-3211 -6850,-3211 -770,0 -813,320 259,592z"/>
  <path class="fil0" d="M66624 197508c-165,457 -332,930 -497,1409 921,142 1845,410 2766,809 252,-520 498,-1048 730,-1575 -321,-259 -611,-448 -815,-499l-2184 -144zm4634 -3996c341,-1549 266,-2692 -513,-2987 0,0 -1568,1376 -3044,4387l613 -266c963,-417 1942,-814 2944,-1134z"/>
  <path class="fil0" d="M65167 191319l11 0c1764,0 446,3793 -1434,7507 -1327,100 -2643,453 -3935,1039l263 -492c2509,-4695 4864,-8033 4864,-8033 82,-13 159,-19 231,-20z"/>
  <path class="fil0" d="M60242 192120l2 0 2 0 3 0 2 0c1259,0 1195,2808 -1468,8261 -505,280 -1005,595 -1500,944 -1349,951 -2507,2023 -3569,3184 953,-1960 1867,-3952 2404,-5183 1315,-3008 3967,-7191 3967,-7191 54,-9 106,-14 156,-14z"/>
  <path class="fil0" d="M54480 193312l2 0 2 0 1 0 2 0 2 0 2 0 1 0 2 0c1687,0 1761,2571 -2636,11265 -4507,8907 -8405,8957 -7427,8280 980,-674 2698,-4453 5039,-10201 2340,-5751 4897,-9340 4897,-9340 38,-2 75,-4 112,-4z"/>
  <path class="fil0" d="M49768 193945l2 0 3 0 3 0 2 0c1565,0 -11,4207 -3129,11377 -4770,10808 -7758,8937 -7003,8632 755,-305 5497,-13160 6790,-15927 1295,-2766 3159,-4066 3159,-4066 60,-11 117,-16 171,-16z"/>
  <path class="fil0" d="M44266 194862l3 0 4 0 4 0c2783,1 -584,8026 -4009,14395 -3524,6554 -2987,2314 -2558,37 428,-2278 3047,-8175 3739,-10166 690,-1990 2571,-4245 2571,-4245 86,-12 168,-19 246,-20z"/>
  <path class="fil0" d="M39551 195546l12 0c1793,1 429,3425 -1730,8305 -2234,5052 -7188,8205 -6589,7424 599,-778 2956,-6137 4520,-9771 1562,-3635 3598,-5944 3598,-5944 67,-9 129,-13 190,-14z"/>
  <path class="fil0" d="M34762 196063l2 0 1 0 1 0 1 0 2 0 1 0 1 0c1387,1 -201,4061 -725,4925 -533,881 -2619,8306 -4898,10287 -2278,1982 849,-7159 2066,-10008 1218,-2849 3466,-5198 3466,-5198 28,-3 55,-5 81,-5z"/>
  <path class="fil0" d="M30068 196691l8 0c1262,0 -732,3111 -1880,6523 -1187,3530 -4184,8374 -5929,9789 -1746,1416 1203,-5232 2996,-9345 1795,-4114 4671,-6956 4671,-6956 48,-6 93,-11 135,-11z"/>
  <path class="fil0" d="M24969 197693l5 0 5 0c2521,0 -540,5642 -2698,9105 -2266,3639 -5024,4632 -5024,4632 0,0 1965,-2932 3320,-6111 1354,-3179 3982,-7583 3982,-7583 150,-28 287,-42 409,-43z"/>
  <path class="fil0" d="M18098 184395l2 0 1 0 1 0c29,1 62,8 102,23 1087,405 5323,3225 7494,6251 2172,3028 4480,5969 2987,6243 0,0 -1409,-163 -2652,-1608 -1244,-1443 -4114,-5083 -4845,-5654 -706,-549 -3820,-5254 -3090,-5254z"/>
  <path class="fil0" d="M21448 198585l13 0c1442,0 725,2097 -586,4888 -1554,3309 -3546,6160 -4598,6223 -1051,59 4154,-10887 4154,-10887 417,-150 753,-222 1018,-224z"/>
  <path class="fil0" d="M21907 196208c614,660 2051,1669 2051,1669 2787,-386 -4806,-11047 -8743,-12922 -842,1391 6077,10592 6692,11253z"/>
  <path class="fil0" d="M12715 199866c-4284,1210 -6898,1338 -6898,1338 0,0 2987,2190 6674,1441 3686,-746 5741,-2100 6226,-3294 0,0 -492,-199 -1606,-199 -967,0 -2404,151 -4396,714z"/>
  <path class="fil0" d="M6364 189886l40 0c1782,0 5008,250 7973,1789 4392,2280 6465,7013 6465,7013l-15816 -8744c0,0 506,-57 1338,-58z"/>
  <path class="fil0" d="M112112 266372c75,1461 -101,2406 -101,2406 0,0 875,-1322 4035,-4878 -1283,882 -2601,1716 -3934,2472z"/>
  <polygon class="fil0" points="111922,264667 111922,264667 112012,264614 "/>
  <polygon class="fil0" points="114846,255382 114846,255382 "/>
  <polygon class="fil0" points="110311,259907 110336,259976 110437,259844 "/>
  <polygon class="fil0" points="108872,251023 109125,250662 109139,250642 109125,250662 "/>
  <polygon class="fil0" points="108720,251235 108720,251236 108746,251201 "/>
  <polygon class="fil0" points="94349,219399 94348,219399 94237,219444 "/>
  <path class="fil0" d="M74205 222595c8,-29 16,-59 26,-89 -10,30 -18,59 -26,89z"/>
  <path class="fil0" d="M74968 224321c-571,-428 -877,-941 -799,-1539 -78,599 228,1112 799,1539z"/>
  <path class="fil0" d="M75152 224450c-57,-38 -113,-76 -166,-115 53,40 109,78 166,115z"/>
  <path class="fil0" d="M75556 224687c-102,-55 -200,-110 -294,-167 94,57 192,112 294,167z"/>
  <polygon class="fil0" points="80624,226038 80811,225884 80811,225884 "/>
  <path class="fil0" d="M88316 233462c-48,114 -98,227 -148,339 50,-112 99,-225 148,-339z"/>
  <path class="fil0" d="M89313 230558l0 0 -1 -1c-117,434 -248,869 -391,1298 143,-429 275,-863 392,-1297z"/>
  <polygon class="fil0" points="99340,261117 99338,261117 99338,261117 "/>
  <path class="fil0" d="M99693 261169c-109,-11 -194,-23 -252,-32 59,10 143,22 252,32z"/>
  <path class="fil0" d="M107863 259322l0 0c-4420,1933 -7137,1941 -8114,1852 977,89 3694,83 8114,-1852z"/>
  <path class="fil0" d="M107825 266602c-45,8 -87,14 -126,17 39,-3 81,-10 126,-17z"/>
  <path class="fil0" d="M108220 266499c-60,19 -117,37 -171,51 54,-14 111,-31 171,-51z"/>
  <path class="fil0" d="M109134 266142l0 0c-331,146 -623,262 -868,343 247,-81 537,-195 868,-343z"/>
  <path class="fil0" d="M97726 262333c199,1522 465,2952 847,4082 1783,5285 285,8353 -1390,9381 -1675,1028 3337,1181 9077,-2112 1966,-1128 2775,-3258 2890,-5831 -1192,423 -2404,532 -3057,-425 -420,-615 -367,-1350 -20,-1975 622,-1121 1659,-2290 2495,-3290 -92,-433 -192,-867 -297,-1300 -1545,662 -3122,1198 -4697,1539 -1245,269 -3339,557 -4616,238l-1231 -307z"/>
  <path class="fil0" d="M72960 221232c-8062,-7606 -19411,-9901 -22111,-10050 -1439,-79 -4468,2982 -6729,6042 -2617,3541 -4206,7081 -1117,5760 12025,-4774 28580,8591 25656,10462 -2923,1871 -11087,-5798 -19048,-8233 -7963,-2432 -11212,3367 -11212,3367l-473 2308c-472,2307 -3522,2449 -1380,3439 6539,-4244 16992,1020 16827,2505 -165,1484 -15705,1954 -20639,2676 -4934,724 -9374,10517 -10789,12845 2538,2131 7643,11828 19079,9805 11436,-2023 16695,-17620 20481,-16333 3787,1288 -5004,11753 -7376,14899 -2373,3146 -6971,6045 -10890,4916 -1825,-525 -820,1091 1404,2707 2555,1857 6720,3714 10057,2322 19473,-9337 14963,-29081 19111,-25327 6051,5355 -12128,29571 -17824,28302 -972,-215 999,894 3994,2004 4053,1504 9985,3006 13043,1219 8771,-5614 10014,-25124 13154,-27896 3140,-2772 -3982,21807 -5796,24610 -1815,2804 -5455,4885 -5455,4885 0,0 7674,3741 16255,-680 4888,-2517 5175,-9688 4828,-15885l-253 -64 239 -179c-270,-4583 -862,-8588 -151,-9707 1181,-1858 1169,3425 1675,8564l876 -657c45,-34 89,-64 138,-93 882,-531 1904,-1446 2651,-2141 1597,-1488 3083,-3156 4455,-4895l-222 -580c-48,-127 -95,-251 -139,-373 -1308,571 -2777,1235 -4435,2016 4616,-12016 14812,-16712 20238,-18148 -71,-241 -146,-479 -228,-713 -4428,-1625 -8685,-3605 -12741,-5898l-243 262c-893,963 -2400,1418 -3903,1612 909,1784 1475,3876 318,5321 -226,282 -505,515 -821,689 -1660,920 -2914,1065 -4755,931 -1385,-101 -2063,-37 -3280,745 -485,310 -1030,486 -1607,490 -1970,13 -3467,-1909 -4509,-4024 -1016,2061 -2511,4037 -4509,4024 -577,-4 -1123,-180 -1607,-490 -1218,-781 -1895,-847 -3280,-745 -1842,135 -3095,-11 -4755,-931 -316,-174 -595,-407 -821,-689 -1967,-2456 853,-6713 3083,-9246 -2139,-492 -4295,-1452 -4756,-3332 -137,-561 -100,-1132 82,-1678 90,-271 160,-516 209,-744z"/>
  <path class="fil0" d="M80066 212387c-2313,-3313 -5598,-7477 -10170,-10357 -9018,-5682 -16192,4789 -18032,7301 10107,-605 15931,5575 20877,9499l-48 -150c-592,-1788 -781,-3025 -284,-4905 435,-1639 2001,-2229 3555,-2229 1268,0 2684,318 4103,840z"/>
  <polygon class="fil0" points="86061,217879 86088,217906 86059,217791 86088,217905 "/>
  <path class="fil0" d="M68938 196087c2826,186 10580,11381 13931,17582 331,181 656,368 973,563 -123,-1345 -117,-2690 96,-3862l228 -1252c-3797,-4527 -7142,-9446 -9965,-14686 -1838,245 -3631,947 -5263,1653z"/>
  <path class="fil0" d="M223864 200772c7778,5905 7904,9524 17886,13653 0,0 -2381,-2411 -2964,-6410 -585,-4002 -4995,-10053 -4488,-11826 505,-1773 2655,-3264 4027,2685 1371,5949 4239,16737 10114,16303 5876,-433 9496,-3044 7748,-2968 -1746,78 -4383,-1441 -5701,-6227 -1320,-4787 -7757,-13141 -5198,-12027 2558,1113 7785,17749 16319,16731 8535,-1016 12331,-7604 12331,-7604 0,0 -3723,280 -6460,-883 -2736,-1164 -20244,-15744 -16546,-15264 3698,479 14342,14252 23612,14020 2622,-172 5576,-3022 7786,-5780 2401,-2997 3921,-5881 3175,-5091 -3570,3774 -29053,-5026 -27258,-11992 657,-2675 2944,1272 8074,4856 4147,2899 10150,5560 18651,4299 5901,-1193 8276,-12212 5947,-9425 -2329,2788 -7166,2942 -10484,1804 -3319,-1139 -15021,-4476 -12870,-7314 1056,-1394 4411,43 8669,1365 4406,1369 9779,2613 14581,473 9444,-4210 8376,-13909 9185,-16745 -2204,-1014 -10362,-6023 -14363,-4096 -3999,1927 -15697,9329 -16559,8316 -861,-1013 4224,-10107 11165,-10238 1087,-1798 -1234,-381 -2733,-1847l-1499 -1467c0,0 -5290,-2659 -9950,3105 -4660,5766 -6859,15493 -9948,15570 -3089,79 2458,-18036 13709,-20509 5477,-1055 -9468,-6466 -11671,-4794 -2203,1673 -11417,11125 -11892,22878 -150,3216 -2735,178 -813,-5218 1646,-4622 2474,-11307 7899,-16220 -1711,1049 -3520,1941 -5378,2703 -1908,781 -3861,1435 -5846,1968 -902,4046 -2601,5896 -4170,8846 -589,16341 -5686,31534 -14088,44372z"/>
  <path class="fil0" d="M91850 64224c2111,-7389 8742,-21194 5142,-29834 -2889,-6219 -20051,-8859 -17635,-7872 4080,1666 5969,17695 3976,28174 3928,2828 6650,6175 8517,9532z"/>
  <path class="fil0" d="M95943 85795c6375,-5194 13499,-9502 21185,-12737 5404,-4346 10509,-9895 8252,-14646 -3161,-6658 -7843,-9700 -6964,-7697 880,2005 301,5764 -4687,9466 -4986,3703 -11822,14989 -11680,11501 141,-3488 17186,-17104 12142,-26599 -5045,-9495 -14444,-10946 -14444,-10946 0,0 2009,4216 1889,7934 -93,2845 -5443,19341 -8446,24890 2711,6311 2693,12159 2349,14064 -271,1508 -164,3167 402,4771z"/>
  <path class="fil0" d="M59285 101434c-7022,2874 -15333,5479 -17336,4276 2043,3291 4661,6957 9209,7344 611,-1618 1394,-3182 2333,-4683 1616,-2587 3572,-4895 5794,-6937z"/>
  <path class="fil0" d="M60931 87260c-7131,281 -16877,2816 -26193,-4511 87,3466 1,17604 11863,18132 5566,249 10822,-1210 14919,-2666 1676,-597 3158,-1193 4389,-1672 2930,-1741 6057,-3129 9297,-4216 -4278,-382 -9406,-1718 -14274,-5067z"/>
  <path class="fil0" d="M84885 68418c-191,-2403 -502,-5808 -1830,-12407 -535,2290 -1279,4243 -2251,5614l70 100 43 59 28 40 70 100 23 31 47 69 70 100 2 3 68 98 52 74 17 27 70 102 31 45 38 56 69 103 11 16 57 86 60 89 9 14 68 103 40 59 29 44 67 104 20 30 14 23 100 156 1 0 67 104 47 74 19 31 67 104 28 44 38 61 67 106 9 14 57 93 55 89 11 17 66 106 36 59 30 47 65 108 16 27 48 80 62 103 2 3 65 108 43 73 22 34 64 108 25 41 39 67 64 108 6 10 57 98 51 87 12 20 64 108 32 56 30 53 62 109 14 24 47 84 58 101 4 8 61 109 40 70 22 38 61 109 22 39 40 70 60 109 4 6 56 101 47 85 13 24 60 109 29 53 30 56 60 109 11 20 48 87 54 98 5 11 58 108 37 67 23 42 58 109 19 34 39 73 58 108 2 3 55 104 43 81 15 27 57 108 26 50 31 58 56 108 10 17 47 90z"/>
  <polygon class="fil0" points="89072,85151 89072,85151 "/>
  <polygon class="fil0" points="88935,85096 88939,85098 88936,85096 "/>
  <polygon class="fil0" points="76553,82929 76553,82929 76559,82929 76559,82929 "/>
  <polygon class="fil0" points="46885,72667 46882,72666 46882,72666 "/>
  <polygon class="fil0" points="48544,73073 48540,73072 48417,73035 48486,73056 "/>
  <polyline class="fil1" points="50070,73579 50061,73576 50051,73572 50041,73568 50033,73565 50023,73562 50013,73559 50005,73556 50004,73556 "/>
  <polyline class="fil1" points="50080,73582 50070,73579 50070,73579 "/>
  <line class="fil1" x1="50108" y1="73593" x2="50098" y2= "73590" />
  <polyline class="fil1" points="50118,73596 50108,73593 50108,73593 "/>
  <line class="fil1" x1="50137" y1="73603" x2="50131" y2= "73601" />
  <line class="fil1" x1="50175" y1="73617" x2="50165" y2= "73614" />
  <line class="fil1" x1="50204" y1="73628" x2="50185" y2= "73621" />
  <path class="fil1" d="M51778 74251c373,157 766,329 1176,518"/>
  <polygon class="fil0" points="51230,74025 51223,74022 "/>
  <polygon class="fil0" points="51238,74028 51230,74025 51238,74028 "/>
  <line class="fil1" x1="51282" y1="74046" x2="51275" y2= "74042" />
  <line class="fil1" x1="51304" y1="74054" x2="51296" y2= "74052" />
  <line class="fil1" x1="51333" y1="74067" x2="51325" y2= "74064" />
  <line class="fil1" x1="51348" y1="74073" x2="51340" y2= "74069" />
  <line class="fil1" x1="51363" y1="74079" x2="51355" y2= "74076" />
  <line class="fil1" x1="51378" y1="74084" x2="51370" y2= "74082" />
  <line class="fil1" x1="51400" y1="74094" x2="51392" y2= "74091" />
  <line class="fil1" x1="51422" y1="74103" x2="51415" y2= "74101" />
  <line class="fil1" x1="51452" y1="74116" x2="51445" y2= "74112" />
  <polyline class="fil1" points="51497,74134 51489,74131 51489,74131 "/>
  <polyline class="fil1" points="51504,74137 51497,74134 51497,74134 51489,74131 51481,74128 "/>
  <path class="fil1" d="M52954 74769c-168,-76 -332,-151 -492,-222l-9 -3 -20 -10c-156,-69 -310,-136 -460,-200"/>
  <polygon class="fil0" points="52975,74779 52954,74769 "/>
  <polygon class="fil0" points="52996,74790 52975,74779 "/>
  <polygon class="fil0" points="53281,74922 53273,74918 "/>
  <polygon class="fil0" points="53290,74926 53281,74922 53290,74926 "/>
  <polygon class="fil0" points="55366,75963 55356,75958 "/>
  <path class="fil0" d="M55969 76287c-205,-112 -405,-220 -603,-324 198,104 399,212 603,324z"/>
  <polygon class="fil0" points="55979,76293 55969,76287 "/>
  <polygon class="fil0" points="55999,76303 55979,76293 "/>
  <polyline class="fil1" points="68938,83128 68954,83135 68969,83140 68984,83147 68999,83153 69015,83159 69015,83158 "/>
  <polygon class="fil0" points="68051,82767 68036,82762 "/>
  <polygon class="fil0" points="68067,82774 68051,82767 68066,82774 "/>
  <line class="fil1" x1="68203" y1="82831" x2="68198" y2= "82829" />
  <polyline class="fil1" points="68265,82856 68249,82849 68233,82843 68233,82843 68249,82849 68249,82849 "/>
  <polyline class="fil1" points="68360,82894 68355,82892 68355,82893 "/>
  <polygon class="fil0" points="68386,82905 68371,82899 68371,82900 68386,82905 "/>
  <line class="fil1" x1="68416" y1="82918" x2="68401" y2= "82912" />
  <polygon class="fil0" points="68463,82936 68448,82930 68448,82930 68463,82936 "/>
  <line class="fil1" x1="68523" y1="82961" x2="68493" y2= "82949" />
  <polygon class="fil0" points="68646,83011 68616,82999 68616,82999 68601,82992 68601,82992 68584,82986 68569,82980 68554,82974 68539,82968 68539,82968 68554,82974 68554,82974 68584,82986 68584,82986 68601,82992 68616,82999 68631,83005 68646,83011 "/>
  <line class="fil1" x1="68677" y1="83023" x2="68661" y2= "83017" />
  <polyline class="fil1" points="68830,83085 68800,83072 68784,83067 68784,83067 68754,83054 68754,83055 68739,83047 68707,83036 68707,83036 68692,83029 68687,83027 "/>
  <polyline class="fil1" points="68846,83092 68830,83085 68830,83085 68815,83079 68800,83073 68800,83072 68784,83067 68769,83060 68754,83054 68739,83047 68739,83048 68722,83042 68707,83036 68692,83029 68692,83030 "/>
  <polyline class="fil1" points="68923,83122 68908,83115 68907,83116 "/>
  <polyline class="fil1" points="69015,83158 68923,83122 68923,83123 68908,83115 68851,83094 "/>
  <path class="fil0" d="M45957 72170c-4244,-1440 -8196,-3837 -10655,-7541 -3705,-5914 -3263,13966 -316,15780 2361,1453 12587,5900 23721,5160 -889,-745 -1763,-1567 -2615,-2471 4936,251 8268,251 10712,168l-69 -29 -51 -23 -98 -42 -23 -10 -120 -52 -6 -3 -113 -48 -36 -16 -84 -37 -66 -29 -54 -24 -95 -42 -25 -11 -121 -53 -3 -2 -116 -52 -32 -15 -87 -39 -61 -28 -58 -26 -90 -41 -29 -13 -118 -55 -1 0 -118 -55 -30 -14 -89 -41 -59 -27 -60 -28 -87 -42 -31 -14 -117 -55 -2 -1 -118 -56 -27 -13 -92 -44 -56 -26 -64 -30 -84 -41 -34 -16 -113 -55 -4 -2 -118 -58 -25 -12 -94 -45 -53 -26 -66 -32 -81 -41 -37 -18 -110 -54 -8 -4 -118 -59 -20 -10 -96 -50 -50 -25 -68 -34 -78 -40 -40 -19 -106 -55 -11 -5 -116 -60 -18 -10 -99 -52 -45 -24 -70 -37 -74 -39 -42 -23 -102 -55 -14 -6 -115 -61 -15 -9 -100 -54 -43 -24 -72 -39 -70 -39 -44 -24 -99 -54 -16 -10 -114 -62 -12 -6 -102 -58 -39 -22 -74 -42 -67 -38 -47 -26 -94 -54 -19 -11 -113 -65 -9 -5 -103 -60 -37 -20 -75 -44 -64 -38 -48 -28 -90 -53 -22 -13 -111 -67 -6 -3 -106 -64 -32 -19 -79 -47 -59 -36 -51 -31 -86 -53 -24 -15 -110 -68 -2 -1 -107 -67 -30 -18 -80 -50 -55 -36 -53 -33 -82 -52 -27 -17 -108 -69c-2902,-1873 -6057,-3611 -9297,-4830 -977,-367 -2304,-836 -3348,-993l-2310 -336 1522 -1092z"/>
  <path class="fil0" d="M77828 58003c2331,-6167 5724,-16807 -1538,-29580 -4059,-6343 -17984,-4133 -13681,-2677 9663,3270 5929,17749 10080,25065l68 118 13 23 56 96 26 44 42 74 40 67 30 52 52 88 18 29 66 111 4 8 71 117 9 15 61 102 23 37 50 81 36 59 37 58 50 81 24 37 64 101 9 15 74 116 4 8 69 109 18 29 56 87 33 51 42 66 46 72 29 43 61 95 14 22 76 115 0 0 76 115 14 22 62 94 29 42 48 72 43 65 34 51 58 85 20 29 73 107 5 8 79 114 10 14 70 99 25 36 54 79 40 56 41 57 55 78 25 36 71 98 10 15 81 113 5 6 76 106 20 28 61 84 36 48 98 134 31 42 67 90 15 22 83 111 0 0 84 111 15 20 69 90 31 41 52 70 47 62 38 48 62 82 22 28 80 102 5 8 85 110 11 13 74 97 27 33 59 75 42 55 43 54 59 75 27 33 75 95 11 14 87 109 5 6 81 101 22 27 66 81 38 47 50 60 55 67 33 41 70 86 17 20 87 107 1 0 87 107 17 20 71 86 33 40 56 66 50 59 39 47 67 79 22 27 84 98 5 8 89 104z"/>
  <line class="fil1" x1="63051" y1="54636" x2="63051" y2= "54636" />
  <polyline class="fil1" points="63074,54592 63075,54592 63076,54590 "/>
  <polyline class="fil1" points="63051,54636 63051,54636 63052,54634 "/>
  <polyline class="fil1" points="63025,55576 63011,55443 63011,55443 63001,55318 63001,55318 62994,55203 62994,55203 "/>
  <polyline class="fil1" points="63088,56018 63064,55863 63063,55863 63043,55716 63043,55716 "/>
  <polyline class="fil1" points="63148,56351 63117,56181 63116,56181 "/>
  <polyline class="fil1" points="63358,57306 63309,57101 63309,57101 63263,56904 63263,56904 63221,56713 63221,56713 "/>
  <polyline class="fil1" points="63465,57731 63410,57516 63410,57516 "/>
  <polyline class="fil1" points="63791,58899 63720,58654 63719,58654 63651,58415 63651,58415 63586,58181 63585,58181 "/>
  <polyline class="fil1" points="63944,59402 63867,59148 63867,59148 "/>
  <polyline class="fil1" points="64110,59924 64026,59661 64025,59661 "/>
  <polyline class="fil1" points="64477,61022 64381,60741 64381,60741 64288,60465 64288,60465 64197,60192 64197,60192 "/>
  <polyline class="fil1" points="65733,64317 65605,64004 65605,64004 65479,63694 65479,63694 65357,63386 65356,63386 65237,63080 65237,63080 65119,62776 65119,62776 65005,62476 65005,62476 "/>
  <polyline class="fil1" points="66857,66875 66857,66875 66857,66875 66707,66552 66707,66552 66561,66229 66561,66229 66416,65907 66416,65907 66274,65586 66274,65586 66135,65267 66135,65267 65998,64948 65998,64948 65865,64632 65865,64632 "/>
  <path class="fil0" d="M34686 24381c-184,3029 -2342,14809 1715,18605 4057,3796 17977,14095 17185,15557 -793,1463 -13700,-360 -16988,-8395 -2591,-456 112,1611 -921,4023l-1035 2412c0,0 -710,7371 8122,10201 4645,1489 10259,1688 14755,2061l-17 -10 -15 -9 -32 -18 -24 -13 -9 -5 -33 -18 -29 -17 -3 -2 -32 -18 -33 -18 -2 -1 -30 -17 -32 -18 -10 -5 -24 -13 -32 -18 -15 -9 -18 -10 -32 -18 -22 -12 -12 -6 -32 -18 -28 -15 -4 -3 -33 -18 -32 -18 -1 0 -32 -18 -32 -17 -8 -4 -26 -14 -32 -18 -14 -8 -19 -11 -32 -18 -19 -10 -14 -8 -32 -18 -26 -14 -8 -4 -32 -17 -32 -18 -1 0 -33 -18 -32 -17 -5 -3 -28 -15 -32 -18 -12 -6 -22 -11 -32 -18 -18 -10 -15 -9 -33 -17 -24 -13 -9 -5 -33 -17 -30 -17 -2 -1 -33 -17 -33 -18 -3 -2 -30 -15 -32 -18 -10 -5 -24 -12 -32 -18 -17 -9 -16 -9 -33 -17 -23 -13 -11 -5 -32 -17 -29 -16 -4 -2 -33 -17 -32 -18 -2 -1 -31 -16 -33 -17 -8 -4 -25 -14 -33 -17 -14 -8 -19 -11 -32 -17 -22 -11 -12 -6 -33 -18 -27 -14 -6 -3 -33 -17 -32 -18c-1128,-599 -2563,-1290 -3551,-2084 -372,-297 -614,-722 -508,-1214 210,-988 1447,-1037 2244,-1042 1130,-6 2320,129 3438,283 2704,374 5461,976 8117,1735 -930,-2164 -1757,-4413 -2393,-6649 -293,-1029 -1448,-4501 55,-5078 470,-181 926,-8 1279,313 938,853 1845,2162 2612,3182 1051,1398 2121,2790 3334,4055 85,88 171,177 259,265l-34 -110 -12 -38 -22 -72 -24 -75 -10 -34 -33 -110 -1 -4 -31 -106 -13 -43 -20 -67 -24 -82 -9 -29 -31 -111 -3 -9 -29 -102 -14 -47 -17 -64 -25 -86 -6 -25 -31 -111 -4 -14 -27 -98 -14 -52 -16 -59 -25 -92 -5 -20 -30 -111 -5 -19 -25 -93 -15 -58 -14 -54 -25 -97 -4 -15 -28 -112 -6 -24 -23 -89 -15 -61 -13 -51 -25 -101 -2 -12 -28 -112 -6 -28 -20 -85 -26 -112 -26 -107 -1 -6 -26 -113 -26 -113 -16 -72 -9 -41 -25 -111 -1 -2 -24 -113 -9 -38 -16 -75 -16 -76 -8 -37 -24 -113 0 -3 -23 -110 -9 -43 -14 -71 -16 -82 -6 -31 -22 -113 -2 -9 -19 -106c-29,-151 -56,-303 -82,-453l-10 -53 -10 -61 -16 -92 -3 -22 -18 -114c-25,-152 -47,-303 -70,-453l-3 -23 -13 -92 -9 -61 -8 -52 -14 -101 -1 -12 -15 -114 -14 -113 -9 -66 -5 -47 -14 -114 -13 -113 -4 -31 -9 -82 -24 -226 -11 -113 -11 -113c-464,986 -1122,1482 -2046,1218 -4283,-1227 812,-18837 -8367,-27952 -4052,-4023 -8427,-5172 -12366,-5172 -4982,-1 -9266,1839 -11319,2028z"/>
  <path class="fil0" d="M227251 252772c-755,4889 1351,9414 1351,9414l3225 -17783c0,0 -3822,3478 -4576,8368zm6358 -6789l9 0c1080,0 3024,2299 4630,5068 1888,3253 768,6784 768,6784 0,0 -958,-2437 -3474,-6109 -2518,-3671 -2406,-5521 -2406,-5521 127,-149 288,-220 474,-222zm-12996 8145c1589,353 8093,-9147 8521,-9941 429,-794 926,-2476 926,-2476 -131,-262 -331,-381 -585,-381 -2191,1 -8397,8918 -8863,12799zm12986 -11485l37 0c765,2 1693,81 2714,198 3632,413 6969,1390 7364,2365 393,977 -11644,-452 -11644,-452 -1279,-1617 -402,-2111 1528,-2111zm-10926 -277c-2173,3025 -3490,7941 -3524,9100 -34,1159 3696,-3624 4003,-4500 306,-876 2837,-4759 3808,-6399 971,-1639 672,-3027 672,-3027 -118,-214 -274,-313 -458,-313 -948,0 -2681,2606 -4500,5140zm7062 -1183c0,0 5011,1083 8458,1348 3446,267 6852,1191 6852,1191 0,0 -1825,-2295 -5995,-3278 -2195,-519 -5108,-1085 -7139,-1085 -1828,0 -2942,458 -2175,1824zm-2699 -4759c0,0 3614,1815 8085,2200 4470,382 11714,1050 9813,-151 -1900,-1200 -7447,-2490 -11171,-2486 -1084,2 -2166,-78 -3139,-158 -963,-80 -1819,-159 -2462,-159 -938,0 -1423,169 -1126,755zm-2118 -4296c0,0 2944,1378 6033,1621 3088,242 12748,279 10142,-1244 -2607,-1524 -10308,-1128 -11313,-1351 -367,-82 -1202,-162 -2083,-162 -1531,0 -3200,241 -2779,1135zm-1981 -4272c0,0 2839,1190 6784,1508 3942,318 9773,837 10703,1156 931,318 -3641,-3367 -9142,-3868 -2119,-193 -3977,-339 -5409,-339 -2289,0 -3492,375 -2935,1544zm-2132 -4198c0,0 2738,1060 4845,1079 2108,17 8533,613 10828,290 2294,-323 6484,-1170 -853,-2413 -3479,-589 -7328,-1039 -10252,-1041 -3244,0 -5353,554 -4567,2084zm-2657 -4987c0,0 1828,1349 4864,1691 3035,341 16731,722 17260,1340 531,617 1349,-2814 -10417,-3875 -3398,-288 -6168,-478 -8170,-478 -2755,0 -4055,361 -3537,1322zm-2135 -4315c0,0 4217,1274 10413,1652 6195,377 10326,796 11278,1509 953,711 -340,-2966 -10221,-4387 -3326,-478 -5793,-685 -7575,-685 -3509,0 -4359,802 -3895,1911zm657 -4259c1449,281 3098,558 4473,678 3271,283 11561,1239 12356,1915 794,676 -1988,-3054 -9908,-4427 -1889,-326 -3521,-519 -4899,-602 -661,824 -1334,1638 -2023,2437zm2627 -3188l626 107c5252,876 9346,1204 10220,2273 874,1071 -985,-2566 -4839,-3979 -939,-345 -2384,-726 -4007,-1061 -652,898 -1316,1788 -2000,2661zm-11012 19075c-73,169 -141,343 -203,519 958,-212 1918,-359 2833,-408 242,-620 464,-1201 643,-1711 918,-2629 4532,-9496 4532,-9496 -305,-331 -624,-481 -951,-481 -2426,1 -5361,8169 -6854,11577zm-601 2234l0 1 83 -22 -83 20zm7964 -531c1218,-2970 3006,-8072 3006,-8072 -174,-329 -396,-476 -655,-476 -1256,0 -3355,3522 -4988,7062 1073,199 2065,652 2637,1486zm-1072 11787l0 0 -13 1 13 -1zm3233 -6385c136,-262 274,-530 411,-806 2100,-4199 3306,-7235 3306,-7235 -195,-385 -441,-559 -728,-559 -1081,0 -2761,2466 -4596,5558 124,993 470,1592 1189,2498 149,186 288,367 418,544zm5373 -3808l8 0c170,1 334,42 492,128 0,0 -1164,3786 -2431,6487 -1039,2212 -4538,7925 -5677,8690 3,-422 -57,-860 -164,-1299 171,-667 446,-1551 797,-2552 1438,-405 2681,-1149 3087,-2477 106,-349 141,-717 108,-1080 -95,-1017 -303,-1807 -644,-2539 1453,-2924 3100,-5358 4424,-5358zm-6235 9467l0 0 28 -17 -28 17zm828 -1929l-9 -50 1 -1 8 51zm-2200 12215c-424,1907 3867,-3891 6126,-7300 2259,-3409 3893,-8169 3893,-8169 -114,-227 -271,-333 -464,-333 -2226,1 -9163,14048 -9554,15802z"/>
  <path class="fil2" d="M63681 55789c176,1063 619,2625 755,3075 792,2630 1830,5257 2990,7745l608 1303 -1369 -439c-2982,-959 -6123,-1717 -9220,-2190 -553,-84 -2589,-360 -3843,-367 814,512 1785,987 2549,1392 1602,851 3194,1721 4685,2759 1093,759 2145,1616 3038,2606l1295 1434 -1890 -399c-3915,-825 -8467,-1370 -12453,-693 -522,88 -1283,252 -2002,476 614,190 1218,406 1736,599 3377,1259 6662,3063 9684,5013 2730,1760 5860,3214 8876,4421 261,-16 522,-36 783,-54 1269,-95 2550,-226 3828,-226 53,1 -11,0 52,0 240,1 479,2 715,5l11 0c232,3 465,6 697,12l14 0c222,5 448,11 670,17l33 1c219,6 433,14 640,23l17 0c636,25 1276,59 1911,102l40 3c186,13 374,26 562,41l62 5c176,14 351,29 528,44l51 4c171,16 344,32 517,50l76 8c162,16 324,33 486,52l58 6c162,18 322,37 483,56l59 8c158,19 317,40 475,61l54 6c146,20 292,40 437,61l102 15c136,20 271,40 407,61l86 14c135,22 270,44 406,67l73 13c132,23 265,45 396,70l74 13c127,24 254,47 381,72l74 15c120,23 238,47 358,72l100 22c113,24 227,47 341,73l84 19c110,25 220,50 330,75l93 22c99,24 199,48 299,73l115 29c93,23 184,46 276,71l120 32c86,23 171,46 257,70l127 36 242 70 126 37 225 68 132 42 214 69 83 27c-1677,-3810 -2651,-8186 -3298,-12208 -41,-251 -76,-503 -108,-756 -1805,-3577 -4102,-7835 -6757,-10804 -2397,-2681 -4691,-5645 -6462,-8784 -271,-481 -580,-1045 -863,-1622 -108,746 -151,1523 -157,2052 -47,4043 1201,8453 2627,12193l688 1804 -1618 -1055c-1118,-728 -2128,-1633 -3049,-2595 -1256,-1312 -2364,-2748 -3454,-4198 -518,-688 -1136,-1572 -1769,-2295z"/>
  <path class="fil0" d="M128669 237389c1914,502 3856,940 5820,1314l0 5c-1964,-374 -3906,-814 -5820,-1320z"/>
  <path class="fil0" d="M131596 264158c-3239,9135 -2807,14043 -2807,14043 0,0 -4059,-3531 -4361,-15949 -2751,3983 -3438,10082 -4502,12323 -811,1711 -2030,-6106 -1370,-14479 -5984,4724 -11957,7650 -11109,6119 1203,-2169 5763,-6278 7400,-10832 -10275,6980 -15508,5735 -15508,5735 0,0 4242,-2504 9787,-10455 155,-223 320,-448 492,-675 3938,-1520 5763,-1890 7680,-2683 6041,-2498 9771,-4857 12165,-6886l-8 43 0 4 -1 4 0 3 -1 4 -1 4 0 4 -1 3 0 4 -1 4 0 3 -1 4 0 4 -1 4 0 3 -1 4 -1 4 0 4 -1 3 0 4 -1 4 0 3 -1 4 0 4 -1 3 -1 4 0 4 -1 4 0 4 -1 3 -1 4 0 4 -1 4 0 3 -1 4 0 4 -1 3 0 4 -1 4 0 4 0 0 -1 4 0 0 0 3 -1 0 0 4 0 0 -1 4 0 0 0 4 0 0 -1 3 0 0 0 4 0 0 -1 4 0 0 0 4 -1 3 0 4 -1 4 0 4 -1 4 -1 4 0 3 -1 4 0 4 -1 3 0 0 0 5 0 0 -1 3 0 4 -1 4 0 4 -1 4 -20 154 -19 149 -1 9 -19 159 0 3 -17 152 -1 8 -17 165 -17 164 0 2 -15 170 -1 13 -12 135 -17 221 -9 134 -14 229 -8 127 -12 247 -5 127c-3,86 -6,173 -9,261l-3 123c-2,92 -4,184 -5,277l-2 118c-1,99 -2,199 -2,301l0 95c0,109 1,219 2,331l1 87c1,111 4,225 6,339l3 102c2,117 6,236 11,357l3 76c4,125 11,251 17,379l3 75c8,130 15,262 24,395l4 74c9,132 18,267 28,404l6 85c10,132 22,268 33,404l9 100c13,143 26,288 41,434l5 54c15,155 31,311 48,470l8 59c17,156 36,315 55,475l8 59c18,157 40,317 60,477l11 78c22,167 45,336 70,507l8 48c25,171 50,346 78,520l9 64c29,180 58,363 88,546l6 40c98,598 210,1217 335,1858l2 5c40,211 83,424 127,641l3 13 3 19c44,213 89,430 137,647l0 4 3 13c47,222 97,446 148,673l2 6c51,229 103,462 158,696 4,20 10,39 14,58 269,1137 630,2182 1086,3620 178,563 371,1186 577,1899 -263,964 -543,1871 -837,2701z"/>
  <path class="fil0" d="M75924 235549c1627,902 2756,820 3878,738 1217,-88 2423,-178 4243,990 1996,1280 4191,-2749 5268,-6718 1076,3969 3272,7998 5268,6717 1818,-1167 3026,-1077 4242,-989 1121,82 2251,164 3879,-738 1370,-759 473,-3434 -1494,-6095 2512,94 4681,-330 5510,-1223 -4384,-2586 -8521,-5544 -12369,-8833l-112 45 59 -89c-3140,-2690 -6085,-5598 -8814,-8702 -352,1938 -42,4807 608,7254 -2866,-2806 -7466,-4790 -10126,-4790 -1080,0 -1842,329 -2037,1062 -990,3750 1632,4358 315,8297 -679,2024 2857,3152 6571,3409 -4002,3262 -6908,8546 -4887,9664zm13316 -13693c814,0 1475,660 1475,1475 0,814 -660,1475 -1475,1475 -814,0 -1475,-660 -1475,-1475 0,-814 660,-1475 1475,-1475z"/>
  <path class="fil0" d="M185633 245903c1684,932 2851,848 4011,763 1258,-92 2504,-183 4386,1023 2064,1324 4333,-2842 5447,-6947 1114,4105 3384,8270 5448,6947 1880,-1206 3128,-1115 4385,-1023 1160,85 2328,169 4011,-763 1416,-785 489,-3550 -1545,-6302 3412,127 6213,-667 6063,-2276 -373,-3994 -3136,-3650 -3258,-7943 -36,-1243 -1268,-1734 -2998,-1734 -2029,0 -4744,675 -7015,1604 1957,-2895 3019,-7083 2987,-10055 -3574,3077 -7400,5869 -11445,8340l33 124 -90 -87c-3820,2330 -7834,4369 -12011,6097 823,1293 3678,2035 6644,2240 -4137,3373 -7142,8836 -5054,9993zm15056 -13405c813,0 1474,660 1474,1475 0,814 -660,1475 -1474,1475 -814,0 -1475,-660 -1475,-1475 0,-814 660,-1475 1475,-1475z"/>
  <g id="_495170944">
   <path class="fil3" d="M132473 105985l4164 0 1812 -7479 4079 0 -4504 18774 -4078 0 2265 -9437 -4163 0 -2265 9437 -4079 0 4107 -17067c-1246,452 -2219,1146 -2918,2083 -698,937 -1047,2067 -1047,3389 0,301 18,552 56,753 38,200 75,364 113,489 39,126 81,226 128,302 47,75 80,138 99,189 -945,0 -1686,-172 -2223,-515 -537,-344 -808,-941 -808,-1795 0,-886 298,-1732 893,-2536 595,-802 1364,-1509 2308,-2120 944,-611 2006,-1097 3186,-1456 1179,-360 2355,-540 3527,-540 207,0 405,4 595,13 189,9 377,20 566,38l-1813 7479zm16683 -1380c2379,0 3588,1313 3626,3940 75,17 179,25 311,25 321,0 674,-41 1062,-125 387,-84 774,-197 1161,-339l42 -15 568 -2357 -935 0 226 -1003 935 0 850 -3464 4191 -502 -963 3966 1700 0 -227 1003 -1699 0 -1813 7530c-75,284 -113,552 -113,802 0,351 94,595 283,728 189,134 481,200 878,200 547,0 1057,-209 1530,-627 256,-227 474,-487 653,-779l-2 -150c0,-486 57,-1037 170,-1657 113,-619 288,-1255 525,-1908 236,-653 552,-1293 948,-1919 396,-628 879,-1192 1444,-1694 567,-502 1228,-904 1983,-1205 755,-301 1615,-451 2578,-451 624,0 1137,67 1544,200 406,135 727,315 963,540 236,226 396,481 481,766 85,284 127,586 127,904 0,702 -179,1364 -537,1982 -359,619 -840,1159 -1444,1620 -604,460 -1298,827 -2082,1104 -783,276 -1601,438 -2449,489 -19,184 -33,360 -43,527 -10,168 -14,326 -14,477 0,853 170,1419 509,1694 340,276 850,414 1530,414 567,0 1077,-67 1530,-200 453,-134 878,-313 1275,-540 395,-226 773,-493 1132,-804 359,-309 717,-640 1076,-991l1 0 3030 -12575 4191 -502 -3257 13554c-74,284 -113,552 -113,802 0,351 95,595 284,728 189,134 481,200 878,200 547,0 1057,-209 1528,-627 473,-418 812,-946 1020,-1581l1190 0c-397,1020 -860,1837 -1388,2447 -529,611 -1066,1079 -1615,1406 -547,326 -1080,540 -1600,640 -520,100 -968,151 -1345,151 -850,0 -1567,-239 -2153,-716 -585,-476 -878,-1242 -878,-2296l2 -114 -172 190c-509,553 -1086,1046 -1728,1481 -642,435 -1350,786 -2124,1055 -774,267 -1633,402 -2578,402 -1340,0 -2412,-310 -3214,-929 -436,-337 -753,-792 -952,-1365l-82 97c-529,611 -1066,1079 -1615,1406 -547,326 -1080,540 -1600,640 -519,100 -967,151 -1345,151 -850,0 -1567,-239 -2152,-716 -586,-476 -879,-1242 -879,-2296 0,-451 76,-995 227,-1631l853 -3540c-738,263 -1523,455 -2355,577 -113,1172 -368,2225 -765,3163 -396,937 -896,1736 -1500,2397 -604,661 -1294,1168 -2068,1519 -773,352 -1595,528 -2463,528 -661,0 -1271,-71 -1828,-213 -556,-142 -1033,-373 -1429,-690 -396,-319 -709,-728 -935,-1230 -227,-502 -340,-1113 -340,-1832 0,-485 57,-1037 170,-1657 113,-618 297,-1259 553,-1921 254,-660 581,-1304 977,-1931 396,-628 882,-1192 1458,-1694 576,-502 1242,-904 1997,-1205 755,-301 1623,-451 2606,-451zm-2096 10466c340,0 685,-129 1034,-389 349,-260 670,-618 963,-1079 292,-460 553,-1008 779,-1644 226,-636 396,-1322 509,-2057 -302,-68 -505,-197 -609,-390 -103,-193 -156,-414 -156,-665 0,-352 81,-640 241,-866 160,-226 373,-380 638,-464 -39,-519 -137,-883 -298,-1092 -159,-209 -420,-313 -779,-313 -509,0 -991,247 -1444,740 -453,494 -849,1097 -1189,1807 -339,711 -613,1464 -821,2259 -208,795 -311,1502 -311,2121 0,418 23,757 70,1017 47,260 128,464 241,614 113,151 264,255 452,315 190,58 416,87 680,87zm22941 -8107c0,-318 -52,-569 -155,-753 -104,-184 -288,-276 -552,-276 -360,0 -709,151 -1048,451 -340,302 -661,690 -964,1168 -302,477 -571,1016 -807,1618 -236,603 -430,1214 -581,1833 547,-33 1072,-168 1572,-402 501,-235 940,-536 1317,-904 377,-368 675,-791 892,-1268 218,-476 325,-966 325,-1468z"/>
   <path class="fil3" d="M120316 184901l-3430 13938c-335,1409 -774,2687 -1318,3837 -543,1149 -1219,2119 -2028,2909 -809,792 -1764,1402 -2865,1835 -1102,432 -2378,648 -3828,648 -1255,0 -2293,-148 -3116,-445 -823,-296 -1485,-680 -1987,-1149 -502,-470 -857,-1007 -1066,-1612 -209,-605 -313,-1229 -313,-1871 0,-643 97,-1267 293,-1873 195,-605 516,-1148 962,-1631 446,-481 1024,-870 1735,-1168 712,-296 1583,-445 2615,-445 279,0 627,25 1045,74 419,50 816,155 1192,316 377,160 698,407 962,741 265,334 399,784 399,1353 0,445 -84,939 -251,1483 -307,-396 -698,-655 -1172,-779 -474,-124 -892,-185 -1255,-185 -1032,0 -1792,296 -2279,890 -489,592 -732,1247 -732,1965 0,642 217,1217 648,1723 432,506 1164,760 2196,760 390,0 773,-56 1150,-167 376,-112 731,-334 1066,-668 335,-334 648,-797 941,-1390 293,-594 564,-1372 815,-2335l2092 -8193c-865,989 -1827,1717 -2887,2187 -1060,470 -2217,704 -3472,704 -1199,0 -2294,-210 -3284,-630 -990,-420 -1847,-1019 -2572,-1798 -725,-779 -1290,-1736 -1694,-2873 -404,-1136 -606,-2434 -606,-3893 0,-1877 348,-3694 1046,-5448 697,-1755 1694,-3306 2991,-4652 1296,-1348 2872,-2429 4727,-3244 1855,-815 3939,-1223 6254,-1223 976,0 1938,86 2886,260 949,172 1792,457 2531,852 739,395 1331,921 1778,1576 446,655 669,1464 669,2428 0,865 -223,1624 -669,2279 -447,655 -1200,982 -2259,982 -168,0 -377,-12 -628,-37 -251,-25 -508,-74 -773,-149 -265,-74 -530,-172 -795,-296 -265,-124 -495,-284 -690,-481 251,-74 488,-229 711,-464 223,-235 419,-506 586,-815 167,-309 299,-630 397,-964 97,-333 146,-636 146,-908 0,-123 -22,-308 -64,-556 -41,-247 -160,-501 -355,-759 -195,-260 -488,-489 -878,-686 -391,-198 -935,-296 -1632,-296 -1311,0 -2544,371 -3702,1112 -1157,741 -2168,1712 -3032,2910 -865,1198 -1548,2545 -2050,4040 -502,1495 -753,2984 -753,4467 0,1927 390,3417 1171,4467 781,1050 1715,1575 2803,1575 586,0 1185,-160 1799,-481 614,-322 1220,-815 1819,-1483 600,-667 1164,-1520 1694,-2557 530,-1038 990,-2286 1381,-3744l4936 37z"/>
   <path class="fil3" d="M139274 177632l-2607 10759c-96,359 -143,696 -143,1013 0,443 120,749 358,918 238,168 608,253 1106,253 690,0 1280,-264 1768,-792 484,-522 856,-1179 1119,-1972l2434 -10178 5141 0 -500 1994c692,-591 1411,-1098 2161,-1520 750,-421 1482,-632 2196,-632 809,0 1423,242 1839,728 417,485 625,1033 625,1645 0,274 -54,548 -160,823 -107,274 -267,522 -481,743 -215,222 -483,402 -804,537 -322,138 -697,207 -1126,207 -500,0 -839,-106 -1018,-317 -178,-211 -303,-438 -374,-681 -72,-242 -138,-469 -197,-681 -59,-210 -220,-316 -481,-316 -452,0 -881,116 -1286,348 -404,233 -844,537 -1322,918l-2856 12024 -5142 0 441 -1839c-399,382 -801,694 -1209,937 -655,390 -1292,638 -1910,743 -619,106 -1167,158 -1643,158 -977,0 -1768,-233 -2375,-696 -606,-464 -982,-1149 -1125,-2057 -262,359 -571,717 -929,1076 -357,359 -756,674 -1197,949 -439,275 -922,495 -1446,665 -523,169 -1107,253 -1750,253 -618,0 -1207,-89 -1768,-268 -559,-180 -1064,-470 -1517,-870 -452,-401 -810,-923 -1072,-1567 -262,-643 -392,-1439 -392,-2388 0,-717 83,-1488 249,-2310 167,-822 418,-1645 751,-2469 333,-822 750,-1612 1249,-2372 500,-759 1094,-1429 1785,-2010 692,-580 1458,-1044 2304,-1392 844,-349 1791,-522 2838,-522 285,0 589,15 910,47 322,31 619,106 893,221 274,116 513,285 714,506 203,223 339,513 410,870l358 -1486 5178 0zm-7356 1803c-762,0 -1453,311 -2071,934 -618,623 -1143,1381 -1570,2278 -429,896 -763,1846 -1001,2848 -237,1002 -357,1872 -357,2610 0,612 65,1081 196,1409 131,326 287,570 464,727 179,158 368,253 572,285 201,31 387,47 553,47 262,0 542,-58 839,-174 297,-116 589,-290 876,-522 285,-232 535,-521 750,-869 214,-349 381,-755 500,-1218l1714 -7151c0,-85 -30,-196 -89,-333 -59,-137 -143,-269 -250,-395 -108,-126 -250,-238 -429,-333 -178,-95 -410,-142 -696,-142zm40902 -7455l-3943 16410c-96,359 -143,696 -143,1013 0,443 120,749 357,918 239,168 608,253 1107,253 690,0 1280,-264 1768,-792 251,-271 473,-580 665,-923 -2,-81 -3,-164 -3,-248 0,-611 71,-1308 214,-2088 142,-781 363,-1582 660,-2405 297,-823 696,-1630 1196,-2421 500,-791 1107,-1503 1821,-2135 714,-633 1548,-1140 2500,-1520 952,-379 2035,-569 3249,-569 785,0 1435,85 1946,253 512,169 917,395 1214,680 297,285 500,606 608,965 107,359 160,739 160,1140 0,886 -226,1719 -679,2500 -452,780 -1059,1461 -1821,2041 -762,580 -1636,1044 -2624,1392 -988,348 -2018,554 -3088,617 -25,232 -42,453 -54,665 -12,211 -18,411 -18,601 0,1076 214,1788 643,2136 428,348 1071,522 1928,522 714,0 1356,-85 1928,-253 572,-169 1107,-396 1607,-681 500,-285 976,-623 1428,-1013 451,-390 903,-806 1354,-1247l2430 -10160 5142 0 -393 1645c762,-759 1512,-1244 2250,-1455 738,-210 1381,-316 1928,-316 1143,0 2090,279 2839,838 750,558 1125,1471 1125,2737 0,632 -89,1334 -267,2104 -179,770 -376,1531 -590,2278 -214,750 -410,1456 -588,2120 -179,665 -268,1218 -268,1662 0,401 101,722 304,965 201,242 576,364 1125,364 381,0 720,-69 1018,-206 297,-137 559,-327 785,-570 226,-242 434,-533 625,-870 191,-337 381,-717 571,-1139l1500 0c-501,1308 -1036,2346 -1607,3116 -572,770 -1155,1355 -1750,1757 -595,401 -1172,665 -1731,791 -560,126 -1077,190 -1553,190 -786,0 -1447,-100 -1982,-301 -536,-200 -971,-469 -1303,-807 -334,-337 -572,-723 -714,-1155 -143,-433 -214,-870 -214,-1313 0,-528 83,-1156 250,-1883 167,-728 351,-1462 554,-2200 203,-738 387,-1461 554,-2167 166,-708 250,-1313 250,-1820 0,-1075 -429,-1612 -1286,-1612 -643,0 -1202,284 -1678,854 -476,569 -844,1255 -1106,2056l-2429 10158 -5141 0 834 -3489c-636,686 -1355,1301 -2155,1843 -809,548 -1702,992 -2678,1329 -976,337 -2060,506 -3250,506 -1690,0 -3041,-390 -4053,-1170 -544,-420 -940,-987 -1192,-1699l-57 68c-630,750 -1273,1318 -1928,1709 -655,390 -1292,638 -1911,743 -618,106 -1165,158 -1643,158 -975,0 -1767,-233 -2374,-696 -606,-464 -981,-1149 -1125,-2057 -262,359 -571,717 -929,1076 -358,359 -756,674 -1197,949 -439,275 -922,495 -1446,665 -523,169 -1107,253 -1750,253 -618,0 -1207,-89 -1768,-268 -559,-180 -1065,-470 -1518,-870 -451,-401 -809,-923 -1071,-1567 -262,-643 -393,-1439 -393,-2388 0,-717 84,-1488 250,-2310 167,-822 417,-1645 751,-2469 333,-822 750,-1612 1249,-2372 500,-759 1094,-1429 1786,-2010 689,-580 1457,-1044 2302,-1392 846,-349 1792,-522 2839,-522 285,0 589,15 911,47 321,31 625,106 910,221 285,116 529,285 731,506 203,223 327,523 376,903l1739 -7171 5133 0zm-8693 7455c-763,0 -1452,311 -2071,934 -619,623 -1143,1381 -1572,2278 -429,896 -762,1846 -1000,2848 -238,1002 -357,1872 -357,2610 0,612 66,1081 196,1409 131,326 285,570 464,727 179,158 368,253 572,285 201,31 387,47 553,47 262,0 542,-58 839,-174 298,-116 589,-290 875,-522 285,-232 536,-521 751,-869 214,-349 381,-755 500,-1218l1714 -7120c0,-191 -101,-443 -304,-759 -203,-317 -589,-475 -1160,-475zm19318 1013c0,-401 -65,-717 -196,-949 -130,-233 -363,-348 -697,-348 -452,0 -892,190 -1321,570 -429,379 -833,870 -1214,1471 -381,601 -721,1281 -1018,2041 -297,758 -541,1528 -731,2309 690,-42 1351,-211 1982,-506 630,-295 1184,-675 1660,-1140 476,-464 851,-996 1125,-1597 275,-602 410,-1218 410,-1852z"/>
   <path class="fil3" d="M222373 125375c7684,0 11588,4243 11710,12728 243,55 580,81 1006,81 1037,0 2181,-136 3431,-405 1251,-270 2500,-636 3751,-1095 1251,-458 2470,-986 3659,-1580 1189,-595 2273,-1189 3248,-1783l823 2189c-1768,1675 -4071,3094 -6906,4256 -2836,1162 -5902,1986 -9195,2472 -366,3783 -1189,7188 -2470,10216 -1281,3026 -2896,5607 -4848,7741 -1953,2134 -4178,3770 -6679,4904 -2499,1135 -5153,1702 -7959,1702 -2134,0 -4101,-229 -5900,-688 -1800,-460 -3340,-1202 -4620,-2230 -1281,-1028 -2287,-2350 -3019,-3973 -732,-1621 -1098,-3593 -1098,-5918 0,-1567 183,-3351 548,-5350 366,-1999 961,-4067 1784,-6201 824,-2135 1876,-4216 3156,-6242 1282,-2027 2852,-3852 4713,-5473 1860,-1621 4010,-2918 6449,-3891 2440,-973 5245,-1460 8417,-1460zm-6770 33805c1098,0 2211,-418 3339,-1256 1128,-838 2165,-2000 3110,-3487 946,-1485 1784,-3256 2516,-5310 732,-2053 1281,-4269 1646,-6647 -975,-215 -1631,-634 -1966,-1256 -335,-622 -503,-1338 -503,-2149 0,-1135 260,-2068 777,-2796 519,-730 1205,-1230 2060,-1500 -123,-1675 -443,-2850 -961,-3527 -518,-675 -1357,-1013 -2516,-1013 -1647,0 -3202,797 -4666,2391 -1463,1594 -2745,3540 -3841,5837 -1099,2296 -1982,4729 -2654,7296 -670,2567 -1006,4851 -1006,6851 0,1351 76,2445 229,3283 152,838 411,1499 777,1986 366,486 855,824 1465,1013 610,190 1341,284 2195,284z"/>
   <path class="fil3" d="M183583 125780l-1281 5108c1769,-1513 3614,-2810 5534,-3891 1922,-1081 3797,-1622 5627,-1622 2074,0 3644,622 4710,1865 1069,1243 1602,2649 1602,4216 0,702 -138,1405 -411,2107 -275,702 -687,1338 -1235,1905 -549,568 -1234,1028 -2058,1378 -823,352 -1784,528 -2881,528 -1281,0 -2150,-270 -2608,-811 -457,-541 -777,-1121 -960,-1743 -183,-622 -351,-1202 -503,-1743 -153,-541 -564,-811 -1235,-811 -1159,0 -2257,297 -3293,892 -1037,595 -2166,1378 -3385,2351l-7319 30805 -13174 0 1083 -4522c-1005,991 -2022,1809 -3049,2455 -1676,1053 -3308,1743 -4894,2067 -1586,324 -2988,487 -4208,487 -2623,0 -4711,-650 -6267,-1946 -1554,-1297 -2485,-3215 -2790,-5755 -1158,1675 -2333,3013 -3521,4012 -1190,1000 -2363,1770 -3523,2310 -1158,541 -2287,905 -3384,1094 -1098,190 -2134,284 -3111,284 -2744,0 -5062,-771 -6952,-2310 -1891,-1540 -2836,-4013 -2836,-7418 0,-1460 245,-3215 731,-5269l6221 -26023 13175 0 -6587 27563c-183,811 -275,1567 -275,2270 0,919 198,1703 595,2351 396,648 1113,973 2150,973 1769,0 3263,-675 4482,-2026 1220,-1352 2165,-3054 2836,-5108l6221 -26023 13174 0 -6587 27563c-243,919 -365,1784 -365,2595 0,1134 305,1918 915,2350 610,432 1555,648 2836,648 1768,0 3278,-675 4528,-2026 1239,-1340 2193,-3024 2863,-5053l6239 -26078 13174 0z"/>
   <path class="fil3" d="M90912 113133l-10978 45480c1648,1081 3385,1621 5214,1621 2745,0 5199,-1108 7366,-3323 2164,-2217 3994,-5026 5488,-8432 1494,-3405 2653,-7147 3476,-11227 824,-4080 1235,-7958 1235,-11633 0,-3027 -290,-5581 -869,-7661 -580,-2081 -1449,-3770 -2607,-5067 -1159,-1297 -2623,-2230 -4392,-2797 -1769,-567 -3842,-851 -6221,-851 -3111,0 -6084,446 -8920,1338 -2836,892 -5306,2189 -7410,3891 -2105,1703 -3782,3770 -5031,6202 -1251,2432 -1876,5189 -1876,8268 0,974 61,1771 183,2392 123,622 245,1134 366,1540 122,405 260,729 411,973 153,242 260,446 321,608 -3050,0 -5444,-567 -7181,-1702 -1739,-1135 -2608,-3081 -2608,-5837 0,-2756 915,-5431 2745,-8026 1829,-2594 4285,-4877 7364,-6851 3080,-1972 6647,-3552 10704,-4742 4055,-1189 8340,-1784 12853,-1784 4513,0 8340,609 11481,1824 3141,1216 5702,2905 7684,5067 1982,2162 3416,4689 4300,7580 884,2892 1327,6013 1327,9364 0,2972 -306,5972 -916,8999 -610,3027 -1479,5945 -2608,8755 -1128,2810 -2485,5459 -4071,7944 -1586,2486 -3308,4635 -5168,6446 -1860,1811 -3858,3242 -5992,4297 -2135,1053 -4330,1580 -6588,1580 -1768,0 -3582,-337 -5443,-1013 -1860,-676 -3766,-1771 -5718,-3283l-731 3242 -13174 0 12442 -51559 13539 -1622z"/>
   <path class="fil3" d="M150833 72638c32722,0 60896,19504 73532,47516 -642,-55 -1306,-83 -1992,-83 -460,0 -920,9 -1380,27 -12438,-26258 -39179,-44427 -70160,-44427 -22386,0 -42559,9491 -56723,24662 -1191,-86 -2384,-124 -3564,-124l-415 1c14780,-16896 36496,-27573 60702,-27573zm80109 89719c-4521,40239 -38663,71530 -80109,71530 -38416,0 -70557,-26887 -78650,-62863l3113 0c8034,34287 38806,59830 75537,59830 38536,0 70513,-28112 76556,-64939 943,-780 1832,-1630 2668,-2543 303,-332 598,-670 884,-1016z"/>
  </g>
 </g>
</svg>
