<?xml version="1.0" encoding="UTF-8"?>
<!DOCTYPE svg PUBLIC "-//W3C//DTD SVG 1.1//EN" "http://www.w3.org/Graphics/SVG/1.1/DTD/svg11.dtd">
<!-- Creator: CorelDRAW X6 -->
<svg xmlns="http://www.w3.org/2000/svg" xml:space="preserve" width="300px" height="299px" version="1.1" style="shape-rendering:geometricPrecision; text-rendering:geometricPrecision; image-rendering:optimizeQuality; fill-rule:evenodd; clip-rule:evenodd"
viewBox="0 0 330253 328545"
 xmlns:xlink="http://www.w3.org/1999/xlink">
 <defs>
  <style type="text/css">
   <![CDATA[
    .fil9 {fill:none}
    .fil7 {fill:black}
    .fil8 {fill:#517751}
    .fil1 {fill:#A8CF45;fill-rule:nonzero}
    .fil4 {fill:#ED3237;fill-rule:nonzero}
    .fil6 {fill:#FEFEFE;fill-rule:nonzero}
    .fil5 {fill:#FB9104;fill-rule:nonzero}
    .fil2 {fill:#4E7348;fill-rule:nonzero}
    .fil3 {fill:#4EA070;fill-rule:nonzero}
    .fil0 {fill:#517751;fill-rule:nonzero}
   ]]>
  </style>
 </defs>
 <g id="Capa_x0020_1">
  <metadata id="CorelCorpID_0Corel-Layer"/>
  <path class="fil0" d="M38642 117372c-1458,495 8354,26339 7567,26639 -384,147 -5043,-5215 -9880,-10577 -5085,-5638 -10366,-11277 -11076,-10512 -1388,1494 15795,20109 15327,20754 -228,314 -7393,-3769 -14756,-7853 -7756,-4301 -15731,-8603 -16048,-7764 -619,1635 31502,20293 31122,21495 -185,586 -9220,-916 -18431,-2419 -9693,-1580 -19581,-3161 -19558,-2309 44,1662 24253,5064 24652,6187 397,1122 -27515,1777 -27559,2881 -45,1106 35222,1962 35858,2651 637,690 -34002,9042 -33533,11164 247,1115 8474,-905 16300,-2926 7064,-1823 13800,-3647 14043,-3165 512,1017 -29477,14867 -28098,16361 699,758 10009,-3359 19117,-7476 8831,-3993 17472,-7985 17890,-7533 848,919 -30033,26022 -27231,27904 1428,960 8926,-5951 16075,-12862 6872,-6643 13421,-13285 13949,-12939 1079,707 -18941,33659 -16165,33438 2776,-222 19762,-32076 20859,-31811 1095,266 -6956,27276 -5100,27904 937,317 2715,-5568 4372,-11454 1626,-5769 3135,-11540 3625,-11465 991,151 4394,20205 6180,22601 1785,2395 -1317,-19641 -2461,-27735 -1145,-8094 3910,2561 7163,7007 584,799 1172,1600 1731,2340l1078 -5041c-6267,-15283 -24793,-53496 -26971,-53493 -14,0 -28,3 -40,6z"/>
  <path class="fil1" d="M169819 279845l10 0c207,1 449,40 732,121 0,0 5755,9624 7814,12739 2059,3116 15459,20462 18654,22473 3194,2011 3461,3511 311,1750 -3150,-1761 -16202,-14250 -19940,-20042 -3532,-5474 -11159,-17041 -7580,-17042z"/>
  <path class="fil1" d="M183000 296474c7494,9275 15938,15184 19927,17312 3988,2128 7337,1619 1881,-1022 -5456,-2640 -15337,-11801 -17700,-15421 -2363,-3620 -12978,-16298 -12978,-16298 -983,-304 -1710,-445 -2217,-445 -3728,1 4489,7709 11087,15874z"/>
  <path class="fil1" d="M178429 282006l4 0c168,3 5551,90 6626,875 1094,800 14638,13704 22244,17318 4346,2064 13199,4617 14698,6757 1498,2141 -13804,-1242 -21749,-6277 -6343,-4020 -21824,-18673 -21824,-18673z"/>
  <path class="fil1" d="M228961 274576l12 0c243,1 396,38 443,114 666,1069 -3510,3462 -6823,4652 -1792,644 -795,566 534,488 1129,-66 2498,-132 2605,243 232,819 -3520,1228 -3685,2116 -81,441 2044,24 4145,-391 2140,-424 4255,-847 3993,-368 -518,951 -11612,2667 -12037,3515 -425,850 9139,8 7568,1320 -1572,1311 -4917,874 -5185,1782 -158,535 259,1292 -414,1469 93,947 -5035,-673 -9859,-1707 8386,4612 17976,4885 16398,5681 -2237,1233 -8548,-359 -13906,-1949 -4583,-1361 -8469,-2721 -8516,-2317 -102,879 14856,7159 16358,9471 1504,2312 -17895,-7478 -20651,-8965 -2759,-1487 3403,4638 10028,8533 6624,3894 11775,2893 11797,4952 23,2060 -10856,-1511 -16331,-3114 -5280,-1545 -20192,-16200 -21248,-17240 -6888,-691 -12979,-2648 -17856,-4788 782,681 1506,1393 2140,2137 -422,-342 -871,-443 -1244,75 -1035,1435 7838,20875 10920,25873 3081,4998 13006,19480 11394,19122 -1610,-359 -12786,-14620 -15736,-21058 -2949,-6439 -6981,-14609 -7932,-18507 -951,-3899 -5245,-9195 -1998,5444 3248,14638 7620,25454 10329,29813 2710,4361 1277,5728 -1791,1528 -3069,-4204 -6513,-11973 -7635,-15384 -1122,-3410 -4090,-15749 -4598,-20058 -508,-4309 -1892,-20068 -3010,-3872 -1118,16195 -342,24182 2,29021 345,4839 82,17136 -252,15261 -334,-1875 -742,-10700 -1387,-14325 -539,-3031 -2340,-15193 -2372,-22821 764,-3152 985,-6180 881,-8944 685,-5697 1091,-10985 -320,-4534l-86 399c-411,-2582 -1061,-4790 -1697,-6458 18,-651 -44,-1253 -194,-1789 471,394 1374,909 2542,1539 457,-876 1295,-3339 2318,-6527 765,75 1531,142 2301,199 -1084,3953 -1765,6908 -1445,7380 317,469 1977,-2622 4206,-7219 1189,53 2384,84 3583,93 -2864,5096 -5858,8420 -4057,8953 736,219 3063,-3696 5858,-8955 1139,-13 2275,-40 3404,-93 -3667,7132 -7420,9862 -5388,11023 951,543 3698,-4753 6679,-11092 1284,-75 2562,-172 3832,-298 -621,1556 -1185,2890 -1625,3830 -2427,5199 -7307,8222 -5075,9170 1046,444 4550,-6101 8056,-13149 1044,-119 2084,-251 3118,-403 -520,1226 -1048,2420 -1573,3537 -3654,7785 -6842,11016 -5640,11490 1202,475 6686,-8323 10076,-13912 335,-552 666,-1144 994,-1764 1021,-193 2036,-401 3046,-626 -883,2064 -1879,4151 -2936,6060 -4278,7724 -9018,10801 -7932,11589 1176,912 6016,-6428 10550,-13768 931,-1507 1849,-3013 2720,-4447 1024,-257 2042,-525 3053,-815 -1187,2824 -2430,5564 -3117,6830 -1691,3120 -8588,12548 -7764,12832 825,283 5014,-6135 9103,-11977 1675,-2392 3398,-5652 4902,-8641 784,-253 1563,-517 2338,-790 -1400,3692 -3225,7874 -4532,9985 -2605,4206 -8889,11420 -7971,11742 919,323 3616,-3363 6263,-6671 2368,-2959 6885,-11246 9558,-16289 349,-138 693,-283 1041,-425 -1064,3625 -3731,10927 -4892,12862 -1790,2983 -8041,10371 -7036,10708 1005,337 6278,-6274 7898,-8282 1576,-1954 5686,-9812 7930,-13548 199,50 403,98 610,142 -689,2709 -3395,9788 -5099,12450 -2424,3784 -9602,11338 -9602,11338 -2444,126 -4818,69 -7107,-128 6746,1000 13758,-221 17452,-1073 -4308,695 -7855,1110 -8947,1146 -1753,57 6316,-5803 9529,-9075 718,-731 1524,-1711 2342,-2774 687,271 1294,386 1862,425 -441,776 -622,1228 -272,1057 208,-102 616,-492 1141,-1049 247,-10 490,-28 733,-46 529,-38 1056,-77 1621,-35 -2802,3389 -5696,6452 -4861,6146 709,-259 3616,-3137 6333,-5846 526,179 1098,453 1735,862 1432,918 2953,-563 4190,-2915 685,-670 1242,-1250 1590,-1731 827,-1145 1794,1445 -2599,6169 1708,-570 3940,-1536 5862,-2527 946,1134 1970,1634 2952,1004 156,-100 307,-191 455,-276 -548,972 -1397,2120 -2585,3317 2579,-680 4619,-1133 5499,-1133zm-36784 25648c7720,6193 25981,14121 20769,10921 -5212,-3199 -15837,-7844 -26574,-21323 -6257,-7524 -8304,-7887 -11367,-8555 0,0 9452,12763 17172,18957zm-22293 -18046c0,0 -664,-1363 -1414,-1968 542,634 1020,1290 1414,1968zm-22712 11040c-1104,8712 2285,27122 3031,32022 774,5078 2017,4095 1018,-1530 -1000,-5626 -1370,-18583 -875,-23055 106,-963 238,-2225 397,-3694 -595,1203 -1282,2410 -2075,3613 -540,-2947 -1038,-5354 -1495,-7356z"/>
  <path class="fil1" d="M229199 33122c1615,4118 2199,29797 1976,34168 -91,1772 -351,4974 -630,8156 -302,-4244 -878,-9649 -1113,-14925 -625,-13960 -4483,-25405 -6768,-30186 -1253,-2621 -2874,-4360 -3538,-4361 -546,1 -444,1180 1052,4018 3314,6283 6266,21795 5981,26852 -287,5059 916,24398 916,24398 1292,1747 2164,2423 2733,2272 -73,769 -117,1225 -117,1225 796,1030 1467,1110 2037,516 16,249 49,491 105,707 -19,-262 -32,-523 -40,-781 2162,-2485 2814,-14806 3209,-21157 500,-8064 -3133,-28920 -4880,-32772 -692,-1522 -1233,-2192 -1535,-2192 -462,1 -366,1570 612,4061zm11544 21636l0 0c-567,6857 -5711,31366 -7683,32002 -713,229 -1066,-180 -1227,-797 82,1144 270,2322 535,3511 -2246,-3903 -5153,-8154 -8858,-12263l178 136 0 0c0,-1 -99,-550 -276,-1505 799,2123 1807,3235 2993,4583l0 0c0,-5 -45,-18613 -3023,-29822 -2573,-9681 -11664,-26051 -12360,-26052 -109,0 -9,407 356,1312 2694,6641 9489,18408 10248,38588 76,1302 166,2478 268,3545 -1578,-7853 -3915,-18551 -5816,-23436 -3609,-9283 -13828,-21472 -15816,-21472 -212,-1 -330,137 -337,432 -56,2298 3636,7693 6608,12342 -3366,-4401 -7038,-8882 -8525,-8882 -192,0 -347,75 -461,232 -1411,1958 4145,4594 7688,12872 3542,8279 5098,18342 3529,15022 -1567,-3320 -13064,-26041 -13253,-22814 -190,3226 9556,19548 8850,20306 -707,758 -12685,-18882 -18189,-19611 -2042,-345 6816,6579 11521,16758 -3834,-4329 -7546,-9423 -8114,-8462 -476,802 5714,13051 7777,17086 -7367,-3807 -15583,-7114 -20337,-6414l0 0c-1560,230 -2899,580 -3995,980 -375,1068 -835,2108 -1374,3058 511,35 1069,91 1658,166 1820,-553 3697,-908 5214,-908 1842,0 3154,522 3192,1846 9,313 31,603 65,873l297 94 -277 54c183,1268 626,2080 1134,2783l103 -15 -100 20c647,893 1400,1611 1861,2863l623 -93c4336,-650 8847,-1300 9673,-1059 1073,313 -4589,1299 -9937,2695 10,79 19,160 27,242 160,1714 -2822,2559 -6456,2424 141,190 276,380 407,570 1308,-218 3080,-605 4834,-992 2882,-637 5714,-1273 6351,-1157 1538,281 -7873,3119 -9694,4838 78,193 148,383 207,566 2009,-169 9765,-3195 14095,-3891 5303,-852 16990,-771 15297,-1936 -1117,-769 -2542,-1694 -4177,-2698 3763,2007 8227,4838 11952,8483l8 31c-1971,-1718 -4107,-3365 -6426,-4896 0,0 -12024,2138 -16940,4023 -1902,729 -5019,2509 -7861,4308 1060,234 2116,479 3163,748 3597,-1628 7062,-3161 8608,-3567 2924,-767 12495,-3340 13208,-2323 715,1017 -10318,3640 -14080,5210 -751,313 -1989,1006 -3445,1893 1319,406 2624,843 3918,1303 3052,-1308 5811,-2389 7587,-2862 4798,-1281 9906,-2883 10547,-1941 642,942 -10300,3379 -15683,5538l-221 91c1402,539 2788,1111 4158,1713 7357,-2513 14609,-5152 15146,-4373 461,668 -7690,3394 -12947,5373 1484,698 2949,1433 4391,2204 6996,-2651 12883,-4497 13253,-3198 412,1297 -4491,1178 -11921,3925 1270,706 2523,1438 3757,2199 5140,-1929 9786,-3402 10292,-2595 619,989 -2357,1710 -7805,4184 1063,701 2111,1420 3143,2162 4035,-1840 6968,-2881 7371,-2202 1032,1746 -2087,1970 -6104,3126 1074,798 2128,1621 3166,2462 3039,-1402 5123,-2075 5414,-1420 614,1386 -771,1996 -3552,2968 852,726 1693,1466 2519,2222 1854,-695 3061,-968 3315,-633 600,793 -120,1444 -1666,2179 812,778 1607,1574 2391,2380 985,-388 1536,-496 1526,-240 -8,206 -271,568 -737,1055 787,828 1555,1673 2311,2530 273,-165 505,-294 690,-385 454,961 828,1785 1074,2434 129,155 261,306 389,462 925,-2045 3243,-4081 6396,-5675 3320,-1679 6692,-6153 13847,-12905 7154,-6754 17371,-27760 20172,-33090 2800,-5329 943,-5267 -2024,736 -2967,6001 -11626,18485 -15201,22359 -3575,3876 -12114,13432 -19735,20120 -7620,6688 1714,-3468 7020,-8828 5303,-5361 14592,-22810 16505,-26677 1911,-3869 7660,-12478 8649,-14480 987,-2001 -7809,9418 -10847,14223 -3040,4804 -7858,12878 -20171,27382 -12312,14502 -2664,-1326 -149,-5745 2516,-4419 8293,-18122 9605,-22120 1312,-3999 3463,-13722 3491,-19821 25,-6097 -2280,-5802 -2754,195 -475,5996 -3866,19241 -10978,35308 -7112,16069 -7482,8087 -5669,3746 1812,-4338 3688,-14848 5380,-22974 1693,-8125 1062,-29348 -207,-30805 -44,-50 -86,-74 -128,-74 -1190,0 -1865,19412 -2415,26034z"/>
  <path class="fil2" d="M163607 20311l17 0c339,3 478,100 312,327 -857,1172 -5696,5318 -10081,6904 -4386,1586 -8715,3368 -8537,1475 0,0 674,-1643 2837,-2650 2164,-1007 7526,-3226 8463,-3914 752,-553 5563,-2142 6990,-2142zm-31897 -10004l0 0c11,12 2870,3371 6234,6080 3370,2714 7781,7378 7781,7378 -368,4123 -6533,-1860 -10144,-5829 -3606,-3961 -3870,-7616 -3870,-7629zm-3601 5500c1112,2585 5929,7842 9780,10474 3850,2631 7000,6247 7256,4310 0,0 -2447,-4433 -6793,-7994 -3595,-2945 -9012,-7433 -10147,-7433 -237,0 -288,196 -95,643zm-258 8881c1612,3419 9848,8459 10729,9401 880,944 5400,4359 5710,2436 0,0 -2066,-3508 -5084,-5944 -2437,-1966 -9393,-6828 -11133,-6828 -416,0 -535,276 -223,935zm5991 12989c5326,4411 9062,7265 9470,4662 0,0 -2089,-3238 -5937,-6358 -3848,-3120 -9502,-7782 -10237,-8768 -47,-64 -82,-94 -106,-94 -344,0 1826,6430 6811,10558zm-7343 1095c6697,6477 15527,13475 16044,9411 0,0 -2076,-3032 -4241,-4542 -2163,-1511 -8378,-6673 -10976,-7963 -1212,-602 -2929,-1378 -3739,-1378 -926,0 -663,1017 2912,4473zm-5597 -2535l3 0c74,2 134,67 147,189 109,1013 13986,11098 16878,13600 2893,2502 3827,5189 3827,5189 -251,2348 -4836,-995 -12687,-7415 -10002,-8268 -8711,-11563 -8168,-11563zm7293 18093c845,777 1638,1487 2381,2136 -58,-226 -132,-439 -219,-636 -793,-1805 2517,113 5652,4888 3275,2141 4607,1872 4900,466 0,0 -3455,-4300 -9586,-9076 -6131,-4774 -10100,-8131 -10580,-9540 -57,-167 -124,-247 -184,-247 -95,0 -171,203 -155,592 1919,1680 3789,3870 5303,6719 554,1043 863,2133 975,3250 471,470 973,954 1513,1450zm573 7781l302 292c804,-1153 1277,-2257 1501,-3260 -1253,-1074 -2662,-2308 -3985,-3507 -162,1029 -454,2072 -848,3118 839,1069 1839,2196 3029,3356zm9530 7019c1289,413 2007,147 2092,-653 0,0 -715,-798 -1778,-1917 56,846 -59,1706 -314,2571zm-13390 -5179c322,452 741,981 1232,1561 990,-821 1791,-1640 2430,-2441 -1259,-1173 -2389,-2223 -3312,-3148 -372,836 -799,1672 -1271,2500 259,513 564,1027 920,1528zm10538 10210c1472,1001 2732,1585 3493,1426 286,-379 526,-730 724,-1039 -181,-221 -1070,-1297 -2489,-2870 -482,833 -1066,1663 -1727,2484zm14945 -2237c-1448,1140 -2897,2232 -4129,3095 1374,-288 2759,-547 4153,-776 -339,-535 -319,-1351 -24,-2319zm-10542 1409c4,282 486,1163 777,1242 2208,604 8505,-4225 10767,-6211 1285,-1129 2225,-2765 2856,-4539 -746,-115 -1457,-268 -2103,-454 -4708,5938 -12298,9961 -12298,9961zm7397 -10168c-3143,1262 -6773,4525 -6773,4525 1077,2938 7662,-439 12903,-4020 -1649,-333 -3046,-855 -3810,-1568 -938,454 -1749,833 -2321,1062zm14109 -15525c-1256,1181 -3178,2524 -5036,3784 949,431 1908,948 2822,1533 843,-890 1558,-1898 2127,-2859 -39,-886 -14,-1723 87,-2459zm-12194 8524c-3537,2082 -7957,4414 -7957,4414 387,2686 4099,1252 8038,-986 369,-1474 197,-2494 -81,-3428zm14533 -16583c-1788,1668 -8910,5534 -12077,7516 -3168,1981 -9716,6784 -9716,6784 -222,2011 2871,1154 6544,-651 -28,-593 34,-1265 246,-2069 214,-808 1052,-1168 2243,-1169 742,0 1622,140 2573,400 1335,-832 2583,-1675 3608,-2436 4505,-3340 7600,-8652 6997,-8652 -77,0 -214,87 -417,276zm-2391 -4594c-1107,2008 -4842,3266 -9985,6117 -5142,2851 -8535,5132 -8535,5132 -401,3007 5538,315 11929,-2766 5646,-2721 7324,-8823 6876,-8823 -59,0 -155,106 -284,339zm-10560 242c-3219,1891 -7102,4977 -7102,4977 1944,3797 17541,-7197 19273,-9372 316,-396 219,-564 -168,-564 -1740,0 -9369,3413 -12003,4959zm3666 -6350c-4746,1923 -9802,5680 -9802,5680 -536,3970 19508,-7216 21295,-8884 370,-345 298,-492 -90,-492 -1490,0 -7638,2172 -11403,3696zm-8567 -9920c0,0 6410,-888 10649,-5404 4240,-4516 5268,-10680 5268,-10680l-15918 16084zm-1926 -11410c-353,4697 569,7613 1850,8622 0,0 1425,-1830 1424,-7405 0,-5573 734,-8768 734,-8768 0,0 -3654,2853 -4008,7551zm19359 9035l23 0c486,3 836,85 1007,266 -3600,4106 -19027,9629 -18545,6138 0,0 1704,-1385 2709,-1902 880,-452 11295,-4503 14805,-4503zm-28977 -6985l4 0c1456,1 11536,8823 11536,8823 249,3606 -2315,1945 -5773,-1053 -3457,-2997 -6215,-6369 -5931,-7656 17,-77 74,-114 165,-115z"/>
  <path class="fil0" d="M273771 117175c-352,92 -3054,-5033 -5898,-10137 -2888,-5180 -5925,-10337 -6805,-9988 -1748,692 11629,24502 11108,25078 -259,284 -5020,-3753 -9877,-7775 -4963,-4110 -10026,-8203 -10488,-7654 -914,1088 19486,19224 19702,20324 110,567 -5012,380 -10054,179 -4737,-190 -9402,-389 -9593,14 -396,834 16022,4222 20156,3813 4133,-410 6245,1288 6245,1288 1844,2792 9014,14863 14137,18785 5122,3921 2326,-494 -406,-4779 -2731,-4284 -10196,-12199 -3623,-8504 6574,3695 24475,13743 23014,11405 -1461,-2336 -17558,-11979 -17356,-12881 95,-426 5077,133 10315,650 5850,578 12021,1105 12065,152 82,-1805 -25832,-3933 -25694,-4963 140,-1031 33210,-4962 34330,-7274 1120,-2311 -33909,3859 -34156,2694 -246,-1164 32915,-14126 32235,-17165 -362,-1621 -9615,2784 -18246,7089 -7550,3766 -14624,7455 -14860,6971 -506,-1037 26119,-25097 25297,-26782 -422,-863 -6384,4261 -12196,9360 -5538,4857 -10936,9692 -11278,9311 -702,-782 17065,-22928 15399,-24041 -842,-563 -6056,6049 -11057,12627 -4894,6437 -9585,12842 -9772,12458 -379,-779 10698,-31378 9733,-31710 -478,-164 -3158,5602 -5840,11367 -2724,5859 -5449,11718 -5869,11356 -831,-719 4354,-22667 2940,-23261 -712,-300 -2612,8420 -4471,17134 -1828,8573 -3614,17140 -4190,17102 -1161,-76 -6439,-33935 -8051,-33950 -6,0 -14,0 -20,1 -1548,243 3833,31519 3124,31706z"/>
  <path class="fil2" d="M23519 200020l3 0c69,1 172,41 312,126 1839,1116 16093,15403 12605,15899 0,0 -4388,-3381 -7149,-6938 -2547,-3283 -6606,-9086 -5771,-9086z"/>
  <path class="fil2" d="M28615 201365l4 0c73,1 171,27 295,78 2254,947 15284,11518 12535,14068 0,0 -3539,-2547 -5908,-4820 -2236,-2145 -8165,-9324 -6925,-9326z"/>
  <path class="fil2" d="M32813 201814c1964,458 3920,3317 7562,6987 3640,3671 6383,5998 6383,5998 2639,-380 -1058,-4760 -5192,-9434 -2782,-3144 -6675,-3871 -8322,-3870 -800,0 -1072,171 -430,320z"/>
  <path class="fil2" d="M36128 198694c1838,1116 6811,6216 9246,8424 2433,2207 8061,6600 8061,6600 3188,-531 -4245,-8061 -8648,-11459 -3364,-2597 -7716,-3958 -8761,-3958 -322,0 -331,130 103,393z"/>
  <path class="fil2" d="M42381 198186c2207,812 6159,4567 8578,6451 2420,1883 8308,8070 8308,8070 3798,-1688 -5385,-8918 -8824,-12048 -2352,-2140 -6291,-2891 -7839,-2890 -715,0 -920,160 -224,417z"/>
  <path class="fil2" d="M52166 197375l9 0c13,0 27,0 41,2 1797,147 16537,11565 12828,14250 0,0 -3629,-2291 -5447,-4650 -1801,-2334 -9034,-9602 -7430,-9602z"/>
  <path class="fil2" d="M55224 197407c7831,2321 13894,13337 13894,13337 3583,-111 -2365,-7694 -4527,-10080 -1208,-1334 -3049,-2222 -4965,-2731 -1512,-401 -3071,-566 -4402,-526z"/>
  <path class="fil2" d="M61317 196406c1908,1489 7029,6393 9517,9291 2487,2898 4566,5262 4566,5262 3756,-978 -2070,-7123 -5686,-10754 -2481,-2494 -6412,-4057 -8016,-4309 -732,-115 -979,43 -381,511z"/>
  <path class="fil2" d="M68276 197278c2157,552 6903,5831 9870,9459 -444,-1025 -875,-2058 -1283,-3101l-213 -529 -271 -690c-186,-478 -369,-959 -548,-1440 -96,-259 -192,-520 -286,-781l-13 -36c-3338,-2779 -6299,-3535 -7541,-3535 -848,0 -895,352 285,652z"/>
  <path class="fil2" d="M73521 216938c-426,1166 -874,2450 -1286,3708 918,113 1863,361 2829,770 820,-1577 1626,-3294 2266,-4917 -554,-387 -1042,-611 -1440,-638 637,-276 1296,-551 1972,-803 916,-2690 1190,-4877 18,-5319 0,0 -2542,2227 -4359,7199z"/>
  <path class="fil2" d="M71739 210612l12 0c2243,0 -37,5564 -2571,10135 -1736,329 -3343,1092 -4787,2060 533,-1037 1110,-2157 1737,-3330 2762,-5169 5355,-8843 5355,-8843 91,-14 175,-22 254,-23z"/>
  <path class="fil2" d="M66317 211494l3 0 3 0 3 0 3 0c1552,0 1277,3875 -2791,11369 -188,347 -378,681 -568,1003 -2899,2364 -4971,5341 -5874,6574 132,-8 264,-14 395,-19 -1597,1266 -2548,1510 -2059,1217 986,-591 4901,-8902 6348,-12214 1448,-3312 4367,-7915 4367,-7915 59,-10 116,-15 171,-16z"/>
  <path class="fil2" d="M59974 212808l2 0 2 0 2 0 2 0 2 0 3 0 2 0 2 0c1857,0 1938,2830 -2902,12401 -4961,9805 -9253,9859 -8175,9115 1079,-742 2970,-4902 5546,-11230 2576,-6330 5390,-10281 5390,-10281 42,-4 84,-5 124,-5z"/>
  <path class="fil2" d="M54786 213503l3 0 3 0 3 0 2 0c1723,0 -12,4632 -3444,12525 -5251,11898 -8541,9838 -7709,9503 831,-335 6051,-14487 7475,-17533 1426,-3046 3477,-4477 3477,-4477 67,-12 130,-17 189,-18z"/>
  <path class="fil2" d="M48730 214514l4 0 5 0 4 0c3065,1 -641,8835 -4413,15847 -3880,7215 -3287,2547 -2816,40 471,-2508 3354,-8999 4116,-11191 761,-2191 2831,-4673 2831,-4673 95,-14 185,-22 270,-23z"/>
  <path class="fil2" d="M43539 215267l13 0c1974,1 473,3770 -1904,9142 -2460,5561 -7913,9032 -7253,8173 659,-857 3253,-6755 4975,-10756 1719,-4002 3961,-6544 3961,-6544 74,-10 142,-14 208,-15z"/>
  <path class="fil2" d="M38268 215836l2 0 1 0 1 0 2 0 1 0 1 0 2 0c1527,1 -222,4471 -798,5422 -587,970 -2884,9143 -5393,11324 -2507,2181 934,-7881 2275,-11017 1340,-3136 3815,-5723 3815,-5723 32,-4 61,-6 90,-6z"/>
  <path class="fil2" d="M33100 216527l9 0c1390,0 -807,3425 -2070,7182 -1306,3886 -4605,9218 -6527,10777 -1922,1559 1325,-5760 3299,-10288 1975,-4528 5141,-7657 5141,-7657 52,-7 102,-12 148,-12z"/>
  <path class="fil2" d="M27487 217630l6 0 6 0c2774,0 -594,6211 -2971,10023 -2495,4005 -5530,5099 -5530,5099 0,0 2163,-3227 3654,-6728 1491,-3499 4384,-8348 4384,-8348 165,-31 315,-46 450,-47z"/>
  <path class="fil2" d="M19924 202990l2 0 1 0 1 0c31,1 69,9 112,25 1197,446 5860,3551 8250,6881 2390,3333 4932,6570 3288,6872 0,0 -1551,-178 -2919,-1769 -1370,-1589 -4529,-5597 -5335,-6225 -776,-605 -4204,-5784 -3401,-5784z"/>
  <path class="fil2" d="M23611 218612l14 0c1587,0 798,2309 -645,5381 -1711,3642 -3904,6781 -5061,6850 -1157,65 4572,-11985 4572,-11985 459,-165 829,-243 1120,-246z"/>
  <path class="fil2" d="M24117 215994c676,727 2257,1837 2257,1837 3068,-425 -5291,-12161 -9624,-14225 -928,1531 6690,11661 7367,12388z"/>
  <path class="fil2" d="M13997 220021c-4716,1331 -7594,1473 -7594,1473 0,0 3288,2410 7347,1587 4058,-822 6320,-2312 6854,-3626 0,0 -541,-220 -1768,-220 -1065,0 -2646,166 -4838,787z"/>
  <path class="fil2" d="M7006 209035l44 0c1961,0 5512,276 8777,1970 4835,2510 7117,7721 7117,7721l-17411 -9627c0,0 558,-62 1473,-64z"/>
  <path class="fil3" d="M75890 215862c3633,239 14667,17010 16735,22245 772,546 1499,1141 2145,1773 -714,-2691 -1056,-5849 -668,-7983 -4782,-5440 -8957,-11428 -12419,-17856 -2024,269 -3998,1043 -5794,1820zm14083 20643c-2530,-3773 -6638,-10075 -13028,-14101 -9928,-6256 -17825,5271 -19850,8037 11911,-713 18419,7136 24124,11332 329,242 637,487 925,732 -43,-2392 -1612,-3509 -762,-6728 214,-808 1052,-1169 2243,-1169 1671,0 4038,712 6349,1897zm-8256 8440c-8902,-9498 -22608,-12293 -25740,-12466 -1583,-86 -4918,3282 -7407,6651 -2881,3898 -4631,7796 -1230,6340 13238,-5255 31462,9458 28243,11518 -3219,2059 -12205,-6383 -20970,-9063 -8765,-2679 -12343,3707 -12343,3707l-520 2541c-519,2540 -3878,2697 -1519,3786 7200,-4672 18706,1123 18525,2758 -182,1634 -17289,2151 -22721,2946 -5432,797 -10320,11577 -11876,14140 2793,2346 8414,13022 21002,10794 12589,-2227 18378,-19397 22546,-17979 4169,1418 -5509,12938 -8120,16402 -2612,3463 -7674,6654 -11989,5412 -2009,-579 -903,1201 1546,2980 2813,2043 7398,4088 11072,2556 21436,-10278 16471,-32014 21037,-27881 6661,5894 -13350,32553 -19621,31156 -1070,-238 1099,984 4397,2206 4463,1655 10993,3309 14359,1342 9656,-6180 11025,-27657 14481,-30708 3457,-3052 -4384,24005 -6381,27091 -1997,3087 -6005,5377 -6005,5377 0,0 8448,4119 17895,-748 9448,-4866 3282,-25527 5133,-28439 1850,-2912 1041,10104 3002,15920 1963,5817 315,9195 -1529,10327 -1844,1130 3673,1299 9992,-2326 2629,-1507 3379,-4646 3164,-8303 -1455,649 -2220,732 -1858,80 339,-613 924,-1367 1634,-2234 -254,-1756 -675,-3576 -1175,-5354 -6228,2726 -9384,1976 -9384,1976 0,0 3140,-1855 7637,-7348 -326,-899 -646,-1745 -944,-2519 -54,-140 -104,-276 -154,-411 -1439,628 -3055,1361 -4882,2220 5082,-13227 16307,-18397 22278,-19978 -78,-266 -161,-529 -251,-785 -5436,-1996 -10638,-4477 -15561,-7380 -913,983 -3300,1449 -6065,1346 2165,2929 3152,5874 1645,6709 -1792,993 -3036,903 -4270,812 -1339,-98 -2667,-196 -4670,1090 -2197,1409 -4614,-3026 -5800,-7396 -1186,4370 -3602,8805 -5799,7396 -2003,-1285 -3330,-1187 -4670,-1090 -1234,91 -2478,180 -4270,-812 -2224,-1231 976,-7048 5381,-10638 -4067,-282 -7939,-1513 -7244,-3720zm22146 -3420l-58 -49 -65 98 122 -49zm15677 34117c50,299 98,610 144,930 148,-207 296,-417 446,-632 171,-246 352,-493 542,-744 -361,139 -737,288 -1132,445zm1403 8781c257,1053 568,2024 961,2841 120,248 230,496 333,742 1626,-2038 3300,-4394 4191,-6869 -2003,1361 -3831,2437 -5485,3287zm2266 6935c452,2628 98,4526 98,4526 0,0 1139,-1721 5421,-6464 976,-1081 1472,-2053 1711,-3040 -2563,2018 -5119,3734 -7229,4977z"/>
  <path class="fil3" d="M246438 221019c8563,6500 8701,10485 19690,15030 0,0 -2620,-2654 -3263,-7057 -644,-4405 -5498,-11066 -4941,-13019 556,-1952 2923,-3593 4434,2957 1510,6549 4666,18424 11134,17947 6469,-477 10454,-3351 8530,-3267 -1923,85 -4825,-1587 -6277,-6855 -1453,-5269 -8539,-14466 -5722,-13240 2817,1225 8570,19540 17965,18419 9396,-1119 13574,-8371 13574,-8371 0,0 -4098,308 -7112,-972 -3011,-1282 -22285,-17332 -18214,-16803 4071,528 15790,15689 25994,15433 2885,-189 6138,-3327 8570,-6362 2643,-3299 4317,-6474 3495,-5604 -3929,4156 -31982,-5532 -30007,-13201 723,-2944 3241,1401 8889,5346 4565,3190 11173,6120 20531,4732 6496,-1314 9111,-13443 6547,-10375 -2564,3068 -7889,3238 -11541,1985 -3653,-1253 -16536,-4927 -14168,-8051 1163,-1535 4856,48 9544,1502 4850,1507 10765,2877 16051,520 10397,-4634 9221,-15311 10112,-18434 -2427,-1116 -11407,-6631 -15811,-4509 -4402,2121 -17281,10270 -18229,9154 -948,-1115 4650,-11127 12290,-11271 1197,-1978 -1358,-419 -3008,-2033l-1650 -1615c0,0 -5823,-2927 -10952,3419 -5131,6347 -7551,17055 -10951,17141 -3401,86 2706,-19855 15092,-22577 6030,-1161 -10423,-7119 -12848,-5278 -2425,1842 -12568,12247 -13091,25184 -164,3541 -3011,196 -895,-5744 1811,-5088 2724,-12447 8695,-17855 -1883,1154 -3875,2136 -5921,2975 -2099,860 -4250,1579 -6435,2167 -993,4453 -2864,6490 -4590,9737 -649,17989 -6260,34714 -15509,48847z"/>
  <path class="fil3" d="M38184 26841c-202,3334 -2577,16302 1888,20480 4465,4179 19789,15516 18918,17126 -872,1610 -15081,-396 -18701,-9241 -2852,-502 123,1773 -1014,4428l-1139 2654c0,0 -782,8115 8940,11230 5976,1915 13410,1891 18632,2500 -3142,-2025 -6525,-3445 -7967,-4601 -1627,-1303 7056,-628 15859,2202 -3545,-7608 -5165,-14750 -3741,-13452 2019,1839 5265,7764 9729,10673 -4873,-12776 -2213,-18066 -2213,-18066 0,0 1481,4768 7882,12179 2529,-6575 7172,-18810 -1272,-33664 -4468,-6983 -19798,-4550 -15061,-2947 4738,1604 7343,7737 7533,12565 190,4828 1728,21516 -2986,20165 -4715,-1351 894,-20737 -9211,-30770 -4461,-4429 -9277,-5695 -13613,-5695 -5485,0 -10201,2025 -12461,2234zm13664 53007c-5140,-1526 -10037,-4260 -12987,-8701 -4078,-6510 -3591,15375 -348,17372 2599,1599 13856,6494 26114,5680 -978,-821 -1941,-1725 -2879,-2720 7308,372 11426,244 14260,65l-34 2c-3864,-1537 -7388,-3278 -10034,-4986 -8965,-5785 -14332,-6565 -14332,-6565 0,0 78,-56 239,-146zm32425 11444l0 0 6 0 0 0 -6 0zm13576 2364l4 2 5 1 -5 -1 -4 -2zm55 22l4 1 -4 -1 0 0zm17 6l4 2 0 0 5 1 -5 -2 0 0 -4 -1zm129 52l4 1 0 0 -5 -1zm-4362 -15678c-355,-2992 -223,-6294 -2256,-16399 -710,3038 -1753,5535 -3169,7027 1876,2686 3742,6030 5426,9373zm-26612 18002c-7849,310 -18579,3100 -28834,-4966 97,3816 1,19379 13060,19961 6127,273 11913,-1331 16423,-2936 1844,-656 3476,-1313 4831,-1840 3226,-1915 6668,-3444 10235,-4641 -4710,-421 -10355,-1891 -15715,-5578zm-1811 15604c-7730,3163 -16879,6031 -19083,4707 2248,3622 5130,7660 10137,8085 672,-1782 1534,-3503 2568,-5157 1780,-2848 3933,-5388 6379,-7636zm40354 -17216c7018,-5718 14860,-10461 23322,-14022 5949,-4785 11568,-10892 9084,-16123 -3480,-7329 -8633,-10679 -7666,-8474 969,2206 330,6344 -5159,10420 -5489,4077 -13014,16500 -12858,12661 155,-3840 18919,-18829 13366,-29282 -5554,-10453 -15900,-12050 -15900,-12050 0,0 2212,4641 2080,8734 -102,3132 -5992,21292 -9297,27400 2985,6947 2964,13385 2586,15483 -299,1660 -180,3486 442,5252zm-4506 -23746c2323,-8135 9624,-23331 5661,-32843 -3180,-6847 -22073,-9752 -19414,-8666 4491,1834 6570,19479 4377,31015 4324,3113 7321,6798 9375,10494z"/>
  <path class="fil2" d="M250168 278263c-831,5383 1487,10364 1487,10364l3550 -19576c0,0 -4207,3830 -5037,9212zm6999 -7474l9 0c1190,0 3329,2531 5096,5579 2079,3582 846,7469 846,7469 0,0 -1055,-2682 -3825,-6724 -2772,-4042 -2649,-6078 -2649,-6078 141,-165 317,-242 522,-245zm-14306 8967c1748,389 8908,-10069 9380,-10944 472,-873 1019,-2726 1019,-2726 -144,-288 -364,-420 -644,-420 -2411,1 -9245,9818 -9756,14089zm14295 -12642l40 0c842,2 1863,89 2988,218 3998,454 7672,1530 8108,2604 433,1075 -12818,-499 -12818,-499 -1409,-1779 -442,-2323 1682,-2323zm-12027 -305c-2392,3330 -3841,8741 -3879,10018 -39,1275 4068,-3990 4405,-4955 337,-964 3123,-5239 4192,-7045 1069,-1805 740,-3332 740,-3332 -131,-236 -301,-345 -504,-345 -1043,0 -2951,2869 -4955,5659zm7774 -1302c0,0 5517,1191 9311,1484 3793,293 7543,1311 7543,1311 0,0 -2008,-2526 -6600,-3608 -2416,-570 -5623,-1194 -7859,-1194 -2013,0 -3239,505 -2395,2007zm-2972 -5238c0,0 3978,1997 8900,2421 4922,421 12895,1156 10804,-166 -2092,-1321 -8199,-2742 -12299,-2737 -1193,2 -2385,-86 -3455,-175 -1060,-87 -2003,-175 -2710,-175 -1034,0 -1567,186 -1240,832zm-2331 -4729c0,0 3242,1517 6642,1784 3400,266 14034,307 11166,-1370 -2870,-1678 -11348,-1241 -12455,-1487 -404,-90 -1324,-178 -2293,-178 -1686,0 -3524,266 -3060,1250zm-2180 -4704c0,0 3125,1311 7468,1660 4341,351 10759,922 11782,1273 1024,349 -4008,-3708 -10064,-4259 -2332,-212 -4378,-374 -5955,-374 -2519,0 -3844,413 -3231,1699zm-2346 -4620c0,0 3014,1166 5334,1187 2320,19 9393,675 11918,319 2527,-356 7139,-1287 -938,-2656 -3830,-650 -8067,-1145 -11287,-1145 -3571,0 -5892,610 -5027,2295zm-2926 -5490c0,0 2013,1484 5355,1862 3341,375 18419,794 19002,1474 583,680 1484,-3096 -11469,-4264 -3740,-317 -6789,-527 -8994,-527 -3033,0 -4465,397 -3894,1455zm-2350 -4750c0,0 4642,1402 11463,1818 6820,415 11367,877 12416,1661 1049,783 -375,-3265 -11252,-4830 -3662,-526 -6377,-754 -8338,-754 -3864,0 -4799,883 -4288,2104zm723 -4688c1595,309 3410,614 4926,745 3600,312 12726,1363 13601,2108 874,745 -2189,-3362 -10907,-4873 -2080,-360 -3876,-571 -5393,-663 -728,907 -1468,1803 -2227,2683zm2892 -3511l690 118c5782,965 10289,1326 11251,2502 961,1178 -1084,-2825 -5327,-4381 -1035,-380 -2624,-799 -4411,-1168 -717,989 -1449,1968 -2202,2929zm-12121 20999c-336,768 -545,1610 -662,2460 976,-251 1946,-440 2849,-543 529,-1346 1055,-2644 1416,-3679 1010,-2894 4988,-10453 4988,-10453 -335,-365 -686,-530 -1047,-530 -2669,1 -5901,8993 -7544,12744zm6974 4426c293,-628 556,-1202 768,-1688 1312,-3012 3674,-9749 3674,-9749 -193,-362 -437,-525 -721,-525 -1576,0 -4361,5044 -6214,9407 1447,148 2418,713 2450,1868 7,242 22,470 43,687zm-956 10524c300,1563 805,2287 717,1385 -44,-452 28,-943 191,-1485 -291,42 -594,75 -908,100zm3557 -5422c433,-794 893,-1656 1362,-2593 2312,-4623 3640,-7965 3640,-7965 -214,-424 -485,-616 -801,-616 -1423,0 -3786,3878 -6260,8178 556,1217 1400,1933 2060,2996zm6825 -5898l9 0c187,1 367,46 541,141 0,0 -1282,4168 -2677,7140 -1396,2972 -6818,11676 -6643,9237 61,-851 814,-3319 1906,-6096 673,-401 1042,-926 982,-1569 -20,-214 -46,-417 -78,-610 1812,-4150 4158,-8243 5960,-8243zm-8373 21744c-466,2099 4257,-4283 6744,-8036 2486,-3753 4286,-8992 4286,-8992 -126,-251 -299,-367 -512,-367 -2450,1 -10088,15464 -10518,17395z"/>
  <path class="fil4" d="M65942 86560c-8966,-5785 -14332,-6565 -14332,-6565 0,0 4811,-3454 18191,-632 -3570,-3956 -9929,-6238 -12060,-7946 -1626,-1303 7056,-628 15859,2202 -3545,-7608 -5165,-14750 -3741,-13452 2019,1839 5265,7764 9729,10673 -4874,-12777 -2214,-18067 -2214,-18067 0,0 1608,5179 8720,13134 2577,2882 5261,7519 7595,12152 36,309 78,615 128,924 1135,7046 2701,11623 4256,14702l29 58 10 18 -45 -18 -4 -1 -5 -2 -4 -1 -5 -2 -4 -2 -5 -1 -4 -2 -4 -2 -4 -1 -4 -2 0 0 -4 -1 -4 -2 -5 -2 -4 -1 -5 -2 -4 -1 0 0 -4 -2 -4 -2 0 0 -4 -1 -4 -2 0 0 -4 -1 -4 -2 0 0 -4 -2 -4 -1 -4 -2 -4 -1 -4 -2 0 0 -4 -2 -4 -1 0 0 -4 -2 -5 -1 -4 -2 -5 -2 -4 -1 0 0 -4 -2 -4 -1 -4 -2 0 0 -4 -2 -4 -1 0 0 -4 -2 0 0 -4 -2 -4 -1 0 0 -4 -2 0 0 -4 -1 -4 -2 0 0 -4 -2 0 0 -4 -1 -5 -2 -4 -1 0 0 -4 -2 -4 -2 -4 -1 0 0 -4 -2 0 0 -4 -1 -5 -2 -4 -2 -4 -1 0 0 -4 -2 -5 -1 -4 -2 -4 -2 -4 -1 -4 -2 -5 -1 -160 -62 -154 -58 -9 -3 -166 -61 -4 -1 -158 -57 -7 -2 -172 -61 -172 -59 -3 -1 -178 -60 -13 -4 -142 -46 -232 -74 -140 -44 -242 -74 -135 -40 -261 -75 -135 -38c-91,-25 -184,-51 -276,-75l-131 -35c-97,-26 -196,-51 -295,-76l-127 -32c-106,-26 -213,-52 -322,-78l-100 -24c-117,-28 -236,-55 -356,-82l-93 -21c-120,-27 -242,-53 -365,-79l-110 -23c-127,-26 -255,-52 -385,-78l-82 -16c-135,-27 -271,-52 -410,-78l-83 -15c-141,-26 -284,-51 -429,-75l-81 -14c-145,-24 -291,-48 -440,-72l-93 -15c-145,-23 -292,-45 -441,-67l-110 -16c-156,-23 -315,-45 -475,-66l-59 -8c-169,-23 -341,-45 -515,-66l-65 -8c-172,-21 -346,-41 -523,-62l-65 -7c-174,-19 -350,-38 -527,-56l-85 -8c-184,-18 -372,-36 -562,-53l-55 -5c-189,-17 -382,-33 -576,-48l-71 -6c-200,-16 -402,-30 -607,-45l-45 -3c-665,-46 -1356,-83 -2076,-111l-6 0c-236,-9 -476,-17 -718,-25l-15 0 -22 -1c-240,-7 -483,-13 -728,-18l-4 0 -15 0c-250,-6 -503,-9 -759,-12l-7 0c-259,-4 -521,-6 -786,-6 -22,0 -43,0 -65,0 -1287,0 -2498,123 -4154,247 -323,24 -664,48 -1025,71 -3864,-1537 -7388,-3278 -10034,-4986z"/>
  <path class="fil4" d="M144866 290797c-3565,10057 -3089,15459 -3089,15459 0,0 -4468,-3887 -4802,-17557 -3028,4385 -3784,11098 -4956,13565 -893,1883 -2235,-6722 -1508,-15939 -6587,5201 -13164,8422 -12229,6737 1325,-2388 6344,-6911 8147,-11924 -11312,7684 -17072,6313 -17072,6313 0,0 4670,-2757 10774,-11509 171,-245 352,-493 542,-744 4335,-1673 6344,-2081 8454,-2953 6650,-2749 10757,-5347 13392,-7581l-7 48 0 4 -1 5 0 4 -1 5 0 4 -1 5 0 5 0 4 -1 5 0 4 -1 5 0 4 -1 5 0 5 -1 4 0 5 0 5 -1 4 0 5 -1 4 0 5 -1 5 0 4 -1 5 0 5 0 4 -1 5 0 5 -1 4 0 5 -1 4 0 5 -1 5 0 4 0 5 -1 5 0 5 -1 4 0 5 0 0 0 5 0 0 0 4 0 0 0 5 0 0 0 4 0 0 0 5 0 0 0 4 0 0 0 5 0 0 0 4 0 0 0 5 -1 4 0 5 -1 4 0 5 -1 5 0 5 -1 5 0 4 0 5 0 5 0 0 0 5 0 0 0 5 0 4 -1 5 0 4 -1 5 -23 170 -21 163 -1 10 -21 176 0 4 -19 167 -1 8 -19 181 -18 181 0 3 -17 187 -1 14 -12 148 -19 242 -10 147 -16 253 -8 141 -13 271 -6 140c-4,94 -7,190 -10,287l-4 135c-3,101 -5,202 -6,305l-2 131c-1,109 -2,219 -2,331l0 104c0,120 1,242 3,364l1 96c1,123 4,248 7,374l3 113c3,129 8,260 12,393l4 84c5,138 12,277 19,417l4 84c8,143 16,288 25,435l6 81c9,147 19,295 31,445l7 94c11,147 23,295 36,445l10 111c14,157 29,316 45,477l6 60c17,170 35,342 54,517l7 65c19,173 39,347 61,523l8 65c21,173 44,349 67,526l11 85c24,184 51,371 78,558l7 55c28,188 56,380 86,572l11 70c31,198 63,398 97,601l7 44c109,657 232,1339 369,2046l1 6c45,232 92,467 141,705l3 15 4 22c48,235 98,472 150,713l1 5 3 14c52,244 107,491 163,741l1 7c57,253 115,508 175,766 5,22 10,43 15,64 297,1253 695,2403 1196,3985 196,620 408,1306 636,2091 -289,1061 -598,2059 -922,2973zm-3221 -29467c2108,552 4245,1035 6406,1446l0 6c-2162,-412 -4299,-897 -6407,-1453z"/>
  <path class="fil5" d="M83580 259303c1792,992 3036,903 4270,812 1339,-97 2667,-195 4670,1090 2197,1409 4614,-3026 5800,-7396 1185,4370 3603,8805 5800,7396 2002,-1285 3330,-1187 4670,-1089 1234,91 2478,180 4270,-812 1508,-836 521,-3781 -1645,-6710 2765,103 5153,-362 6066,-1346 -4826,-2846 -9381,-6103 -13616,-9723l-124 50 65 -99c-3457,-2960 -6699,-6162 -9703,-9580 -388,2134 -46,5292 668,7985 -3155,-3088 -8218,-5272 -11146,-5272 -1190,0 -2029,361 -2243,1169 -1090,4127 1797,4797 346,9133 -746,2229 3146,3471 7234,3754 -4405,3590 -7604,9408 -5381,10639z"/>
  <path class="fil5" d="M204354 270701c1852,1026 3138,933 4415,840 1385,-100 2758,-201 4829,1127 2272,1457 4771,-3128 5997,-7647 1226,4519 3725,9104 5997,7647 2070,-1328 3444,-1227 4828,-1127 1277,94 2562,186 4416,-840 1559,-864 538,-3909 -1701,-6937 3756,139 6840,-734 6674,-2506 -410,-4396 -3451,-4018 -3586,-8744 -39,-1369 -1395,-1909 -3301,-1909 -2234,0 -5222,743 -7723,1765 2155,-3187 3324,-7798 3288,-11069 -3934,3388 -8147,6462 -12599,9182l36 136 -99 -97c-4205,2565 -8625,4810 -13222,6712 906,1422 4049,2241 7314,2467 -4555,3712 -7862,9726 -5563,11000z"/>
  <path class="fil6" d="M96919 245853c0,728 591,1319 1320,1319 729,0 1320,-591 1320,-1319 0,-729 -591,-1320 -1320,-1320 -729,0 -1320,591 -1320,1320z"/>
  <path class="fil5" d="M164267 72990c539,-1165 1007,-2484 1363,-3797 356,1310 821,2625 1358,3786 4732,46 9382,431 13926,1140 610,-1228 -378,-3690 -2189,-6141 3634,135 6615,-710 6455,-2424 -397,-4252 -3338,-3886 -3468,-8457 -38,-1323 -1350,-1846 -3192,-1846 -2160,0 -5049,719 -7468,1707 3539,-5235 4328,-14440 1333,-14532 -78,-3 -155,-4 -232,-5l-4 0 -4 0 -4 0 -4 0 -5 0 -4 0 -4 0 -5 0 -3 0c-1863,0 -2879,612 -3881,1225 -1153,703 -2288,1406 -4670,1179 -2839,-270 -2720,5783 -1484,10440 -3155,-3088 -8218,-5273 -11146,-5273 -1190,0 -2029,361 -2243,1169 -1090,4127 1797,4798 346,9134 -746,2228 3146,3470 7234,3754 -4006,3265 -7013,8370 -5854,10195 4518,-742 9142,-1168 13850,-1254z"/>
  <path class="fil0" d="M145832 115811l4584 0 1995 -8233 4490 0 -4957 20667 -4490 0 2494 -10389 -4583 0 -2495 10389 -4490 0 4522 -18788c-1372,497 -2443,1262 -3213,2293 -769,1032 -1153,2275 -1153,3730 0,332 21,608 62,829 41,221 83,401 125,539 42,138 88,248 140,332 52,82 88,151 109,207 -1039,0 -1855,-189 -2447,-567 -592,-378 -889,-1036 -889,-1975 0,-976 328,-1907 983,-2791 655,-884 1502,-1662 2542,-2335 1039,-673 2208,-1207 3507,-1602 1299,-396 2593,-595 3882,-595 229,0 447,5 655,14 208,9 416,23 624,42l-1996 8233zm18365 -1520c2619,0 3949,1446 3991,4338 83,19 197,28 343,28 354,0 743,-46 1169,-138 426,-92 853,-217 1279,-373l46 -17 625 -2594 -1029 0 249 -1105 1029 0 936 -3813 4614 -553 -1059 4366 1870 0 -250 1105 -1870 0 -1995 8289c-83,313 -125,608 -125,884 0,387 104,654 312,801 207,147 529,221 966,221 603,0 1163,-230 1684,-691 282,-250 521,-536 718,-857l-1 -166c0,-534 63,-1142 187,-1823 125,-681 317,-1381 577,-2099 260,-719 608,-1423 1044,-2113 437,-691 967,-1313 1590,-1866 624,-552 1351,-994 2182,-1326 832,-332 1777,-498 2838,-498 686,0 1252,74 1699,221 447,148 800,346 1060,594 260,249 437,529 530,843 94,313 140,644 140,994 0,774 -197,1501 -592,2183 -395,682 -925,1276 -1590,1783 -665,506 -1429,911 -2291,1215 -863,304 -1762,484 -2697,539 -20,203 -36,396 -47,580 -10,184 -15,359 -15,525 0,939 187,1561 561,1865 375,304 936,455 1684,455 624,0 1185,-74 1683,-221 499,-147 967,-345 1404,-594 436,-249 852,-544 1247,-884 395,-341 790,-705 1185,-1091l1 0 3336 -13843 4614 -552 -3586 14920c-82,313 -124,608 -124,884 0,387 104,654 312,801 207,147 530,221 966,221 602,0 1164,-230 1684,-691 519,-460 893,-1041 1122,-1740l1310 0c-437,1123 -946,2021 -1528,2694 -582,672 -1175,1188 -1777,1547 -603,359 -1190,594 -1762,705 -572,110 -1065,166 -1481,166 -935,0 -1725,-263 -2370,-788 -644,-525 -966,-1368 -966,-2528l2 -126 -190 208c-561,609 -1196,1152 -1902,1631 -707,479 -1486,866 -2338,1161 -853,295 -1799,442 -2838,442 -1476,0 -2656,-341 -3539,-1022 -480,-370 -829,-871 -1048,-1502l-90 107c-582,672 -1174,1188 -1777,1547 -603,359 -1190,594 -1761,705 -572,110 -1065,166 -1482,166 -935,0 -1725,-263 -2369,-788 -645,-525 -967,-1368 -967,-2528 0,-497 84,-1096 250,-1795l939 -3896c-812,288 -1676,500 -2592,635 -125,1290 -405,2450 -842,3482 -437,1031 -987,1911 -1652,2638 -665,728 -1424,1285 -2277,1672 -851,387 -1756,581 -2712,581 -728,0 -1398,-78 -2012,-235 -613,-157 -1138,-410 -1574,-760 -437,-351 -780,-801 -1029,-1354 -249,-553 -374,-1225 -374,-2018 0,-534 62,-1142 187,-1823 125,-681 327,-1386 608,-2114 280,-727 639,-1436 1075,-2127 437,-691 972,-1313 1606,-1866 634,-552 1367,-994 2198,-1326 831,-332 1788,-498 2869,-498zm-2308 11522c374,0 754,-143 1139,-428 385,-286 738,-681 1060,-1188 322,-506 608,-1110 857,-1809 250,-701 437,-1455 561,-2266 -332,-74 -556,-217 -670,-428 -115,-212 -172,-456 -172,-732 0,-387 88,-704 265,-953 177,-249 410,-419 702,-512 -42,-570 -151,-971 -328,-1202 -176,-230 -462,-345 -857,-345 -561,0 -1092,271 -1590,815 -499,544 -935,1206 -1310,1990 -374,782 -675,1611 -903,2486 -229,875 -343,1653 -343,2335 0,461 26,834 78,1119 52,286 140,512 265,677 124,166 290,281 498,345 208,64 458,97 748,97zm25255 -8924c0,-350 -57,-627 -171,-829 -115,-203 -317,-304 -608,-304 -395,0 -780,166 -1154,497 -375,331 -728,759 -1060,1285 -333,525 -629,1119 -888,1782 -260,663 -473,1335 -639,2017 603,-37 1180,-184 1731,-442 551,-258 1034,-590 1449,-995 416,-406 743,-871 982,-1396 239,-524 358,-1064 358,-1616z"/>
  <path class="fil7" d="M132449 204067l-3776 15344c-368,1551 -852,2958 -1451,4223 -598,1265 -1343,2333 -2233,3203 -890,871 -1942,1544 -3155,2020 -1213,476 -2617,714 -4213,714 -1382,0 -2525,-163 -3431,-490 -905,-327 -1635,-748 -2187,-1265 -552,-517 -944,-1109 -1174,-1775 -230,-667 -345,-1353 -345,-2060 0,-707 107,-1394 322,-2061 215,-667 568,-1265 1059,-1795 491,-530 1128,-959 1911,-1285 783,-327 1742,-490 2878,-490 307,0 690,27 1151,81 460,55 898,170 1312,347 414,177 768,449 1059,816 292,367 438,864 438,1489 0,489 -92,1034 -276,1632 -338,-435 -767,-721 -1289,-857 -522,-136 -982,-204 -1381,-204 -1136,0 -1972,327 -2510,979 -537,653 -806,1374 -806,2162 0,707 238,1340 714,1898 476,558 1282,837 2417,837 430,0 852,-61 1267,-184 414,-122 805,-368 1174,-735 368,-367 714,-877 1036,-1530 322,-653 621,-1510 897,-2571l2303 -9018c-952,1088 -2011,1891 -3177,2407 -1167,517 -2441,776 -3822,776 -1320,0 -2525,-231 -3615,-694 -1090,-463 -2034,-1122 -2832,-1979 -799,-857 -1420,-1911 -1865,-3163 -445,-1251 -668,-2680 -668,-4285 0,-2067 384,-4067 1151,-5998 768,-1932 1865,-3639 3293,-5121 1427,-1483 3162,-2673 5204,-3571 2041,-897 4336,-1346 6885,-1346 1074,0 2133,95 3177,286 1044,190 1972,503 2786,938 813,435 1466,1013 1957,1735 491,720 737,1612 737,2673 0,952 -246,1789 -737,2510 -491,721 -1320,1081 -2486,1081 -184,0 -415,-13 -691,-40 -276,-27 -560,-82 -851,-163 -292,-81 -584,-190 -875,-327 -291,-136 -545,-312 -759,-530 276,-81 537,-252 782,-510 246,-259 461,-558 645,-898 184,-340 330,-694 437,-1061 108,-367 161,-701 161,-1000 0,-136 -23,-340 -69,-612 -46,-272 -177,-551 -391,-837 -215,-285 -538,-537 -967,-755 -430,-218 -1029,-327 -1796,-327 -1443,0 -2801,408 -4076,1225 -1274,816 -2387,1884 -3338,3203 -952,1319 -1704,2802 -2257,4448 -552,1646 -829,3285 -829,4917 0,2122 430,3761 1290,4917 859,1156 1888,1734 3085,1734 645,0 1305,-177 1980,-530 676,-354 1343,-898 2003,-1633 660,-734 1282,-1673 1865,-2816 583,-1142 1090,-2516 1520,-4122l5434 41z"/>
  <path class="fil7" d="M153318 196065l-2870 11844c-105,394 -157,765 -157,1114 0,488 131,825 393,1010 262,186 669,279 1219,279 760,0 1409,-291 1946,-871 533,-575 943,-1299 1231,-2171l2680 -11205 5660 0 -550 2195c760,-650 1553,-1208 2378,-1672 825,-464 1631,-697 2418,-697 891,0 1566,268 2024,801 459,534 688,1138 688,1811 0,302 -59,604 -177,906 -117,302 -294,575 -530,819 -236,244 -531,441 -885,592 -354,151 -766,227 -1238,227 -550,0 -924,-116 -1121,-348 -196,-233 -334,-482 -412,-749 -79,-267 -151,-517 -216,-749 -66,-232 -243,-348 -531,-348 -498,0 -970,128 -1415,383 -445,256 -930,592 -1455,1011l-3144 13237 -5660 0 484 -2024c-438,420 -882,764 -1330,1031 -721,429 -1421,702 -2103,818 -681,117 -1284,175 -1808,175 -1075,0 -1946,-256 -2614,-766 -668,-511 -1081,-1265 -1238,-2264 -288,395 -629,789 -1023,1184 -392,395 -832,743 -1317,1045 -485,302 -1015,546 -1592,732 -576,185 -1219,278 -1926,278 -681,0 -1330,-98 -1946,-295 -616,-198 -1173,-517 -1671,-958 -498,-441 -891,-1016 -1179,-1725 -288,-708 -432,-1585 -432,-2629 0,-790 92,-1638 275,-2543 184,-906 459,-1811 826,-2718 367,-905 825,-1776 1376,-2612 550,-836 1205,-1573 1965,-2212 760,-638 1605,-1150 2535,-1533 931,-384 1972,-575 3126,-575 314,0 648,17 1002,52 354,35 682,117 983,244 302,128 564,314 787,557 223,245 373,564 452,958l393 -1637 5699 0zm-8098 1986c-839,0 -1599,342 -2279,1027 -682,685 -1258,1521 -1730,2508 -472,987 -839,2032 -1101,3135 -261,1103 -393,2060 -393,2874 0,673 72,1190 217,1551 144,360 315,627 511,801 196,174 406,278 629,313 223,35 426,52 610,52 288,0 596,-64 924,-191 327,-128 649,-320 963,-575 315,-255 589,-574 825,-958 236,-383 420,-830 550,-1341l1887 -7873c0,-92 -33,-215 -98,-366 -65,-151 -157,-296 -275,-436 -118,-139 -275,-261 -472,-366 -196,-104 -452,-156 -766,-156zm45027 -8207l-4342 18065c-105,394 -157,765 -157,1114 0,488 131,825 393,1010 262,186 668,279 1219,279 760,0 1409,-291 1946,-871 276,-299 520,-638 731,-1016 -2,-90 -4,-180 -4,-272 0,-673 79,-1440 236,-2299 157,-859 400,-1742 727,-2647 328,-906 767,-1794 1317,-2665 550,-870 1219,-1654 2005,-2351 786,-696 1703,-1254 2752,-1672 1048,-418 2241,-627 3577,-627 864,0 1579,93 2142,279 564,186 1009,436 1336,748 328,314 551,668 669,1063 118,395 177,813 177,1254 0,976 -249,1893 -747,2752 -499,860 -1167,1609 -2005,2247 -839,638 -1802,1149 -2889,1532 -1088,384 -2221,610 -3400,679 -26,255 -46,500 -59,731 -13,232 -20,453 -20,662 0,1184 236,1968 707,2352 472,383 1179,575 2123,575 786,0 1494,-93 2123,-279 629,-185 1219,-436 1769,-749 550,-314 1075,-685 1573,-1115 497,-429 994,-887 1490,-1373l2676 -11185 5660 0 -432 1811c838,-836 1664,-1370 2477,-1603 812,-231 1520,-348 2122,-348 1258,0 2300,308 3126,923 825,615 1237,1620 1237,3013 0,697 -98,1469 -294,2316 -197,848 -414,1685 -649,2508 -236,824 -452,1603 -648,2334 -196,732 -295,1341 -295,1829 0,442 111,795 334,1063 223,267 635,400 1238,400 419,0 792,-75 1120,-226 328,-151 616,-360 864,-627 249,-267 478,-587 688,-958 209,-372 420,-790 629,-1254l1651 0c-551,1439 -1140,2583 -1769,3431 -629,848 -1271,1492 -1926,1934 -655,441 -1291,731 -1906,871 -616,139 -1186,208 -1710,208 -865,0 -1592,-110 -2182,-331 -590,-220 -1068,-516 -1434,-888 -368,-371 -629,-795 -787,-1271 -157,-476 -236,-958 -236,-1446 0,-580 92,-1271 276,-2072 183,-801 386,-1609 610,-2421 223,-813 426,-1609 609,-2386 183,-779 275,-1446 275,-2003 0,-1184 -472,-1777 -1415,-1777 -708,0 -1324,314 -1848,941 -524,627 -930,1382 -1219,2264l-2673 11182 -5661 0 919 -3840c-700,755 -1492,1432 -2373,2029 -891,604 -1874,1091 -2948,1463 -1075,371 -2266,557 -3577,557 -1861,0 -3348,-429 -4462,-1288 -599,-462 -1036,-1085 -1313,-1869l-63 75c-694,824 -1402,1451 -2122,1881 -721,429 -1422,702 -2104,818 -681,117 -1283,175 -1808,175 -1074,0 -1945,-256 -2614,-766 -668,-511 -1081,-1265 -1238,-2264 -288,395 -629,789 -1022,1184 -393,395 -832,743 -1317,1045 -485,302 -1015,546 -1592,732 -576,185 -1219,278 -1926,278 -681,0 -1330,-98 -1946,-295 -615,-198 -1173,-517 -1670,-958 -498,-441 -891,-1016 -1179,-1725 -288,-708 -432,-1585 -432,-2629 0,-790 92,-1638 275,-2543 184,-906 459,-1811 826,-2718 367,-905 825,-1776 1375,-2612 550,-836 1205,-1573 1966,-2212 759,-638 1604,-1150 2535,-1533 930,-384 1972,-575 3125,-575 314,0 648,17 1002,52 354,35 688,117 1003,244 314,128 582,314 805,557 223,245 360,575 413,993l1914 -7893 5650 0zm-9569 8207c-839,0 -1599,342 -2279,1027 -682,685 -1259,1521 -1730,2508 -472,987 -839,2032 -1101,3135 -262,1103 -393,2060 -393,2874 0,673 73,1190 216,1551 144,360 315,627 512,801 196,174 406,278 629,313 222,35 426,52 609,52 288,0 596,-64 924,-191 328,-128 649,-320 963,-575 315,-255 590,-574 826,-958 236,-383 420,-830 551,-1341l1887 -7838c0,-209 -111,-488 -334,-836 -223,-348 -649,-522 -1278,-522zm21266 1115c0,-441 -72,-790 -217,-1045 -144,-256 -399,-383 -766,-383 -498,0 -983,209 -1454,627 -472,418 -917,958 -1336,1620 -420,662 -793,1411 -1121,2247 -328,836 -596,1684 -806,2542 760,-46 1488,-231 2182,-557 694,-325 1303,-743 1828,-1254 524,-511 937,-1098 1238,-1760 302,-662 452,-1341 452,-2037z"/>
  <path class="fil7" d="M244798 137156c8459,0 12756,4670 12890,14010 268,61 638,90 1108,90 1142,0 2401,-150 3777,-446 1376,-298 2752,-700 4129,-1206 1377,-505 2720,-1085 4029,-1740 1309,-655 2501,-1309 3575,-1963l906 2409c-1947,1845 -4481,3407 -7602,4686 -3122,1280 -6496,2186 -10122,2722 -403,4164 -1310,7913 -2719,11245 -1410,3331 -3189,6172 -5338,8522 -2149,2350 -4599,4150 -7352,5399 -2752,1249 -5673,1874 -8762,1874 -2349,0 -4514,-253 -6495,-759 -1981,-506 -3676,-1323 -5085,-2454 -1410,-1131 -2517,-2588 -3324,-4373 -806,-1785 -1209,-3957 -1209,-6515 0,-1726 201,-3689 604,-5890 403,-2201 1058,-4477 1964,-6827 907,-2350 2065,-4641 3474,-6872 1410,-2231 3139,-4239 5187,-6024 2048,-1785 4415,-3213 7100,-4284 2686,-1071 5774,-1606 9266,-1606zm-7453 37214c1209,0 2434,-461 3676,-1383 1242,-922 2384,-2201 3424,-3838 1041,-1635 1964,-3584 2770,-5845 806,-2260 1409,-4700 1812,-7317 -1073,-238 -1795,-699 -2165,-1383 -368,-684 -554,-1473 -554,-2365 0,-1250 286,-2277 855,-3079 571,-804 1327,-1354 2267,-1651 -134,-1845 -487,-3139 -1057,-3882 -571,-744 -1495,-1115 -2770,-1115 -1813,0 -3525,877 -5137,2632 -1611,1755 -3021,3897 -4229,6425 -1208,2529 -2182,5206 -2921,8032 -738,2826 -1108,5340 -1108,7541 0,1487 84,2691 253,3614 167,923 453,1651 855,2187 403,535 941,907 1612,1116 671,208 1478,312 2417,312z"/>
  <path class="fil7" d="M202096 137602l-1409 5622c1947,-1666 3978,-3094 6092,-4283 2115,-1190 4179,-1785 6193,-1785 2283,0 4012,684 5187,2053 1175,1369 1763,2916 1763,4641 0,773 -152,1547 -454,2320 -302,773 -755,1473 -1360,2098 -604,624 -1359,1131 -2266,1517 -907,387 -1964,580 -3172,580 -1410,0 -2367,-298 -2870,-892 -504,-595 -856,-1234 -1057,-1918 -201,-684 -386,-1324 -554,-1919 -168,-594 -621,-892 -1360,-892 -1276,0 -2484,327 -3625,981 -1141,655 -2384,1517 -3727,2588l-8057 33912 -14502 0 1191 -4978c-1106,1091 -2225,1991 -3356,2702 -1846,1160 -3642,1919 -5388,2276 -1745,357 -3289,535 -4633,535 -2887,0 -5186,-714 -6898,-2142 -1712,-1428 -2736,-3540 -3072,-6336 -1275,1844 -2568,3317 -3876,4417 -1310,1101 -2602,1949 -3878,2544 -1276,595 -2517,996 -3726,1205 -1208,208 -2349,312 -3424,312 -3021,0 -5572,-848 -7654,-2543 -2081,-1696 -3122,-4418 -3122,-8166 0,-1606 269,-3540 806,-5801l6848 -28647 14502 0 -7251 30343c-201,892 -303,1725 -303,2498 0,1012 219,1874 655,2588 437,714 1226,1071 2367,1071 1947,0 3592,-744 4935,-2231 1343,-1488 2384,-3362 3122,-5623l6849 -28647 14502 0 -7251 30343c-269,1011 -403,1963 -403,2856 0,1249 336,2112 1007,2588 671,476 1712,714 3122,714 1947,0 3609,-744 4985,-2231 1364,-1474 2415,-3329 3152,-5562l6868 -28707 14502 0z"/>
  <path class="fil7" d="M100079 123680l-12085 50065c1813,1190 3726,1784 5740,1784 3021,0 5724,-1219 8108,-3658 2383,-2440 4397,-5533 6042,-9282 1645,-3748 2921,-7868 3826,-12360 907,-4492 1360,-8761 1360,-12807 0,-3332 -319,-6143 -956,-8434 -638,-2290 -1595,-4150 -2870,-5578 -1276,-1428 -2887,-2454 -4834,-3079 -1947,-625 -4229,-937 -6848,-937 -3424,0 -6697,491 -9819,1472 -3123,982 -5841,2410 -8157,4284 -2317,1874 -4163,4150 -5539,6827 -1376,2677 -2064,5711 -2064,9102 0,1072 68,1949 201,2633 135,684 269,1249 403,1696 134,447 285,804 453,1071 168,267 286,491 353,669 -3357,0 -5992,-624 -7906,-1874 -1914,-1249 -2870,-3391 -2870,-6425 0,-3034 1007,-5979 3021,-8835 2014,-2856 4717,-5370 8107,-7541 3390,-2172 7318,-3912 11783,-5221 4465,-1309 9181,-1963 14149,-1963 4968,0 9181,669 12639,2008 3457,1339 6277,3198 8459,5578 2182,2380 3759,5161 4733,8344 974,3183 1461,6619 1461,10308 0,3272 -336,6574 -1007,9906 -672,3332 -1628,6544 -2870,9638 -1242,3094 -2736,6009 -4481,8746 -1746,2737 -3642,5102 -5690,7095 -2048,1993 -4247,3570 -6597,4730 -2350,1160 -4767,1740 -7251,1740 -1947,0 -3944,-372 -5992,-1116 -2047,-743 -4146,-1948 -6294,-3614l-806 3570 -14502 0 13697 -56759 14904 -1785z"/>
  <path class="fil8" d="M166044 79964c36021,0 67036,21470 80946,52308 -707,-60 -1438,-92 -2192,-92 -507,0 -1013,11 -1519,31 -13692,-28907 -43130,-48908 -77235,-48908 -24645,0 -46851,10448 -62443,27149 -1312,-95 -2624,-137 -3923,-137l-457 2c16270,-18601 40176,-30353 66823,-30353zm88336 97387c-4342,44960 -42239,80123 -88336,80123 -42672,0 -78316,-30133 -86822,-70275l3417 0c8448,38285 42584,66937 83405,66937 42880,0 78387,-31616 84487,-72802 903,-772 1761,-1604 2572,-2490 443,-485 868,-982 1277,-1492z"/>
  <path class="fil6" d="M219563 257567c0,753 611,1364 1365,1364 753,0 1364,-611 1364,-1364 0,-753 -611,-1364 -1364,-1364 -754,0 -1365,610 -1365,1364z"/>
  <circle class="fil9" cx="166259" cy="168663" r="95760"/>
 </g>
</svg>
