<?xml version="1.0" encoding="UTF-8"?>
<!DOCTYPE svg PUBLIC "-//W3C//DTD SVG 1.1//EN" "http://www.w3.org/Graphics/SVG/1.1/DTD/svg11.dtd">
<!-- Creator: CorelDRAW X6 -->
<svg xmlns="http://www.w3.org/2000/svg" xml:space="preserve" width="200px" height="122px" version="1.1" style="shape-rendering:geometricPrecision; text-rendering:geometricPrecision; image-rendering:optimizeQuality; fill-rule:evenodd; clip-rule:evenodd"
viewBox="0 0 77045 47135"
 xmlns:xlink="http://www.w3.org/1999/xlink">
 <defs>
  <style type="text/css">
   <![CDATA[
    .fil0 {fill:black}
    .fil1 {fill:black;fill-rule:nonzero}
   ]]>
  </style>
 </defs>
 <g id="Capa_x0020_1">
  <metadata id="CorelCorpID_0Corel-Layer"/>
  <path class="fil0" d="M38420 6901c4854,0 9843,1184 14001,3739 2832,1740 5319,4168 6741,7171 -233,37 -463,89 -682,159 -2954,-6055 -10821,-10387 -20061,-10387 -9084,0 -16841,4187 -19907,10082 -97,-13 -197,-20 -301,-20 -164,0 -328,26 -489,70 1429,-2959 3894,-5353 6696,-7075 4158,-2555 9147,-3739 14001,-3739zm21134 20919c-1322,3426 -4019,6171 -7133,8084 -4158,2555 -9147,3739 -14001,3739 -4854,0 -9843,-1184 -14001,-3739 -2990,-1837 -5596,-4441 -6969,-7679 208,-100 401,-232 579,-386 2657,6436 10782,11122 20392,11122 9424,0 17420,-4507 20231,-10751 276,-157 527,-369 754,-592 45,70 95,138 149,202z"/>
  <path class="fil0" d="M14528 9487c5917,-6214 15448,-9487 23901,-9487 8454,0 17985,3272 23902,9487l11722 0c1647,0 2991,1345 2991,2991l0 16866c0,1647 -1345,2991 -2991,2991l-7982 0c-4805,9783 -17233,14799 -27642,14799 -10409,0 -22837,-5018 -27642,-14799l-7796 0c-1647,0 -2991,-1345 -2991,-2991l0 -16866c0,-1647 1345,-2991 2991,-2991l11537 0zm295 682c5773,-6219 15254,-9487 23607,-9487 8354,0 17835,3267 23607,9487l12017 0c1271,0 2310,1039 2310,2310l0 16866c0,1271 -1039,2310 -2310,2310l-8412 0c-4483,9660 -16735,14799 -27213,14799 -10477,0 -22729,-5141 -27212,-14799l-8226 0c-1271,0 -2310,-1039 -2310,-2310l0 -16866c0,-1271 1039,-2310 2310,-2310l11832 0z"/>
  <path class="fil1" d="M73605 19713c0,-257 -77,-430 -232,-520 -88,-51 -265,-77 -529,-77 -375,0 -745,270 -1109,809 -221,321 -530,905 -927,1753 -364,771 -690,1335 -977,1695 -11,-26 -16,-51 -16,-77 0,-449 113,-1152 339,-2109 227,-957 395,-1672 505,-2147 508,-629 938,-1367 1291,-2215 397,-937 596,-1791 596,-2562 0,-321 -171,-482 -513,-482 -739,0 -1269,244 -1589,735 -177,270 -403,867 -679,1795 -430,1457 -855,3444 -1275,5970 -364,2202 -546,3644 -546,4324 0,209 110,369 331,485 177,90 364,135 563,135 187,0 314,-84 381,-254 453,-1204 795,-2109 1026,-2716 453,-1178 800,-1833 1043,-1961 44,26 66,71 66,135 0,372 -77,966 -231,1781 -155,816 -232,1428 -232,1839 0,295 69,565 207,809 138,244 328,366 571,366 254,0 554,-148 902,-443 348,-295 610,-520 786,-674l66 -366c-419,-77 -629,-308 -629,-693 0,-604 135,-1493 406,-2668 270,-1175 405,-2064 405,-2667zm-5499 1098l-794 944 -215 -135c-66,-848 -176,-1271 -331,-1271 -165,0 -397,661 -695,1984 -287,1258 -430,2112 -430,2562 0,514 154,771 463,771 265,0 717,-321 1357,-963l-116 982c-265,231 -673,565 -1225,1001 -475,360 -938,539 -1391,539 -342,0 -624,-135 -844,-405 -221,-270 -331,-603 -331,-1001 0,-1477 182,-2844 546,-4102 508,-1733 1252,-2600 2234,-2600 99,0 248,-25 447,-77 199,-51 348,-77 447,-77 518,0 811,616 877,1849zm-5510 -295c0,154 -61,420 -182,806 -133,459 -210,758 -232,899 -99,626 -149,1451 -149,2475 0,408 160,690 480,841l0 347c-77,64 -320,324 -728,787 -287,331 -563,497 -828,497 -441,0 -662,-417 -662,-1252 0,-526 33,-1047 99,-1560 -1358,1875 -2235,2812 -2632,2812 -408,0 -717,-218 -927,-655 -176,-363 -265,-799 -265,-1313 0,-440 110,-1127 331,-2067l563 -2356c232,-719 629,-1216 1192,-1486 397,-180 993,-270 1788,-270 177,0 309,6 397,19l33 539c-684,64 -1142,327 -1374,790 -111,231 -254,828 -431,1791 -209,1181 -314,1965 -314,2350 0,270 77,404 232,404 199,0 706,-510 1523,-1531 77,-677 204,-1689 381,-3043 143,-879 430,-1319 861,-1319 220,0 419,192 596,574 166,334 248,639 248,921zm-7866 -222c0,-388 -94,-581 -282,-581 -331,0 -607,465 -828,1396 -143,607 -237,1239 -281,1897 927,-286 1390,-1188 1390,-2712zm1490 112c0,1426 -199,2311 -596,2658 -309,270 -1087,404 -2334,404 -33,540 -50,957 -50,1252 0,719 232,1079 695,1079 596,0 1131,-289 1606,-867l-99 751c-971,1027 -1959,1541 -2963,1541 -419,0 -753,-170 -1001,-510 -248,-340 -373,-754 -373,-1243 0,-1361 182,-2639 546,-3833 508,-1669 1269,-2504 2284,-2504l331 0 232 0 132 0c77,0 202,-26 373,-77 171,-51 300,-77 389,-77 552,0 828,475 828,1425zm-5662 -5296c0,1168 -1584,3133 -4751,5894 165,-39 325,-58 480,-58 2395,0 3592,828 3592,2485 0,771 -701,1897 -2102,3380 -1402,1483 -2445,2224 -3129,2224 -474,0 -712,-359 -712,-1078 0,-257 53,-626 157,-1107 105,-481 163,-831 174,-1050l348 -193c386,834 894,1252 1523,1252 287,0 554,-125 803,-376 248,-250 372,-536 372,-857 0,-989 -436,-1669 -1308,-2042 -552,-231 -1347,-346 -2384,-346 -177,0 -436,6 -778,19 -342,13 -601,19 -778,19 -254,0 -381,-141 -381,-424 0,-449 196,-886 588,-1309 392,-424 786,-668 1184,-732 618,-90 1506,-501 2665,-1233 1291,-809 1937,-1490 1937,-2042 0,-334 -248,-501 -745,-501 -729,0 -1832,270 -3311,809 -1678,617 -2571,1213 -2682,1791l-447 2273c-386,1965 -579,3370 -579,4218 0,668 -133,1002 -397,1002 -640,0 -960,-591 -960,-1772l0 -2870c0,-1490 116,-2594 348,-3313 287,-886 888,-1740 1805,-2562 0,-1155 105,-1733 314,-1733 309,0 580,327 811,982 2549,-1438 4790,-2157 6721,-2157 1082,0 1622,468 1622,1406zm-19766 7415c-221,2440 -585,3659 -1093,3659 -309,0 -549,-128 -720,-385 -171,-257 -257,-571 -257,-944 0,-1220 149,-2356 447,-3409 353,-1272 811,-1907 1374,-1907 -66,578 -99,1258 -99,2041 0,411 115,726 348,944zm1986 -1676c0,-193 -33,-289 -99,-289l-414 289c0,-514 -67,-957 -199,-1329 -177,-514 -447,-771 -811,-771 -177,0 -342,128 -497,385 -309,-64 -651,-96 -1027,-96 -1092,0 -1893,816 -2400,2446 -342,1092 -513,2311 -513,3659 0,1374 601,2061 1805,2061 1291,0 2202,-443 2731,-1329 386,-642 662,-1785 828,-3428 397,-295 596,-828 596,-1599zm-5960 -77c-77,205 -193,514 -348,924 -154,411 -359,616 -613,616 -386,0 -596,-340 -629,-1021l-794 4757c-55,308 -270,578 -646,809 -331,192 -646,289 -944,289 -88,0 -179,-45 -273,-135 -94,-90 -140,-186 -140,-289 0,591 71,475 215,-347 132,-732 270,-1705 414,-2918 144,-1213 215,-2019 215,-2417 0,-436 -122,-713 -364,-828l0 -347c177,-128 439,-311 786,-549 348,-238 632,-356 852,-356 210,0 364,161 463,482 55,270 110,533 166,789l596 -1906 877 -193c-155,488 -243,803 -265,944 -99,359 -149,687 -149,982 0,205 52,385 157,539 105,154 245,212 422,173zm-4966 -1120c0,498 -182,1207 -546,2128 -154,832 -232,1730 -232,2703 0,257 33,433 99,536 66,103 210,205 431,308l-50 382c-165,77 -430,353 -794,825 -320,408 -607,613 -861,613 -486,0 -728,-392 -728,-1175 0,-296 44,-783 132,-1464l-1953 2180c-276,305 -557,459 -844,459 -463,0 -695,-392 -695,-1172 0,-642 141,-1599 422,-2873 282,-1274 422,-2086 422,-2430 0,-192 -105,-340 -314,-443l66 -481c166,-39 474,-183 927,-440 419,-244 712,-366 877,-366 419,0 629,238 629,713 0,565 -133,1416 -397,2552 -265,1136 -397,1949 -397,2437 0,154 49,231 149,231 66,0 270,-193 613,-575 287,-331 497,-581 629,-745l348 -2928c44,-424 229,-809 555,-1159 325,-350 665,-526 1018,-526 331,0 497,238 497,709zm-6390 -2809c0,2902 -684,5303 -2053,7203 -1545,2157 -3730,3236 -6556,3236 -1578,0 -2367,-552 -2367,-1656 0,-308 39,-674 116,-1098l198 -1079 381 -116c221,1117 1402,1676 3543,1676 1479,0 2731,-533 3758,-1599 1070,-1104 1606,-2504 1606,-4199 0,-745 -185,-1319 -555,-1724 -369,-404 -875,-607 -1515,-607 -1004,0 -2243,141 -3722,424l-516 3756c-88,629 -287,1213 -596,1753 -375,680 -800,1021 -1274,1021 -144,0 -215,-109 -215,-327 353,-578 646,-1541 877,-2889 88,-501 226,-1541 414,-3120 -1523,218 -2461,327 -2814,327 -861,0 -1291,-385 -1291,-1156 0,-295 127,-757 381,-1387 320,-771 497,-1239 530,-1406l298 0c176,321 453,481 827,481 497,0 1297,-26 2401,-77 0,-475 77,-713 232,-713 199,0 508,199 927,597 1965,-244 3206,-366 3725,-366 1137,0 1931,167 2384,500 585,437 877,1284 877,2543z"/>
 </g>
</svg>
