<?xml version="1.0" encoding="UTF-8"?>
<!DOCTYPE svg PUBLIC "-//W3C//DTD SVG 1.1//EN" "http://www.w3.org/Graphics/SVG/1.1/DTD/svg11.dtd">
<!-- Creator: CorelDRAW X6 -->
<svg xmlns="http://www.w3.org/2000/svg" xml:space="preserve" width="200px" height="199px" version="1.1" style="shape-rendering:geometricPrecision; text-rendering:geometricPrecision; image-rendering:optimizeQuality; fill-rule:evenodd; clip-rule:evenodd"
viewBox="0 0 2062692 2052024"
 xmlns:xlink="http://www.w3.org/1999/xlink">
 <defs>
  <style type="text/css">
   <![CDATA[
    .fil1 {fill:none;fill-rule:nonzero}
    .fil4 {fill:black}
    .fil2 {fill:#CCCCCC}
    .fil3 {fill:black;fill-rule:nonzero}
    .fil0 {fill:#CCCCCC;fill-rule:nonzero}
   ]]>
  </style>
 </defs>
 <g id="Capa_x0020_1">
  <metadata id="CorelCorpID_0Corel-Layer"/>
  <path class="fil0" d="M1025975 455880c3368,-7273 6289,-15515 8515,-23712 2216,8175 5127,16389 8482,23646 29550,287 58597,2690 86979,7120 3809,-7670 -2357,-23045 -13672,-38352 22694,841 41316,-4436 40318,-15141 -2477,-26556 -20845,-24273 -21663,-52822 -237,-8265 -8432,-11532 -19941,-11529 -13492,0 -31536,4489 -46647,10665 22110,-32698 27034,-90193 8331,-90767 -491,-17 -971,-23 -1449,-27l-27 0 -23 0 -27 0 -23 -3 -27 3 -23 0 -27 0 -27 0 -23 0c-11633,0 -17978,3822 -24240,7647 -7200,4393 -14290,8785 -29173,7367 -17731,-1689 -16983,36116 -9266,65202 -19710,-19290 -51327,-32932 -69622,-32932 -7433,3 -12671,2256 -14009,7300 -6806,25779 11225,29968 2163,57048 -4660,13919 19647,21676 45178,23445 -25018,20391 -43803,52278 -36563,63677 28222,-4633 57101,-7297 86505,-7834zm8008 -83538c5601,0 10141,4536 10141,10137 0,5598 -4540,10137 -10141,10137 -5598,0 -10137,-4540 -10137,-10137 0,-5601 4540,-10137 10137,-10137z"/>
  <path class="fil0" d="M241347 733082c-9106,3094 52178,164511 47258,166384 -2393,918 -31500,-32571 -61708,-66064 -31757,-35215 -64745,-70433 -69181,-65653 -8669,9329 98655,125595 95727,129620 -1422,1963 -46173,-23539 -92159,-49047 -48440,-26867 -98251,-53733 -100230,-48493 -3869,10211 196752,126743 194379,134253 -1158,3658 -57585,-5724 -115117,-15107 -60539,-9870 -122300,-19744 -122154,-14423 274,10378 151480,31627 153967,38639 2483,7010 -171852,11099 -172125,17998 -280,6906 219987,12253 223959,16559 3982,4306 -212370,56481 -209443,69729 1539,6963 52929,-5651 101806,-18272 44120,-11389 86194,-22781 87713,-19767 3201,6352 -184108,92857 -175497,102190 4369,4733 62515,-20982 119403,-46697 55159,-24937 109129,-49871 111739,-47048 5301,5741 -187583,162529 -170082,174285 8922,5995 55750,-37171 100404,-80336 42919,-41490 83821,-82977 87122,-80814 6736,4413 -118298,210227 -100965,208845 17337,-1385 123432,-200340 130281,-198685 6839,1659 -43443,170359 -31850,174282 5855,1983 16957,-34778 27311,-71538 10154,-36033 19583,-72075 22641,-71611 6188,945 27444,126199 38599,141163 11145,14960 -8231,-122671 -15374,-173223 -7156,-50556 24420,15995 44738,43763 3648,4983 7317,9994 10811,14613l6733 -31483c-39143,-95454 -154848,-334127 -168454,-334103 -87,0 -174,13 -254,40z"/>
  <path class="fil0" d="M919203 1831383c-6896,54414 14273,169398 18933,200003 4837,31720 12601,25582 6355,-9553 -6245,-35138 -8555,-116062 -5464,-143997 664,-6018 1485,-13896 2477,-23075 -3715,7514 -8008,15051 -12961,22564 -3371,-18405 -6482,-33436 -9339,-45943z"/>
  <polygon class="fil0" points="1359899,1685487 1360252,1684823 1360252,1684823 "/>
  <polyline class="fil1" points="1356143,1691836 1356160,1691805 1356177,1691782 1356197,1691752 1356213,1691725 1356230,1691699 1356247,1691672 1356267,1691645 1356284,1691619 1356304,1691592 1356320,1691562 1356340,1691535 1356357,1691508 1356374,1691482 1356390,1691452 1356410,1691428 1356427,1691398 1356444,1691372 1356460,1691342 1356481,1691318 1356481,1691318 1356497,1691288 1356517,1691261 1356534,1691231 1356551,1691208 1356554,1691208 1356571,1691178 1356587,1691151 1356604,1691121 1356624,1691098 1356637,1691068 1356641,1691068 1356657,1691041 1356674,1691011 1356694,1690984 1356711,1690958 1356711,1690958 1356728,1690931 1356731,1690931 1356748,1690901 1356764,1690874 1356781,1690847 1356798,1690817 1356801,1690817 1356814,1690791 1356818,1690791 1356834,1690761 1356851,1690734 1356871,1690707 1356888,1690677 1356888,1690677 1356904,1690651 1356908,1690651 1356924,1690621 1356941,1690594 1356958,1690564 1356975,1690537 1356978,1690537 1356995,1690510 1356995,1690510 1357011,1690480 1357011,1690480 1357031,1690454 1357048,1690424 1357065,1690397 1357081,1690370 1357085,1690370 1357098,1690340 1357101,1690340 1357118,1690313 1357135,1690283 1357151,1690257 1357171,1690230 1357188,1690200 1357205,1690173 1357208,1690173 1357225,1690143 1357242,1690113 1357258,1690086 1357275,1690056 "/>
  <polyline class="fil1" points="1351784,1697617 1351814,1697583 1351844,1697547 1351874,1697513 1351904,1697480 1351934,1697443 1351938,1697443 1351964,1697406 1351968,1697406 1351994,1697373 1351998,1697373 1352024,1697340 1352028,1697340 1352058,1697303 1352088,1697266 1352118,1697233 1352148,1697196 1352178,1697163 1352208,1697126 1352238,1697089 1352268,1697053 1352298,1697019 1352328,1696983 1352358,1696946 1352388,1696912 1352392,1696912 1352418,1696876 1352422,1696876 1352452,1696839 1352452,1696839 1352482,1696802 1352482,1696802 1352512,1696766 1352512,1696766 1352542,1696729 1352542,1696729 1352572,1696692 1352572,1696692 1352602,1696655 1352602,1696655 1352632,1696619 1352632,1696619 1352662,1696582 1352665,1696582 1352692,1696545 1352695,1696545 1352722,1696509 1352725,1696509 1352752,1696472 1352755,1696472 1352782,1696435 1352785,1696435 1352812,1696398 1352816,1696398 1352842,1696362 1352846,1696362 1352872,1696325 1352876,1696325 1352902,1696288 1352906,1696288 1352932,1696252 1352936,1696252 1352962,1696215 1352966,1696215 1352996,1696178 1352996,1696178 1353026,1696138 1353056,1696101 1353086,1696061 1353116,1696025 1353146,1695988 1353176,1695951 1353206,1695914 1353236,1695874 1353266,1695834 1353296,1695798 1353326,1695761 1353356,1695721 1353386,1695684 1353386,1695684 1353416,1695647 1353446,1695607 1353476,1695567 1353506,1695531 1353536,1695494 1353567,1695454 1353597,1695414 1353623,1695377 1353653,1695337 1353687,1695297 1353717,1695260 "/>
  <polyline class="fil1" points="1350115,1699393 1350139,1699366 1350165,1699339 1350192,1699316 1350219,1699289 1350242,1699266 1350242,1699266 1350269,1699239 1350292,1699212 1350319,1699186 1350345,1699162 1350372,1699135 1350396,1699109 1350422,1699082 1350446,1699055 1350449,1699055 1350472,1699029 1350476,1699029 1350499,1699002 1350522,1698979 1350549,1698952 1350576,1698925 1350602,1698898 1350626,1698872 1350629,1698872 1350653,1698845 1350653,1698845 1350676,1698818 1350679,1698818 1350703,1698792 1350729,1698765 1350756,1698738 1350779,1698712 1350806,1698685 1350829,1698658 1350833,1698658 1350856,1698631 1350860,1698631 1350883,1698605 1350910,1698578 1350933,1698551 "/>
  <polygon class="fil0" points="1313886,1695758 1314053,1695768 1314053,1695771 "/>
  <polyline class="fil1" points="1289646,1695701 1289716,1695714 1289783,1695727 1289783,1695727 1289853,1695738 1289923,1695751 1289990,1695764 1289990,1695764 1290060,1695774 1290060,1695774 1290127,1695788 1290130,1695788 1290197,1695798 1290197,1695798 1290267,1695811 1290333,1695821 1290333,1695824 1290400,1695831 1290404,1695834 1290470,1695841 1290470,1695844 1290537,1695854 1290540,1695854 1290607,1695864 1290607,1695868 1290674,1695874 1290677,1695878 1290744,1695884 1290744,1695888 1290944,1695914 1290948,1695918 1291081,1695934 1291084,1695938 1291215,1695954 1291221,1695958 1291485,1695991 1291488,1695995 1291552,1696001 1291555,1696001 1291619,1696008 1291622,1696011 1291685,1696018 1291692,1696018 1291752,1696025 1291759,1696028 1292019,1696058 1292026,1696061 1292153,1696075 1292159,1696075 1292286,1696088 1292289,1696091 1292486,1696111 1292490,1696111 1292550,1696118 1292556,1696118 1292617,1696125 1292623,1696125 1292680,1696128 1292687,1696131 1292750,1696135 1292753,1696138 1292814,1696141 1292820,1696145 1292880,1696148 1292887,1696151 1292944,1696155 1292950,1696158 1293010,1696161 1293017,1696161 1293077,1696165 1293084,1696168 1293144,1696171 1293147,1696175 1293207,1696178 1293214,1696178 1293274,1696185 1293281,1696185 1293341,1696191 1293344,1696191 1293404,1696195 1293408,1696195 1293471,1696201 1293474,1696201 1293534,1696205 1293538,1696205 1293598,1696208 1293605,1696208 1293925,1696235 1293928,1696232 1293605,1696208 "/>
  <polyline class="fil1" points="1061047,1762412 1061053,1762422 1061053,1762425 1061060,1762432 "/>
  <path class="fil0" d="M1430044 1714947l73 0c1522,7 2470,237 2767,714 4159,6676 -21923,21620 -42615,29060 -11195,4022 -4967,3535 3331,3044 7053,-411 15605,-824 16269,1522 1449,5114 -21987,7670 -23015,13218 -507,2757 12767,157 25889,-2443 13368,-2647 26573,-5294 24944,-2296 -3238,5941 -72526,16656 -75186,21953 -2654,5307 57085,50 47268,8245 -9823,8185 -30709,5461 -32384,11129 -985,3338 1619,8071 -2584,9179 581,5915 -31446,-4209 -61577,-10661 52382,28806 112273,30508 102423,35482 -13972,7701 -53390,-2240 -86855,-12177 -28626,-8495 -52896,-16993 -53189,-14466 -634,5487 92787,44711 102170,59154 9389,14436 -111769,-46707 -128986,-56000 -17230,-9286 21256,28973 62629,53296 41370,24320 73544,18071 73684,30929 100,9102 -33880,601 -65877,-8695 27448,10551 60326,22027 67349,32054 9356,13372 -86218,-7757 -135839,-39200 -23606,-14964 -67482,-53510 -99089,-82219 3822,4266 7938,9042 12394,14403 67065,84188 133426,113201 165980,133182 32548,19987 -81501,-29530 -129721,-68210 -35218,-28255 -76197,-78384 -95741,-103371l-4596 -1535c19914,24060 57939,70456 68677,86912 14760,22604 76478,79822 110551,96318 34080,16493 13161,19674 -11746,6379 -24917,-13288 -77656,-50195 -124463,-108128 -17711,-21920 -37284,-43309 -52008,-60576 8879,14553 17898,29150 23118,37044 12861,19460 96555,127801 116506,140362 19951,12564 21620,21930 1943,10935 -19670,-11002 -101192,-89005 -124544,-125181 -18001,-27905 -53036,-81148 -53159,-99790l-6516 -6152c-1355,-53 -2670,587 -3862,2243 -6462,8962 48957,130385 68200,161598 19240,31219 81228,121670 71164,119433 -10060,-2240 -79859,-91311 -98288,-131523 -18422,-40215 -43600,-91241 -49541,-115588 -5938,-24353 -32761,-57435 -12480,34000 20284,91425 47598,158984 64518,186211 16923,27234 7974,35779 -11189,9536 -19166,-26253 -40682,-74776 -47689,-96081 -7010,-21302 -25545,-98368 -28719,-125275 -3174,-26913 -11816,-125338 -18796,-24183 -6983,101148 -2133,151036 10,181258 2156,30225 511,107030 -1569,95320 -2090,-11706 -4636,-66828 -8665,-89472 -3365,-18933 -14617,-94893 -14814,-142535 13725,-56708 9319,-77476 -7637,-122033 113,-4066 -277,-7821 -1215,-11175 2937,2463 8578,5681 15878,9616 2854,-5471 8091,-20855 14476,-40766 4777,464 9563,885 14373,1242 -6769,24690 -11028,43146 -9026,46096 1979,2924 12350,-16379 26273,-45092 7423,334 14887,524 22381,584 -17894,31830 -36587,52589 -25341,55916 4603,1365 19136,-23085 36587,-55933 7116,-80 14213,-247 21266,-577 -22901,44548 -46343,61594 -33649,68851 5941,3391 23102,-29691 41714,-69278 8021,-474 16005,-1075 23933,-1859 -3879,9720 -7400,18051 -10147,23923 -15154,32478 -45639,51350 -31697,57275 6529,2777 28419,-38102 50312,-82126 6522,-741 13018,-1572 19473,-2520 -3244,7664 -6549,15117 -9827,22094 -22825,48626 -42735,68811 -35225,71765 7507,2964 41760,-51984 62936,-86889 2090,-3445 4162,-7150 6205,-11015 6379,-1205 12721,-2503 19023,-3909 -5518,12894 -11733,25925 -18338,37848 -26723,48243 -56324,67462 -49541,72382 7343,5694 37575,-40148 65893,-85994 5815,-9410 11546,-18819 16983,-27778 6395,-1602 12757,-3281 19073,-5087 -7413,17641 -15177,34751 -19467,42655 -10561,19487 -53640,78374 -48496,80146 5154,1769 31316,-38319 56851,-74809 10464,-14944 21226,-35298 30615,-53970 4900,-1586 9767,-3228 14607,-4933 -8742,23055 -20144,49177 -28309,62359 -16269,26273 -55519,71331 -49785,73344 5735,2016 22578,-21002 39117,-41664 14570,-18208 42171,-68707 58951,-100320l494 771c1061,1669 2353,3204 3829,4616 -7741,24063 -21279,60299 -27628,70874 -11182,18632 -50225,64775 -43947,66878 6272,2106 39210,-39187 49327,-51727 8635,-10701 29430,-49751 43877,-74939 1963,564 3952,1061 5945,1509 -14613,16496 -33209,43790 -24901,61581 -1192,2206 -2340,4189 -3425,5881 -10294,16062 -34297,43005 -48620,58613l10942 -4777c14156,-12237 34771,-28649 45959,-40045 2413,-2457 4983,-5364 7644,-8562 9770,4570 17978,5257 29397,4419l87 -7c-13942,16312 -25398,28970 -21109,27401 3642,-1332 16573,-13725 30488,-27498 4646,451 8602,1946 14076,5457 12073,7737 23596,-1589 25688,424 7827,-2610 17414,-6556 26703,-10915 5831,7627 12854,13165 21099,13842 -1836,2146 -3849,4336 -6048,6552 16105,-4246 28853,-7073 34347,-7073z"/>
  <path class="fil0" d="M1431530 206873c10087,25722 13732,186108 12344,213408 -567,11065 -2196,31066 -3939,50940 -1886,-26506 -5481,-60262 -6949,-93221 -3902,-87189 -27995,-158674 -42268,-188534 -7827,-16372 -17951,-27234 -22097,-27237 -3415,3 -2774,7370 6569,25094 20695,39244 39137,136129 37354,167713 -240,11516 -137,23195 250,34808 -4843,-22654 -10588,-47361 -17611,-73791 -16069,-60466 -72853,-162709 -77196,-162712 -684,3 -60,2540 2223,8191 16823,41480 59264,114977 64011,241016 474,8134 1031,15478 1672,22144 -9860,-49047 -24453,-115865 -36323,-146380 -22541,-57979 -86371,-134103 -98785,-134103 -1328,-10 -2066,855 -2106,2697 -354,14350 22708,48046 41270,77089 -21025,-27488 -43960,-55479 -53246,-55479 -1198,0 -2166,464 -2877,1452 -8812,12227 25892,28696 48019,80397 22120,51707 31840,114557 22043,93822 -9790,-20735 -81598,-162642 -82776,-142495 -1182,20148 59685,122094 55279,126830 -4419,4730 -79232,-117935 -113609,-122491 -12751,-2153 42572,41086 71958,104670 -23946,-27034 -47131,-58854 -50676,-52852 -2974,5014 35685,81515 48573,106719 -46020,-23772 -97330,-44434 -127024,-40061l0 0c-4449,658 -8608,1469 -12470,2397 -855,3004 -1712,5681 -2503,7904 -337,938 -678,1873 -1035,2804 8622,-2036 17370,-3315 25388,-3315 14266,-3 30245,5197 30732,22017 277,9620 2397,13856 8175,21136 5354,6739 8982,12327 11175,19220 24767,-3675 48707,-6946 53423,-5571 5998,1756 -21693,6869 -51517,14173 140,1021 264,2076 364,3171 234,2460 -10,4957 -731,7323 -270,888 -597,1732 -975,2543 11225,-2390 20324,-4086 23038,-3592 7988,1459 -31313,13962 -51320,24307 1031,2353 1939,4746 2664,7146 35191,-8108 97790,-31580 130665,-24864 -35075,7454 -73788,29353 -104099,48550 6622,1462 13215,2991 19757,4676 22471,-10171 44107,-19740 53763,-22277 18262,-4793 78040,-20862 82493,-14513 4463,6352 -64445,22741 -87947,32541 -4686,1956 -12417,6285 -21509,11830 8235,2537 16386,5264 24470,8138 19059,-8175 36296,-14920 47388,-17878 29964,-7998 61865,-18005 65870,-12120 4005,5881 -64335,21109 -97951,34587l-1379 567c8755,3365 17410,6933 25965,10695 45949,-15698 91241,-32174 94596,-27307 2884,4172 -48029,21196 -80864,33556 9273,4359 18419,8949 27427,13765 43693,-16559 80463,-28085 82770,-19974 2574,8098 -28045,7357 -74455,24514 7931,4409 15758,8982 23469,13732 32101,-12043 61117,-21242 64281,-16205 3869,6172 -14717,10678 -48747,26132 6636,4379 13185,8872 19633,13505 25198,-11496 43519,-17998 46036,-13752 6449,10902 -13034,12303 -38125,19523 6706,4983 13288,10124 19770,15378 18986,-8755 32000,-12954 33816,-8865 3829,8652 -4820,12464 -22184,18539 5324,4536 10574,9159 15735,13879 11579,-4339 19119,-6048 20705,-3955 3748,4953 -751,9019 -10404,13605 5070,4863 10040,9833 14934,14867 6152,-2427 9596,-3101 9533,-1499 -50,1282 -1696,3548 -4603,6589 4910,5174 9710,10451 14433,15798 1706,-1028 3151,-1839 4306,-2403 2837,6002 5174,11149 6709,15204 804,965 1626,1913 2427,2884 5778,-12774 20258,-25492 39951,-35448 20735,-10481 41797,-38429 86482,-80603 44688,-42184 108495,-173387 125992,-206679 17484,-33282 5888,-32898 -12641,4600 -18529,37481 -72609,115451 -94940,139651 -22327,24206 -75663,83891 -123262,125662 -47592,41774 10708,-21656 43843,-55135 33122,-33486 91138,-142465 103088,-166624 11936,-24163 47839,-77937 54020,-90434 6168,-12497 -48773,58820 -67749,88828 -18986,30011 -49077,80437 -125979,171024 -76905,90577 -16639,-8285 -931,-35879 15715,-27598 51797,-113191 59989,-138155 8198,-24977 21633,-85707 21806,-123796 157,-38082 -14236,-36240 -17197,1218 -2964,37451 -24143,120171 -68567,220525 -44421,100364 -46734,50512 -35408,23402 11319,-27097 23035,-92743 33599,-143489 10574,-50749 6632,-183301 -1295,-192403 -270,-310 -537,-461 -801,-461 -7433,0 -11649,121242 -15077,162602l0 0c-3545,42825 -35669,195904 -47986,199873 -1225,394 -2387,461 -3491,240 7727,-13412 13966,-56033 15621,-142238 3121,-50369 -19567,-180627 -30482,-204686 -4316,-9506 -7697,-13692 -9583,-13692 -2884,3 -2286,9810 3819,25365z"/>
  <path class="fil0" d="M838806 59965l27 0c9096,7 72048,55109 72048,55109 1559,22524 -14460,12147 -36056,-6576 -21593,-18716 -38820,-39778 -37047,-47815 103,-481 457,-711 1028,-718z"/>
  <path class="fil0" d="M1019794 103595l147 0c3034,17 5220,527 6285,1662 -22484,25638 -118839,60136 -115825,38336 0,0 10648,-8652 16923,-11880 5494,-2821 70546,-28118 92470,-28118z"/>
  <path class="fil0" d="M898882 47161c-2210,29333 3555,47548 11549,53854 0,0 8902,-11436 8895,-46250 -3,-34811 4583,-54765 4583,-54765 0,0 -22821,17821 -25028,47161z"/>
  <path class="fil0" d="M910908 118422c0,0 40035,-5548 66511,-33746 26483,-28205 32905,-66704 32905,-66704l-99416 100451z"/>
  <path class="fil0" d="M964415 180380c-29644,12010 -61220,35475 -61220,35475 -3348,24801 121843,-45065 133005,-55486 2310,-2156 1856,-3074 -564,-3074 -9309,0 -47712,13565 -71221,23085z"/>
  <path class="fil0" d="M941517 220041c-20104,11809 -44354,31089 -44354,31089 12143,23712 109553,-44955 120375,-58540 1969,-2473 1369,-3525 -1048,-3525 -10868,0 -58520,21316 -74972,30976z"/>
  <path class="fil0" d="M1007474 218529c-6916,12540 -30245,20401 -62369,38202 -32117,17804 -53310,32054 -53310,32054 -2503,18782 34587,1966 74508,-17274 35262,-16997 45739,-55105 42942,-55105 -367,0 -971,661 -1772,2123z"/>
  <path class="fil0" d="M920011 312347c-17150,12030 -33723,24183 -33723,24183 -1172,10611 12440,8438 30525,708 -961,-6412 -624,-12624 1445,-20461 431,-1622 1025,-3094 1752,-4429z"/>
  <path class="fil0" d="M1022404 247218c-11169,10414 -55649,34567 -75433,46944 -3575,2236 -7841,5050 -12430,8158 2634,-597 5401,-871 8161,-871 8612,0 18228,2136 27871,5651 3862,-2607 7480,-5154 10735,-7570 7447,-5521 14273,-11903 20221,-18305 1866,-3521 4326,-6496 7527,-8652 11843,-14520 18272,-27080 15952,-27080 -477,0 -1335,544 -2604,1726z"/>
  <path class="fil0" d="M921923 356410c-19704,11249 -39988,21950 -39988,21950 1999,13856 18155,10157 37575,581 97,-1949 474,-3882 1105,-5775 2303,-6876 2570,-11249 1308,-16756z"/>
  <path class="fil0" d="M873474 458019c23,1759 3037,7263 4857,7761 10528,2877 35962,-14033 53683,-27711 5107,-11075 13335,-22087 20722,-30465 -2357,-541 -4720,-1165 -7036,-1889 -29988,18869 -62419,33175 -68327,17060 0,0 22671,-20381 42301,-28262 1255,-504 2694,-1118 4289,-1836 4262,5474 11115,9326 18726,12036 -29300,32144 -69215,53306 -69215,53306z"/>
  <path class="fil0" d="M802226 340746l1102 1008c594,-1726 1606,-3351 3138,-4783 10735,-10044 26570,5534 33643,12921 10671,11152 19914,24560 27307,38372 7777,2140 11529,-574 12681,-6128 0,0 -21573,-26857 -59872,-56691 -9253,-7207 -17718,-13892 -25278,-20017 3291,6329 5498,13081 6589,20138 778,5037 978,10110 691,15181z"/>
  <path class="fil0" d="M755135 226326l23 0c461,17 834,417 918,1182 684,6329 87349,69315 105421,84943 18071,15628 23899,32414 23899,32414 -1569,14663 -30201,-6218 -79242,-46317 -62472,-51641 -54408,-72222 -51020,-72222z"/>
  <path class="fil0" d="M790093 242161c41831,40452 96983,84165 100207,58777 0,0 -12968,-18936 -26490,-28369 -13512,-9436 -52325,-41680 -68554,-49738 -7570,-3758 -18295,-8605 -23352,-8605 -5788,0 -4142,6349 18188,27935z"/>
  <path class="fil0" d="M835956 235322c33265,27551 56594,45379 59144,29120 0,0 -13048,-20228 -37081,-39714 -24033,-19487 -59351,-48606 -63941,-54768 -294,-397 -514,-584 -664,-584 -2150,0 11406,40165 42541,65947z"/>
  <path class="fil0" d="M798535 154197c10070,21353 61511,52829 67012,58717 5501,5895 33726,27227 35669,15217 0,0 -12908,-21910 -31753,-37127 -15217,-12280 -58667,-42645 -69532,-42648 -2600,0 -3338,1726 -1395,5841z"/>
  <path class="fil0" d="M800144 98728c6946,16142 37031,48980 61083,65416 24043,16432 43723,39017 45315,26917 0,0 -15281,-27685 -42428,-49925 -22457,-18398 -56287,-46427 -63377,-46427 -1482,0 -1792,1222 -594,4019z"/>
  <path class="fil0" d="M822638 64375l0 0c67,77 17921,21052 38933,37972 21045,16950 48600,46080 48600,46080 -2293,25749 -40799,-11616 -63360,-36406 -22521,-24737 -24170,-47568 -24173,-47645z"/>
  <path class="fil0" d="M1021860 126853l100 0c2120,20 2987,624 1953,2046 -5357,7320 -35579,33212 -62966,43116 -27394,9907 -54434,21039 -53323,9216 0,0 4206,-10261 17721,-16549 13515,-6289 47008,-20144 52859,-24447 4693,-3455 34741,-13382 43656,-13382z"/>
  <path class="fil0" d="M1709920 731850c-2203,577 -19073,-31436 -36840,-63313 -18041,-32354 -37004,-64562 -42505,-62385 -10918,4323 72633,153032 69378,156631 -1622,1776 -31353,-23439 -61691,-48556 -30999,-25668 -62619,-51233 -65503,-47805 -5708,6793 121703,120067 123058,126937 688,3545 -31306,2370 -62796,1118 -29584,-1182 -58720,-2430 -59915,90 -2473,5210 100070,26373 125885,23813 25812,-2564 39007,8041 39007,8041 11516,17437 56300,92830 88297,117330 31990,24487 14530,-3084 -2533,-29851 -17057,-26760 -63684,-76194 -22628,-53113 41059,23078 152869,85834 143743,71234 -9126,-14590 -109667,-74822 -108405,-80450 594,-2660 31710,831 64421,4059 36540,3608 75083,6903 75360,951 507,-11272 -161344,-24564 -160479,-30999 875,-6442 207423,-30992 214420,-45429 6993,-14433 -211793,24096 -213332,16826 -1539,-7270 205578,-88227 201332,-107207 -2266,-10120 -60055,17387 -113962,44274 -47154,23519 -91342,46564 -92814,43540 -3161,-6476 163133,-156751 157999,-167279 -2637,-5387 -39878,26613 -76177,58463 -34584,30335 -68303,60536 -70440,58156 -4386,-4883 106582,-143202 96175,-150159 -5261,-3511 -37828,37785 -69061,78868 -30565,40205 -59862,80210 -61033,77806 -2363,-4863 66821,-195981 60790,-198057 -2987,-1025 -19727,34988 -36473,71000 -17013,36590 -34037,73183 -36653,70924 -5190,-4486 27190,-141573 18362,-145282 -4449,-1876 -16316,52592 -27925,107016 -11416,53547 -22574,107053 -26172,106816 -7250,-474 -40212,-211950 -50282,-212046 -40,0 -87,3 -124,10 -9667,1519 23943,196866 19517,198027z"/>
  <path class="fil0" d="M146894 1249287l20 0c434,7 1075,257 1949,784 11486,6966 100514,96201 78728,99299 0,0 -27407,-21116 -44651,-43329 -15908,-20505 -41260,-56754 -36046,-56754z"/>
  <path class="fil0" d="M178721 1257686l23 0c457,7 1068,167 1843,491 14083,5915 95457,71935 78287,87863 0,0 -22104,-15908 -36900,-30108 -13969,-13395 -50996,-58236 -43252,-58246z"/>
  <path class="fil0" d="M204937 1260493c12270,2861 24483,20715 47228,43640 22738,22931 39868,37458 39868,37458 16479,-2367 -6609,-29731 -32428,-58924 -17377,-19637 -41687,-24176 -51981,-24170 -4997,0 -6696,1068 -2687,1996z"/>
  <path class="fil0" d="M225648 1241003c11476,6966 42538,38820 57746,52615 15194,13782 50342,41223 50342,41223 19914,-3321 -26513,-50345 -54010,-71571 -21005,-16219 -48193,-24720 -54718,-24720 -2016,0 -2066,811 641,2453z"/>
  <path class="fil0" d="M264702 1237832c13786,5074 38473,28526 53580,40292 15111,11763 51888,50406 51888,50406 23722,-10541 -33633,-55699 -55109,-75253 -14693,-13365 -39294,-18051 -48964,-18048 -4466,0 -5745,995 -1395,2604z"/>
  <path class="fil0" d="M325815 1232765l53 0c83,0 170,3 257,10 11222,921 103288,72232 80116,89008 0,0 -22664,-14310 -34016,-29046 -11252,-14577 -56427,-59969 -46410,-59972z"/>
  <path class="fil0" d="M344918 1232965c48914,14493 86782,83304 86782,83304 22374,-698 -14774,-48056 -28275,-62959 -7550,-8335 -19046,-13879 -31009,-17057 -9446,-2503 -19180,-3535 -27498,-3288z"/>
  <path class="fil0" d="M382970 1226710c11916,9306 43903,39931 59438,58029 15535,18098 28522,32865 28522,32865 23459,-6115 -12931,-44487 -35515,-67172 -15498,-15575 -40045,-25335 -50062,-26910 -4573,-718 -6115,267 -2383,3188z"/>
  <path class="fil0" d="M426436 1232161c13475,3445 43116,36420 61644,59077 -2774,-6405 -5461,-12851 -8014,-19370l-1328 -3301 -1696 -4306c-1162,-2987 -2303,-5988 -3418,-8996 -604,-1622 -1198,-3248 -1786,-4877l-80 -224c-20848,-17357 -39344,-22077 -47101,-22077 -5294,0 -5591,2200 1779,4072z"/>
  <path class="fil0" d="M458083 1357999c-1132,3144 -2280,6395 -3418,9690 6339,978 12687,2821 19023,5561 1736,-3578 3418,-7210 5020,-10828 -2210,-1779 -4196,-3084 -5601,-3431l-15024 -991zm31864 -27478c2347,-10651 1829,-18509 -3528,-20531 0,0 -10785,9450 -20932,30158l4216 -1826c6619,-2867 13358,-5598 20244,-7801z"/>
  <path class="fil0" d="M448062 1315444l73 0c12137,0 3068,26076 -9857,51611 -9126,691 -18175,3121 -27054,7146l1802 -3385c17250,-32284 33449,-55229 33449,-55229 564,-90 1095,-140 1586,-144z"/>
  <path class="fil0" d="M414199 1320952l17 0 17 0 17 0 17 0c8658,0 8211,19313 -10094,56801 -3468,1923 -6909,4086 -10317,6486 -9273,6539 -17237,13909 -24537,21890 6556,-13478 12834,-27170 16533,-35635 9046,-20685 27277,-49441 27277,-49441 367,-63 728,-93 1071,-100z"/>
  <path class="fil0" d="M374585 1329153l13 0 13 0 13 0 13 0 13 0 13 0 13 0 13 0c11596,0 12107,17681 -18128,77453 -30986,61240 -57789,61581 -51060,56931 6739,-4636 18552,-30615 34641,-70139 16089,-39537 33669,-64211 33669,-64211 264,-23 521,-33 771,-33z"/>
  <path class="fil0" d="M342181 1333499l20 0 20 0 20 0 13 0c10761,0 -73,28930 -21509,78227 -32795,74312 -53343,61444 -48149,59351 5194,-2096 37792,-90484 46687,-109506 8906,-19023 21720,-27962 21720,-27962 421,-70 808,-110 1178,-110z"/>
  <path class="fil0" d="M304356 1339811l23 0 30 0 23 0c19139,3 -4009,55182 -27568,98975 -24233,45062 -20531,15908 -17587,254 2944,-15668 20952,-56203 25708,-69899 4750,-13685 17681,-29190 17681,-29190 594,-87 1155,-137 1689,-140z"/>
  <path class="fil0" d="M271935 1344514l80 0c12334,7 2954,23549 -11893,57098 -15358,34734 -49421,56410 -45299,51046 4116,-5354 20318,-42191 31072,-67182 10741,-24994 24737,-40869 24737,-40869 461,-60 888,-87 1302,-93z"/>
  <path class="fil0" d="M239010 1348069l13 0 7 0 10 0 10 0 10 0 10 0 7 0c9543,3 -1382,27921 -4980,33863 -3672,6055 -18011,57101 -33683,70727 -15658,13625 5835,-49224 14209,-68807 8371,-19590 23829,-35746 23829,-35746 194,-27 377,-37 557,-37z"/>
  <path class="fil0" d="M206729 1352382l60 0c8679,3 -5044,21389 -12931,44858 -8158,24270 -28763,57569 -40762,67305 -12003,9740 8275,-35972 20601,-64258 12337,-28285 32111,-47825 32111,-47825 330,-47 638,-73 921,-80z"/>
  <path class="fil0" d="M171678 1359274l40 0 40 0c17324,0 -3712,38793 -18555,62606 -15581,25014 -34541,31847 -34541,31847 0,0 13508,-20161 22825,-42021 9313,-21853 27381,-52138 27381,-52138 1031,-194 1966,-287 2811,-294z"/>
  <path class="fil0" d="M124440 1267836l10 0 10 0 10 0c194,7 424,53 698,157 7474,2784 36603,22177 51527,42975 14930,20818 30802,41036 20535,42925 0,0 -9687,-1115 -18228,-11052 -8558,-9927 -28289,-34954 -33319,-38880 -4847,-3778 -26259,-36123 -21242,-36126z"/>
  <path class="fil0" d="M147468 1365406l90 0c9914,0 4983,14420 -4032,33609 -10685,22751 -24380,42355 -31610,42785 -7230,407 28556,-74859 28556,-74859 2867,-1028 5177,-1522 6996,-1535z"/>
  <path class="fil0" d="M150626 1349057c4222,4540 14099,11476 14099,11476 19163,-2654 -33045,-75957 -60112,-88848 -5798,9563 41784,72830 46013,77372z"/>
  <path class="fil0" d="M87423 1374211c-29454,8315 -47431,9199 -47431,9199 0,0 20535,15054 45889,9910 25345,-5134 39474,-14443 42805,-22648 0,0 -3381,-1375 -11045,-1375 -6649,0 -16526,1038 -30218,4913z"/>
  <path class="fil0" d="M43753 1305591l277 0c12250,0 34427,1722 54818,12307 30198,15678 44451,48223 44451,48223l-108745 -60129c0,0 3478,-387 9199,-401z"/>
  <path class="fil0" d="M770843 1831486c514,10040 -698,16546 -698,16546 0,0 6015,-9082 27741,-33546 -8819,6068 -17881,11806 -27044,17000z"/>
  <polygon class="fil0" points="769535,1819764 769535,1819767 770156,1819397 "/>
  <polygon class="fil0" points="789643,1755923 789643,1755923 "/>
  <polygon class="fil0" points="758460,1787036 758627,1787506 759324,1786598 "/>
  <polygon class="fil0" points="748563,1725952 750309,1723472 750406,1723325 750305,1723469 "/>
  <polygon class="fil0" points="747522,1727411 747522,1727417 747695,1727174 "/>
  <polygon class="fil0" points="648707,1508518 648703,1508515 647942,1508825 "/>
  <path class="fil0" d="M510207 1530485c50,-200 110,-404 177,-607 -67,204 -127,404 -177,607z"/>
  <path class="fil0" d="M515451 1542358c-3922,-2941 -6028,-6469 -5494,-10581 -534,4116 1565,7640 5494,10581z"/>
  <path class="fil0" d="M516720 1543242c-397,-260 -778,-524 -1145,-794 367,270 748,537 1145,794z"/>
  <path class="fil0" d="M519497 1544868c-708,-371 -1382,-751 -2026,-1148 644,397 1318,778 2026,1148z"/>
  <polygon class="fil0" points="554341,1554167 555626,1553109 555626,1553109 "/>
  <path class="fil0" d="M607227 1605207c-330,788 -674,1565 -1015,2337 340,-771 681,-1549 1015,-2337z"/>
  <path class="fil0" d="M614083 1585240l0 -3 -3 0c-808,2984 -1709,5975 -2690,8922 981,-2947 1886,-5935 2694,-8919z"/>
  <polygon class="fil0" points="683027,1795354 683013,1795350 683013,1795354 "/>
  <path class="fil0" d="M685447 1795711c-748,-77 -1325,-160 -1729,-227 407,67 985,150 1729,227z"/>
  <path class="fil0" d="M741624 1783013l0 -3c-30385,13302 -49070,13352 -55786,12737 6716,618 25391,571 55786,-12734z"/>
  <path class="fil0" d="M741367 1833062c-310,57 -601,97 -868,120 267,-23 557,-63 868,-120z"/>
  <path class="fil0" d="M744084 1832361c-414,134 -804,250 -1178,350 374,-100 764,-217 1178,-350z"/>
  <path class="fil0" d="M750362 1829901l0 0c-2273,1011 -4276,1806 -5965,2360 1692,-554 3692,-1345 5965,-2360z"/>
  <path class="fil0" d="M671928 1803712c1369,10471 3194,20301 5815,28072 12260,36333 1966,57435 -9546,64501 -11516,7063 22938,8114 62405,-14523 13522,-7754 19086,-22407 19877,-40091 -8201,2911 -16536,3658 -21025,-2921 -2887,-4232 -2523,-9283 -137,-13585 4276,-7707 11402,-15745 17150,-22624 -628,-2974 -1312,-5955 -2046,-8936 -10615,4556 -21459,8238 -32294,10581 -8558,1853 -22955,3835 -31733,1642l-8465 -2116z"/>
  <path class="fil0" d="M501642 1521122c-55429,-52301 -133462,-68080 -152024,-69101 -9894,-544 -30719,20498 -46267,41540 -17991,24347 -28923,48690 -7677,39601 82680,-32825 196509,59074 176398,71938 -20104,12858 -76228,-39868 -130972,-56604 -54748,-16730 -77092,23148 -77092,23148l-3244 15875c-3248,15862 -24220,16840 -9490,23642 44965,-29177 116833,7013 115701,17227 -1135,10204 -107984,13432 -141907,18398 -33930,4977 -64461,72309 -74181,88314 17444,14653 52552,81331 131176,67419 78634,-13909 114784,-121149 140819,-112297 26036,8859 -34407,80807 -50716,102443 -16316,21630 -47932,41563 -74882,33803 -12544,-3612 -5634,7504 9657,18612 17567,12764 46206,25532 69151,15965 133886,-64194 102877,-199950 131396,-174138 41607,36810 -83381,203315 -122547,194593 -6682,-1485 6863,6145 27461,13775 27871,10337 68661,20672 89679,8381 60312,-38599 68861,-172736 90447,-191799 21590,-19063 -27384,149932 -39854,169201 -12474,19280 -37505,33586 -37505,33586 0,0 52762,25728 111766,-4670 33609,-17310 35582,-66611 33192,-109216l-1736 -434 1639 -1232c-1856,-31513 -5925,-59051 -1035,-66745 8118,-12774 8038,23549 11519,58884l6022 -4520c310,-234 618,-437 945,-631 6072,-3658 13098,-9947 18228,-14730 10982,-10227 21192,-21693 30635,-33653l-1525 -3982c-337,-871 -651,-1726 -961,-2567 -8992,3925 -19086,8502 -30492,13869 31743,-82616 101849,-114910 139147,-124777 -487,-1666 -1008,-3298 -1569,-4907 -30445,-11175 -59712,-24787 -87596,-40555l-1676 1802c-6138,6616 -16496,9747 -26833,11082 6249,12270 10137,26653 2183,36587 -1555,1946 -3468,3542 -5644,4746 -11412,6319 -20027,7323 -32688,6395 -9526,-694 -14183,-247 -22547,5124 -3331,2133 -7086,3345 -11055,3368 -13542,93 -23836,-13118 -31002,-27668 -6980,14169 -17264,27765 -31002,27671 -3969,-27 -7721,-1235 -11048,-3371 -8371,-5367 -13024,-5815 -22551,-5124 -12661,928 -21279,-73 -32688,-6395 -2176,-1205 -4089,-2800 -5644,-4743 -13525,-16890 5865,-46153 21196,-63577 -14713,-3381 -29530,-9977 -32698,-22901 -945,-3859 -691,-7791 564,-11542 624,-1866 1098,-3548 1432,-5114z"/>
  <path class="fil0" d="M550502 1460296c-15898,-22778 -38489,-51400 -69926,-71204 -62008,-39070 -111332,32925 -123976,50199 69488,-4162 109530,38332 143543,65316l-334 -1028c-4072,-12300 -5374,-20798 -1959,-33729 2991,-11272 13762,-15328 24447,-15328 8712,0 18449,2190 28205,5775z"/>
  <polygon class="fil0" points="591725,1498061 591916,1498248 591709,1497457 591916,1498244 "/>
  <path class="fil0" d="M473991 1348229c19433,1278 72746,78257 95781,120889 2273,1245 4509,2537 6692,3875 -844,-9249 -808,-18492 661,-26550l1565 -8608c-26102,-31123 -49107,-64939 -68514,-100975 -12637,1682 -24971,6512 -36186,11369z"/>
  <path class="fil0" d="M1539204 1380443c53483,40599 54348,65483 122981,93872 0,0 -16362,-16576 -20381,-44080 -4022,-27511 -34340,-69118 -30862,-81308 3471,-12193 18258,-22441 27691,18465 9433,40899 29143,115074 69542,112090 40402,-2981 65293,-20929 53279,-20405 -12013,531 -30138,-9907 -39207,-42815 -9072,-32908 -53333,-90357 -35742,-82696 17594,7650 53530,122040 112207,115044 58687,-6990 84783,-52281 84783,-52281 0,0 -25598,1923 -44417,-6075 -18806,-8004 -139187,-108251 -113762,-104950 25428,3295 98615,97991 162352,96392 18021,-1178 38339,-20778 53533,-39741 16509,-20601 26957,-40432 21826,-35001 -24540,25959 -199753,-34554 -187416,-82449 4516,-18392 20241,8745 55516,33389 28512,19927 69785,38229 128235,29557 40572,-8205 56904,-83965 40889,-64802 -16012,19163 -49271,20224 -72082,12400 -22818,-7824 -103281,-30769 -88491,-50282 7263,-9590 30328,297 59608,9383 30291,9406 67239,17968 100254,3248 64939,-28943 57595,-95631 63153,-115137 -15151,-6966 -71244,-41410 -98752,-28162 -27498,13248 -107931,64141 -113852,57178 -5921,-6963 29040,-69498 76762,-70403 7477,-12357 -8485,-2617 -18792,-12697l-10307 -10090c0,0 -36370,-18282 -68407,21356 -32044,39641 -47161,106519 -68400,107056 -21239,537 16903,-124009 94262,-141013 37661,-7253 -65102,-44464 -80250,-32965 -15141,11502 -78497,76491 -81765,157295 -1025,22117 -18802,1228 -5588,-35872 11315,-31783 17017,-77743 54311,-111519 -11763,7210 -24203,13345 -36981,18579 -13111,5374 -26540,9863 -40192,13535 -6202,27815 -17884,40535 -28669,60813 -4056,112357 -39100,216820 -96869,305094z"/>
  <path class="fil0" d="M631526 441590c14513,-50806 60109,-145722 35358,-205130 -19867,-42762 -137868,-60903 -121256,-54124 28055,11456 41036,121666 27341,193715 27004,19443 45722,42458 58557,65540z"/>
  <path class="fil0" d="M659668 589906c43833,-35712 92814,-65336 145666,-87580 37157,-29884 72252,-68033 56738,-100701 -21736,-45776 -53924,-66698 -47879,-52922 6048,13775 2063,39624 -32221,65082 -34284,25461 -81284,103058 -80310,79075 971,-23983 118165,-117601 83481,-182883 -34687,-65293 -99309,-75263 -99309,-75263 0,0 13819,28986 12991,54548 -641,19563 -37421,132988 -58066,171134 18639,43393 18509,83601 16149,96705 -1866,10368 -1128,21776 2760,32805z"/>
  <path class="fil0" d="M407627 697436c-48283,19754 -105427,37668 -119193,29397 14043,22624 32040,47842 63313,50499 4196,-11129 9583,-21883 16035,-32207 11119,-17788 24564,-33649 39844,-47689z"/>
  <path class="fil0" d="M418936 599977c-49020,1933 -116035,19360 -180093,-31019 604,23836 7,121039 81568,124670 38269,1706 74405,-8318 102577,-18335 11519,-4099 21710,-8201 30175,-11496 20151,-11963 41647,-21509 63927,-28986 -29420,-2627 -64675,-11806 -98154,-34834z"/>
  <path class="fil0" d="M583638 470416c-1308,-16523 -3451,-39931 -12577,-85303 -3682,15748 -8795,29173 -15484,38606l484 681 297 417 190 270 484 684 154 220 327 471 481 691 13 20 467 678 354 511 124 184 477 701 214 314 260 387 474 708 73 110 397 594 411 618 60 93 467 711 274 411 197 300 464 718 134 207 103 160 688 1068 3 0 461 721 324 511 134 210 461 724 190 304 267 424 454 728 60 90 394 638 377 611 73 120 451 731 247 401 204 330 447 738 113 187 334 547 427 711 17 27 444 738 297 501 144 237 441 741 167 284 270 457 434 741 43 70 394 671 347 597 87 147 431 741 224 384 207 360 427 748 97 167 330 577 397 698 30 47 424 748 274 481 147 264 424 748 147 264 270 481 421 748 23 50 391 694 320 581 93 167 414 744 200 364 210 384 407 748 80 144 330 601 367 674 40 70 404 748 247 457 157 287 401 744 130 240 270 501 397 744 13 23 384 721 294 547 100 190 394 741 177 337 217 401 387 741 67 120 324 618z"/>
  <polygon class="fil0" points="612424,585470 612424,585470 "/>
  <polygon class="fil0" points="611489,585100 611512,585106 611489,585100 "/>
  <polygon class="fil0" points="526356,570193 526356,570196 526389,570196 526389,570193 "/>
  <polygon class="fil0" points="322364,499633 322341,499629 322341,499633 "/>
  <polygon class="fil0" points="333773,502427 333739,502420 332898,502170 333369,502313 "/>
  <polyline class="fil1" points="344264,505908 344197,505885 344134,505861 344067,505838 344003,505815 343937,505791 343873,505768 343810,505745 343810,505745 "/>
  <polyline class="fil1" points="344327,505931 344264,505908 344260,505908 "/>
  <line class="fil1" x1="344524" y1="506005" x2="344457" y2= "505982" />
  <polyline class="fil1" points="344591,506028 344524,506005 344524,506005 "/>
  <line class="fil1" x1="344721" y1="506075" x2="344678" y2= "506062" />
  <line class="fil1" x1="344985" y1="506172" x2="344918" y2= "506148" />
  <line class="fil1" x1="345185" y1="506245" x2="345052" y2= "506195" />
  <path class="fil1" d="M356007 510531c2560,1078 5261,2260 8084,3565"/>
  <polygon class="fil0" points="352241,508972 352191,508952 "/>
  <polygon class="fil0" points="352291,508996 352241,508972 352288,508996 "/>
  <line class="fil1" x1="352595" y1="509116" x2="352542" y2= "509096" />
  <line class="fil1" x1="352745" y1="509179" x2="352692" y2= "509159" />
  <line class="fil1" x1="352949" y1="509263" x2="352896" y2= "509239" />
  <line class="fil1" x1="353049" y1="509303" x2="352999" y2= "509283" />
  <line class="fil1" x1="353153" y1="509343" x2="353099" y2= "509323" />
  <line class="fil1" x1="353253" y1="509386" x2="353199" y2= "509366" />
  <line class="fil1" x1="353406" y1="509446" x2="353353" y2= "509430" />
  <line class="fil1" x1="353560" y1="509510" x2="353506" y2= "509490" />
  <line class="fil1" x1="353763" y1="509593" x2="353713" y2= "509576" />
  <polyline class="fil1" points="354074,509723 354020,509700 354020,509700 "/>
  <polyline class="fil1" points="354124,509743 354074,509723 354071,509723 354020,509700 353970,509680 "/>
  <path class="fil1" d="M364091 514096c-1152,-527 -2280,-1035 -3388,-1529l-53 -27 -144 -60c-1075,-477 -2130,-935 -3164,-1382"/>
  <polygon class="fil0" points="364238,514163 364091,514096 "/>
  <polygon class="fil0" points="364385,514229 364238,514163 "/>
  <polygon class="fil0" points="366341,515141 366281,515114 "/>
  <polygon class="fil0" points="366401,515171 366341,515141 366401,515171 "/>
  <polygon class="fil0" points="380677,522300 380607,522264 "/>
  <path class="fil0" d="M384819 524527c-1402,-764 -2784,-1509 -4142,-2226 1359,718 2740,1462 4142,2226z"/>
  <polygon class="fil0" points="384889,524564 384819,524527 "/>
  <polygon class="fil0" points="385030,524640 384889,524564 "/>
  <polyline class="fil1" points="473991,571564 474098,571608 474205,571651 474308,571691 474415,571735 474522,571778 474525,571775 "/>
  <polygon class="fil0" points="467896,569088 467793,569044 "/>
  <polygon class="fil0" points="468003,569131 467896,569088 468000,569131 "/>
  <line class="fil1" x1="468941" y1="569518" x2="468904" y2= "569505" />
  <polyline class="fil1" points="469358,569689 469255,569645 469148,569605 469148,569602 469255,569645 469255,569649 "/>
  <polyline class="fil1" points="470022,569962 469986,569946 469986,569949 "/>
  <polygon class="fil0" points="470199,570032 470092,569989 470092,569992 470196,570032 "/>
  <line class="fil1" x1="470410" y1="570119" x2="470303" y2= "570076" />
  <polygon class="fil0" points="470723,570246 470617,570203 470617,570206 470720,570249 "/>
  <line class="fil1" x1="471144" y1="570416" x2="470934" y2= "570333" />
  <polygon class="fil0" points="471985,570757 471775,570673 471771,570673 471668,570633 471668,570630 471564,570586 471458,570546 471354,570503 471247,570460 471247,570463 471351,570503 471354,570503 471564,570586 471564,570590 471668,570630 471775,570673 471878,570717 471985,570760 "/>
  <line class="fil1" x1="472195" y1="570843" x2="472092" y2= "570800" />
  <polyline class="fil1" points="473253,571267 473040,571184 472933,571144 472933,571141 472726,571057 472723,571057 472619,571014 472409,570927 472406,570930 472302,570887 472265,570874 "/>
  <polyline class="fil1" points="473357,571311 473253,571267 473250,571271 473143,571227 473040,571184 473040,571184 472933,571141 472830,571101 472726,571057 472619,571014 472616,571014 472512,570970 472409,570927 472302,570887 472299,570887 "/>
  <polyline class="fil1" points="473888,571521 473781,571478 473777,571481 "/>
  <polyline class="fil1" points="474525,571775 473888,571521 473884,571524 473781,571478 473394,571324 "/>
  <path class="fil0" d="M315982 496222c-29177,-9904 -56350,-26379 -73263,-51851 -25471,-40659 -22427,96031 -2170,108502 16236,9990 86542,40562 163096,35475 -6108,-5124 -12120,-10771 -17978,-16990 33930,1726 56851,1729 73651,1155l-471 -200 -350 -154 -671 -287 -154 -67 -824 -357 -47 -20 -778 -337 -247 -110 -574 -250 -451 -200 -374 -164 -648 -287 -177 -77 -821 -364 -27 -13 -798 -354 -227 -103 -594 -267 -427 -194 -394 -177 -628 -287 -197 -87 -818 -377 -7 0 -814 -377 -207 -93 -614 -284 -407 -187 -414 -194 -604 -284 -214 -97 -804 -381 -13 -7 -818 -384 -184 -90 -634 -300 -381 -184 -434 -207 -581 -277 -234 -113 -781 -377 -33 -17 -814 -397 -164 -80 -648 -317 -364 -177 -447 -220 -561 -277 -254 -127 -751 -374 -57 -30 -808 -404 -144 -73 -661 -334 -340 -174 -467 -237 -534 -270 -270 -140 -731 -374 -73 -37 -801 -417 -120 -63 -681 -354 -314 -164 -484 -254 -511 -270 -287 -154 -701 -374 -93 -47 -794 -424 -103 -53 -691 -374 -294 -160 -497 -270 -484 -264 -304 -167 -678 -371 -110 -63 -788 -434 -80 -43 -704 -394 -267 -150 -514 -287 -461 -260 -320 -180 -648 -371 -130 -77 -778 -444 -57 -33 -718 -414 -247 -140 -524 -307 -434 -257 -337 -197 -618 -364 -150 -87 -764 -457 -40 -23 -724 -434 -224 -134 -537 -324 -411 -250 -347 -214 -594 -360 -164 -103 -754 -464 -17 -13 -734 -454 -204 -127 -547 -344 -381 -244 -364 -230 -564 -357 -180 -113 -741 -477c-19954,-12878 -41644,-24827 -63921,-33209 -6723,-2523 -15848,-5748 -23025,-6829l-15878 -2310 10461 -7510z"/>
  <path class="fil0" d="M535111 398808c16032,-42398 39357,-115558 -10571,-203378 -27908,-43613 -123659,-28419 -94069,-18405 66437,22487 40762,122043 69311,172339l464 818 87 154 384 661 177 307 294 507 270 457 207 357 360 607 120 204 451 758 30 53 487 811 63 97 427 708 154 254 340 554 244 404 250 401 344 554 157 250 437 704 63 100 507 801 30 50 477 751 127 197 384 601 227 347 287 451 324 497 197 300 421 644 97 150 524 791 3 3 524 791 100 147 427 644 200 294 334 494 297 444 237 344 401 591 137 197 504 734 37 50 541 784 67 97 481 688 170 240 374 537 274 391 277 391 381 534 174 244 484 678 70 97 557 778 33 47 527 724 140 194 421 581 247 334 671 915 214 290 461 621 107 147 571 764 0 0 574 764 107 140 467 624 217 280 360 477 327 427 254 334 434 567 147 190 544 708 40 50 584 754 70 93 514 661 184 234 407 517 294 374 297 374 404 514 187 237 517 648 77 97 594 744 37 47 561 698 147 184 454 557 260 324 337 414 374 461 230 280 487 597 113 137 604 734 3 0 604 734 113 137 494 594 227 270 381 457 344 411 267 317 457 544 154 184 571 678 43 47 611 721z"/>
  <line class="fil1" x1="433512" y1="375667" x2="433516" y2= "375667" />
  <polyline class="fil1" points="433673,375363 433676,375363 433686,375346 "/>
  <polyline class="fil1" points="433512,375667 433516,375667 433522,375650 "/>
  <polyline class="fil1" points="433336,382119 433242,381211 433239,381211 433172,380356 433169,380356 433125,379559 433122,379559 "/>
  <polyline class="fil1" points="433769,385170 433603,384102 433599,384102 433459,383084 433456,383084 "/>
  <polyline class="fil1" points="434180,387456 433966,386288 433963,386288 "/>
  <polyline class="fil1" points="435622,394015 435288,392613 435288,392613 434978,391255 434974,391255 434687,389943 434687,389943 "/>
  <polyline class="fil1" points="436363,396946 435983,395460 435979,395460 "/>
  <polyline class="fil1" points="438606,404970 438112,403288 438112,403288 437641,401646 437641,401646 437194,400040 437191,400040 "/>
  <polyline class="fil1" points="439658,408432 439120,406682 439120,406682 "/>
  <polyline class="fil1" points="440796,412023 440215,410211 440215,410211 "/>
  <polyline class="fil1" points="443326,419567 442662,417637 442662,417637 442021,415738 442017,415738 441397,413866 441397,413866 "/>
  <polyline class="fil1" points="451958,442228 451076,440078 451076,440078 450212,437942 450212,437942 449367,435822 449367,435822 448543,433719 448543,433719 447739,431633 447735,431633 446954,429567 446951,429567 "/>
  <polyline class="fil1" points="459685,459812 459685,459812 459685,459812 458657,457589 458653,457589 457645,455369 457642,455369 456651,453156 456651,453156 455676,450950 455673,450950 454718,448753 454718,448753 453780,446567 453777,446567 452859,444391 452859,444391 "/>
  <path class="fil0" d="M238489 167642c-1262,20822 -16095,101822 11793,127915 27888,26102 123599,96909 118155,106970 -5447,10054 -94192,-2473 -116803,-57719 -17811,-3134 771,11075 -6332,27661l-7113 16579c0,0 -4883,50683 55836,70139 31937,10234 70543,11603 101455,14166l-117 -67 -107 -60 -227 -127 -157 -90 -63 -37 -227 -127 -200 -117 -23 -10 -224 -130 -224 -124 -20 -10 -207 -117 -224 -127 -63 -33 -164 -93 -224 -127 -103 -57 -120 -67 -227 -127 -147 -83 -80 -43 -224 -124 -190 -107 -33 -20 -227 -124 -224 -127 -7 -3 -220 -120 -227 -124 -47 -30 -180 -97 -224 -124 -93 -50 -134 -73 -227 -127 -134 -73 -93 -50 -224 -124 -180 -97 -47 -27 -227 -124 -220 -120 -7 -3 -224 -124 -227 -124 -37 -20 -190 -103 -227 -124 -80 -43 -147 -80 -224 -124 -124 -67 -103 -53 -227 -124 -167 -90 -60 -33 -227 -120 -210 -117 -17 -7 -230 -124 -227 -120 -23 -17 -200 -107 -227 -124 -67 -33 -160 -87 -227 -124 -113 -60 -117 -60 -227 -124 -154 -83 -73 -37 -227 -124 -194 -103 -33 -17 -227 -124 -227 -120 -13 -7 -217 -113 -224 -120 -57 -33 -170 -90 -227 -124 -100 -50 -130 -70 -227 -120 -144 -77 -83 -43 -227 -120 -184 -100 -43 -23 -230 -120 -227 -120c-7751,-4119 -17614,-8879 -24417,-14330 -2557,-2049 -4219,-4967 -3498,-8351 1445,-6789 9950,-7133 15428,-7163 7771,-40 15955,888 23646,1949 18585,2567 37541,6709 55806,11933 -6385,-14880 -12080,-30348 -16452,-45719 -2013,-7073 -9957,-30949 377,-34914 3231,-1242 6372,-53 8792,2153 6445,5871 12684,14867 17958,21883 7233,9613 14587,19180 22921,27878 587,611 1178,1222 1776,1826l-230 -754 -80 -260 -154 -494 -160 -524 -67 -230 -230 -758 -7 -30 -220 -728 -87 -294 -137 -464 -164 -557 -60 -200 -220 -764 -17 -60 -204 -701 -90 -327 -124 -434 -170 -594 -47 -170 -214 -764 -27 -97 -184 -671 -100 -360 -110 -407 -170 -628 -37 -137 -207 -771 -33 -127 -170 -641 -103 -394 -97 -377 -174 -661 -27 -110 -197 -771 -43 -160 -154 -611 -107 -427 -83 -347 -174 -698 -17 -73 -187 -774 -50 -194 -137 -581 -184 -774 -174 -734 -7 -43 -180 -778 -177 -774 -113 -497 -60 -280 -170 -768 -3 -10 -167 -778 -57 -260 -110 -521 -110 -527 -53 -250 -160 -778 -7 -20 -154 -758 -60 -294 -93 -491 -113 -561 -40 -217 -150 -781 -13 -53 -134 -728c-197,-1041 -384,-2080 -564,-3121l-63 -357 -70 -424 -107 -628 -23 -154 -127 -781c-170,-1045 -330,-2083 -484,-3121l-23 -154 -87 -631 -60 -421 -50 -357 -97 -694 -10 -87 -100 -781 -100 -778 -60 -454 -37 -327 -93 -778 -90 -778 -27 -217 -60 -564 -164 -1555 -73 -774 -73 -778c-3194,6769 -7721,10191 -14063,8371 -29450,-8435 5581,-129517 -57532,-192183 -27861,-27664 -57943,-35572 -85020,-35572 -34260,-3 -63714,12647 -77830,13949z"/>
  <path class="fil0" d="M1562499 1737975c-5190,33619 9289,64728 9289,64728l22170 -122264c0,0 -26273,23916 -31460,57535zm43716 -46680l57 0c7433,0 20795,15812 31834,34844 12984,22374 5284,46647 5284,46647 0,0 -6586,-16753 -23889,-41997 -17310,-25245 -16546,-37965 -16546,-37965 881,-1025 1983,-1512 3261,-1529zm-89352 56007c10918,2430 55639,-62889 58587,-68353 2951,-5454 6369,-17023 6369,-17023 -898,-1799 -2273,-2624 -4019,-2624 -15061,7 -57739,61320 -60937,88000zm89285 -78961l250 0c5261,13 11643,554 18666,1359 24971,2841 47919,9556 50639,16269 2704,6713 -80059,-3118 -80059,-3118 -8795,-11112 -2760,-14510 10504,-14510zm-75119 -1903c-14940,20795 -23993,54595 -24233,62569 -237,7964 25408,-24917 27521,-30946 2103,-6022 19507,-32718 26182,-44003 6676,-11272 4623,-20808 4623,-20808 -818,-1479 -1879,-2160 -3148,-2160 -6519,3 -18432,17921 -30946,35348zm48553 -8134c0,0 34457,7440 58156,9266 23689,1833 47108,8188 47108,8188 0,0 -12544,-15778 -41220,-22537 -15091,-3565 -35118,-7454 -49087,-7454 -12571,0 -20231,3148 -14957,12537zm-18559 -32718c0,0 24847,12477 55589,15117 30742,2634 80540,7220 67476,-1031 -13065,-8255 -51210,-17127 -76815,-17093 -7450,10 -14894,-537 -21579,-1091 -6622,-544 -12510,-1091 -16926,-1095 -6455,0 -9790,1165 -7744,5194zm-14560 -29537c0,0 20244,9473 41480,11145 21239,1666 87656,1923 69742,-8558 -17924,-10478 -70877,-7747 -77790,-9283 -2523,-564 -8268,-1112 -14320,-1112 -10531,0 -22007,1662 -19113,7807zm-13619 -29377c0,0 19523,8191 46640,10368 27114,2193 67199,5761 73594,7954 6392,2180 -25038,-23158 -62863,-26596 -14563,-1328 -27341,-2337 -37194,-2337 -15735,0 -24006,2580 -20178,10611zm-14653 -28856c0,0 18822,7287 33312,7417 14490,120 58667,4219 74442,1993 15778,-2220 44584,-8041 -5861,-16586 -23923,-4056 -50382,-7150 -70496,-7153 -22304,0 -36804,3805 -31396,14330zm-18275 -34290c0,0 12567,9273 33446,11629 20869,2340 115037,4957 118679,9206 3645,4246 9269,-19336 -71628,-26633 -23362,-1979 -42408,-3291 -56173,-3291 -18943,0 -27885,2480 -24323,9089zm-14680 -29667c0,0 28996,8755 71595,11356 42598,2590 70997,5477 77546,10374 6552,4890 -2343,-20395 -70276,-30161 -22875,-3284 -39834,-4713 -52081,-4713 -24130,0 -29974,5518 -26783,13145zm4516 -29287c9964,1933 21299,3839 30765,4656 22491,1949 79489,8515 84953,13165 5457,4660 -13675,-20992 -68126,-30435 -12988,-2246 -24206,-3568 -33679,-4142 -4546,5664 -9169,11262 -13912,16756zm18065 -21927l4306 738c36113,6022 64261,8281 70273,15628 6002,7357 -6776,-17647 -33275,-27361 -6459,-2373 -16389,-4993 -27548,-7297 -4479,6178 -9046,12293 -13755,18292zm-75707 131156c-511,1165 -975,2357 -1395,3572 6579,-1459 13191,-2467 19477,-2811 1669,-4259 3194,-8251 4423,-11759 6309,-18078 31156,-65289 31156,-65289 -2100,-2276 -4286,-3308 -6539,-3308 -16676,7 -36864,56167 -47121,79595zm-4136 15364l0 3 571 -147 -571 144zm54758 -3652c8375,-20418 20675,-55503 20675,-55503 -1205,-2260 -2730,-3278 -4506,-3278 -8632,3 -23068,24226 -34294,48563 7373,1362 14196,4476 18125,10217zm-7367 81044l0 -3 -87 13 87 -10zm22230 -43907c928,-1796 1873,-3638 2821,-5534 14443,-28876 22731,-49748 22731,-49748 -1338,-2644 -3027,-3849 -5007,-3849 -7433,0 -18983,16953 -31603,38219 851,6829 3234,10945 8185,17177 1015,1282 1973,2520 2874,3735zm36937 -26179l53 0c1165,10 2293,290 3381,881 0,0 -8004,26036 -16716,44598 -7150,15217 -31196,54491 -39030,59755 20,-2901 -391,-5905 -1122,-8932 1178,-4583 3061,-10661 5477,-17544 9887,-2784 18432,-7901 21222,-17033 734,-2397 978,-4933 744,-7430 -651,-6990 -2083,-12424 -4426,-17457 9987,-20107 21309,-36837 30415,-36837zm-42869 65096l0 -3 197 -117 -197 120zm5698 -13268l-57 -340 0 -3 57 344zm-15127 83985c-2911,13111 26593,-26750 42121,-50192 15531,-23439 26770,-56163 26770,-56163 -788,-1565 -1869,-2290 -3194,-2290 -15308,7 -63006,96589 -65696,108645z"/>
  <path class="fil2" d="M437852 383588c1205,7310 4259,18051 5190,21146 5444,18088 12581,36146 20555,53256l4176 8959 -9410 -3024c-20501,-6589 -42098,-11806 -63393,-15054 -3805,-581 -17804,-2473 -26429,-2530 5598,3521 12277,6786 17521,9570 11018,5851 21963,11836 32217,18966 7514,5224 14740,11112 20885,17918l8895 9860 -12994 -2740c-26923,-5678 -58220,-9426 -85624,-4767 -3588,611 -8819,1736 -13769,3274 4222,1302 8375,2790 11940,4116 23218,8658 45809,21065 66584,34467 18762,12107 40285,22107 61020,30402 1796,-117 3595,-244 5391,-377 8725,-651 17524,-1549 26316,-1552 367,7 -67,3 360,3 1652,0 3291,13 4917,37l70 0c1592,20 3201,43 4793,77l100 3c1525,33 3078,73 4606,117l227 7c1505,47 2981,100 4403,157l117 0c4366,174 8775,404 13138,704l277 20c1278,90 2564,180 3862,284l427 40c1212,97 2417,194 3628,304l347 30c1182,107 2370,220 3558,337l527 53c1112,113 2226,227 3338,350l404 47c1108,124 2210,254 3315,387l411 50c1088,137 2176,274 3261,421l377 50c1001,134 2006,274 3004,421l701 97c931,144 1869,284 2800,431l591 90c931,154 1859,304 2790,461l507 87c908,157 1819,314 2727,481l514 97c868,157 1742,324 2617,494l514 100c818,160 1632,330 2457,497l691 147c774,164 1559,330 2343,504l577 134c758,167 1512,340 2270,521l638 150c678,164 1365,330 2059,501l788 200c638,160 1265,320 1899,487l821 220c587,157 1182,320 1772,484l875 244 1662 481 868 257 1549 467 908 284 1475 471 567 187c-11529,-26189 -18225,-56284 -22678,-83941 -280,-1726 -524,-3458 -738,-5194 -12410,-24600 -28205,-53877 -46457,-74285 -16479,-18435 -32254,-38813 -44427,-60399 -1869,-3315 -3985,-7183 -5931,-11152 -744,5130 -1041,10471 -1085,14109 -327,27795 8255,58126 18061,83835l4733 12410 -11125 -7253c-7687,-5007 -14630,-11232 -20962,-17841 -8638,-9019 -16259,-18892 -23752,-28859 -3565,-4740 -7814,-10811 -12160,-15788z"/>
  <path class="fil0" d="M884682 1632211c13165,3451 26513,6466 40011,9036l7 37c-13505,-2570 -26853,-5601 -40018,-9072z"/>
  <path class="fil0" d="M904803 1816259c-22270,62816 -19296,96555 -19296,96555 0,0 -27905,-24277 -29991,-109660 -18916,27387 -23639,69318 -30956,84726 -5578,11759 -13962,-41987 -9420,-99556 -41143,32484 -82219,52602 -76381,42078 8271,-14917 39621,-43162 50883,-74478 -70650,47992 -106629,39431 -106629,39431 0,0 29167,-17220 67292,-71885 1068,-1529 2200,-3078 3385,-4643 27074,-10451 39624,-12998 52802,-18445 41533,-17177 67185,-33399 83644,-47351l-43 300 -7 23 -3 30 -3 27 -7 30 -3 23 -3 30 -3 27 -3 30 -3 27 -7 27 -3 27 -3 27 -7 30 -3 27 -3 27 -3 27 -7 30 -3 27 -3 30 -7 23 0 30 -7 27 -3 27 -3 27 -3 30 -7 27 -3 30 -3 27 -7 27 -3 30 -3 27 -3 27 -3 30 -3 23 -7 30 -3 27 -3 30 -7 27 0 27 -3 0 0 30 -3 0 -3 27 0 0 -3 30 -3 0 0 27 -3 0 -3 27 0 0 -3 27 0 0 -3 30 0 0 -3 27 -3 0 0 30 -3 27 -7 30 -3 27 -3 30 -7 23 -3 30 -3 30 -7 27 -3 30 0 23 0 0 -3 33 -3 0 0 27 -7 27 -3 30 -3 27 -7 30 -144 1061 -130 1018 -7 63 -134 1098 -3 23 -120 1038 -3 50 -120 1135 -113 1128 0 17 -107 1168 -10 93 -77 921 -117 1515 -63 918 -100 1579 -47 878 -80 1696 -37 875c-23,594 -47,1192 -60,1792l-27 844c-13,628 -27,1262 -37,1903l-13 818c-7,678 -13,1369 -13,2066l0 648c0,748 7,1505 17,2273l7 597c10,768 27,1549 43,2333l20 704c20,808 47,1626 77,2453l23 524c30,858 70,1729 117,2604l23 527c50,891 100,1796 160,2714l30 507c60,918 124,1839 197,2777l40 587c70,915 147,1843 227,2777l60 694c87,981 184,1976 284,2981l37 374c103,1061 220,2136 337,3228l47 404c117,1078 247,2166 381,3268l47 404c134,1081 277,2180 421,3284l70 531c154,1148 314,2313 484,3488l47 340c174,1175 350,2370 534,3572l67 441c194,1235 394,2490 604,3755l43 274c678,4106 1445,8365 2306,12777l10 37c280,1449 574,2914 878,4399l20 93 27 130c300,1469 611,2954 935,4453l7 30 17 90c327,1522 668,3064 1018,4630l10 43c350,1575 718,3171 1091,4783 33,137 63,267 93,401 1853,7821 4336,15004 7467,24891 1225,3872 2550,8158 3969,13061 -1806,6629 -3728,12858 -5755,18569z"/>
  <path class="fil0" d="M522023 1619553c11189,6198 18956,5641 26670,5074 8365,-607 16656,-1218 29167,6806 13722,8802 28816,-18899 36223,-46196 7403,27297 22501,54995 36226,46193 12504,-8024 20802,-7413 29167,-6803 7711,564 15474,1125 26670,-5074 9420,-5217 3251,-23609 -10271,-41904 17270,641 32181,-2263 37882,-8408 -30141,-17778 -58590,-38115 -85043,-60726l-771 310 407 -618c-21593,-18489 -41841,-38489 -60603,-59835 -2423,13328 -290,33055 4169,49875 -19707,-19293 -51327,-32932 -69618,-32932 -7437,0 -12671,2256 -14009,7300 -6809,25779 11222,29964 2160,57048 -4660,13919 19647,21676 45178,23442 -27511,22424 -47492,58760 -33603,66447zm91555 -94145c5601,0 10137,4540 10137,10137 0,5601 -4536,10137 -10137,10137 -5598,0 -10137,-4536 -10137,-10137 0,-5598 4540,-10137 10137,-10137z"/>
  <path class="fil0" d="M1276351 1690747c11572,6409 19603,5831 27574,5247 8652,-631 17224,-1262 30158,7033 14189,9102 29801,-19540 37458,-47762 7654,28225 23265,56861 37455,47762 12931,-8298 21509,-7664 30158,-7033 7974,581 16002,1162 27574,-5247 9740,-5394 3365,-24413 -10618,-43329 23459,871 42718,-4583 41687,-15651 -2564,-27458 -21556,-25098 -22401,-54611 -244,-8548 -8715,-11926 -20615,-11926 -13952,0 -32611,4643 -48233,11025 13458,-19907 20755,-48700 20535,-69134 -24570,21159 -50880,40358 -78688,57348l227 851 -624 -601c-26263,16019 -53864,30041 -82583,41921 5661,8882 25291,13992 45682,15408 -28446,23185 -49107,60746 -34747,68701zm103515 -92169c5601,0 10141,4540 10141,10141 0,5598 -4540,10137 -10141,10137 -5598,0 -10137,-4540 -10137,-10137 0,-5601 4540,-10141 10137,-10141z"/>
  <g id="_520352800">
   <path class="fil3" d="M1528956 862041c52836,0 79672,29170 80510,87506 1676,377 3985,561 6919,561 7130,0 14994,-931 23592,-2787 8595,-1856 17190,-4366 25785,-7527 8598,-3154 16983,-6779 25161,-10865 8175,-4092 15621,-8178 22331,-12263l5658 15047c-12160,11522 -27988,21279 -47485,29263 -19500,7994 -40575,13659 -63220,17003 -2520,26009 -8178,49418 -16980,70236 -8809,20805 -19917,38549 -33339,53226 -13422,14677 -28723,25919 -45919,33719 -17187,7804 -35432,11706 -54725,11706 -14673,0 -28195,-1579 -40569,-4736 -12370,-3161 -22961,-8265 -31760,-15328 -8809,-7063 -15725,-16165 -20758,-27311 -5034,-11149 -7554,-24714 -7554,-40692 0,-10778 1258,-23041 3775,-36787 2520,-13749 6609,-27965 12267,-42642 5664,-14677 12898,-28983 21700,-42919 8809,-13936 19607,-26476 32394,-37625 12791,-11149 27574,-20067 44344,-26757 16776,-6686 36063,-10030 57872,-10030zm-46550 232434c7550,0 15204,-2877 22961,-8638 7754,-5761 14890,-13749 21386,-23973 6499,-10214 12263,-22391 17297,-36513 5037,-14116 8805,-29353 11319,-45699 -6702,-1489 -11212,-4366 -13522,-8642 -2300,-4273 -3458,-9196 -3458,-14770 0,-7807 1786,-14216 5341,-19230 3568,-5017 8288,-8455 14159,-10311 -838,-11519 -3041,-19603 -6599,-24250 -3568,-4646 -9336,-6966 -17304,-6966 -11322,0 -22017,5481 -32081,16442 -10064,10965 -18872,24340 -26416,40132 -7550,15795 -13629,32514 -18245,50165 -4610,17654 -6919,33356 -6919,47101 0,9293 527,16813 1575,22574 1048,5761 2831,10314 5344,13659 2520,3345 5875,5664 10067,6966 4192,1298 9226,1953 15094,1953z"/>
   <g>
    <g>
     <path class="fil4" d="M827251 1271321l-23586 95834c-2300,9683 -5321,18479 -9059,26376 -3738,7904 -8391,14573 -13949,20011 -5561,5437 -12130,9643 -19704,12617 -7574,2971 -16346,4459 -26316,4459 -8632,0 -15772,-1021 -21429,-3058 -5654,-2043 -10211,-4673 -13662,-7904 -3451,-3228 -5895,-6923 -7333,-11085 -1439,-4162 -2160,-8455 -2160,-12871 0,-4419 671,-8709 2016,-12874 1342,-4162 3548,-7897 6612,-11212 3071,-3315 7050,-5992 11936,-8028 4893,-2043 10885,-3061 17978,-3061 1916,0 4316,170 7190,511 2877,340 5611,1061 8198,2166 2590,1105 4793,2804 6616,5097 1822,2293 2734,5394 2734,9303 0,3058 -577,6455 -1726,10197 -2110,-2720 -4793,-4506 -8054,-5354 -3261,-848 -6135,-1275 -8628,-1275 -7096,0 -12320,2039 -15675,6118 -3358,4076 -5037,8582 -5037,13508 0,4416 1489,8368 4459,11850 2974,3485 8008,5227 15101,5227 2684,0 5321,-384 7911,-1148 2587,-764 5034,-2293 7333,-4586 2303,-2293 4459,-5481 6472,-9560 2013,-4076 3882,-9430 5608,-16055l14383 -56327c-5945,6793 -12560,11806 -19847,15037 -7287,3228 -15244,4840 -23873,4840 -8245,0 -15772,-1442 -22578,-4333 -6809,-2887 -12704,-7010 -17688,-12360 -4990,-5354 -8872,-11936 -11649,-19754 -2780,-7814 -4172,-16736 -4172,-26763 0,-12911 2397,-25401 7190,-37465 4797,-12066 11649,-22728 20568,-31987 8912,-9263 19747,-16696 32498,-22300 12754,-5611 27087,-8411 43002,-8411 6709,0 13325,594 19844,1782 6519,1192 12320,3144 17400,5865 5084,2717 9156,6329 12227,10831 3068,4499 4600,10067 4600,16693 0,5948 -1532,11172 -4600,15675 -3071,4503 -8248,6753 -15531,6753 -1152,0 -2590,-83 -4316,-254 -1726,-170 -3498,-511 -5321,-1018 -1822,-511 -3645,-1188 -5467,-2039 -1819,-851 -3401,-1953 -4743,-3315 1726,-507 3355,-1572 4887,-3184 1535,-1616 2881,-3485 4029,-5608 1152,-2123 2059,-4333 2734,-6629 671,-2293 1005,-4373 1005,-6242 0,-851 -144,-2123 -431,-3825 -287,-1699 -1102,-3438 -2443,-5224 -1345,-1782 -3358,-3355 -6042,-4716 -2684,-1359 -6422,-2039 -11219,-2039 -9009,0 -17497,2550 -25455,7647 -7958,5097 -14907,11766 -20848,20011 -5945,8238 -10645,17501 -14096,27778 -3451,10281 -5177,20518 -5177,30715 0,13255 2684,23492 8054,30712 5367,7223 11793,10831 19270,10831 4029,0 8151,-1102 12367,-3311 4219,-2210 8388,-5611 12510,-10197 4126,-4586 8008,-10448 11649,-17587 3645,-7133 6809,-15715 9493,-25742l33940 257z"/>
     <path class="fil3" d="M957595 1221339l-17921 73974c-658,2463 -985,4783 -985,6960 0,3047 818,5150 2453,6309 1639,1162 4179,1742 7614,1742 4746,0 8795,-1816 12150,-5441 3328,-3595 5891,-8111 7691,-13562l16743 -69982 35352 0 -3435 13709c4746,-4062 9700,-7544 14850,-10444 5157,-2901 10191,-4353 15104,-4353 5564,0 9780,1669 12641,5004 2867,3338 4296,7110 4296,11312 0,1886 -367,3775 -1105,5658 -734,1886 -1836,3592 -3311,5117 -1475,1522 -3315,2754 -5524,3695 -2210,941 -4787,1415 -7734,1415 -3438,0 -5771,-728 -7000,-2176 -1225,-1452 -2086,-3011 -2577,-4676 -491,-1669 -941,-3228 -1349,-4680 -411,-1449 -1515,-2173 -3318,-2173 -3108,0 -6055,798 -8839,2390 -2780,1599 -5808,3698 -9082,6312l-19640 82676 -35355 0 3024 -12641c-2734,2624 -5504,4770 -8305,6439 -4503,2684 -8875,4386 -13135,5110 -4252,728 -8021,1091 -11295,1091 -6709,0 -12150,-1599 -16326,-4787 -4172,-3191 -6753,-7904 -7731,-14143 -1802,2467 -3929,4930 -6389,7393 -2450,2470 -5197,4643 -8225,6529 -3027,1883 -6339,3408 -9940,4570 -3602,1162 -7610,1739 -12030,1739 -4256,0 -8308,-614 -12157,-1846 -3845,-1235 -7323,-3231 -10431,-5985 -3111,-2757 -5564,-6345 -7367,-10771 -1799,-4423 -2700,-9897 -2700,-16422 0,-4933 574,-10227 1716,-15885 1148,-5654 2867,-11312 5160,-16970 2290,-5654 5154,-11095 8592,-16316 3438,-5224 7527,-9827 12273,-13816 4750,-3989 10027,-7183 15838,-9573 5811,-2397 12317,-3592 19520,-3592 1963,0 4049,110 6259,327 2210,217 4256,728 6138,1522 1883,798 3521,1959 4910,3481 1392,1525 2330,3521 2824,5985l2457 -10227 35599 0zm-50579 12400c-5237,0 -9984,2140 -14236,6419 -4256,4279 -7857,9500 -10805,15668 -2947,6162 -5237,12691 -6876,19580 -1632,6889 -2457,12868 -2457,17948 0,4202 451,7433 1355,9683 898,2250 1963,3915 3191,5004 1228,1088 2533,1739 3929,1956 1392,217 2660,327 3805,327 1796,0 3722,-401 5768,-1195 2046,-801 4052,-1996 6018,-3595 1963,-1592 3678,-3585 5154,-5978 1475,-2393 2620,-5187 3438,-8378l11786 -49171c0,-577 -210,-1342 -618,-2283 -407,-941 -981,-1849 -1719,-2720 -734,-868 -1716,-1632 -2944,-2286 -1225,-651 -2824,-978 -4790,-978zm281228 -51257l-27114 112831c-658,2463 -985,4783 -985,6960 0,3047 818,5150 2457,6309 1636,1162 4172,1742 7610,1742 4746,0 8795,-1816 12153,-5441 1726,-1866 3248,-3982 4566,-6349 -17,-557 -23,-1125 -23,-1699 0,-4206 491,-8996 1475,-14360 981,-5367 2497,-10878 4540,-16536 2043,-5654 4790,-11202 8225,-16646 3438,-5437 7614,-10334 12524,-14683 4910,-4349 10638,-7834 17187,-10444 6546,-2607 13992,-3915 22341,-3915 5401,0 9863,584 13378,1739 3521,1162 6305,2720 8348,4676 2046,1959 3438,4169 4176,6639 738,2467 1105,5077 1105,7831 0,6095 -1555,11823 -4663,17190 -3114,5367 -7287,10044 -12524,14033 -5237,3989 -11252,7180 -18045,9573 -6793,2393 -13872,3805 -21236,4242 -164,1596 -287,3118 -367,4570 -83,1449 -127,2827 -127,4132 0,7397 1472,12293 4419,14687 2944,2393 7363,3592 13258,3592 4910,0 9329,-581 13258,-1742 3932,-1162 7614,-2720 11048,-4680 3438,-1956 6713,-4279 9823,-6960 3104,-2680 6205,-5541 9309,-8578l16710 -69855 35358 0 -2704 11312c5237,-5220 10398,-8558 15468,-10007 5077,-1449 9493,-2173 13258,-2173 7857,0 14363,1923 19520,5761 5157,3845 7731,10120 7731,18819 0,4356 -611,9176 -1836,14470 -1228,5294 -2584,10521 -4052,15665 -1475,5150 -2827,10010 -4049,14577 -1228,4570 -1846,8375 -1846,11422 0,2757 698,4967 2090,6639 1392,1669 3965,2500 7734,2500 2620,0 4950,-471 6996,-1412 2046,-945 3845,-2253 5401,-3915 1555,-1672 2984,-3665 4296,-5985 1308,-2320 2624,-4930 3925,-7834l10317 0c-3441,8992 -7120,16135 -11048,21429 -3932,5294 -7938,9319 -12033,12077 -4092,2757 -8061,4570 -11906,5441 -3849,865 -7407,1302 -10681,1302 -5401,0 -9944,-688 -13625,-2066 -3685,-1375 -6669,-3224 -8959,-5548 -2296,-2320 -3932,-4970 -4913,-7941 -981,-2971 -1475,-5982 -1475,-9029 0,-3625 577,-7941 1722,-12944 1145,-5004 2413,-10047 3805,-15121 1392,-5077 2657,-10047 3805,-14904 1145,-4863 1719,-9029 1719,-12510 0,-7393 -2947,-11095 -8839,-11095 -4423,0 -8268,1956 -11539,5875 -3274,3915 -5811,8628 -7610,14143l-16696 69839 -35355 0 5738 -23986c-4373,4716 -9319,8942 -14820,12671 -5564,3768 -11706,6816 -18415,9139 -6713,2320 -14156,3478 -22341,3478 -11623,0 -20912,-2684 -27868,-8044 -3738,-2887 -6472,-6779 -8201,-11679l-391 471c-4336,5147 -8755,9062 -13258,11749 -4503,2684 -8879,4386 -13138,5110 -4256,728 -8018,1091 -11292,1091 -6709,0 -12153,-1599 -16329,-4787 -4172,-3191 -6749,-7904 -7731,-14143 -1802,2467 -3929,4930 -6385,7393 -2457,2470 -5197,4643 -8225,6529 -3027,1883 -6339,3408 -9944,4570 -3598,1162 -7610,1739 -12030,1739 -4256,0 -8308,-614 -12153,-1846 -3849,-1235 -7323,-3231 -10434,-5985 -3111,-2757 -5568,-6345 -7367,-10771 -1799,-4423 -2700,-9897 -2700,-16422 0,-4933 571,-10227 1719,-15885 1145,-5654 2867,-11312 5157,-16970 2293,-5654 5157,-11095 8592,-16316 3438,-5224 7527,-9827 12277,-13816 4746,-3989 10024,-7183 15835,-9573 5811,-2397 12317,-3592 19520,-3592 1963,0 4049,110 6262,327 2210,217 4296,728 6259,1522 1963,798 3642,1959 5034,3481 1392,1525 2250,3592 2580,6202l11956 -49301 35288 0zm-59768 51257c-5237,0 -9984,2140 -14236,6419 -4259,4279 -7861,9500 -10808,15668 -2947,6162 -5237,12691 -6873,19580 -1639,6889 -2457,12868 -2457,17948 0,4202 454,7433 1349,9683 905,2250 1969,3915 3198,5004 1225,1088 2533,1739 3929,1956 1389,217 2660,327 3802,327 1799,0 3725,-401 5768,-1195 2049,-801 4052,-1996 6015,-3595 1966,-1592 3685,-3585 5157,-5978 1475,-2393 2624,-5187 3441,-8378l11783 -48954c0,-1305 -694,-3044 -2086,-5220 -1392,-2176 -4056,-3264 -7981,-3264zm132828 6963c0,-2754 -451,-4930 -1355,-6526 -898,-1599 -2493,-2393 -4787,-2393 -3111,0 -6138,1305 -9082,3915 -2947,2610 -5728,5985 -8348,10117 -2617,4136 -4950,8812 -6996,14033 -2046,5220 -3722,10518 -5034,15882 4750,-290 9289,-1445 13629,-3478 4333,-2033 8138,-4643 11416,-7834 3271,-3191 5851,-6856 7731,-10988 1886,-4136 2827,-8378 2827,-12727z"/>
    </g>
    <path class="fil3" d="M1262252 864829l-8802 35115c12160,-10404 24847,-19323 38052,-26753 13211,-7433 26106,-11149 38686,-11149 14256,0 25054,4273 32394,12818 7340,8548 11008,18212 11008,28986 0,4830 -948,9663 -2831,14490 -1889,4833 -4720,9199 -8495,13101 -3772,3902 -8488,7063 -14149,9476 -5664,2413 -12267,3622 -19814,3622 -8805,0 -14784,-1859 -17928,-5574 -3144,-3715 -5344,-7711 -6602,-11980 -1258,-4276 -2413,-8271 -3458,-11990 -1051,-3712 -3882,-5571 -8495,-5571 -7968,0 -15518,2043 -22641,6132 -7130,4086 -14890,9473 -23278,16162l-50319 211813 -90577 0 7437 -31089c-6906,6809 -13896,12437 -20962,16873 -11529,7247 -22744,11986 -33649,14216 -10902,2226 -20548,3345 -28936,3345 -18028,0 -32391,-4463 -43086,-13382 -10691,-8916 -17087,-22107 -19183,-39574 -7964,11522 -16039,20718 -24213,27591 -8181,6876 -16249,12170 -24220,15888 -7968,3715 -15725,6222 -23275,7524 -7547,1302 -14673,1953 -21383,1953 -18872,0 -34804,-5301 -47805,-15888 -13001,-10591 -19500,-27591 -19500,-51000 0,-10037 1679,-22114 5034,-36233l42768 -178921 90580 0 -45289 189512c-1258,5574 -1889,10778 -1889,15605 0,6322 1362,11709 4089,16165 2727,4463 7654,6692 14780,6692 12163,0 22437,-4646 30822,-13936 8388,-9289 14890,-20999 19500,-35118l42772 -178921 90577 0 -45289 189512c-1679,6319 -2517,12263 -2517,17838 0,7804 2096,13191 6292,16165 4192,2971 10691,4459 19500,4459 12157,0 22537,-4646 31133,-13936 8522,-9209 15084,-20788 19690,-34737l42895 -179302 90574 0z"/>
   </g>
   <path class="fil3" d="M625074 777873l-75480 312701c11325,7430 23272,11145 35856,11145 18869,0 35746,-7620 50636,-22851 14884,-15237 27464,-34557 37738,-57969 10274,-23412 18242,-49144 23899,-77199 5661,-28058 8495,-54718 8495,-79986 0,-20808 -1993,-38369 -5978,-52675 -3985,-14306 -9957,-25919 -17924,-34834 -7968,-8919 -18031,-15331 -30195,-19233 -12160,-3899 -26416,-5851 -42768,-5851 -21386,0 -41831,3064 -61330,9196 -19500,6132 -36483,15051 -50950,26753 -14466,11706 -25999,25922 -34594,42645 -8595,16720 -12894,35672 -12894,56851 0,6692 421,12170 1258,16446 838,4273 1676,7801 2517,10588 838,2790 1779,5017 2827,6689 1051,1672 1786,3068 2203,4182 -20969,0 -37428,-3902 -49374,-11706 -11953,-7804 -17931,-21179 -17931,-40132 0,-18953 6292,-37348 18872,-55182 12577,-17838 29460,-33536 50636,-47101 21172,-13565 45706,-24433 73594,-32608 27885,-8175 57345,-12263 88374,-12263 31029,0 57342,4182 78938,12540 21596,8361 39207,19974 52839,34841 13629,14860 23479,32234 29560,52115 6082,19881 9122,41340 9122,64381 0,20435 -2100,41059 -6289,61868 -4196,20812 -10171,40876 -17931,60196 -7754,19326 -17083,37535 -27988,54628 -10902,17093 -22748,31864 -35535,44311 -12794,12450 -26526,22297 -41203,29544 -14677,7247 -29771,10868 -45292,10868 -12157,0 -24630,-2323 -37424,-6966 -12787,-4643 -25892,-12170 -39310,-22574l-5034 22297 -90574 0 85544 -354504 93091 -11149z"/>
   <path class="fil4" d="M1037074 499439c224977,0 418692,134097 505578,326703 -4416,-377 -8982,-571 -13695,-571 -3164,0 -6329,63 -9490,190 -85514,-180547 -269381,-305471 -482393,-305471 -153927,0 -292627,65256 -390010,169568 -8191,-591 -16386,-851 -24503,-851l-2854 10c101622,-116175 250933,-189579 417367,-189579zm550796 616880c-31082,276668 -265837,491815 -550796,491815 -264138,0 -485130,-184863 -540776,-432224l21403 0c55242,235749 266811,411372 519373,411372 264962,0 484816,-193281 526376,-446497 6479,-5364 12594,-11205 18342,-17491 2083,-2280 4109,-4606 6078,-6976z"/>
  </g>
 </g>
</svg>
