<?xml version="1.0" encoding="UTF-8"?>
<!DOCTYPE svg PUBLIC "-//W3C//DTD SVG 1.1//EN" "http://www.w3.org/Graphics/SVG/1.1/DTD/svg11.dtd">
<!-- Creator: CorelDRAW X6 -->
<svg xmlns="http://www.w3.org/2000/svg" xml:space="preserve" width="100px" height="100px" version="1.1" style="shape-rendering:geometricPrecision; text-rendering:geometricPrecision; image-rendering:optimizeQuality; fill-rule:evenodd; clip-rule:evenodd"
viewBox="0 0 21284 21284"
 xmlns:xlink="http://www.w3.org/1999/xlink">
 <defs>
  <style type="text/css">
   <![CDATA[
    .str0 {stroke:#373435;stroke-width:379.853}
    .fil0 {fill:none}
    .fil1 {fill:black;fill-rule:nonzero}
   ]]>
  </style>
 </defs>
 <g id="Capa_x0020_1">
  <metadata id="CorelCorpID_0Corel-Layer"/>
  <circle class="fil0 str0" cx="10642" cy="10642" r="10452"/>
  <path class="fil1" d="M4730 7226c0,-203 71,-377 212,-522 142,-145 314,-217 517,-217 203,0 377,72 522,217 145,145 217,319 217,522 0,203 -72,376 -217,517 -145,142 -319,213 -522,213 -203,0 -376,-71 -517,-213 -142,-142 -212,-314 -212,-517zm1146 1229l-665 3141c-25,105 -37,203 -37,296 0,129 31,219 92,268 62,49 157,74 286,74 179,0 345,-77 499,-231 154,-154 265,-348 333,-582l388 0c-129,376 -280,676 -453,901 -172,225 -348,397 -527,517 -179,120 -353,199 -522,236 -169,37 -316,55 -439,55 -277,0 -511,-88 -702,-263 -191,-176 -286,-457 -286,-845 0,-166 25,-366 74,-600l628 -2965 1330 0z"/>
  <path id="1" class="fil1" d="M9044 9730c0,-314 -111,-471 -333,-471 -166,0 -311,83 -434,249 -123,166 -219,366 -286,600l-628 2965 -1330 0 979 -4619 1330 0 -102 480c197,-222 391,-363 582,-425 191,-62 357,-92 499,-92 296,0 540,82 734,245 194,163 291,430 291,799 0,185 -23,390 -69,614 -46,225 -97,447 -152,665 -55,219 -106,425 -152,619 -46,194 -69,356 -69,485 0,117 26,211 79,282 52,71 149,106 291,106 99,0 186,-20 263,-60 77,-40 145,-95 203,-166 58,-71 112,-156 162,-254 49,-99 99,-209 148,-333l388 0c-129,382 -268,685 -416,910 -148,225 -299,396 -453,513 -154,117 -303,194 -448,231 -145,37 -279,55 -402,55 -203,0 -374,-29 -513,-88 -139,-58 -251,-137 -337,-236 -86,-99 -148,-211 -185,-337 -37,-126 -55,-254 -55,-383 0,-154 22,-337 65,-550 43,-212 91,-426 143,-642 52,-216 100,-427 143,-633 43,-206 65,-383 65,-531z"/>
  <path id="2" class="fil1" d="M14144 7531c6,-49 11,-92 14,-129 3,-37 5,-77 5,-120 0,-105 -35,-183 -106,-236 -71,-52 -152,-79 -245,-79 -49,0 -105,11 -166,32 -62,22 -123,60 -185,115 -62,55 -119,132 -171,231 -52,99 -94,225 -125,379l-157 730 674 0 -65 370 -684 0 -1062 4988c-68,333 -163,600 -286,804 -123,203 -262,362 -416,476 -154,114 -312,191 -476,231 -163,40 -322,60 -476,60 -142,0 -277,-23 -406,-69 -129,-46 -245,-114 -346,-203 -102,-89 -183,-195 -245,-319 -62,-123 -92,-259 -92,-406 0,-209 42,-388 125,-536 83,-148 197,-273 342,-374 145,-102 313,-189 503,-263 191,-74 397,-145 619,-212l1118 -5275c68,-333 165,-600 291,-804 126,-203 268,-362 425,-476 157,-114 319,-191 485,-231 166,-40 326,-60 480,-60 142,0 277,23 406,69 129,46 245,114 346,203 102,89 183,196 245,319 62,123 92,259 92,406 0,142 -9,268 -28,379l-434 0zm-4508 6725c0,68 35,135 106,203 71,68 159,102 263,102 99,0 196,-51 291,-152 95,-102 174,-291 236,-568l120 -536c-148,49 -283,103 -406,162 -123,59 -229,125 -319,199 -89,74 -160,160 -212,259 -52,99 -79,209 -79,333z"/>
  <path id="3" class="fil1" d="M15917 8409c776,0 1170,483 1182,1450 25,6 58,9 102,9 105,0 220,-15 346,-46 126,-31 252,-72 379,-125 126,-52 249,-112 370,-180 120,-68 229,-135 328,-203l83 249c-179,191 -411,353 -697,485 -286,132 -596,226 -928,282 -37,431 -120,819 -249,1164 -129,345 -292,639 -490,882 -197,243 -422,430 -674,559 -252,129 -520,194 -804,194 -216,0 -414,-26 -596,-79 -182,-52 -337,-137 -467,-254 -129,-117 -231,-268 -305,-453 -74,-185 -111,-410 -111,-674 0,-179 18,-382 55,-610 37,-228 97,-463 180,-707 83,-243 189,-480 319,-711 129,-231 288,-439 476,-624 188,-185 405,-333 651,-443 246,-111 530,-166 850,-166zm-684 3852c111,0 223,-48 337,-143 114,-95 219,-228 314,-397 95,-169 180,-371 254,-605 74,-234 129,-487 166,-757 -99,-25 -165,-72 -199,-143 -34,-71 -51,-152 -51,-245 0,-129 26,-236 79,-319 52,-83 122,-140 208,-171 -12,-191 -45,-325 -97,-402 -52,-77 -137,-115 -254,-115 -166,0 -323,91 -471,273 -148,182 -277,403 -388,665 -111,262 -200,539 -268,831 -68,293 -102,553 -102,781 0,154 8,279 23,374 15,95 42,171 79,226 37,55 86,94 148,115 62,22 135,32 222,32z"/>
 </g>
</svg>
