<?xml version="1.0" encoding="UTF-8" standalone="no"?><!DOCTYPE svg PUBLIC "-//W3C//DTD SVG 1.1//EN" "http://www.w3.org/Graphics/SVG/1.1/DTD/svg11.dtd"><svg width="100%" height="100%" viewBox="0 0 644 298" version="1.1" xmlns="http://www.w3.org/2000/svg" xmlns:xlink="http://www.w3.org/1999/xlink" xml:space="preserve" style="fill-rule:evenodd;clip-rule:evenodd;stroke-linejoin:round;stroke-miterlimit:1.41421;"><g><path d="M300.919,0.31c-73,6.6 -134.7,41.3 -163,91.6l-3.2,5.8l3.5,0c3.2,0 3.8,-0.5 7.6,-7c11.2,-18.8 30.4,-37.6 52.3,-51.2c77.5,-48.2 192.8,-44.1 264,9.4c16.2,12.2 33,31 40.4,45.3c2.1,3.9 3.5,5.5 4.9,5.5c4.6,0 4.6,-1.4 0,-9.5c-25.9,-45.4 -80.4,-78.1 -147,-88.1c-9.6,-1.5 -49.7,-2.7 -59.5,-1.8Z" style="fill-rule:nonzero;"/><path d="M40.319,63.61l-0.6,2.9l-11.2,0.7c-9.4,0.6 -11.8,0.5 -14.4,-0.9c-1.8,-0.9 -3.2,-2.1 -3.2,-2.6c0,-0.6 -0.6,-1 -1.4,-1c-1.8,0 -8.7,18 -9.4,24.3c-1.1,11.2 5.2,13.6 28.1,10.3c4.8,-0.7 8.7,-0.9 8.7,-0.5c0,0.4 -0.9,7.4 -2,15.6c-2.1,16 -4.8,27.8 -7.8,34.6c-2,4.5 -1.9,6.7 0.4,6.7c5.2,0 11.7,-7.8 14.8,-17.5c0.9,-2.8 2.7,-13.3 4.1,-23.4c1.4,-10.2 2.6,-18.6 2.8,-18.7c1.1,-1 26.3,-3.5 32.9,-3.3c7.3,0.4 8.9,0.8 12,3.1c5.6,4.2 7.3,8.8 7.2,19.3c-0.1,32.6 -25.4,54.9 -57.4,50.7c-13,-1.8 -19.4,-5 -22,-11.2c-0.7,-1.6 -1.9,-3 -2.6,-3c-1.9,0 -2.9,3 -4.3,13c-1.1,7.6 -1,9.1 0.4,12.8c2.7,6.7 6.8,8.6 19.7,9c13.3,0.5 23.2,-1.5 34.3,-6.8c28.3,-13.6 45.7,-48.4 44.4,-88.6c-0.4,-9.3 -0.8,-11.8 -2.9,-15.9c-5.1,-10 -17.6,-12.4 -46.4,-9.1l-13.8,1.6l-3,-2.5c-4,-3.4 -6.7,-3.3 -7.4,0.4Z" style="fill-rule:nonzero;"/><path d="M402.919,63.21c-9.9,2 -21.3,6 -33.7,12.1c-6.2,3 -11.5,5.4 -11.8,5.4c-0.3,0 -0.5,-0.6 -0.5,-1.4c0,-2.2 -4,-6.6 -6,-6.6c-2.1,0 -3,2.7 -3,9.3c0,4.5 -0.5,5.4 -5.5,11c-12.2,13.7 -13.6,19.2 -14.2,53.8c-0.5,25.2 -0.4,26.9 1.5,31.2c1.5,3.3 2.8,4.8 4.6,5.3c4.3,1 5.3,-0.8 6,-11.3c1.3,-17.2 8.4,-55.8 11,-59.8c3.5,-5.4 21.2,-13.5 39.5,-18.1c17.3,-4.4 23.2,-2.3 18.6,6.5c-3.7,7.3 -23.4,20.2 -37.5,24.7c-10.1,3.2 -16,8.2 -18.1,15.2c-2.2,7.4 -1.7,7.6 17.2,8.3c17.8,0.6 21.8,1.6 27.3,6.7c8,7.5 7.4,20.7 -1.1,24.7c-2.7,1.3 -4,1.4 -6.8,0.5c-3.3,-1.1 -10.5,-8 -10.5,-10.1c0,-0.6 -0.6,-0.7 -1.7,0c-2,1.1 -4.1,11.3 -4.2,20.7c-0.1,6.9 1.6,9.4 6.4,9.4c5.7,0 11.9,-4.3 25,-17.5c18,-18.1 23.6,-28 21.5,-37.9c-2.4,-11 -10.8,-16.6 -26.5,-17.4l-9.2,-0.5l10.6,-9.7c18.2,-16.7 30.3,-32.6 31.6,-41.4c0.9,-5.9 -1.3,-10.8 -5.8,-12.9c-4.2,-2 -15.1,-2.1 -24.7,-0.2Z" style="fill-rule:nonzero;"/><path d="M619.119,64.71c-4.1,2.5 -7,8.5 -11.1,23c-5.3,18.8 -12.6,57.4 -15.2,81.4l-1.2,10.9l2.7,2.4c3,2.5 6.8,3 8.4,1c0.6,-0.6 3.5,-7.7 6.5,-15.7c6.2,-16.7 10.1,-25.3 12.2,-27c1.3,-1.1 1.5,-0.7 1.5,2.1c0,1.9 -0.9,8.6 -2,14.9c-2.4,13.7 -2.5,17.9 -0.6,22.4c1.5,3.7 4.3,5.1 7.9,4c2,-0.6 8.7,-5.5 12.2,-9c1.9,-2 1.9,-4.4 0,-4.4c-0.8,0 -2.2,-1.1 -3.1,-2.4c-1.9,-3 -1.4,-8.1 2.2,-25.6c4.1,-19.9 4.8,-26.8 2.9,-29.6c-1.1,-1.8 -2.4,-2.4 -5,-2.4c-5.7,0 -9.4,4.3 -18,21c-4.3,8.2 -8.5,15.5 -9.3,16.2c-1.3,1.1 -1.4,0.6 -0.7,-4.1c0.4,-2.9 2.2,-11.5 3.9,-19c2.8,-11.9 3.9,-14.8 7.9,-21.1c7.9,-12.4 14.1,-31.5 12.3,-38.4c-0.6,-2.4 -1.1,-2.6 -5.9,-2.6c-3.5,0 -6.3,0.7 -8.5,2Z" style="fill-rule:nonzero;"/><path d="M211.219,102.81c-3,0.9 -3.4,1.6 -5.4,8.2c-2.7,8.9 -3.5,9.9 -4.2,5.2c-0.7,-4.4 -2.3,-6.5 -4.9,-6.5c-2.3,0 -8.3,3.1 -12.3,6.4c-3,2.4 -3,2.4 -1.2,5.4c1.1,2 1.7,5.1 1.7,9.4c0,7.2 -3.4,35.8 -5.3,45.4c-1.4,6.8 -1.1,7.4 3.4,7.4c3,0 9.7,-3.7 11.3,-6.3c0.8,-1.2 2.8,-11 4.6,-21.7c3.8,-23.5 3.8,-23.4 5.5,-19.3c1,2.4 2,3.3 3.8,3.3c3.1,0 5.3,-2.5 7.3,-8.4c1.6,-4.6 1.6,-4.8 -0.4,-6.1c-1.1,-0.8 -2.3,-2.6 -2.6,-4c-0.5,-2.1 1,-11.3 3,-17.8c0.6,-1.9 0.3,-1.9 -4.3,-0.6Z" style="fill-rule:nonzero;"/><path d="M254.819,109.31c-1,1.2 -2.4,1.5 -6.1,1c-17.8,-2.4 -29.1,15.4 -30.5,48c-0.5,11.7 -0.4,13.5 1.5,17.6c2.6,6 6.6,8.2 14.7,8.2c9.3,0.1 15.2,-2 20.7,-7.5c5.3,-5.3 8.1,-12.7 10.1,-26.4c0.7,-5.1 1.9,-9.3 3.4,-11.6c1.3,-2 2.6,-6 3,-8.9l0.6,-5.3l-2.6,0.7c-2.5,0.6 -2.7,0.4 -2.7,-2.6c-0.1,-4.2 -2.3,-10.3 -4.6,-12.9c-2.1,-2.3 -5.7,-2.5 -7.5,-0.3Zm-3.7,16.8c-0.3,8.9 0,12 1.2,13.8c1.2,1.9 1.3,3.7 0.5,10.3c-1.2,9.9 -3.5,19.2 -5.5,22.3c-2.3,3.5 -7.2,2.7 -10.2,-1.8c-2.3,-3.3 -2.4,-4.1 -1.9,-14c0.9,-17.6 5.4,-33.9 10.8,-39.2c4.9,-5 5.4,-4.1 5.1,8.6Z" style="fill-rule:nonzero;"/><path d="M129.819,113.21c-7.2,3.7 -8.8,5.8 -6.4,8.5c2.1,2.4 1.9,4.9 -2.1,24.8c-5.6,27.7 -4.9,37.2 2.8,37.2c3.3,0 5.2,-1.6 18.1,-16l6.8,-7.5l-0.7,6.7c-1.1,11.5 0.9,16.8 6.3,16.8c2,0 4.3,-1.8 9,-6.8c6.7,-7.2 7.4,-9 4.3,-10.9c-1,-0.7 -2.2,-2.7 -2.5,-4.5c-1,-5.4 1.4,-24.4 4.1,-32.5c1.8,-5.3 2.4,-9.1 2.2,-13.1c-0.3,-5.6 -0.3,-5.7 -3.6,-6c-4.3,-0.4 -9.2,2.7 -12,7.6c-1.6,2.9 -2.6,7.8 -4,18.9l-1.8,14.9l-4.9,5.7c-8.7,10.2 -9.3,7.6 -4,-18.7c3.7,-18.3 4.2,-23.5 2.5,-26.7c-1.6,-2.9 -6.5,-2.3 -14.1,1.6Z" style="fill-rule:nonzero;"/><path d="M466.719,110.71c-8.9,0.9 -13.1,3.3 -17.3,10.1c-8.5,13.3 -13.5,47.1 -8.5,56.9c2.7,5.3 6.9,7.4 13.4,6.6c10,-1.2 23,-10.1 24.2,-16.6l0.7,-3.5l-2.4,2.2c-2.9,2.7 -9,5.3 -12.2,5.3c-1.3,0 -3.2,-0.9 -4.2,-2c-2,-2.2 -3.1,-10.1 -2.1,-15.3l0.6,-3.4l8.5,-1c14.8,-1.8 17,-4.8 17,-23.4c0,-17.8 0.2,-17.6 -17.7,-15.9Zm4.8,8.6c1.6,6.3 -1.8,18.5 -6.3,23.1c-4.9,4.9 -6.6,4.5 -5.8,-1.5c1.3,-9.1 3.6,-17.8 5.5,-21c2.4,-4 5.7,-4.3 6.6,-0.6Z" style="fill-rule:nonzero;"/><path d="M513.119,110.71c-6.1,1.3 -10.8,4.5 -13.7,9.3c-3.2,5.6 -9.5,32 -10.2,42.9c-0.8,13 2.7,20.8 9.5,20.8c3.7,0 6.8,-2.7 15.4,-13.4c4.4,-5.6 8.2,-10.3 8.4,-10.5c0.2,-0.2 0.3,3.9 0.2,9.2c-0.1,7.5 0.2,10.1 1.6,12.1c2.8,4.4 6.3,3.5 12.9,-3.2c3.1,-3.2 5.7,-6.2 5.7,-6.7c0,-0.5 -1,-2 -2.2,-3.3c-2.2,-2.2 -2.3,-3.2 -2.1,-14.4c0.2,-8.4 0.9,-14.3 2.3,-19.4c2.5,-9.4 2.5,-13.7 -0.1,-19c-3.3,-7 -8.3,-6.8 -11.2,0.4c-0.8,2.1 -2.3,10.3 -3.3,18.3c-1.9,16.1 -2.6,17.7 -10.4,25.4c-4.8,4.6 -5.2,4.9 -6.5,3.2c-0.8,-1.1 -1.1,-3.4 -0.8,-6c0.9,-8.5 5.3,-31.6 6.5,-34.2c1.3,-2.8 5.7,-5.9 10.1,-6.9c2.2,-0.5 2.8,-1.2 2.5,-2.9c-0.3,-1.9 -1,-2.2 -5.3,-2.4c-2.7,-0.1 -6.9,0.3 -9.3,0.7Z" style="fill-rule:nonzero;"/><path d="M576.619,110.71c-2.7,0.5 -6.3,2 -8.1,3.4c-8.5,6.4 -14.6,25.3 -16.2,49.8c-0.6,8.9 -0.4,11 1.1,14.2c4.2,8.9 12.9,8.5 25.5,-1.3c6.8,-5.2 7.6,-6.2 8.1,-9.9c0.6,-4.8 0.1,-5.1 -3,-1.8c-1.3,1.4 -3.9,3.2 -5.9,4.2c-3.5,1.6 -3.6,1.6 -5.4,-0.6c-2.3,-2.8 -2.3,-5.4 0.3,-18.7c3.6,-18.9 7,-29.6 9,-27.6c0.5,0.5 1.2,3.3 1.6,6.2c0.5,3 1.3,5.6 1.9,5.8c0.6,0.2 2.5,-1.5 4.4,-3.9c2.7,-3.3 3.3,-4.9 3.1,-8.1c-0.2,-4.5 -2.6,-10.7 -4.4,-11.9c-1.4,-0.9 -5.5,-0.8 -12,0.2Z" style="fill-rule:nonzero;"/><path d="M510.319,191.51c-1.7,1.5 -4.2,4.7 -5.4,7.2c-19.5,39 -65.1,71.5 -119,85c-82.5,20.6 -172.8,-1.3 -222.4,-54c-8,-8.6 -17.8,-22.5 -22.8,-32.4c-3.7,-7.5 -3.2,-7 -5.7,-5.4c-2.9,1.8 -2.7,3.2 2,11.8c13,24 34.2,45.1 61.7,61.6c66.8,40.1 163.8,43.1 235.6,7.2c35.8,-17.9 63.8,-44.6 77.6,-74.2c4.8,-10.1 4.4,-12 -1.6,-6.8Z" style="fill-rule:nonzero;"/><path d="M242.919,238.71l0,16l8.9,0l0.3,-6.3l0.3,-6.2l5.3,-0.3l5.2,-0.3l0,6.5l0,6.6l10,0l0,-32l-5,0l-5,0l0,5.5l0,5.5l-5.5,0l-5.5,0l0,-11l-4.5,0l-4.5,0l0,16Z" style="fill-rule:nonzero;"/><path d="M285.919,224.51c-4,2.1 -8,9 -8,13.7c0,8.7 4.4,14.7 12.2,16.4c12.6,2.9 21.6,-4.8 20.6,-17.5c-0.5,-6.3 -2.9,-10.1 -7.9,-12.6c-4.5,-2.3 -12.5,-2.3 -16.9,0Zm12.4,7.3c2.1,1.7 2.6,2.9 2.6,6.8c0,6.2 -2.1,9.1 -6.5,9.1c-4.3,0 -6.5,-2.9 -6.5,-8.8c0,-3.2 0.6,-4.9 2.5,-6.7c2.9,-3 4.5,-3.1 7.9,-0.4Z" style="fill-rule:nonzero;"/><path d="M312.919,226.71l0,4l10,0l0,12l0,12l10,0l0,-24l10.1,0l-0.3,-3.8l-0.3,-3.7l-14.7,-0.3l-14.8,-0.3l0,4.1Z" style="fill-rule:nonzero;"/><path d="M346.919,238.71l0,16l27,0l0,-7l-8.5,0l-8.5,0l0,-6l15,0l0,-7l-7.5,0c-7.3,0 -7.5,-0.1 -7.5,-2.5c0,-2.5 0.1,-2.5 8,-2.5l8,0l0,-7l-13,0l-13,0l0,16Z" style="fill-rule:nonzero;"/><path d="M378.919,238.61l0,16.1l25,0l0,-8l-7.5,0l-7.4,0l-0.3,-11.8l-0.3,-11.7l-4.7,-0.3l-4.8,-0.3l0,16Z" style="fill-rule:nonzero;"/></g></svg>