<?xml version="1.0" encoding="UTF-8" standalone="no"?><!DOCTYPE svg PUBLIC "-//W3C//DTD SVG 1.1//EN" "http://www.w3.org/Graphics/SVG/1.1/DTD/svg11.dtd"><svg width="100%" height="100%" viewBox="0 0 300000 298448" version="1.1" xmlns="http://www.w3.org/2000/svg" xmlns:xlink="http://www.w3.org/1999/xlink" xml:space="preserve" style="fill-rule:evenodd;clip-rule:evenodd;stroke-linejoin:round;stroke-miterlimit:1.41421;"><g id="Capa_x0020_1"><path d="M149219,66303c489,-1058 915,-2257 1238,-3449c323,1189 746,2384 1234,3439c4298,41 8522,391 12650,1035c554,-1115 -343,-3352 -1988,-5579c3300,123 6009,-644 5864,-2202c-361,-3863 -3032,-3530 -3151,-7682c-34,-1202 -1226,-1677 -2900,-1677c-1963,0 -4588,654 -6785,1551c3215,-4756 3932,-13118 1212,-13201c-72,-3 -141,-3 -211,-4l-3,0l-3,0l-4,0l-3,0l-4,0l-3,0l-4,0l-3,0l-3,0c-1692,0 -2615,556 -3526,1113c-1047,639 -2079,1278 -4243,1071c-2579,-246 -2470,5253 -1348,9483c-2867,-2806 -7466,-4789 -10126,-4789c-1081,0 -1843,327 -2037,1061c-991,3750 1632,4358 313,8297c-678,2024 2858,3153 6572,3410c-3639,2965 -6371,7604 -5318,9261c4104,-674 8305,-1062 12581,-1140l-1,2Zm1164,-12150c814,0 1475,660 1475,1475c0,814 -660,1475 -1475,1475c-814,0 -1475,-660 -1475,-1475c0,-814 660,-1475 1475,-1475Z" style="fill:#b3b3b3;fill-rule:nonzero;"/><path d="M35101,106619c-1324,450 7590,23927 6874,24199c-349,134 -4582,-4737 -8975,-9608c-4619,-5122 -9416,-10244 -10062,-9549c-1261,1357 14348,18267 13922,18852c-207,285 -6716,-3423 -13404,-7133c-7045,-3908 -14290,-7815 -14577,-7053c-562,1485 28616,18433 28271,19526c-169,533 -8376,-832 -16743,-2197c-8805,-1435 -17787,-2871 -17767,-2097c40,1509 22032,4601 22394,5620c361,1020 -24994,1615 -25035,2619c-40,1004 31996,1782 32573,2409c580,626 -30887,8213 -30461,10140c224,1014 7697,-822 14807,-2657c6417,-1657 12536,-3312 12757,-2875c465,924 -26777,13505 -25524,14863c636,689 9092,-3052 17366,-6791c8023,-3627 15872,-7254 16252,-6842c770,835 -27282,23638 -24737,25348c1297,871 8108,-5406 14602,-11684c6242,-6035 12191,-12068 12672,-11754c980,642 -17205,30575 -14685,30375c2522,-201 17953,-29138 18949,-28897c994,241 -6319,24778 -4633,25348c851,289 2467,-5058 3973,-10404c1477,-5241 2848,-10483 3293,-10415c899,137 3991,18354 5613,20531c1621,2176 -1197,-17841 -2236,-25194c-1041,-7353 3552,2326 6507,6365c531,725 1064,1453 1573,2125l979,-4579c-5693,-13883 -22521,-48596 -24500,-48593c-13,0 -25,2 -38,5l0,-3Z" style="fill:#b3b3b3;fill-rule:nonzero;"/><path d="M133690,266357c-1003,7914 2076,24638 2753,29089c703,4613 1833,3720 924,-1390c-908,-5110 -1244,-16880 -794,-20943c96,-875 215,-2021 360,-3356c-540,1093 -1164,2189 -1885,3282c-490,-2677 -943,-4862 -1358,-6682Z" style="fill:#b3b3b3;fill-rule:nonzero;"/><path d="M197785,245137l51,-95l-51,95Z" style="fill:#b3b3b3;fill-rule:nonzero;"/><path d="M197239,246062l2,-5l3,-4l2,-3l3,-5l2,-4l3,-4l3,-3l2,-5l3,-3l2,-4l4,-5l2,-3l2,-4l3,-4l2,-4l4,-4l2,-4l2,-5l3,-3l2,-4l2,-4l4,-5l2,-3l3,-4l2,-5l2,-4l4,-3l2,-4l3,-5l2,-3l2,-4l3,-5l3,-4l3,-3l2,-4l2,-5l3,-4l3,-3l3,-5l2,-4l2,-4l3,-5l2,-3l4,-4l2,-4l2,-5l3,-4l2,-3l3,-5l1,0l2,-4l2,-4l3,-4l2,-4l2,-4l4,-4l2,-5l2,-4l3,-3l2,-4l3,-5l1,0l2,-4l2,-4l3,-5l2,-3" style="fill:none;"/><path d="M196604,246902l5,-5l5,-5l4,-5l4,-5l5,-5l4,-5l4,-6l5,-4l4,-5l5,-6l5,-5l4,-5l4,-5l5,-5l4,-6l4,-5l4,-4l5,-6l4,-5l4,-6l1,0l4,-5l1,0l4,-5l4,-6l5,-5l4,-4l4,-6l5,-5l4,-6l4,-5l5,-5l4,-6l1,0l3,-5l1,0l4,-6l1,0l3,-5l1,0l4,-5l5,-6l4,-5l4,-5l4,-6l5,-5l4,-6l4,-5l5,-6l4,-6l4,-4l5,-7l5,-5l4,-5l5,-6l4,-5l4,-6l5,-6l4,-5l4,-6l4,-5l5,-6l4,-5l4,-6l5,-6l4,-5l4,-6l5,-6l4,-5l4,-6" style="fill:none;"/><path d="M196362,247160l4,-3l3,-4l5,-4l3,-4l3,-3l1,0l3,-4l4,-4l4,-4l3,-3l4,-4l4,-4l4,-4l3,-3l3,-5l2,0l3,-3l3,-4l4,-3l4,-5l4,-4l3,-3l4,-4l4,-5l4,-3l3,-4l4,-4l4,-4l4,-3l3,-4l3,-5l2,0l3,-3l3,-4l4,-5" style="fill:none;"/><path d="M191092,246631l25,3l-25,-3Z" style="fill:#b3b3b3;fill-rule:nonzero;"/><path d="M187567,246624l11,2l9,1l10,2l11,1l9,2l10,3l10,1l1,0l10,2l9,1l10,2l11,1l0,1l9,1l10,1l10,3l10,1l1,0l9,2l29,4l20,2l1,1l18,2l1,0l39,6l10,1l9,1l1,0l9,1l1,1l9,0l1,1l38,5l1,0l18,2l1,0l18,2l1,0l28,3l20,2l8,0l1,1l9,0l1,1l9,0l1,1l10,0l8,2l1,0l9,1l10,0l1,1l8,0l0,1l10,0l9,1l1,0l8,1l11,0l18,2l10,0l46,3l1,0l-47,-3" style="fill:none;"/><path d="M154319,256326l1,2l2,1" style="fill:none;"/><path d="M207987,249422l11,0c221,1 359,34 402,104c605,971 -3188,3144 -6198,4226c-1628,586 -723,515 485,444c1025,-60 2270,-121 2367,221c210,743 -3198,1116 -3348,1923c-74,401 1857,23 3766,-355c1943,-386 3865,-770 3628,-334c-472,864 -10549,2423 -10935,3193c-386,772 8302,8 6874,1199c-1428,1191 -4467,794 -4709,1619c-144,486 235,1174 -376,1335c84,861 -4574,-612 -8957,-1550c7619,4189 16330,4437 14897,5161c-2033,1119 -7765,-326 -12633,-1771c-4163,-1237 -7693,-2472 -7735,-2105c-93,798 13495,6503 14859,8603c1366,2100 -16256,-6793 -18761,-8144c-2505,-1351 3093,4214 9109,7751c6017,3537 10696,2628 10717,4498c14,1324 -4927,88 -9581,-1265c3992,1535 8774,3205 9796,4662c1360,1945 -12539,-1128 -19757,-5701c-3433,-2176 -9815,-7782 -14411,-11957c556,620 1155,1315 1803,2095c9754,12244 19405,16463 24140,19369c4733,2907 -11854,-4295 -18867,-9921c-5122,-4109 -11082,-11400 -13924,-15034l-669,-223c2896,3499 8428,10247 9990,12640c2147,3287 11123,11610 16079,14008c4956,2399 1914,2861 -1709,927c-3624,-1932 -11294,-7300 -18102,-15725c-2575,-3188 -5422,-6299 -7564,-8811c1290,2117 2602,4240 3362,5388c1871,2831 14044,18587 16945,20414c2902,1828 3144,3189 283,1591c-2861,-1601 -14718,-12945 -18114,-18207c-2617,-4059 -7713,-11801 -7732,-14514l-947,-894c-197,-8 -389,85 -562,326c-939,1303 7121,18962 9920,23502c2797,4540 11814,17695 10350,17370c-1464,-325 -11615,-13280 -14295,-19128c-2680,-5849 -6342,-13271 -7206,-16811c-864,-3543 -4764,-8354 -1815,4944c2950,13297 6923,23123 9384,27083c2461,3961 1159,5204 -1628,1387c-2788,-3819 -5917,-10876 -6936,-13974c-1020,-3099 -3715,-14307 -4177,-18220c-461,-3914 -1718,-18230 -2734,-3518c-1015,14712 -310,21967 2,26363c313,4395 73,15566 -228,13863c-305,-1703 -674,-9720 -1260,-13013c-490,-2753 -2126,-13802 -2155,-20730c1997,-8248 1356,-11269 -1111,-17749c17,-591 -40,-1137 -177,-1625c428,359 1248,826 2309,1399c416,-796 1177,-3033 2106,-5930c695,68 1391,129 2091,181c-985,3591 -1604,6275 -1313,6704c288,425 1796,-2383 3821,-6558c1080,48 2166,75 3255,85c-2602,4629 -5321,7648 -3685,8133c669,198 2782,-3357 5321,-8136c1035,-11 2067,-36 3093,-84c-3331,6479 -6741,8959 -4894,10014c864,493 3360,-4318 6067,-10077c1167,-68 2328,-155 3480,-270c-563,1414 -1076,2626 -1476,3480c-2204,4723 -6637,7468 -4610,8330c950,404 4134,-5542 7318,-11945c948,-108 1894,-228 2832,-366c-472,1115 -952,2198 -1429,3213c-3319,7073 -6215,10008 -5123,10438c1092,431 6074,-7561 9154,-12637c304,-501 605,-1039 903,-1602c927,-176 1849,-364 2766,-569c-801,1875 -1706,3770 -2667,5504c-3886,7017 -8192,9812 -7205,10528c1069,827 5464,-5839 9583,-12508c846,-1368 1679,-2736 2470,-4039c931,-234 1856,-477 2774,-740c-1077,2566 -2207,5054 -2831,6203c-1536,2834 -7802,11400 -7053,11657c750,257 4554,-5573 8268,-10880c1522,-2174 3087,-5134 4453,-7849c712,-231 1421,-470 2124,-718c-1271,3354 -2930,7153 -4117,9071c-2367,3821 -8074,10374 -7241,10666c834,294 3283,-3054 5690,-6059c2119,-2648 6132,-9993 8573,-14591l72,113c154,242 341,465 557,671c-1126,3500 -3096,8770 -4019,10308c-1625,2709 -7304,9420 -6391,9727c911,306 5702,-5700 7174,-7524c1256,-1556 4281,-7236 6381,-10900c287,83 575,155 865,220c-2125,2400 -4830,6369 -3621,8957c-173,321 -340,610 -499,855c-1496,2336 -4987,6255 -7070,8526l1591,-696c2058,-1779 5057,-4166 6684,-5823c351,-358 726,-781 1113,-1246c1421,665 2614,765 4275,643l12,-1c-2027,2373 -3694,4214 -3070,3985c530,-194 2411,-1996 4435,-3999c675,66 1252,283 2048,794c1756,1126 3431,-231 3736,61c1139,-379 2532,-953 3884,-1587c848,1108 1870,1914 3068,2013c-266,311 -559,630 -879,952c2343,-617 4197,-1029 4996,-1029l-5,2Z" style="fill:#b3b3b3;fill-rule:nonzero;"/><path d="M208203,30087c1467,3741 1997,27068 1796,31038c-83,1609 -320,4519 -573,7409c-275,-3855 -797,-8765 -1010,-13558c-568,-12680 -4072,-23077 -6148,-27420c-1137,-2382 -2610,-3962 -3213,-3962c-497,1 -403,1072 955,3649c3010,5708 5692,19799 5432,24392c-34,1675 -19,3374 38,5063c-706,-3294 -1540,-6888 -2561,-10732c-2337,-8795 -10596,-23665 -11228,-23665c-99,0 -9,369 324,1191c2446,6033 8619,16722 9309,35054c69,1183 151,2251 243,3221c-1434,-7134 -3557,-16852 -5282,-21290c-3279,-8433 -12562,-19504 -14368,-19504c-193,-2 -299,124 -306,392c-51,2086 3303,6987 6003,11212c-3058,-3998 -6394,-8069 -7745,-8069c-174,0 -316,67 -418,211c-1282,1778 3765,4173 6983,11692c3217,7521 4631,16661 3206,13645c-1423,-3015 -11867,-23654 -12038,-20724c-172,2931 8681,17758 8040,18446c-643,688 -11523,-17153 -16524,-17815c-1855,-313 6191,5976 10466,15223c-3482,-3932 -6855,-8560 -7370,-7687c-433,729 5190,11855 7064,15521c-6692,-3458 -14156,-6463 -18474,-5826c-647,96 -1253,213 -1814,349c-124,436 -249,826 -364,1149c-48,136 -99,273 -151,407c1254,-295 2527,-481 3692,-481c2076,-1 4399,756 4470,3201c40,1400 348,2016 1189,3074c779,981 1306,1793 1625,2795c3602,-534 7083,-1009 7770,-809c872,254 -3155,999 -7493,2061c20,149 39,302 53,461c33,358 -1,722 -107,1065c-39,129 -86,252 -141,369c1632,-347 2956,-594 3350,-522c1162,212 -4554,2032 -7464,3536c150,341 282,689 388,1038c5118,-1178 14222,-4593 19004,-3616c-5101,1084 -10732,4269 -15140,7061c963,213 1922,435 2874,681c3267,-1480 6414,-2872 7819,-3240c2655,-697 11350,-3034 11997,-2111c650,924 -9372,3308 -12791,4733c-681,284 -1805,915 -3128,1720c1198,369 2384,766 3559,1184c2772,-1188 5279,-2169 6892,-2600c4359,-1163 8999,-2619 9581,-1762c582,855 -9357,3070 -14246,5030l-200,82c1273,490 2532,1009 3776,1556c6683,-2284 13271,-4680 13757,-3973c420,608 -6985,3083 -11760,4881c1349,634 2679,1301 3989,2002c6355,-2409 11703,-4085 12038,-2905c375,1177 -4079,1070 -10829,3565c1154,641 2292,1307 3413,1997c4668,-1751 8889,-3089 9349,-2357c562,897 -2140,1553 -7090,3800c965,638 1918,1290 2856,1965c3664,-1672 6329,-2617 6696,-2000c938,1586 -1896,1789 -5545,2839c976,725 1933,1472 2876,2237c2761,-1274 4654,-1885 4918,-1290c557,1259 -701,1813 -3226,2696c773,660 1537,1332 2288,2019c1685,-630 2781,-879 3012,-575c545,721 -110,1312 -1513,1980c737,707 1461,1429 2173,2162c894,-353 1395,-451 1386,-219c-8,186 -247,517 -670,959c714,753 1412,1520 2099,2298c248,-150 458,-267 626,-349c413,872 753,1621 976,2211c117,140 237,278 353,419c840,-1858 2946,-3708 5810,-5155c3016,-1525 6079,-5589 12578,-11724c6500,-6134 15779,-25217 18325,-30059c2543,-4841 856,-4785 -1839,669c-2695,5451 -10560,16792 -13808,20311c-3247,3520 -11004,12201 -17927,18276c-6922,6076 1558,-3150 6377,-8018c4817,-4871 13255,-20720 14993,-24234c1736,-3515 6958,-11336 7857,-13153c897,-1817 -7093,8555 -9854,12919c-2761,4365 -7137,11699 -18322,24874c-11185,13174 -2420,-1205 -136,-5218c2287,-4015 7534,-16463 8726,-20094c1191,-3632 3145,-12465 3171,-18005c23,-5539 -2071,-5271 -2501,177c-432,5447 -3512,17478 -9972,32073c-6461,14598 -6798,7347 -5150,3404c1646,-3940 3350,-13488 4887,-20869c1537,-7382 964,-26660 -189,-27983c-40,-45 -79,-67 -117,-67c-1080,0 -1694,17633 -2193,23649c-515,6228 -5188,28493 -6979,29070c-178,57 -347,66 -507,34c1123,-1951 2032,-8150 2272,-20688c455,-7326 -2846,-26270 -4432,-29769c-628,-1382 -1120,-1992 -1395,-1992c-419,1 -332,1427 556,3689l-4,3Z" style="fill:#b3b3b3;fill-rule:nonzero;"/><path d="M121996,8721l4,0c1323,1 10479,8015 10479,8015c227,3276 -2103,1767 -5244,-957c-3141,-2722 -5646,-5785 -5388,-6954c15,-70 67,-103 149,-104Z" style="fill:#b3b3b3;fill-rule:nonzero;"/><path d="M148320,15066l22,0c442,2 759,76 915,241c-3270,3729 -17284,8746 -16846,5576c0,0 1548,-1258 2461,-1728c798,-410 10260,-4090 13448,-4090l0,1Z" style="fill:#b3b3b3;fill-rule:nonzero;"/><path d="M130734,6858c-321,4267 517,6916 1680,7833c0,0 1295,-1663 1294,-6727c-1,-5063 667,-7966 667,-7966c0,0 -3320,2592 -3641,6859l0,1Z" style="fill:#b3b3b3;fill-rule:nonzero;"/><path d="M132483,17223c0,0 5823,-807 9674,-4909c3851,-4102 4786,-9701 4786,-9701l-14460,14609l0,1Z" style="fill:#b3b3b3;fill-rule:nonzero;"/><path d="M140266,26234c-4312,1747 -8905,5160 -8905,5160c-486,3606 17721,-6554 19345,-8070c336,-313 270,-447 -82,-447c-1354,0 -6939,1972 -10358,3357Z" style="fill:#b3b3b3;fill-rule:nonzero;"/><path d="M136935,32002c-2924,1717 -6451,4522 -6451,4522c1767,3449 15933,-6538 17507,-8515c287,-359 199,-512 -152,-512c-1581,0 -8512,3100 -10904,4505Z" style="fill:#b3b3b3;fill-rule:nonzero;"/><path d="M146527,31782c-1005,1824 -4398,2966 -9070,5556c-4672,2589 -7754,4662 -7754,4662c-363,2732 5030,287 10837,-2512c5128,-2472 6652,-8015 6245,-8015c-54,0 -141,97 -259,309l1,0Z" style="fill:#b3b3b3;fill-rule:nonzero;"/><path d="M133807,45428c-2494,1749 -4904,3517 -4904,3517c-170,1544 1810,1227 4440,102c-141,-933 -92,-1835 210,-2975c62,-237 149,-450 254,-644Z" style="fill:#b3b3b3;fill-rule:nonzero;"/><path d="M148700,35955c-1624,1514 -8094,5027 -10972,6827c-519,325 -1140,735 -1807,1187c383,-87 785,-127 1187,-127c1253,0 2651,310 4053,822c562,-379 1088,-750 1562,-1101c1083,-804 2076,-1731 2941,-2663c271,-512 629,-945 1094,-1258c1722,-2112 2657,-3939 2320,-3939c-69,1 -194,80 -378,252Z" style="fill:#b3b3b3;fill-rule:nonzero;"/><path d="M134086,51836c-2866,1636 -5817,3193 -5817,3193c291,2015 2640,1477 5464,84c14,-283 69,-564 162,-839c335,-1001 374,-1636 191,-2438Z" style="fill:#b3b3b3;fill-rule:nonzero;"/><path d="M127039,66614c3,255 442,1057 706,1129c1532,418 5231,-2041 7808,-4031c742,-1611 1939,-3212 3014,-4430c-343,-80 -686,-170 -1023,-275c-4361,2744 -9078,4825 -9938,2481c0,0 3297,-2964 6153,-4110c182,-73 391,-163 624,-267c619,796 1616,1356 2723,1750c-4261,4675 -10066,7753 -10066,7753l-1,0Z" style="fill:#b3b3b3;fill-rule:nonzero;"/><path d="M116676,49558l160,146c86,-251 234,-487 457,-696c1561,-1461 3864,805 4894,1880c1551,1622 2895,3572 3971,5581c1130,311 1676,-83 1844,-891c0,0 -3138,-3907 -8708,-8246c-1346,-1048 -2578,-2021 -3676,-2912c478,921 799,1902 958,2929c113,732 142,1470 100,2208l0,1Z" style="fill:#b3b3b3;fill-rule:nonzero;"/><path d="M109828,32917l3,0c68,2 122,60 134,171c99,921 12704,10082 15333,12354c2627,2274 3476,4715 3476,4715c-228,2133 -4393,-904 -11526,-6737c-9086,-7510 -7913,-10503 -7421,-10503l1,0Z" style="fill:#b3b3b3;fill-rule:nonzero;"/><path d="M114912,35220c6084,5883 14105,12241 14575,8548c0,0 -1887,-2754 -3853,-4125c-1966,-1372 -7610,-6062 -9971,-7234c-1101,-547 -2661,-1252 -3396,-1252c-841,0 -602,923 2645,4063Z" style="fill:#b3b3b3;fill-rule:nonzero;"/><path d="M121583,34224c4837,4007 8231,6601 8601,4235c0,0 -1897,-2942 -5392,-5776c-3495,-2834 -8632,-7069 -9300,-7966c-42,-58 -74,-85 -96,-85c-312,0 1659,5841 6187,9591l0,1Z" style="fill:#b3b3b3;fill-rule:nonzero;"/><path d="M116140,22426c1465,3105 8946,7683 9746,8540c800,857 4905,3960 5188,2212c0,0 -1877,-3186 -4618,-5400c-2214,-1786 -8533,-6202 -10113,-6202c-378,0 -486,251 -203,850Z" style="fill:#b3b3b3;fill-rule:nonzero;"/><path d="M116373,14358c1010,2348 5386,7123 8884,9514c3496,2389 6358,5674 6591,3914c0,0 -2223,-4026 -6171,-7261c-3266,-2676 -8186,-6752 -9217,-6752c-217,0 -262,178 -87,584l0,1Z" style="fill:#b3b3b3;fill-rule:nonzero;"/><path d="M119645,9362c10,12 2607,3062 5663,5524c3061,2465 7068,6702 7068,6702c-333,3744 -5933,-1690 -9215,-5295c-3276,-3598 -3515,-6919 -3516,-6930l0,-1Z" style="fill:#b3b3b3;fill-rule:nonzero;"/><path d="M148620,18448l15,0c308,3 434,92 283,298c-779,1064 -5174,4830 -9158,6271c-3983,1440 -7916,3059 -7756,1340c0,0 613,-1493 2578,-2407c1966,-915 6837,-2930 7688,-3556c683,-502 5053,-1946 6350,-1946Z" style="fill:#b3b3b3;fill-rule:nonzero;"/><path d="M248692,106440c-320,84 -2774,-4573 -5358,-9209c-2624,-4705 -5381,-9390 -6182,-9073c-1588,629 10564,22257 10091,22781c-236,257 -4561,-3409 -8973,-7062c-4509,-3733 -9107,-7452 -9527,-6953c-829,988 17701,17463 17898,18461c100,516 -4553,345 -9133,163c-4302,-171 -8541,-353 -8714,13c-360,758 14554,3836 18309,3464c3754,-374 5672,1169 5672,1169c1676,2537 8189,13502 12843,17065c4652,3561 2113,-449 -368,-4342c-2481,-3892 -9262,-11082 -3291,-7724c5972,3356 22232,12483 20905,10360c-1327,-2122 -15949,-10882 -15766,-11701c86,-387 4611,121 9370,591c5314,525 10919,1003 10959,138c74,-1639 -23465,-3573 -23340,-4509c127,-937 30168,-4508 31186,-6607c1017,-2099 -30803,3505 -31027,2447c-224,-1057 29900,-12831 29281,-15592c-329,-1472 -8734,2529 -16574,6439c-6858,3420 -13285,6772 -13499,6332c-460,-941 23726,-22797 22980,-24329c-383,-783 -5800,3871 -11080,8503c-5030,4412 -9935,8805 -10245,8459c-639,-711 15501,-20828 13988,-21839c-765,-512 -5502,5495 -10044,11470c-4445,5848 -8707,11667 -8877,11317c-344,-707 9718,-28504 8841,-28805c-434,-149 -2870,5088 -5305,10326c-2474,5322 -4950,10644 -5331,10316c-754,-653 3955,-20591 2670,-21131c-646,-273 -2373,7649 -4061,15565c-1660,7788 -3283,15570 -3807,15536c-1055,-69 -5849,-30826 -7313,-30840c-5,0 -13,0 -18,1c-1406,221 3482,28632 2838,28801l2,-1Z" style="fill:#b3b3b3;fill-rule:nonzero;"/><path d="M21364,181696l3,0c62,1 156,38 283,114c1671,1014 14619,13992 11450,14442c0,0 -3985,-3071 -6494,-6301c-2314,-2983 -6001,-8254 -5243,-8255l1,0Z" style="fill:#b3b3b3;fill-rule:nonzero;"/><path d="M25994,182918l3,0c67,1 155,25 267,71c2049,861 13885,10462 11387,12779c0,0 -3214,-2314 -5366,-4379c-2032,-1949 -7417,-8471 -6291,-8472l0,1Z" style="fill:#b3b3b3;fill-rule:nonzero;"/><path d="M29806,183326c1785,416 3561,3013 6870,6348c3307,3335 5797,5448 5797,5448c2398,-345 -961,-4325 -4716,-8571c-2528,-2856 -6063,-3516 -7561,-3515c-727,0 -974,155 -391,290l1,0Z" style="fill:#b3b3b3;fill-rule:nonzero;"/><path d="M32819,180492c1670,1013 6187,5646 8399,7652c2209,2005 7322,5995 7322,5995c2895,-483 -3857,-7322 -7856,-10410c-3056,-2359 -7009,-3596 -7959,-3596c-293,0 -301,118 94,358l0,1Z" style="fill:#b3b3b3;fill-rule:nonzero;"/><path d="M38499,180031c2006,738 5596,4148 7792,5860c2198,1711 7548,7331 7548,7331c3450,-1534 -4892,-8101 -8015,-10945c-2137,-1944 -5715,-2625 -7122,-2625c-648,0 -835,144 -203,379Z" style="fill:#b3b3b3;fill-rule:nonzero;"/><path d="M47387,179293l8,0c12,0 25,1 38,2c1632,134 15022,10505 11653,12945c0,0 -3297,-2081 -4948,-4225c-1636,-2120 -8207,-8722 -6749,-8723l-2,1Z" style="fill:#b3b3b3;fill-rule:nonzero;"/><path d="M50165,179322c7114,2109 12622,12116 12622,12116c3254,-101 -2149,-6989 -4113,-9157c-1098,-1212 -2770,-2019 -4510,-2481c-1373,-364 -2790,-514 -3999,-478Z" style="fill:#b3b3b3;fill-rule:nonzero;"/><path d="M55700,178413c1733,1353 6385,5808 8645,8439c2259,2633 4148,4780 4148,4780c3411,-890 -1881,-6470 -5166,-9770c-2253,-2265 -5824,-3685 -7280,-3914c-666,-103 -890,40 -347,464l0,1Z" style="fill:#b3b3b3;fill-rule:nonzero;"/><path d="M62021,179206c1960,501 6271,5296 8966,8592c-404,-932 -795,-1870 -1167,-2818l-193,-480l-247,-626c-169,-434 -335,-870 -498,-1309c-87,-236 -173,-472 -260,-709l-12,-32c-3031,-2525 -5722,-3211 -6850,-3211c-770,0 -813,320 259,592l2,1Z" style="fill:#b3b3b3;fill-rule:nonzero;"/><path d="M66624,197508c-165,457 -332,930 -497,1409c921,142 1845,410 2766,809c252,-520 498,-1048 730,-1575c-321,-259 -611,-448 -815,-499l-2184,-144Zm4634,-3996c341,-1549 266,-2692 -513,-2987c0,0 -1568,1376 -3044,4387l613,-266c963,-417 1942,-814 2944,-1134Z" style="fill:#b3b3b3;fill-rule:nonzero;"/><path d="M65167,191319l11,0c1764,0 446,3793 -1434,7507c-1327,100 -2643,453 -3935,1039l263,-492c2509,-4695 4864,-8033 4864,-8033c82,-13 159,-19 231,-20l0,-1Z" style="fill:#b3b3b3;fill-rule:nonzero;"/><path d="M60242,192120l9,0c1259,0 1195,2808 -1468,8261c-505,280 -1005,595 -1500,944c-1349,951 -2507,2023 -3569,3184c953,-1960 1867,-3952 2404,-5183c1315,-3008 3967,-7191 3967,-7191c54,-9 106,-14 156,-14l1,-1Z" style="fill:#b3b3b3;fill-rule:nonzero;"/><path d="M54480,193312l14,0c1687,0 1761,2571 -2636,11265c-4507,8907 -8405,8957 -7427,8280c980,-674 2698,-4453 5039,-10201c2340,-5751 4897,-9340 4897,-9340c38,-2 75,-4 112,-4l1,0Z" style="fill:#b3b3b3;fill-rule:nonzero;"/><path d="M49768,193945l10,0c1565,0 -11,4207 -3129,11377c-4770,10808 -7758,8937 -7003,8632c755,-305 5497,-13160 6790,-15927c1295,-2766 3159,-4066 3159,-4066c60,-11 117,-16 171,-16l2,0Z" style="fill:#b3b3b3;fill-rule:nonzero;"/><path d="M44266,194862l11,0c2783,1 -584,8026 -4009,14395c-3524,6554 -2987,2314 -2558,37c428,-2278 3047,-8175 3739,-10166c690,-1990 2571,-4245 2571,-4245c86,-12 168,-19 246,-20l0,-1Z" style="fill:#b3b3b3;fill-rule:nonzero;"/><path d="M39551,195546l12,0c1793,1 429,3425 -1730,8305c-2234,5052 -7188,8205 -6589,7424c599,-778 2956,-6137 4520,-9771c1562,-3635 3598,-5944 3598,-5944c67,-9 129,-13 190,-14l-1,0Z" style="fill:#b3b3b3;fill-rule:nonzero;"/><path d="M34762,196063l9,0c1387,1 -201,4061 -725,4925c-533,881 -2619,8306 -4898,10287c-2278,1982 849,-7159 2066,-10008c1218,-2849 3466,-5198 3466,-5198c28,-3 55,-5 81,-5l1,-1Z" style="fill:#b3b3b3;fill-rule:nonzero;"/><path d="M30068,196691l8,0c1262,0 -732,3111 -1880,6523c-1187,3530 -4184,8374 -5929,9789c-1746,1416 1203,-5232 2996,-9345c1795,-4114 4671,-6956 4671,-6956c48,-6 93,-11 135,-11l-1,0Z" style="fill:#b3b3b3;fill-rule:nonzero;"/><path d="M24969,197693l10,0c2521,0 -540,5642 -2698,9105c-2266,3639 -5024,4632 -5024,4632c0,0 1965,-2932 3320,-6111c1354,-3179 3982,-7583 3982,-7583c150,-28 287,-42 409,-43l1,0Z" style="fill:#b3b3b3;fill-rule:nonzero;"/><path d="M18098,184395l4,0c29,1 62,8 102,23c1087,405 5323,3225 7494,6251c2172,3028 4480,5969 2987,6243c0,0 -1409,-163 -2652,-1608c-1244,-1443 -4114,-5083 -4845,-5654c-706,-549 -3820,-5254 -3090,-5254l0,-1Z" style="fill:#b3b3b3;fill-rule:nonzero;"/><path d="M21448,198585l13,0c1442,0 725,2097 -586,4888c-1554,3309 -3546,6160 -4598,6223c-1051,59 4154,-10887 4154,-10887c417,-150 753,-222 1018,-224l-1,0Z" style="fill:#b3b3b3;fill-rule:nonzero;"/><path d="M21907,196208c614,660 2051,1669 2051,1669c2787,-386 -4806,-11047 -8743,-12922c-842,1391 6077,10592 6692,11253Z" style="fill:#b3b3b3;fill-rule:nonzero;"/><path d="M12715,199866c-4284,1210 -6898,1338 -6898,1338c0,0 2987,2190 6674,1441c3686,-746 5741,-2100 6226,-3294c0,0 -492,-199 -1606,-199c-967,0 -2404,151 -4396,714Z" style="fill:#b3b3b3;fill-rule:nonzero;"/><path d="M6364,189886l40,0c1782,0 5008,250 7973,1789c4392,2280 6465,7013 6465,7013l-15816,-8744c0,0 506,-57 1338,-58Z" style="fill:#b3b3b3;fill-rule:nonzero;"/><path d="M112112,266372c75,1461 -101,2406 -101,2406c0,0 875,-1322 4035,-4878c-1283,882 -2601,1716 -3934,2472Z" style="fill:#b3b3b3;fill-rule:nonzero;"/><path d="M111922,264667l90,-53l-90,53Z" style="fill:#b3b3b3;fill-rule:nonzero;"/><path d="M110311,259907l25,69l101,-132l-126,63Z" style="fill:#b3b3b3;fill-rule:nonzero;"/><path d="M108872,251023l253,-361l14,-20l-14,20l-253,361Z" style="fill:#b3b3b3;fill-rule:nonzero;"/><path d="M108720,251235l0,1l26,-35l-26,34Z" style="fill:#b3b3b3;fill-rule:nonzero;"/><path d="M94349,219399l-1,0l-111,45l112,-45Z" style="fill:#b3b3b3;fill-rule:nonzero;"/><path d="M74205,222595c8,-29 16,-59 26,-89c-10,30 -18,59 -26,89Z" style="fill:#b3b3b3;fill-rule:nonzero;"/><path d="M74968,224321c-571,-428 -877,-941 -799,-1539c-78,599 228,1112 799,1539Z" style="fill:#b3b3b3;fill-rule:nonzero;"/><path d="M75152,224450c-57,-38 -113,-76 -166,-115c53,40 109,78 166,115Z" style="fill:#b3b3b3;fill-rule:nonzero;"/><path d="M75556,224687c-102,-55 -200,-110 -294,-167c94,57 192,112 294,167Z" style="fill:#b3b3b3;fill-rule:nonzero;"/><path d="M80624,226038l187,-154l-187,154Z" style="fill:#b3b3b3;fill-rule:nonzero;"/><path d="M88316,233462c-48,114 -98,227 -148,339c50,-112 99,-225 148,-339Z" style="fill:#b3b3b3;fill-rule:nonzero;"/><path d="M89313,230558l-1,-1c-117,434 -248,869 -391,1298c143,-429 275,-863 392,-1297Z" style="fill:#b3b3b3;fill-rule:nonzero;"/><path d="M99340,261117l-2,0l2,0Z" style="fill:#b3b3b3;fill-rule:nonzero;"/><path d="M99693,261169c-109,-11 -194,-23 -252,-32c59,10 143,22 252,32Z" style="fill:#b3b3b3;fill-rule:nonzero;"/><path d="M107863,259322c-4420,1933 -7137,1941 -8114,1852c977,89 3694,83 8114,-1852Z" style="fill:#b3b3b3;fill-rule:nonzero;"/><path d="M107825,266602c-45,8 -87,14 -126,17c39,-3 81,-10 126,-17Z" style="fill:#b3b3b3;fill-rule:nonzero;"/><path d="M108220,266499c-60,19 -117,37 -171,51c54,-14 111,-31 171,-51Z" style="fill:#b3b3b3;fill-rule:nonzero;"/><path d="M109134,266142c-331,146 -623,262 -868,343c247,-81 537,-195 868,-343Z" style="fill:#b3b3b3;fill-rule:nonzero;"/><path d="M97726,262333c199,1522 465,2952 847,4082c1783,5285 285,8353 -1390,9381c-1675,1028 3337,1181 9077,-2112c1966,-1128 2775,-3258 2890,-5831c-1192,423 -2404,532 -3057,-425c-420,-615 -367,-1350 -20,-1975c622,-1121 1659,-2290 2495,-3290c-92,-433 -192,-867 -297,-1300c-1545,662 -3122,1198 -4697,1539c-1245,269 -3339,557 -4616,238l-1231,-307l-1,0Z" style="fill:#b3b3b3;fill-rule:nonzero;"/><path d="M72960,221232c-8062,-7606 -19411,-9901 -22111,-10050c-1439,-79 -4468,2982 -6729,6042c-2617,3541 -4206,7081 -1117,5760c12025,-4774 28580,8591 25656,10462c-2923,1871 -11087,-5798 -19048,-8233c-7963,-2432 -11212,3367 -11212,3367l-473,2308c-472,2307 -3522,2449 -1380,3439c6539,-4244 16992,1020 16827,2505c-165,1484 -15705,1954 -20639,2676c-4934,724 -9374,10517 -10789,12845c2538,2131 7643,11828 19079,9805c11436,-2023 16695,-17620 20481,-16333c3787,1288 -5004,11753 -7376,14899c-2373,3146 -6971,6045 -10890,4916c-1825,-525 -820,1091 1404,2707c2555,1857 6720,3714 10057,2322c19473,-9337 14963,-29081 19111,-25327c6051,5355 -12128,29571 -17824,28302c-972,-215 999,894 3994,2004c4053,1504 9985,3006 13043,1219c8771,-5614 10014,-25124 13154,-27896c3140,-2772 -3982,21807 -5796,24610c-1815,2804 -5455,4885 -5455,4885c0,0 7674,3741 16255,-680c4888,-2517 5175,-9688 4828,-15885l-253,-64l239,-179c-270,-4583 -862,-8588 -151,-9707c1181,-1858 1169,3425 1675,8564l876,-657c45,-34 89,-64 138,-93c882,-531 1904,-1446 2651,-2141c1597,-1488 3083,-3156 4455,-4895l-222,-580c-48,-127 -95,-251 -139,-373c-1308,571 -2777,1235 -4435,2016c4616,-12016 14812,-16712 20238,-18148c-71,-241 -146,-479 -228,-713c-4428,-1625 -8685,-3605 -12741,-5898l-243,262c-893,963 -2400,1418 -3903,1612c909,1784 1475,3876 318,5321c-226,282 -505,515 -821,689c-1660,920 -2914,1065 -4755,931c-1385,-101 -2063,-37 -3280,745c-485,310 -1030,486 -1607,490c-1970,13 -3467,-1909 -4509,-4024c-1016,2061 -2511,4037 -4509,4024c-577,-4 -1123,-180 -1607,-490c-1218,-781 -1895,-847 -3280,-745c-1842,135 -3095,-11 -4755,-931c-316,-174 -595,-407 -821,-689c-1967,-2456 853,-6713 3083,-9246c-2139,-492 -4295,-1452 -4756,-3332c-137,-561 -100,-1132 82,-1678c90,-271 160,-516 209,-744l1,4Z" style="fill:#b3b3b3;fill-rule:nonzero;"/><path d="M80066,212387c-2313,-3313 -5598,-7477 -10170,-10357c-9018,-5682 -16192,4789 -18032,7301c10107,-605 15931,5575 20877,9499l-48,-150c-592,-1788 -781,-3025 -284,-4905c435,-1639 2001,-2229 3555,-2229c1268,0 2684,318 4103,840l-1,1Z" style="fill:#b3b3b3;fill-rule:nonzero;"/><path d="M86061,217879l27,27l-29,-115l29,114l-27,-26Z" style="fill:#b3b3b3;fill-rule:nonzero;"/><path d="M68938,196087c2826,186 10580,11381 13931,17582c331,181 656,368 973,563c-123,-1345 -117,-2690 96,-3862l228,-1252c-3797,-4527 -7142,-9446 -9965,-14686c-1838,245 -3631,947 -5263,1653l0,2Z" style="fill:#b3b3b3;fill-rule:nonzero;"/><path d="M223864,200772c7778,5905 7904,9524 17886,13653c0,0 -2381,-2411 -2964,-6410c-585,-4002 -4995,-10053 -4488,-11826c505,-1773 2655,-3264 4027,2685c1371,5949 4239,16737 10114,16303c5876,-433 9496,-3044 7748,-2968c-1746,78 -4383,-1441 -5701,-6227c-1320,-4787 -7757,-13141 -5198,-12027c2558,1113 7785,17749 16319,16731c8535,-1016 12331,-7604 12331,-7604c0,0 -3723,280 -6460,-883c-2736,-1164 -20244,-15744 -16546,-15264c3698,479 14342,14252 23612,14020c2622,-172 5576,-3022 7786,-5780c2401,-2997 3921,-5881 3175,-5091c-3570,3774 -29053,-5026 -27258,-11992c657,-2675 2944,1272 8074,4856c4147,2899 10150,5560 18651,4299c5901,-1193 8276,-12212 5947,-9425c-2329,2788 -7166,2942 -10484,1804c-3319,-1139 -15021,-4476 -12870,-7314c1056,-1394 4411,43 8669,1365c4406,1369 9779,2613 14581,473c9444,-4210 8376,-13909 9185,-16745c-2204,-1014 -10362,-6023 -14363,-4096c-3999,1927 -15697,9329 -16559,8316c-861,-1013 4224,-10107 11165,-10238c1087,-1798 -1234,-381 -2733,-1847l-1499,-1467c0,0 -5290,-2659 -9950,3105c-4660,5766 -6859,15493 -9948,15570c-3089,79 2458,-18036 13709,-20509c5477,-1055 -9468,-6466 -11671,-4794c-2203,1673 -11417,11125 -11892,22878c-150,3216 -2735,178 -813,-5218c1646,-4622 2474,-11307 7899,-16220c-1711,1049 -3520,1941 -5378,2703c-1908,781 -3861,1435 -5846,1968c-902,4046 -2601,5896 -4170,8846c-589,16341 -5686,31534 -14088,44372l1,-2Z" style="fill:#b3b3b3;fill-rule:nonzero;"/><path d="M91850,64224c2111,-7389 8742,-21194 5142,-29834c-2889,-6219 -20051,-8859 -17635,-7872c4080,1666 5969,17695 3976,28174c3928,2828 6650,6175 8517,9532Z" style="fill:#b3b3b3;fill-rule:nonzero;"/><path d="M95943,85795c6375,-5194 13499,-9502 21185,-12737c5404,-4346 10509,-9895 8252,-14646c-3161,-6658 -7843,-9700 -6964,-7697c880,2005 301,5764 -4687,9466c-4986,3703 -11822,14989 -11680,11501c141,-3488 17186,-17104 12142,-26599c-5045,-9495 -14444,-10946 -14444,-10946c0,0 2009,4216 1889,7934c-93,2845 -5443,19341 -8446,24890c2711,6311 2693,12159 2349,14064c-271,1508 -164,3167 402,4771l2,-1Z" style="fill:#b3b3b3;fill-rule:nonzero;"/><path d="M59285,101434c-7022,2874 -15333,5479 -17336,4276c2043,3291 4661,6957 9209,7344c611,-1618 1394,-3182 2333,-4683c1616,-2587 3572,-4895 5794,-6937Z" style="fill:#b3b3b3;fill-rule:nonzero;"/><path d="M60931,87260c-7131,281 -16877,2816 -26193,-4511c87,3466 1,17604 11863,18132c5566,249 10822,-1210 14919,-2666c1676,-597 3158,-1193 4389,-1672c2930,-1741 6057,-3129 9297,-4216c-4278,-382 -9406,-1718 -14274,-5067l-1,0Z" style="fill:#b3b3b3;fill-rule:nonzero;"/><path d="M84885,68418c-191,-2403 -502,-5808 -1830,-12407c-535,2290 -1279,4243 -2251,5614l70,100l43,59l98,140l23,31l47,69l70,100l2,3l68,98l52,74l17,27l70,102l31,45l38,56l69,103l11,16l57,86l60,89l9,14l68,103l40,59l29,44l67,104l20,30l14,23l100,156l1,0l67,104l47,74l19,31l67,104l28,44l38,61l67,106l9,14l57,93l55,89l11,17l66,106l36,59l30,47l65,108l16,27l48,80l62,103l2,3l65,108l43,73l22,34l64,108l25,41l39,67l64,108l6,10l57,98l51,87l12,20l64,108l32,56l30,53l62,109l14,24l47,84l58,101l4,8l61,109l40,70l22,38l61,109l22,39l40,70l60,109l4,6l56,101l47,85l13,24l60,109l29,53l30,56l60,109l11,20l48,87l54,98l5,11l58,108l37,67l23,42l58,109l19,34l39,73l58,108l2,3l55,104l43,81l15,27l57,108l26,50l31,58l56,108l10,17l47,90l1,5Z" style="fill:#b3b3b3;fill-rule:nonzero;"/><path d="M88935,85096l4,2l-3,-2l-1,0Z" style="fill:#b3b3b3;fill-rule:nonzero;"/><path d="M76553,82929l6,0l-6,0Z" style="fill:#b3b3b3;fill-rule:nonzero;"/><path d="M46885,72667l-3,-1l3,1Z" style="fill:#b3b3b3;fill-rule:nonzero;"/><path d="M48544,73073l-4,-1l-123,-37l69,21l58,17Z" style="fill:#b3b3b3;fill-rule:nonzero;"/><path d="M50070,73579l-9,-3l-10,-4l-10,-4l-8,-3l-10,-3l-10,-3l-8,-3l-1,0" style="fill:none;"/><path d="M50080,73582l-10,-3" style="fill:none;"/><path d="M50108,73593l-10,-3" style="fill:none;"/><path d="M50118,73596l-10,-3" style="fill:none;"/><path d="M50137,73603l-6,-2" style="fill:none;"/><path d="M50175,73617l-10,-3" style="fill:none;"/><path d="M50204,73628l-19,-7" style="fill:none;"/><path d="M51778,74251c373,157 766,329 1176,518" style="fill:none;"/><path d="M51230,74025l-7,-3l7,3Z" style="fill:#b3b3b3;fill-rule:nonzero;"/><path d="M51238,74028l-8,-3l8,3Z" style="fill:#b3b3b3;fill-rule:nonzero;"/><path d="M51282,74046l-7,-4" style="fill:none;"/><path d="M51304,74054l-8,-2" style="fill:none;"/><path d="M51333,74067l-8,-3" style="fill:none;"/><path d="M51348,74073l-8,-4" style="fill:none;"/><path d="M51363,74079l-8,-3" style="fill:none;"/><path d="M51378,74084l-8,-2" style="fill:none;"/><path d="M51400,74094l-8,-3" style="fill:none;"/><path d="M51422,74103l-7,-2" style="fill:none;"/><path d="M51452,74116l-7,-4" style="fill:none;"/><path d="M51497,74134l-8,-3" style="fill:none;"/><path d="M51504,74137l-7,-3l-8,-3l-8,-3" style="fill:none;"/><path d="M52954,74769c-168,-76 -332,-151 -492,-222l-9,-3l-20,-10c-156,-69 -310,-136 -460,-200" style="fill:none;"/><path d="M52975,74779l-21,-10l21,10Z" style="fill:#b3b3b3;fill-rule:nonzero;"/><path d="M52996,74790l-21,-11l21,11Z" style="fill:#b3b3b3;fill-rule:nonzero;"/><path d="M53281,74922l-8,-4l8,4Z" style="fill:#b3b3b3;fill-rule:nonzero;"/><path d="M53290,74926l-9,-4l9,4Z" style="fill:#b3b3b3;fill-rule:nonzero;"/><path d="M55366,75963l-10,-5l10,5Z" style="fill:#b3b3b3;fill-rule:nonzero;"/><path d="M55969,76287c-205,-112 -405,-220 -603,-324c198,104 399,212 603,324Z" style="fill:#b3b3b3;fill-rule:nonzero;"/><path d="M55979,76293l-10,-6l10,6Z" style="fill:#b3b3b3;fill-rule:nonzero;"/><path d="M55999,76303l-20,-10l20,10Z" style="fill:#b3b3b3;fill-rule:nonzero;"/><path d="M68938,83128l16,7l15,5l15,7l15,6l16,6l0,-1" style="fill:none;"/><path d="M68051,82767l-15,-5l15,5Z" style="fill:#b3b3b3;fill-rule:nonzero;"/><path d="M68067,82774l-16,-7l15,7l1,0Z" style="fill:#b3b3b3;fill-rule:nonzero;"/><path d="M68203,82831l-5,-2" style="fill:none;"/><path d="M68265,82856l-16,-7l-16,-6l16,6" style="fill:none;"/><path d="M68360,82894l-5,-2l0,1" style="fill:none;"/><path d="M68386,82905l-15,-6l0,1l15,5Z" style="fill:#b3b3b3;fill-rule:nonzero;"/><path d="M68416,82918l-15,-6" style="fill:none;"/><path d="M68463,82936l-15,-6l15,6Z" style="fill:#b3b3b3;fill-rule:nonzero;"/><path d="M68523,82961l-30,-12" style="fill:none;"/><path d="M68646,83011l-30,-12l-15,-7l-17,-6l-15,-6l-15,-6l-15,-6l45,18l17,6l15,7l30,12Z" style="fill:#b3b3b3;fill-rule:nonzero;"/><path d="M68677,83023l-16,-6" style="fill:none;"/><path d="M68830,83085l-30,-13l-16,-5l-30,-13l0,1l-15,-8l-32,-11l-15,-7l-5,-2" style="fill:none;"/><path d="M68846,83092l-16,-7l-15,-6l-15,-6l0,-1l-16,-5l-15,-7l-15,-6l-15,-7l0,1l-17,-6l-15,-6l-15,-7l0,1" style="fill:none;"/><path d="M68923,83122l-15,-7l-1,1" style="fill:none;"/><path d="M69015,83158l-92,-36l0,1l-15,-8l-57,-21" style="fill:none;"/><path d="M45957,72170c-4244,-1440 -8196,-3837 -10655,-7541c-3705,-5914 -3263,13966 -316,15780c2361,1453 12587,5900 23721,5160c-889,-745 -1763,-1567 -2615,-2471c4936,251 8268,251 10712,168l-69,-29l-51,-23l-98,-42l-23,-10l-120,-52l-6,-3l-113,-48l-36,-16l-84,-37l-66,-29l-54,-24l-95,-42l-25,-11l-121,-53l-3,-2l-116,-52l-32,-15l-87,-39l-61,-28l-58,-26l-90,-41l-29,-13l-118,-55l-1,0l-118,-55l-30,-14l-89,-41l-59,-27l-60,-28l-87,-42l-31,-14l-117,-55l-2,-1l-118,-56l-27,-13l-92,-44l-56,-26l-64,-30l-84,-41l-34,-16l-113,-55l-4,-2l-118,-58l-25,-12l-94,-45l-53,-26l-66,-32l-81,-41l-37,-18l-110,-54l-8,-4l-118,-59l-20,-10l-96,-50l-50,-25l-68,-34l-78,-40l-40,-19l-106,-55l-11,-5l-116,-60l-18,-10l-99,-52l-45,-24l-70,-37l-74,-39l-42,-23l-102,-55l-14,-6l-115,-61l-15,-9l-100,-54l-43,-24l-72,-39l-70,-39l-44,-24l-99,-54l-16,-10l-114,-62l-12,-6l-102,-58l-39,-22l-74,-42l-67,-38l-47,-26l-94,-54l-19,-11l-113,-65l-9,-5l-103,-60l-37,-20l-75,-44l-64,-38l-48,-28l-90,-53l-22,-13l-111,-67l-6,-3l-106,-64l-32,-19l-79,-47l-59,-36l-51,-31l-86,-53l-24,-15l-110,-68l-2,-1l-107,-67l-30,-18l-80,-50l-55,-36l-53,-33l-82,-52l-27,-17l-108,-69c-2902,-1873 -6057,-3611 -9297,-4830c-977,-367 -2304,-836 -3348,-993l-2310,-336l1522,-1092l-3,3Z" style="fill:#b3b3b3;fill-rule:nonzero;"/><path d="M77828,58003c2331,-6167 5724,-16807 -1538,-29580c-4059,-6343 -17984,-4133 -13681,-2677c9663,3270 5929,17749 10080,25065l68,118l13,23l56,96l26,44l42,74l40,67l30,52l52,88l18,29l66,111l4,8l71,117l9,15l61,102l23,37l50,81l36,59l37,58l50,81l24,37l64,101l9,15l74,116l4,8l69,109l18,29l56,87l33,51l42,66l46,72l29,43l61,95l14,22l152,230l14,22l62,94l29,42l48,72l43,65l34,51l58,85l20,29l73,107l5,8l79,114l10,14l70,99l25,36l54,79l40,56l41,57l55,78l25,36l71,98l10,15l81,113l5,6l76,106l20,28l61,84l36,48l98,134l31,42l67,90l15,22l83,111l84,111l15,20l69,90l31,41l52,70l47,62l38,48l62,82l22,28l80,102l5,8l85,110l11,13l74,97l27,33l59,75l42,55l43,54l59,75l27,33l75,95l11,14l87,109l5,6l81,101l88,108l38,47l50,60l55,67l33,41l70,86l17,20l87,107l1,0l87,107l17,20l71,86l33,40l56,66l50,59l39,47l67,79l22,27l84,98l5,8l89,104l3,1Z" style="fill:#b3b3b3;fill-rule:nonzero;"/><path d="M63051,54636" style="fill:none;"/><path d="M63074,54592l1,0l1,-2" style="fill:none;"/><path d="M63051,54636l1,-2" style="fill:none;"/><path d="M63025,55576l-14,-133l-10,-125l-7,-115" style="fill:none;"/><path d="M63088,56018l-24,-155l-1,0l-20,-147" style="fill:none;"/><path d="M63148,56351l-31,-170l-1,0" style="fill:none;"/><path d="M63358,57306l-49,-205l-46,-197l-42,-191" style="fill:none;"/><path d="M63465,57731l-55,-215" style="fill:none;"/><path d="M63791,58899l-71,-245l-1,0l-68,-239l-65,-234l-1,0" style="fill:none;"/><path d="M63944,59402l-77,-254" style="fill:none;"/><path d="M64110,59924l-84,-263l-1,0" style="fill:none;"/><path d="M64477,61022l-96,-281l-93,-276l-91,-273" style="fill:none;"/><path d="M65733,64317l-128,-313l-126,-310l-122,-308l-1,0l-119,-306l-118,-304l-114,-300" style="fill:none;"/><path d="M66857,66875l-150,-323l-146,-323l-145,-322l-142,-321l-139,-319l-137,-319l-133,-316" style="fill:none;"/><path d="M34686,24381c-184,3029 -2342,14809 1715,18605c4057,3796 17977,14095 17185,15557c-793,1463 -13700,-360 -16988,-8395c-2591,-456 112,1611 -921,4023l-1035,2412c0,0 -710,7371 8122,10201c4645,1489 10259,1688 14755,2061l-17,-10l-15,-9l-32,-18l-24,-13l-9,-5l-33,-18l-29,-17l-3,-2l-32,-18l-33,-18l-2,-1l-30,-17l-32,-18l-10,-5l-24,-13l-32,-18l-15,-9l-18,-10l-32,-18l-22,-12l-12,-6l-32,-18l-28,-15l-4,-3l-33,-18l-32,-18l-1,0l-32,-18l-32,-17l-8,-4l-26,-14l-32,-18l-14,-8l-19,-11l-32,-18l-19,-10l-14,-8l-32,-18l-26,-14l-8,-4l-32,-17l-32,-18l-1,0l-33,-18l-32,-17l-5,-3l-28,-15l-32,-18l-12,-6l-22,-11l-32,-18l-18,-10l-15,-9l-33,-17l-24,-13l-9,-5l-33,-17l-30,-17l-2,-1l-33,-17l-33,-18l-3,-2l-30,-15l-32,-18l-10,-5l-24,-12l-32,-18l-17,-9l-16,-9l-33,-17l-23,-13l-11,-5l-32,-17l-29,-16l-4,-2l-33,-17l-32,-18l-2,-1l-31,-16l-33,-17l-8,-4l-25,-14l-33,-17l-14,-8l-19,-11l-32,-17l-22,-11l-12,-6l-33,-18l-27,-14l-6,-3l-33,-17l-32,-18c-1128,-599 -2563,-1290 -3551,-2084c-372,-297 -614,-722 -508,-1214c210,-988 1447,-1037 2244,-1042c1130,-6 2320,129 3438,283c2704,374 5461,976 8117,1735c-930,-2164 -1757,-4413 -2393,-6649c-293,-1029 -1448,-4501 55,-5078c470,-181 926,-8 1279,313c938,853 1845,2162 2612,3182c1051,1398 2121,2790 3334,4055c85,88 171,177 259,265l-34,-110l-12,-38l-22,-72l-24,-75l-10,-34l-33,-110l-1,-4l-31,-106l-13,-43l-20,-67l-24,-82l-9,-29l-31,-111l-3,-9l-29,-102l-14,-47l-17,-64l-25,-86l-6,-25l-31,-111l-4,-14l-27,-98l-14,-52l-16,-59l-25,-92l-5,-20l-30,-111l-5,-19l-25,-93l-15,-58l-14,-54l-25,-97l-4,-15l-28,-112l-6,-24l-23,-89l-15,-61l-13,-51l-25,-101l-2,-12l-28,-112l-6,-28l-20,-85l-26,-112l-26,-107l-1,-6l-26,-113l-26,-113l-16,-72l-9,-41l-25,-111l-1,-2l-24,-113l-9,-38l-16,-75l-16,-76l-8,-37l-24,-113l0,-3l-23,-110l-9,-43l-14,-71l-16,-82l-6,-31l-22,-113l-2,-9l-19,-106c-29,-151 -56,-303 -82,-453l-10,-53l-10,-61l-16,-92l-3,-22l-18,-114c-25,-152 -47,-303 -70,-453l-3,-23l-13,-92l-9,-61l-8,-52l-14,-101l-1,-12l-15,-114l-14,-113l-9,-66l-5,-47l-14,-114l-13,-113l-4,-31l-9,-82l-24,-226l-11,-113l-11,-113c-464,986 -1122,1482 -2046,1218c-4283,-1227 812,-18837 -8367,-27952c-4052,-4023 -8427,-5172 -12366,-5172c-4982,-1 -9266,1839 -11319,2028l-13,-13Z" style="fill:#b3b3b3;fill-rule:nonzero;"/><path d="M227251,252772c-755,4889 1351,9414 1351,9414l3225,-17783c0,0 -3822,3478 -4576,8368l0,1Zm6358,-6789l9,0c1080,0 3024,2299 4630,5068c1888,3253 768,6784 768,6784c0,0 -958,-2437 -3474,-6109c-2518,-3671 -2406,-5521 -2406,-5521c127,-149 288,-220 474,-222l-1,0Zm-12996,8145c1589,353 8093,-9147 8521,-9941c429,-794 926,-2476 926,-2476c-131,-262 -331,-381 -585,-381c-2191,1 -8397,8918 -8863,12799l1,-1Zm12986,-11485l37,0c765,2 1693,81 2714,198c3632,413 6969,1390 7364,2365c393,977 -11644,-452 -11644,-452c-1279,-1617 -402,-2111 1528,-2111l1,0Zm-10926,-277c-2173,3025 -3490,7941 -3524,9100c-34,1159 3696,-3624 4003,-4500c306,-876 2837,-4759 3808,-6399c971,-1639 672,-3027 672,-3027c-118,-214 -274,-313 -458,-313c-948,0 -2681,2606 -4500,5140l-1,-1Zm7062,-1183c0,0 5011,1083 8458,1348c3446,267 6852,1191 6852,1191c0,0 -1825,-2295 -5995,-3278c-2195,-519 -5108,-1085 -7139,-1085c-1828,0 -2942,458 -2175,1824l-1,0Zm-2699,-4759c0,0 3614,1815 8085,2200c4470,382 11714,1050 9813,-151c-1900,-1200 -7447,-2490 -11171,-2486c-1084,2 -2166,-78 -3139,-158c-963,-80 -1819,-159 -2462,-159c-938,0 -1423,169 -1126,755l0,-1Zm-2118,-4296c0,0 2944,1378 6033,1621c3088,242 12748,279 10142,-1244c-2607,-1524 -10308,-1128 -11313,-1351c-367,-82 -1202,-162 -2083,-162c-1531,0 -3200,241 -2779,1135l0,1Zm-1981,-4272c0,0 2839,1190 6784,1508c3942,318 9773,837 10703,1156c931,318 -3641,-3367 -9142,-3868c-2119,-193 -3977,-339 -5409,-339c-2289,0 -3492,375 -2935,1544l-1,-1Zm-2132,-4198c0,0 2738,1060 4845,1079c2108,17 8533,613 10828,290c2294,-323 6484,-1170 -853,-2413c-3479,-589 -7328,-1039 -10252,-1041c-3244,0 -5353,554 -4567,2084l-1,1Zm-2657,-4987c0,0 1828,1349 4864,1691c3035,341 16731,722 17260,1340c531,617 1349,-2814 -10417,-3875c-3398,-288 -6168,-478 -8170,-478c-2755,0 -4055,361 -3537,1322Zm-2135,-4315c0,0 4217,1274 10413,1652c6195,377 10326,796 11278,1509c953,711 -340,-2966 -10221,-4387c-3326,-478 -5793,-685 -7575,-685c-3509,0 -4359,802 -3895,1911Zm657,-4259c1449,281 3098,558 4473,678c3271,283 11561,1239 12356,1915c794,676 -1988,-3054 -9908,-4427c-1889,-326 -3521,-519 -4899,-602c-661,824 -1334,1638 -2023,2437l1,-1Zm2627,-3188l626,107c5252,876 9346,1204 10220,2273c874,1071 -985,-2566 -4839,-3979c-939,-345 -2384,-726 -4007,-1061c-652,898 -1316,1788 -2000,2661l0,-1Zm-11012,19075c-73,169 -141,343 -203,519c958,-212 1918,-359 2833,-408c242,-620 464,-1201 643,-1711c918,-2629 4532,-9496 4532,-9496c-305,-331 -624,-481 -951,-481c-2426,1 -5361,8169 -6854,11577Zm-601,2234l0,1l83,-22l-83,20l0,1Zm7964,-531c1218,-2970 3006,-8072 3006,-8072c-174,-329 -396,-476 -655,-476c-1256,0 -3355,3522 -4988,7062c1073,199 2065,652 2637,1486Zm-1072,11787l-13,1l13,-1Zm3233,-6385c136,-262 274,-530 411,-806c2100,-4199 3306,-7235 3306,-7235c-195,-385 -441,-559 -728,-559c-1081,0 -2761,2466 -4596,5558c124,993 470,1592 1189,2498c149,186 288,367 418,544Zm5373,-3808l8,0c170,1 334,42 492,128c0,0 -1164,3786 -2431,6487c-1039,2212 -4538,7925 -5677,8690c3,-422 -57,-860 -164,-1299c171,-667 446,-1551 797,-2552c1438,-405 2681,-1149 3087,-2477c106,-349 141,-717 108,-1080c-95,-1017 -303,-1807 -644,-2539c1453,-2924 3100,-5358 4424,-5358Zm-6235,9467l28,-17l-28,17Zm828,-1929l-9,-50l1,-1l8,51Zm-2200,12215c-424,1907 3867,-3891 6126,-7300c2259,-3409 3893,-8169 3893,-8169c-114,-227 -271,-333 -464,-333c-2226,1 -9163,14048 -9554,15802l-1,0Z" style="fill:#b3b3b3;fill-rule:nonzero;"/><path d="M63681,55789c176,1063 619,2625 755,3075c792,2630 1830,5257 2990,7745l608,1303l-1369,-439c-2982,-959 -6123,-1717 -9220,-2190c-553,-84 -2589,-360 -3843,-367c814,512 1785,987 2549,1392c1602,851 3194,1721 4685,2759c1093,759 2145,1616 3038,2606l1295,1434l-1890,-399c-3915,-825 -8467,-1370 -12453,-693c-522,88 -1283,252 -2002,476c614,190 1218,406 1736,599c3377,1259 6662,3063 9684,5013c2730,1760 5860,3214 8876,4421c261,-16 522,-36 783,-54c1269,-95 2550,-226 3828,-226c53,1 -11,0 52,0c240,1 479,2 715,5l11,0c232,3 465,6 697,12l14,0c222,5 448,11 670,17l33,1c219,6 433,14 640,23l17,0c636,25 1276,59 1911,102l40,3c186,13 374,26 562,41l62,5c176,14 351,29 528,44l51,4c171,16 344,32 517,50l76,8c162,16 324,33 486,52l58,6c162,18 322,37 483,56l59,8c158,19 317,40 475,61l54,6c146,20 292,40 437,61l102,15c136,20 271,40 407,61l86,14c135,22 270,44 406,67l73,13c132,23 265,45 396,70l74,13c127,24 254,47 381,72l74,15c120,23 238,47 358,72l100,22c113,24 227,47 341,73l84,19c110,25 220,50 330,75l93,22c99,24 199,48 299,73l115,29c93,23 184,46 276,71l120,32c86,23 171,46 257,70l127,36l242,70l126,37l225,68l132,42l214,69l83,27c-1677,-3810 -2651,-8186 -3298,-12208c-41,-251 -76,-503 -108,-756c-1805,-3577 -4102,-7835 -6757,-10804c-2397,-2681 -4691,-5645 -6462,-8784c-271,-481 -580,-1045 -863,-1622c-108,746 -151,1523 -157,2052c-47,4043 1201,8453 2627,12193l688,1804l-1618,-1055c-1118,-728 -2128,-1633 -3049,-2595c-1256,-1312 -2364,-2748 -3454,-4198c-518,-688 -1136,-1572 -1769,-2295l1,1Z" style="fill:#b3b3b3;"/><path d="M128669,237389c1914,502 3856,940 5820,1314l0,5c-1964,-374 -3906,-814 -5820,-1320l0,1Z" style="fill:#b3b3b3;fill-rule:nonzero;"/><path d="M131596,264158c-3239,9135 -2807,14043 -2807,14043c0,0 -4059,-3531 -4361,-15949c-2751,3983 -3438,10082 -4502,12323c-811,1711 -2030,-6106 -1370,-14479c-5984,4724 -11957,7650 -11109,6119c1203,-2169 5763,-6278 7400,-10832c-10275,6980 -15508,5735 -15508,5735c0,0 4242,-2504 9787,-10455c155,-223 320,-448 492,-675c3938,-1520 5763,-1890 7680,-2683c6041,-2498 9771,-4857 12165,-6886l-8,43l0,4l-1,4l0,3l-1,4l-1,4l0,4l-1,3l0,4l-1,4l0,3l-1,4l0,4l-1,4l0,3l-1,4l-1,4l0,4l-1,3l0,4l-1,4l0,3l-1,4l0,4l-1,3l-1,4l0,4l-1,4l0,4l-1,3l-1,4l0,4l-1,4l0,3l-1,4l0,4l-1,3l0,4l-1,4l0,4l-1,4l0,3l-1,0l0,4l-1,4l0,4l-1,3l0,4l-1,4l0,4l-1,3l0,4l-1,4l0,4l-1,4l-1,4l0,3l-1,4l0,4l-1,3l0,5l-1,3l0,4l-1,4l0,4l-1,4l-20,154l-19,149l-1,9l-19,159l0,3l-17,152l-1,8l-17,165l-17,164l0,2l-15,170l-1,13l-12,135l-17,221l-9,134l-14,229l-8,127l-12,247l-5,127c-3,86 -6,173 -9,261l-3,123c-2,92 -4,184 -5,277l-2,118c-1,99 -2,199 -2,301l0,95c0,109 1,219 2,331l1,87c1,111 4,225 6,339l3,102c2,117 6,236 11,357l3,76c4,125 11,251 17,379l3,75c8,130 15,262 24,395l4,74c9,132 18,267 28,404l6,85c10,132 22,268 33,404l9,100c13,143 26,288 41,434l5,54c15,155 31,311 48,470l8,59c17,156 36,315 55,475l8,59c18,157 40,317 60,477l11,78c22,167 45,336 70,507l8,48c25,171 50,346 78,520l9,64c29,180 58,363 88,546l6,40c98,598 210,1217 335,1858l2,5c40,211 83,424 127,641l3,13l3,19c44,213 89,430 137,647l0,4l3,13c47,222 97,446 148,673l2,6c51,229 103,462 158,696c4,20 10,39 14,58c269,1137 630,2182 1086,3620c178,563 371,1186 577,1899c-263,964 -543,1871 -837,2701l-2,20Z" style="fill:#b3b3b3;fill-rule:nonzero;"/><path d="M75924,235549c1627,902 2756,820 3878,738c1217,-88 2423,-178 4243,990c1996,1280 4191,-2749 5268,-6718c1076,3969 3272,7998 5268,6717c1818,-1167 3026,-1077 4242,-989c1121,82 2251,164 3879,-738c1370,-759 473,-3434 -1494,-6095c2512,94 4681,-330 5510,-1223c-4384,-2586 -8521,-5544 -12369,-8833l-112,45l59,-89c-3140,-2690 -6085,-5598 -8814,-8702c-352,1938 -42,4807 608,7254c-2866,-2806 -7466,-4790 -10126,-4790c-1080,0 -1842,329 -2037,1062c-990,3750 1632,4358 315,8297c-679,2024 2857,3152 6571,3409c-4002,3262 -6908,8546 -4887,9664l-2,1Zm13316,-13693c814,0 1475,660 1475,1475c0,814 -660,1475 -1475,1475c-814,0 -1475,-660 -1475,-1475c0,-814 660,-1475 1475,-1475Z" style="fill:#b3b3b3;fill-rule:nonzero;"/><path d="M185633,245903c1684,932 2851,848 4011,763c1258,-92 2504,-183 4386,1023c2064,1324 4333,-2842 5447,-6947c1114,4105 3384,8270 5448,6947c1880,-1206 3128,-1115 4385,-1023c1160,85 2328,169 4011,-763c1416,-785 489,-3550 -1545,-6302c3412,127 6213,-667 6063,-2276c-373,-3994 -3136,-3650 -3258,-7943c-36,-1243 -1268,-1734 -2998,-1734c-2029,0 -4744,675 -7015,1604c1957,-2895 3019,-7083 2987,-10055c-3574,3077 -7400,5869 -11445,8340l33,124l-90,-87c-3820,2330 -7834,4369 -12011,6097c823,1293 3678,2035 6644,2240c-4137,3373 -7142,8836 -5054,9993l1,-1Zm15056,-13405c813,0 1474,660 1474,1475c0,814 -660,1475 -1474,1475c-814,0 -1475,-660 -1475,-1475c0,-814 660,-1475 1475,-1475Z" style="fill:#b3b3b3;fill-rule:nonzero;"/><g id="_495170944"><path d="M132473,105985l4164,0l1812,-7479l4079,0l-4504,18774l-4078,0l2265,-9437l-4163,0l-2265,9437l-4079,0l4107,-17067c-1246,452 -2219,1146 -2918,2083c-698,937 -1047,2067 -1047,3389c0,301 18,552 56,753c38,200 75,364 113,489c39,126 81,226 128,302c47,75 80,138 99,189c-945,0 -1686,-172 -2223,-515c-537,-344 -808,-941 -808,-1795c0,-886 298,-1732 893,-2536c595,-802 1364,-1509 2308,-2120c944,-611 2006,-1097 3186,-1456c1179,-360 2355,-540 3527,-540c207,0 405,4 595,13c189,9 377,20 566,38l-1813,7479l0,-1Zm16683,-1380c2379,0 3588,1313 3626,3940c75,17 179,25 311,25c321,0 674,-41 1062,-125c387,-84 774,-197 1161,-339l42,-15l568,-2357l-935,0l226,-1003l935,0l850,-3464l4191,-502l-963,3966l1700,0l-227,1003l-1699,0l-1813,7530c-75,284 -113,552 -113,802c0,351 94,595 283,728c189,134 481,200 878,200c547,0 1057,-209 1530,-627c256,-227 474,-487 653,-779l-2,-150c0,-486 57,-1037 170,-1657c113,-619 288,-1255 525,-1908c236,-653 552,-1293 948,-1919c396,-628 879,-1192 1444,-1694c567,-502 1228,-904 1983,-1205c755,-301 1615,-451 2578,-451c624,0 1137,67 1544,200c406,135 727,315 963,540c236,226 396,481 481,766c85,284 127,586 127,904c0,702 -179,1364 -537,1982c-359,619 -840,1159 -1444,1620c-604,460 -1298,827 -2082,1104c-783,276 -1601,438 -2449,489c-19,184 -33,360 -43,527c-10,168 -14,326 -14,477c0,853 170,1419 509,1694c340,276 850,414 1530,414c567,0 1077,-67 1530,-200c453,-134 878,-313 1275,-540c395,-226 773,-493 1132,-804c359,-309 717,-640 1076,-991l1,0l3030,-12575l4191,-502l-3257,13554c-74,284 -113,552 -113,802c0,351 95,595 284,728c189,134 481,200 878,200c547,0 1057,-209 1528,-627c473,-418 812,-946 1020,-1581l1190,0c-397,1020 -860,1837 -1388,2447c-529,611 -1066,1079 -1615,1406c-547,326 -1080,540 -1600,640c-520,100 -968,151 -1345,151c-850,0 -1567,-239 -2153,-716c-585,-476 -878,-1242 -878,-2296l2,-114l-172,190c-509,553 -1086,1046 -1728,1481c-642,435 -1350,786 -2124,1055c-774,267 -1633,402 -2578,402c-1340,0 -2412,-310 -3214,-929c-436,-337 -753,-792 -952,-1365l-82,97c-529,611 -1066,1079 -1615,1406c-547,326 -1080,540 -1600,640c-519,100 -967,151 -1345,151c-850,0 -1567,-239 -2152,-716c-586,-476 -879,-1242 -879,-2296c0,-451 76,-995 227,-1631l853,-3540c-738,263 -1523,455 -2355,577c-113,1172 -368,2225 -765,3163c-396,937 -896,1736 -1500,2397c-604,661 -1294,1168 -2068,1519c-773,352 -1595,528 -2463,528c-661,0 -1271,-71 -1828,-213c-556,-142 -1033,-373 -1429,-690c-396,-319 -709,-728 -935,-1230c-227,-502 -340,-1113 -340,-1832c0,-485 57,-1037 170,-1657c113,-618 297,-1259 553,-1921c254,-660 581,-1304 977,-1931c396,-628 882,-1192 1458,-1694c576,-502 1242,-904 1997,-1205c755,-301 1623,-451 2606,-451l-2,-3Zm-2096,10466c340,0 685,-129 1034,-389c349,-260 670,-618 963,-1079c292,-460 553,-1008 779,-1644c226,-636 396,-1322 509,-2057c-302,-68 -505,-197 -609,-390c-103,-193 -156,-414 -156,-665c0,-352 81,-640 241,-866c160,-226 373,-380 638,-464c-39,-519 -137,-883 -298,-1092c-159,-209 -420,-313 -779,-313c-509,0 -991,247 -1444,740c-453,494 -849,1097 -1189,1807c-339,711 -613,1464 -821,2259c-208,795 -311,1502 -311,2121c0,418 23,757 70,1017c47,260 128,464 241,614c113,151 264,255 452,315c190,58 416,87 680,87l0,-1Zm22941,-8107c0,-318 -52,-569 -155,-753c-104,-184 -288,-276 -552,-276c-360,0 -709,151 -1048,451c-340,302 -661,690 -964,1168c-302,477 -571,1016 -807,1618c-236,603 -430,1214 -581,1833c547,-33 1072,-168 1572,-402c501,-235 940,-536 1317,-904c377,-368 675,-791 892,-1268c218,-476 325,-966 325,-1468l1,1Z"/><path d="M120316,184901l-3430,13938c-335,1409 -774,2687 -1318,3837c-543,1149 -1219,2119 -2028,2909c-809,792 -1764,1402 -2865,1835c-1102,432 -2378,648 -3828,648c-1255,0 -2293,-148 -3116,-445c-823,-296 -1485,-680 -1987,-1149c-502,-470 -857,-1007 -1066,-1612c-209,-605 -313,-1229 -313,-1871c0,-643 97,-1267 293,-1873c195,-605 516,-1148 962,-1631c446,-481 1024,-870 1735,-1168c712,-296 1583,-445 2615,-445c279,0 627,25 1045,74c419,50 816,155 1192,316c377,160 698,407 962,741c265,334 399,784 399,1353c0,445 -84,939 -251,1483c-307,-396 -698,-655 -1172,-779c-474,-124 -892,-185 -1255,-185c-1032,0 -1792,296 -2279,890c-489,592 -732,1247 -732,1965c0,642 217,1217 648,1723c432,506 1164,760 2196,760c390,0 773,-56 1150,-167c376,-112 731,-334 1066,-668c335,-334 648,-797 941,-1390c293,-594 564,-1372 815,-2335l2092,-8193c-865,989 -1827,1717 -2887,2187c-1060,470 -2217,704 -3472,704c-1199,0 -2294,-210 -3284,-630c-990,-420 -1847,-1019 -2572,-1798c-725,-779 -1290,-1736 -1694,-2873c-404,-1136 -606,-2434 -606,-3893c0,-1877 348,-3694 1046,-5448c697,-1755 1694,-3306 2991,-4652c1296,-1348 2872,-2429 4727,-3244c1855,-815 3939,-1223 6254,-1223c976,0 1938,86 2886,260c949,172 1792,457 2531,852c739,395 1331,921 1778,1576c446,655 669,1464 669,2428c0,865 -223,1624 -669,2279c-447,655 -1200,982 -2259,982c-168,0 -377,-12 -628,-37c-251,-25 -508,-74 -773,-149c-265,-74 -530,-172 -795,-296c-265,-124 -495,-284 -690,-481c251,-74 488,-229 711,-464c223,-235 419,-506 586,-815c167,-309 299,-630 397,-964c97,-333 146,-636 146,-908c0,-123 -22,-308 -64,-556c-41,-247 -160,-501 -355,-759c-195,-260 -488,-489 -878,-686c-391,-198 -935,-296 -1632,-296c-1311,0 -2544,371 -3702,1112c-1157,741 -2168,1712 -3032,2910c-865,1198 -1548,2545 -2050,4040c-502,1495 -753,2984 -753,4467c0,1927 390,3417 1171,4467c781,1050 1715,1575 2803,1575c586,0 1185,-160 1799,-481c614,-322 1220,-815 1819,-1483c600,-667 1164,-1520 1694,-2557c530,-1038 990,-2286 1381,-3744l4936,37l-1,0Z"/><path d="M139274,177632l-2607,10759c-96,359 -143,696 -143,1013c0,443 120,749 358,918c238,168 608,253 1106,253c690,0 1280,-264 1768,-792c484,-522 856,-1179 1119,-1972l2434,-10178l5141,0l-500,1994c692,-591 1411,-1098 2161,-1520c750,-421 1482,-632 2196,-632c809,0 1423,242 1839,728c417,485 625,1033 625,1645c0,274 -54,548 -160,823c-107,274 -267,522 -481,743c-215,222 -483,402 -804,537c-322,138 -697,207 -1126,207c-500,0 -839,-106 -1018,-317c-178,-211 -303,-438 -374,-681c-72,-242 -138,-469 -197,-681c-59,-210 -220,-316 -481,-316c-452,0 -881,116 -1286,348c-404,233 -844,537 -1322,918l-2856,12024l-5142,0l441,-1839c-399,382 -801,694 -1209,937c-655,390 -1292,638 -1910,743c-619,106 -1167,158 -1643,158c-977,0 -1768,-233 -2375,-696c-606,-464 -982,-1149 -1125,-2057c-262,359 -571,717 -929,1076c-357,359 -756,674 -1197,949c-439,275 -922,495 -1446,665c-523,169 -1107,253 -1750,253c-618,0 -1207,-89 -1768,-268c-559,-180 -1064,-470 -1517,-870c-452,-401 -810,-923 -1072,-1567c-262,-643 -392,-1439 -392,-2388c0,-717 83,-1488 249,-2310c167,-822 418,-1645 751,-2469c333,-822 750,-1612 1249,-2372c500,-759 1094,-1429 1785,-2010c692,-580 1458,-1044 2304,-1392c844,-349 1791,-522 2838,-522c285,0 589,15 910,47c322,31 619,106 893,221c274,116 513,285 714,506c203,223 339,513 410,870l358,-1486l5181,0Zm-7356,1803c-762,0 -1453,311 -2071,934c-618,623 -1143,1381 -1570,2278c-429,896 -763,1846 -1001,2848c-237,1002 -357,1872 -357,2610c0,612 65,1081 196,1409c131,326 287,570 464,727c179,158 368,253 572,285c201,31 387,47 553,47c262,0 542,-58 839,-174c297,-116 589,-290 876,-522c285,-232 535,-521 750,-869c214,-349 381,-755 500,-1218l1714,-7151c0,-85 -30,-196 -89,-333c-59,-137 -143,-269 -250,-395c-108,-126 -250,-238 -429,-333c-178,-95 -410,-142 -696,-142l-1,-1Zm40902,-7455l-3943,16410c-96,359 -143,696 -143,1013c0,443 120,749 357,918c239,168 608,253 1107,253c690,0 1280,-264 1768,-792c251,-271 473,-580 665,-923c-2,-81 -3,-164 -3,-248c0,-611 71,-1308 214,-2088c142,-781 363,-1582 660,-2405c297,-823 696,-1630 1196,-2421c500,-791 1107,-1503 1821,-2135c714,-633 1548,-1140 2500,-1520c952,-379 2035,-569 3249,-569c785,0 1435,85 1946,253c512,169 917,395 1214,680c297,285 500,606 608,965c107,359 160,739 160,1140c0,886 -226,1719 -679,2500c-452,780 -1059,1461 -1821,2041c-762,580 -1636,1044 -2624,1392c-988,348 -2018,554 -3088,617c-25,232 -42,453 -54,665c-12,211 -18,411 -18,601c0,1076 214,1788 643,2136c428,348 1071,522 1928,522c714,0 1356,-85 1928,-253c572,-169 1107,-396 1607,-681c500,-285 976,-623 1428,-1013c451,-390 903,-806 1354,-1247l2430,-10160l5142,0l-393,1645c762,-759 1512,-1244 2250,-1455c738,-210 1381,-316 1928,-316c1143,0 2090,279 2839,838c750,558 1125,1471 1125,2737c0,632 -89,1334 -267,2104c-179,770 -376,1531 -590,2278c-214,750 -410,1456 -588,2120c-179,665 -268,1218 -268,1662c0,401 101,722 304,965c201,242 576,364 1125,364c381,0 720,-69 1018,-206c297,-137 559,-327 785,-570c226,-242 434,-533 625,-870c191,-337 381,-717 571,-1139l1500,0c-501,1308 -1036,2346 -1607,3116c-572,770 -1155,1355 -1750,1757c-595,401 -1172,665 -1731,791c-560,126 -1077,190 -1553,190c-786,0 -1447,-100 -1982,-301c-536,-200 -971,-469 -1303,-807c-334,-337 -572,-723 -714,-1155c-143,-433 -214,-870 -214,-1313c0,-528 83,-1156 250,-1883c167,-728 351,-1462 554,-2200c203,-738 387,-1461 554,-2167c166,-708 250,-1313 250,-1820c0,-1075 -429,-1612 -1286,-1612c-643,0 -1202,284 -1678,854c-476,569 -844,1255 -1106,2056l-2429,10158l-5141,0l834,-3489c-636,686 -1355,1301 -2155,1843c-809,548 -1702,992 -2678,1329c-976,337 -2060,506 -3250,506c-1690,0 -3041,-390 -4053,-1170c-544,-420 -940,-987 -1192,-1699l-57,68c-630,750 -1273,1318 -1928,1709c-655,390 -1292,638 -1911,743c-618,106 -1165,158 -1643,158c-975,0 -1767,-233 -2374,-696c-606,-464 -981,-1149 -1125,-2057c-262,359 -571,717 -929,1076c-358,359 -756,674 -1197,949c-439,275 -922,495 -1446,665c-523,169 -1107,253 -1750,253c-618,0 -1207,-89 -1768,-268c-559,-180 -1065,-470 -1518,-870c-451,-401 -809,-923 -1071,-1567c-262,-643 -393,-1439 -393,-2388c0,-717 84,-1488 250,-2310c167,-822 417,-1645 751,-2469c333,-822 750,-1612 1249,-2372c500,-759 1094,-1429 1786,-2010c689,-580 1457,-1044 2302,-1392c846,-349 1792,-522 2839,-522c285,0 589,15 911,47c321,31 625,106 910,221c285,116 529,285 731,506c203,223 327,523 376,903l1739,-7171l5133,0l-3,2Zm-8693,7455c-763,0 -1452,311 -2071,934c-619,623 -1143,1381 -1572,2278c-429,896 -762,1846 -1000,2848c-238,1002 -357,1872 -357,2610c0,612 66,1081 196,1409c131,326 285,570 464,727c179,158 368,253 572,285c201,31 387,47 553,47c262,0 542,-58 839,-174c298,-116 589,-290 875,-522c285,-232 536,-521 751,-869c214,-349 381,-755 500,-1218l1714,-7120c0,-191 -101,-443 -304,-759c-203,-317 -589,-475 -1160,-475l0,-1Zm19318,1013c0,-401 -65,-717 -196,-949c-130,-233 -363,-348 -697,-348c-452,0 -892,190 -1321,570c-429,379 -833,870 -1214,1471c-381,601 -721,1281 -1018,2041c-297,758 -541,1528 -731,2309c690,-42 1351,-211 1982,-506c630,-295 1184,-675 1660,-1140c476,-464 851,-996 1125,-1597c275,-602 410,-1218 410,-1852l0,1Z"/><path d="M222373,125375c7684,0 11588,4243 11710,12728c243,55 580,81 1006,81c1037,0 2181,-136 3431,-405c1251,-270 2500,-636 3751,-1095c1251,-458 2470,-986 3659,-1580c1189,-595 2273,-1189 3248,-1783l823,2189c-1768,1675 -4071,3094 -6906,4256c-2836,1162 -5902,1986 -9195,2472c-366,3783 -1189,7188 -2470,10216c-1281,3026 -2896,5607 -4848,7741c-1953,2134 -4178,3770 -6679,4904c-2499,1135 -5153,1702 -7959,1702c-2134,0 -4101,-229 -5900,-688c-1800,-460 -3340,-1202 -4620,-2230c-1281,-1028 -2287,-2350 -3019,-3973c-732,-1621 -1098,-3593 -1098,-5918c0,-1567 183,-3351 548,-5350c366,-1999 961,-4067 1784,-6201c824,-2135 1876,-4216 3156,-6242c1282,-2027 2852,-3852 4713,-5473c1860,-1621 4010,-2918 6449,-3891c2440,-973 5245,-1460 8417,-1460l-1,0Zm-6770,33805c1098,0 2211,-418 3339,-1256c1128,-838 2165,-2000 3110,-3487c946,-1485 1784,-3256 2516,-5310c732,-2053 1281,-4269 1646,-6647c-975,-215 -1631,-634 -1966,-1256c-335,-622 -503,-1338 -503,-2149c0,-1135 260,-2068 777,-2796c519,-730 1205,-1230 2060,-1500c-123,-1675 -443,-2850 -961,-3527c-518,-675 -1357,-1013 -2516,-1013c-1647,0 -3202,797 -4666,2391c-1463,1594 -2745,3540 -3841,5837c-1099,2296 -1982,4729 -2654,7296c-670,2567 -1006,4851 -1006,6851c0,1351 76,2445 229,3283c152,838 411,1499 777,1986c366,486 855,824 1465,1013c610,190 1341,284 2195,284l-1,0Z"/><path d="M183583,125780l-1281,5108c1769,-1513 3614,-2810 5534,-3891c1922,-1081 3797,-1622 5627,-1622c2074,0 3644,622 4710,1865c1069,1243 1602,2649 1602,4216c0,702 -138,1405 -411,2107c-275,702 -687,1338 -1235,1905c-549,568 -1234,1028 -2058,1378c-823,352 -1784,528 -2881,528c-1281,0 -2150,-270 -2608,-811c-457,-541 -777,-1121 -960,-1743c-183,-622 -351,-1202 -503,-1743c-153,-541 -564,-811 -1235,-811c-1159,0 -2257,297 -3293,892c-1037,595 -2166,1378 -3385,2351l-7319,30805l-13174,0l1083,-4522c-1005,991 -2022,1809 -3049,2455c-1676,1053 -3308,1743 -4894,2067c-1586,324 -2988,487 -4208,487c-2623,0 -4711,-650 -6267,-1946c-1554,-1297 -2485,-3215 -2790,-5755c-1158,1675 -2333,3013 -3521,4012c-1190,1000 -2363,1770 -3523,2310c-1158,541 -2287,905 -3384,1094c-1098,190 -2134,284 -3111,284c-2744,0 -5062,-771 -6952,-2310c-1891,-1540 -2836,-4013 -2836,-7418c0,-1460 245,-3215 731,-5269l6221,-26023l13175,0l-6587,27563c-183,811 -275,1567 -275,2270c0,919 198,1703 595,2351c396,648 1113,973 2150,973c1769,0 3263,-675 4482,-2026c1220,-1352 2165,-3054 2836,-5108l6221,-26023l13174,0l-6587,27563c-243,919 -365,1784 -365,2595c0,1134 305,1918 915,2350c610,432 1555,648 2836,648c1768,0 3278,-675 4528,-2026c1239,-1340 2193,-3024 2863,-5053l6239,-26078l13174,0l-4,1Z"/><path d="M90912,113133l-10978,45480c1648,1081 3385,1621 5214,1621c2745,0 5199,-1108 7366,-3323c2164,-2217 3994,-5026 5488,-8432c1494,-3405 2653,-7147 3476,-11227c824,-4080 1235,-7958 1235,-11633c0,-3027 -290,-5581 -869,-7661c-580,-2081 -1449,-3770 -2607,-5067c-1159,-1297 -2623,-2230 -4392,-2797c-1769,-567 -3842,-851 -6221,-851c-3111,0 -6084,446 -8920,1338c-2836,892 -5306,2189 -7410,3891c-2105,1703 -3782,3770 -5031,6202c-1251,2432 -1876,5189 -1876,8268c0,974 61,1771 183,2392c123,622 245,1134 366,1540c122,405 260,729 411,973c153,242 260,446 321,608c-3050,0 -5444,-567 -7181,-1702c-1739,-1135 -2608,-3081 -2608,-5837c0,-2756 915,-5431 2745,-8026c1829,-2594 4285,-4877 7364,-6851c3080,-1972 6647,-3552 10704,-4742c4055,-1189 8340,-1784 12853,-1784c4513,0 8340,609 11481,1824c3141,1216 5702,2905 7684,5067c1982,2162 3416,4689 4300,7580c884,2892 1327,6013 1327,9364c0,2972 -306,5972 -916,8999c-610,3027 -1479,5945 -2608,8755c-1128,2810 -2485,5459 -4071,7944c-1586,2486 -3308,4635 -5168,6446c-1860,1811 -3858,3242 -5992,4297c-2135,1053 -4330,1580 -6588,1580c-1768,0 -3582,-337 -5443,-1013c-1860,-676 -3766,-1771 -5718,-3283l-731,3242l-13174,0l12442,-51559l13539,-1622l3,-1Z"/><path d="M150833,72638c32722,0 60896,19504 73532,47516c-642,-55 -1306,-83 -1992,-83c-460,0 -920,9 -1380,27c-12438,-26258 -39179,-44427 -70160,-44427c-22386,0 -42559,9491 -56723,24662c-1191,-86 -2384,-124 -3564,-124l-415,1c14780,-16896 36496,-27573 60702,-27573l0,1Zm80109,89719c-4521,40239 -38663,71530 -80109,71530c-38416,0 -70557,-26887 -78650,-62863l3113,0c8034,34287 38806,59830 75537,59830c38536,0 70513,-28112 76556,-64939c943,-780 1832,-1630 2668,-2543c303,-332 598,-670 884,-1016l1,1Z"/></g></g></svg>