<?xml version="1.0" encoding="UTF-8"?>
<!DOCTYPE svg PUBLIC "-//W3C//DTD SVG 1.1//EN" "http://www.w3.org/Graphics/SVG/1.1/DTD/svg11.dtd">
<!-- Creator: CorelDRAW X6 -->
<svg xmlns="http://www.w3.org/2000/svg" xml:space="preserve" width="100px" height="100px" version="1.1" style="shape-rendering:geometricPrecision; text-rendering:geometricPrecision; image-rendering:optimizeQuality; fill-rule:evenodd; clip-rule:evenodd"
viewBox="0 0 21359 21359"
 xmlns:xlink="http://www.w3.org/1999/xlink">
 <defs>
  <style type="text/css">
   <![CDATA[
    .str0 {stroke:#373435;stroke-width:474.366}
    .fil0 {fill:black}
    .fil1 {fill:#FEFEFE;fill-rule:nonzero}
   ]]>
  </style>
 </defs>
 <g id="Capa_x0020_1">
  <metadata id="CorelCorpID_0Corel-Layer"/>
  <circle class="fil0 str0" cx="10680" cy="10680" r="10442"/>
  <path class="fil1" d="M4773 7267c0,-203 71,-377 212,-521 142,-145 314,-217 517,-217 203,0 377,72 521,217 145,145 217,318 217,521 0,203 -72,375 -217,517 -145,142 -318,212 -521,212 -203,0 -375,-71 -517,-212 -141,-141 -212,-314 -212,-517zm1144 1227l-664 3138c-25,105 -37,203 -37,295 0,129 31,218 92,268 62,49 157,74 286,74 178,0 345,-77 498,-231 154,-154 265,-348 332,-581l388 0c-129,375 -280,675 -452,900 -172,225 -348,397 -526,517 -178,120 -352,198 -521,235 -169,37 -315,55 -438,55 -277,0 -511,-88 -701,-263 -191,-175 -286,-457 -286,-844 0,-166 25,-366 74,-600l628 -2963 1329 0z"/>
  <path id="1" class="fil1" d="M9083 9768c0,-314 -111,-471 -332,-471 -166,0 -311,83 -434,249 -123,166 -218,366 -286,600l-628 2963 -1329 0 978 -4615 1329 0 -102 480c197,-221 391,-363 581,-425 191,-61 357,-92 498,-92 295,0 540,82 734,245 194,163 291,429 291,798 0,185 -23,389 -69,614 -46,225 -97,446 -152,664 -55,218 -106,425 -152,618 -46,194 -69,355 -69,484 0,117 26,211 78,282 52,71 149,106 291,106 98,0 186,-20 263,-60 77,-40 145,-95 203,-166 58,-71 112,-155 161,-254 49,-98 98,-209 148,-332l388 0c-129,381 -268,684 -415,909 -148,225 -298,395 -452,512 -154,117 -303,194 -448,231 -145,37 -278,55 -402,55 -203,0 -374,-29 -512,-88 -138,-58 -251,-137 -337,-235 -86,-98 -148,-211 -185,-337 -37,-126 -55,-254 -55,-383 0,-154 22,-337 65,-549 43,-212 91,-426 143,-641 52,-215 100,-426 143,-632 43,-206 65,-383 65,-531z"/>
  <path id="2" class="fil1" d="M14178 7571c6,-49 11,-92 14,-129 3,-37 5,-77 5,-120 0,-105 -35,-183 -106,-235 -71,-52 -152,-78 -245,-78 -49,0 -105,11 -166,32 -62,22 -123,60 -185,115 -62,55 -118,132 -171,231 -52,98 -94,225 -125,378l-157 729 674 0 -65 369 -683 0 -1061 4984c-68,332 -163,600 -286,803 -123,203 -262,361 -415,475 -154,114 -312,191 -475,231 -163,40 -321,60 -475,60 -141,0 -277,-23 -406,-69 -129,-46 -245,-114 -346,-203 -102,-89 -183,-195 -245,-318 -62,-123 -92,-258 -92,-406 0,-209 42,-388 125,-535 83,-148 197,-272 341,-374 145,-102 312,-189 503,-263 191,-74 397,-145 618,-212l1117 -5270c68,-332 165,-600 291,-803 126,-203 268,-361 425,-475 157,-114 318,-191 485,-231 166,-40 326,-60 480,-60 142,0 277,23 406,69 129,46 245,114 346,203 102,89 183,195 245,318 62,123 92,258 92,406 0,141 -9,268 -28,378l-434 0zm-4504 6719c0,68 35,135 106,203 71,68 158,102 263,102 98,0 195,-51 291,-152 95,-102 174,-291 235,-568l120 -535c-148,49 -283,103 -406,161 -123,59 -229,125 -318,198 -89,74 -160,160 -212,258 -52,98 -78,209 -78,332z"/>
  <path id="3" class="fil1" d="M15950 8448c775,0 1169,483 1181,1449 25,6 58,9 102,9 105,0 220,-15 346,-46 126,-31 252,-72 378,-125 126,-52 249,-112 369,-180 120,-68 229,-135 328,-203l83 249c-178,191 -411,352 -697,485 -286,132 -595,226 -928,281 -37,431 -120,818 -249,1163 -129,345 -292,638 -489,881 -197,243 -421,429 -674,558 -252,129 -520,194 -803,194 -215,0 -414,-26 -595,-78 -182,-52 -337,-137 -466,-254 -129,-117 -231,-268 -305,-452 -74,-185 -111,-409 -111,-674 0,-178 18,-381 55,-609 37,-228 97,-463 180,-706 83,-243 189,-480 318,-711 129,-231 288,-438 475,-623 188,-185 405,-332 651,-443 246,-111 529,-166 849,-166zm-683 3848c111,0 223,-48 337,-143 114,-95 218,-228 314,-397 95,-169 180,-371 254,-604 74,-234 129,-486 166,-757 -98,-25 -165,-72 -198,-143 -34,-71 -51,-152 -51,-245 0,-129 26,-235 78,-318 52,-83 122,-140 208,-171 -12,-191 -45,-325 -97,-402 -52,-77 -137,-115 -254,-115 -166,0 -323,91 -471,272 -148,182 -277,403 -388,664 -111,261 -200,538 -268,831 -68,292 -102,552 -102,780 0,154 8,278 23,374 15,95 42,171 78,226 37,55 86,94 148,115 62,22 135,32 221,32z"/>
 </g>
</svg>
