<?xml version="1.0" standalone="no"?>
<!DOCTYPE svg PUBLIC "-//W3C//DTD SVG 20010904//EN"
 "http://www.w3.org/TR/2001/REC-SVG-20010904/DTD/svg10.dtd">
<svg version="1.0" xmlns="http://www.w3.org/2000/svg"
 width="702.000000pt" height="430.000000pt" viewBox="0 0 702.000000 430.000000"
 preserveAspectRatio="xMidYMid meet">
<metadata>
Created by potrace 1.13, written by Peter Selinger 2001-2015
</metadata>
<g transform="translate(0.000000,430.000000) scale(0.100000,-0.100000)"
fill="#000000" stroke="none">
<path d="M674 3031 l-6 -29 -112 -7 c-94 -6 -118 -5 -144 9 -18 9 -32 21 -32
26 0 6 -6 10 -14 10 -18 0 -87 -180 -94 -243 -11 -112 52 -136 281 -103 48 7
87 9 87 5 0 -4 -9 -74 -20 -156 -21 -160 -48 -278 -78 -346 -20 -45 -19 -67 4
-67 52 0 117 78 148 175 9 28 27 133 41 234 14 102 26 186 28 187 11 10 263
35 329 33 73 -4 89 -8 120 -31 56 -42 73 -88 72 -193 -1 -326 -254 -549 -574
-507 -130 18 -194 50 -220 112 -7 16 -19 30 -26 30 -19 0 -29 -30 -43 -130
-11 -76 -10 -91 4 -128 27 -67 68 -86 197 -90 133 -5 232 15 343 68 283 136
457 484 444 886 -4 93 -8 118 -29 159 -51 100 -176 124 -464 91 l-138 -16 -30
25 c-40 34 -67 33 -74 -4z"/>
<path d="M4300 3035 c-99 -20 -213 -60 -337 -121 -62 -30 -115 -54 -118 -54
-3 0 -5 6 -5 14 0 22 -40 66 -60 66 -21 0 -30 -27 -30 -93 0 -45 -5 -54 -55
-110 -122 -137 -136 -192 -142 -538 -5 -252 -4 -269 15 -312 15 -33 28 -48 46
-53 43 -10 53 8 60 113 13 172 84 558 110 598 35 54 212 135 395 181 173 44
232 23 186 -65 -37 -73 -234 -202 -375 -247 -101 -32 -160 -82 -181 -152 -22
-74 -17 -76 172 -83 178 -6 218 -16 273 -67 80 -75 74 -207 -11 -247 -27 -13
-40 -14 -68 -5 -33 11 -105 80 -105 101 0 6 -6 7 -17 0 -20 -11 -41 -113 -42
-207 -1 -69 16 -94 64 -94 57 0 119 43 250 175 180 181 236 280 215 379 -24
110 -108 166 -265 174 l-92 5 106 97 c182 167 303 326 316 414 9 59 -13 108
-58 129 -42 20 -151 21 -247 2z"/>
<path d="M6462 3020 c-40 -25 -69 -85 -111 -231 -54 -187 -136 -634 -157 -855
-7 -78 3 -98 53 -110 39 -10 55 6 86 87 76 203 120 308 142 335 l24 29 1 -35
c0 -19 -9 -87 -20 -150 -24 -137 -25 -179 -6 -224 15 -37 43 -51 79 -40 20 6
87 55 122 90 19 20 19 44 0 44 -8 0 -22 11 -31 24 -19 30 -14 81 22 256 41
199 48 268 29 296 -11 18 -24 24 -50 24 -57 0 -94 -43 -180 -210 -43 -82 -85
-155 -93 -162 -13 -11 -14 -6 -7 41 4 29 22 115 39 190 28 119 39 148 79 211
79 124 141 315 123 384 -6 24 -11 26 -59 26 -35 0 -63 -7 -85 -20z"/>
<path d="M2383 2639 c-30 -9 -34 -16 -54 -82 -27 -89 -35 -99 -42 -52 -7 44
-23 65 -49 65 -23 0 -83 -31 -123 -64 -30 -24 -30 -24 -12 -54 11 -20 17 -51
17 -94 0 -72 -34 -358 -53 -454 -14 -68 -11 -74 34 -74 30 0 97 37 113 63 8
12 28 110 46 217 38 235 38 234 55 193 10 -24 20 -33 38 -33 31 0 53 25 73 84
16 46 16 48 -4 61 -11 8 -23 26 -26 40 -5 21 10 113 30 178 6 19 3 19 -43 6z"/>
<path d="M2819 2574 c-10 -12 -24 -15 -61 -10 -178 24 -291 -154 -305 -480 -5
-117 -4 -135 15 -176 26 -60 66 -82 147 -82 93 -1 152 20 207 75 53 53 81 127
101 264 7 51 19 93 34 116 13 20 26 60 30 89 l6 53 -26 -7 c-25 -6 -27 -4 -27
26 -1 42 -23 103 -46 129 -21 23 -57 25 -75 3z m-37 -168 c-3 -89 0 -120 12
-138 12 -19 13 -37 5 -103 -12 -99 -35 -192 -55 -223 -23 -35 -72 -27 -102 18
-23 33 -24 41 -19 140 9 176 54 339 108 392 49 50 54 41 51 -86z"/>
<path d="M1569 2535 c-72 -37 -88 -58 -64 -85 21 -24 19 -49 -21 -248 -56
-277 -49 -372 28 -372 33 0 52 16 181 160 l68 75 -7 -67 c-11 -115 9 -168 63
-168 20 0 43 18 90 68 67 72 74 90 43 109 -10 7 -22 27 -25 45 -10 54 14 244
41 325 18 53 24 91 22 131 -3 56 -3 57 -36 60 -43 4 -92 -27 -120 -76 -16 -29
-26 -78 -40 -189 l-18 -150 -48 -56 c-88 -103 -94 -76 -41 187 37 183 42 235
25 267 -16 29 -65 23 -141 -16z"/>
<path d="M4938 2560 c-89 -9 -131 -33 -173 -101 -85 -133 -135 -471 -85 -569
27 -53 69 -74 134 -66 100 12 230 101 242 166 l7 35 -24 -22 c-29 -27 -90 -53
-122 -53 -13 0 -32 9 -42 20 -20 22 -31 101 -21 153 l6 34 85 10 c148 18 170
48 170 234 0 178 2 176 -177 159z m48 -86 c16 -63 -18 -185 -63 -231 -49 -49
-66 -45 -58 15 13 91 36 178 55 210 24 40 57 43 66 6z"/>
<path d="M5402 2560 c-61 -13 -108 -45 -137 -93 -32 -56 -95 -320 -102 -429
-8 -130 27 -208 95 -208 37 0 68 27 154 134 44 56 82 103 84 105 2 2 3 -39 2
-92 -1 -75 2 -101 16 -121 28 -44 63 -35 129 32 31 32 57 62 57 67 0 5 -10 20
-22 33 -22 22 -23 32 -21 144 2 84 9 143 23 194 25 94 25 137 -1 190 -33 70
-83 68 -112 -4 -8 -21 -23 -103 -33 -183 -19 -161 -26 -177 -104 -254 -48 -46
-52 -49 -65 -32 -8 11 -11 34 -8 60 9 85 53 316 65 342 13 28 57 59 101 69 22
5 28 12 25 29 -3 19 -10 22 -53 24 -27 1 -69 -3 -93 -7z"/>
<path d="M6037 2560 c-27 -5 -63 -20 -81 -34 -85 -64 -146 -253 -162 -498 -6
-89 -4 -110 11 -142 42 -89 129 -85 255 13 68 52 76 62 81 99 6 48 1 51 -30
18 -13 -14 -39 -32 -59 -42 -35 -16 -36 -16 -54 6 -23 28 -23 54 3 187 36 189
70 296 90 276 5 -5 12 -33 16 -62 5 -30 13 -56 19 -58 6 -2 25 15 44 39 27 33
33 49 31 81 -2 45 -26 107 -44 119 -14 9 -55 8 -120 -2z"/>
<path d="M2700 1280 l0 -160 45 0 44 0 3 63 3 62 53 3 52 3 0 -65 0 -66 50 0
50 0 0 160 0 160 -50 0 -50 0 0 -55 0 -55 -55 0 -55 0 0 55 0 55 -45 0 -45 0
0 -160z"/>
<path d="M3130 1422 c-40 -21 -80 -90 -80 -137 0 -87 44 -147 122 -164 126
-29 216 48 206 175 -5 63 -29 101 -79 126 -45 23 -125 23 -169 0z m124 -73
c21 -17 26 -29 26 -68 0 -62 -21 -91 -65 -91 -43 0 -65 29 -65 88 0 32 6 49
25 67 29 30 45 31 79 4z"/>
<path d="M3400 1400 l0 -40 50 0 50 0 0 -120 0 -120 50 0 50 0 0 120 0 120 51
0 50 0 -3 38 -3 37 -147 3 -148 3 0 -41z"/>
<path d="M3740 1280 l0 -160 135 0 135 0 0 35 0 35 -85 0 -85 0 0 30 0 30 75
0 75 0 0 35 0 35 -75 0 c-73 0 -75 1 -75 25 0 25 1 25 80 25 l80 0 0 35 0 35
-130 0 -130 0 0 -160z"/>
<path d="M4060 1281 l0 -161 125 0 125 0 0 40 0 40 -75 0 -74 0 -3 118 -3 117
-47 3 -48 3 0 -160z"/>
</g>
</svg>
