<?xml version="1.0" standalone="no"?>
<!DOCTYPE svg PUBLIC "-//W3C//DTD SVG 20010904//EN"
 "http://www.w3.org/TR/2001/REC-SVG-20010904/DTD/svg10.dtd">
<svg version="1.0" xmlns="http://www.w3.org/2000/svg"
 width="2720.000000pt" height="1502.000000pt" viewBox="0 0 2720.000000 1502.000000"
 preserveAspectRatio="xMidYMid meet">

<g transform="translate(0.000000,1502.000000) scale(0.100000,-0.100000)"
fill="#000000" stroke="none">
<path d="M13690 15014 c-516 -27 -848 -57 -1240 -110 -2846 -385 -5263 -1700
-6467 -3519 -86 -130 -223 -356 -223 -367 0 -3 33 6 73 20 116 39 208 22 299
-54 26 -21 61 -48 79 -59 19 -11 44 -42 58 -70 24 -47 26 -59 25 -185 -1 -205
-37 -441 -124 -810 -91 -387 -144 -660 -155 -806 l-6 -79 71 74 c39 41 73 84
75 95 2 12 14 73 25 136 12 63 55 264 96 445 109 477 154 764 154 979 l0 90
72 121 c709 1190 1941 2180 3528 2835 999 412 2159 688 3305 784 419 35 544
40 1015 40 492 1 678 -7 1095 -45 1593 -144 3083 -608 4310 -1342 716 -429
1362 -990 1810 -1572 149 -194 386 -548 374 -559 -2 -2 -40 -8 -84 -14 l-80
-9 106 -2 c58 0 134 -4 168 -7 l61 -7 0 -37 c0 -41 11 -50 62 -50 20 0 37 8
50 25 27 35 101 76 153 86 59 11 118 -8 183 -57 28 -21 69 -51 90 -65 112 -76
249 -410 215 -527 -154 -539 -197 -828 -197 -1337 -1 -270 0 -282 21 -329 24
-51 80 -110 130 -137 27 -15 30 -21 32 -72 l1 -56 -73 -70 c-40 -39 -111 -113
-157 -166 -100 -113 -187 -185 -264 -221 -61 -28 -83 -28 -248 -6 -82 12 -108
22 -147 56 -23 20 -23 19 5 -33 71 -133 231 -201 377 -160 22 6 41 9 43 7 5
-5 -47 -176 -92 -300 -706 -1978 -2840 -3572 -5621 -4198 -621 -140 -1150
-217 -1883 -272 -227 -17 -1267 -17 -1495 0 -607 46 -1057 106 -1565 208
-1278 258 -2447 728 -3400 1368 -1197 803 -1996 1837 -2315 2996 -38 138 -95
409 -95 453 0 21 34 64 163 203 89 97 165 181 168 187 4 7 9 57 13 112 7 98 6
100 -12 80 -11 -11 -139 -149 -286 -307 -146 -158 -286 -301 -311 -318 -25
-17 -79 -47 -120 -67 -70 -33 -80 -35 -143 -29 -166 14 -238 31 -274 63 -15
13 -18 13 -18 2 0 -28 77 -115 130 -147 l54 -32 37 -143 c82 -314 176 -561
334 -882 163 -331 299 -552 530 -860 306 -408 727 -837 1170 -1190 673 -536
1473 -991 2360 -1340 1065 -420 2201 -678 3435 -779 662 -55 1450 -55 2120 0
1874 152 3630 701 5017 1571 1366 855 2307 1955 2720 3178 62 183 133 452 159
603 10 56 20 102 23 101 3 0 23 -27 45 -60 45 -70 139 -152 213 -186 61 -28
170 -53 234 -53 64 0 202 25 274 50 82 28 226 103 305 157 74 52 470 362 470
369 0 23 46 398 66 537 14 98 24 180 22 183 -3 2 -50 -42 -105 -99 l-100 -102
-7 -69 c-4 -38 -5 -71 -2 -73 3 -3 28 16 56 43 27 26 52 45 54 43 7 -8 -40
-349 -50 -358 -9 -8 -203 -158 -407 -314 -124 -95 -309 -189 -425 -218 -90
-22 -177 -22 -337 0 -240 34 -405 224 -430 496 -8 88 10 475 31 660 9 77 29
218 45 314 l29 174 -31 136 c-40 176 -70 287 -121 440 -33 102 -39 129 -31
155 22 71 -16 250 -85 406 -54 124 -143 230 -228 273 -22 11 -47 44 -85 109
-75 131 -281 436 -380 564 -542 700 -1250 1309 -2116 1820 -1322 780 -2938
1280 -4653 1439 -429 40 -599 47 -1140 50 -300 1 -574 1 -610 -1z"/>
<path d="M1967 13019 l-29 -11 74 -40 c40 -22 113 -69 161 -104 l88 -65 75 7
c41 4 74 11 74 15 0 17 -136 110 -227 156 -98 49 -164 62 -216 42z"/>
<path d="M17360 12969 c-58 -5 -109 -11 -115 -13 -5 -2 83 -1 197 2 296 7 431
-19 568 -111 36 -24 81 -54 101 -65 48 -29 132 -119 158 -170 54 -107 67 -278
31 -412 -71 -260 -311 -601 -720 -1023 -201 -208 -628 -602 -857 -791 -34 -28
-61 -52 -60 -53 1 -1 67 -7 147 -13 249 -20 447 -64 619 -138 127 -54 365
-216 440 -299 119 -132 180 -287 188 -479 7 -155 -9 -232 -81 -381 -131 -270
-359 -556 -780 -975 -528 -526 -884 -762 -1125 -745 -179 12 -257 33 -308 80
-30 27 -29 16 3 -36 101 -163 257 -213 470 -151 288 83 632 339 1114 830 464
472 711 812 802 1104 20 65 23 95 23 230 -1 170 -16 245 -74 375 -125 276
-400 468 -801 559 -85 19 -278 46 -338 47 -98 1 -97 3 75 154 700 619 1102
1071 1289 1450 77 158 104 249 111 380 16 313 -145 535 -457 626 -65 19 -103
22 -295 24 -121 2 -267 -1 -325 -6z"/>
<path d="M1843 12923 c-9 -21 -18 -77 -21 -124 l-4 -87 -37 -5 c-73 -12 -642
-29 -826 -25 -154 3 -198 7 -230 21 -46 20 -97 67 -126 115 -19 29 -25 32 -70
32 -42 0 -51 -4 -59 -22 -5 -13 -55 -133 -111 -268 -180 -437 -219 -563 -219
-711 0 -192 78 -315 237 -371 162 -56 372 -46 1076 53 125 17 230 29 234 25
12 -12 -115 -953 -163 -1206 -73 -389 -175 -720 -286 -927 -36 -68 -38 -76
-28 -113 12 -46 33 -55 110 -48 79 8 173 61 266 150 172 165 283 380 348 669
14 63 71 436 127 829 56 393 103 717 104 718 5 6 365 68 520 91 248 36 405 51
653 62 338 16 482 -1 637 -77 190 -93 310 -247 372 -480 25 -92 26 -114 27
-319 0 -241 -13 -360 -64 -560 -144 -571 -546 -1082 -1050 -1335 -326 -163
-685 -227 -1130 -201 -446 27 -731 109 -932 269 -87 69 -162 174 -193 267 -11
33 -20 61 -20 62 -1 4 -110 -29 -117 -36 -8 -7 -92 -450 -107 -564 -17 -120
-14 -304 5 -368 37 -124 95 -202 208 -277 187 -125 464 -175 852 -153 501 29
885 122 1254 306 290 144 505 299 740 535 356 357 658 863 831 1395 124 381
197 809 219 1301 28 600 -60 947 -290 1139 -155 130 -459 194 -915 195 -261 0
-451 -16 -1080 -91 -191 -23 -345 -37 -351 -32 -193 147 -287 203 -344 203
-26 0 -34 -6 -47 -37z"/>
<path d="M3555 12939 c-242 -13 -234 -14 85 -15 477 0 745 -50 924 -169 36
-24 84 -54 106 -65 53 -27 148 -121 192 -190 118 -183 168 -422 168 -800 0
-619 -94 -1173 -286 -1685 -172 -460 -457 -909 -788 -1241 -223 -223 -427
-371 -701 -510 -415 -209 -837 -308 -1375 -320 -216 -6 -264 -4 -405 15 -316
43 -492 111 -624 242 l-44 44 24 -45 c35 -65 154 -181 235 -229 93 -55 233
-104 376 -133 100 -20 142 -23 363 -22 336 0 563 26 860 98 901 219 1598 806
2045 1721 267 546 397 1103 432 1844 22 469 -19 748 -145 996 -42 83 -66 115
-142 191 -77 78 -105 98 -185 137 -162 78 -361 119 -667 137 -186 11 -217 11
-448 -1z"/>
<path d="M17168 12943 c6 -2 18 -2 25 0 6 3 1 5 -13 5 -14 0 -19 -2 -12 -5z"/>
<path d="M26315 12940 c3 -5 18 -10 32 -10 31 0 81 -23 113 -53 14 -13 46 -33
71 -45 29 -14 58 -39 75 -64 28 -40 29 -45 28 -162 -4 -449 -286 -1137 -659
-1606 l-52 -65 -102 -425 c-113 -476 -163 -698 -159 -711 2 -5 49 75 105 179
l102 187 85 353 85 353 59 77 c262 341 497 818 597 1212 43 172 58 279 59 430
1 169 -7 194 -86 272 -68 66 -132 88 -259 88 -64 0 -98 -4 -94 -10z"/>
<path d="M26268 12933 c7 -3 16 -2 19 1 4 3 -2 6 -13 5 -11 0 -14 -3 -6 -6z"/>
<path d="M510 12910 c0 -5 21 -10 48 -10 45 -1 48 -3 74 -45 22 -37 33 -45 56
-45 22 0 35 -8 53 -35 17 -25 34 -37 59 -41 44 -9 811 5 905 16 72 8 7 7 -460
-6 -321 -9 -359 2 -422 122 l-28 54 -142 0 c-89 0 -143 -4 -143 -10z"/>
<path d="M3263 12913 c9 -2 25 -2 35 0 9 3 1 5 -18 5 -19 0 -27 -2 -17 -5z"/>
<path d="M3158 12903 c7 -3 16 -2 19 1 4 3 -2 6 -13 5 -11 0 -14 -3 -6 -6z"/>
<path d="M17211 12899 c-617 -59 -1288 -285 -2035 -684 -88 -47 -160 -84 -161
-83 -1 2 -25 52 -54 113 -87 178 -211 284 -271 230 -44 -40 -69 -174 -77 -420
l-6 -180 -147 -145 c-161 -160 -238 -249 -336 -397 -211 -317 -292 -620 -324
-1208 -13 -247 -13 -1500 1 -1623 27 -246 106 -387 242 -427 95 -28 154 -16
187 37 34 55 40 95 50 303 12 264 82 783 171 1280 64 357 220 1091 242 1140
29 66 129 164 247 244 304 204 1035 492 1500 589 394 83 654 78 753 -14 73
-67 64 -183 -24 -311 -152 -220 -653 -594 -1084 -808 -203 -101 -357 -155
-554 -195 -209 -42 -283 -81 -417 -214 -142 -142 -238 -297 -270 -433 -27
-115 -5 -200 56 -221 18 -7 185 -9 462 -5 474 6 626 -3 852 -51 425 -90 659
-289 726 -617 36 -171 23 -314 -37 -416 -38 -66 -152 -167 -235 -207 -124 -62
-270 -57 -413 13 -99 49 -228 192 -302 336 -14 28 -27 51 -28 53 -1 2 -28 -9
-58 -24 l-55 -27 -7 -61 c-8 -68 -18 -122 -69 -371 -63 -310 -67 -424 -16
-556 45 -121 108 -169 219 -169 84 0 139 14 249 66 236 110 558 368 922 741
442 450 688 786 772 1054 31 101 31 266 -1 389 -77 295 -316 499 -696 595
-210 53 -531 78 -723 56 -57 -7 -106 -11 -108 -9 -2 3 74 70 169 150 598 506
1066 968 1316 1298 222 294 324 517 323 710 -1 200 -75 336 -229 417 -108 58
-199 73 -433 72 -113 -1 -243 -5 -289 -10z"/>
<path d="M26160 12878 c-233 -33 -409 -158 -513 -365 -58 -113 -215 -617 -312
-998 -224 -878 -503 -2452 -556 -3134 -10 -128 -9 -148 6 -188 31 -80 148
-141 285 -150 82 -5 110 5 142 47 10 14 85 196 167 405 236 604 303 763 432
1015 80 157 148 260 195 294 24 18 25 18 39 0 31 -41 15 -203 -65 -652 -84
-475 -106 -710 -76 -835 50 -212 168 -317 321 -285 59 12 177 73 255 131 98
73 315 260 321 276 3 9 9 35 12 57 l7 41 -61 23 c-75 27 -133 77 -155 136 -37
98 -1 390 122 969 138 653 151 733 161 977 11 260 -21 299 -242 302 -82 1 -96
-2 -160 -32 -54 -26 -89 -53 -160 -125 -106 -108 -191 -232 -317 -464 -261
-483 -337 -619 -409 -738 -89 -150 -123 -197 -132 -188 -13 12 -7 149 13 273
29 192 83 439 181 845 50 204 95 394 102 422 8 39 26 71 65 120 278 348 532
874 617 1278 31 143 48 300 43 379 -3 50 -10 71 -31 99 -54 71 -133 89 -297
65z"/>
<path d="M14787 12549 l-29 -11 49 -28 c27 -16 55 -36 63 -45 7 -9 28 -22 45
-29 48 -20 101 -71 146 -142 l41 -63 49 25 c27 13 49 28 49 33 0 16 -98 148
-134 179 -81 71 -209 108 -279 81z"/>
<path d="M3360 11709 c-189 -12 -584 -63 -811 -105 -254 -46 -238 -40 -244
-78 -3 -17 -34 -233 -70 -481 -149 -1042 -145 -1021 -197 -1184 -101 -319
-302 -567 -522 -643 -52 -18 -137 -24 -150 -11 -4 4 -35 6 -69 5 -53 -3 -67 0
-91 19 l-30 23 29 -52 c16 -29 61 -83 100 -120 61 -59 83 -72 165 -104 254
-96 675 -147 1015 -122 l120 8 -225 7 c-242 7 -396 25 -556 63 -167 41 -352
119 -323 137 8 5 21 9 29 9 9 0 48 16 88 35 280 134 503 475 592 905 12 58 64
404 116 770 52 365 96 665 97 666 7 7 520 87 672 105 253 29 700 37 805 15 95
-20 199 -70 274 -131 l59 -49 -19 35 c-10 18 -53 68 -94 110 -59 60 -93 85
-160 117 -47 23 -105 46 -130 51 -52 12 -276 12 -470 0z"/>
<path d="M16890 11649 c-627 -65 -1668 -469 -1958 -760 -95 -95 -93 -89 -203
-625 -132 -642 -150 -743 -194 -1064 -9 -63 -27 -185 -40 -270 -43 -272 -56
-391 -65 -576 -11 -220 -20 -263 -71 -316 l-38 -41 -103 8 c-174 12 -239 32
-315 98 l-37 32 25 -44 c80 -145 212 -223 379 -224 88 0 138 20 190 79 69 79
85 149 100 447 17 335 119 1003 259 1694 126 622 125 618 161 666 120 163 587
400 1164 592 383 127 642 179 894 180 l162 0 -6 30 c-20 98 -81 117 -304 94z"/>
<path d="M210 11500 c29 -57 112 -137 177 -173 129 -70 328 -90 623 -63 150
13 599 72 606 79 1 1 6 31 10 66 l7 63 -29 -6 c-107 -21 -464 -67 -589 -76
-210 -14 -322 -12 -460 6 -179 23 -255 50 -331 116 l-37 32 23 -44z"/>
<path d="M9295 11383 c-60 -13 -112 -27 -116 -31 -10 -11 -39 -105 -34 -110 2
-3 28 0 57 6 29 5 54 9 56 7 2 -2 -15 -64 -37 -138 -119 -393 -140 -566 -85
-689 18 -40 27 -44 70 -28 35 14 38 9 23 -34 -16 -45 -6 -58 55 -66 l44 -5
-63 -173 c-71 -192 -128 -290 -196 -338 -37 -25 -51 -29 -108 -28 -100 1 -212
14 -250 30 -19 8 -35 13 -37 11 -1 -1 -59 -324 -128 -717 -114 -651 -128 -721
-157 -778 -36 -73 -92 -124 -222 -206 -152 -95 -221 -109 -455 -94 -61 4 -79
10 -117 37 -25 18 -45 28 -45 23 0 -21 68 -108 113 -143 70 -56 131 -71 235
-59 263 30 543 215 626 414 14 34 53 245 180 981 71 410 70 406 86 399 101
-43 208 -49 284 -15 62 27 130 82 162 131 14 21 40 95 59 166 48 185 101 333
164 463 17 36 31 68 31 72 0 5 -46 -8 -101 -27 -110 -38 -102 -39 -137 21 -21
36 -22 177 -3 270 19 90 83 320 140 502 28 89 51 164 51 167 0 9 -27 5 -145
-21z"/>
<path d="M8944 11267 l-140 -30 -119 -361 -118 -361 -14 60 c-71 294 -83 337
-103 362 -35 44 -71 63 -122 63 -90 0 -200 -54 -461 -224 l-147 -96 0 -55 c0
-49 3 -56 28 -69 36 -19 78 -64 93 -101 29 -72 20 -526 -17 -855 -37 -334
-121 -771 -230 -1202 -60 -236 -60 -232 -5 -291 55 -60 95 -67 216 -42 119 25
287 117 376 206 73 73 81 102 153 519 202 1162 257 1474 261 1479 3 2 5 -36 5
-85 0 -119 14 -197 47 -264 32 -64 75 -96 140 -106 66 -10 118 10 172 65 56
57 87 119 156 310 l54 146 -34 6 c-45 8 -80 32 -115 80 -51 72 -63 127 -57
263 6 126 33 251 110 504 20 65 29 111 23 111 -6 -1 -74 -15 -152 -32z"/>
<path d="M10940 11139 c-24 -10 -24 -11 24 -29 27 -11 65 -32 85 -48 20 -15
57 -40 83 -55 62 -36 113 -97 154 -182 38 -81 81 -224 90 -301 6 -48 9 -54 30
-54 34 0 63 -33 70 -79 l6 -40 34 16 c28 14 35 14 50 2 15 -12 16 -31 11 -159
-8 -234 -50 -353 -159 -462 l-57 -57 -16 -128 c-55 -449 -139 -788 -255 -1028
-140 -289 -373 -460 -732 -536 -140 -30 -387 -36 -558 -14 -222 28 -338 75
-442 176 -32 32 -58 54 -58 50 0 -3 22 -37 48 -76 154 -224 419 -322 801 -294
371 26 632 131 842 339 174 171 281 384 365 724 50 206 67 305 118 684 3 21
23 52 56 90 91 101 148 250 171 444 28 245 -24 368 -157 368 l-41 0 -12 63
c-58 303 -187 514 -352 572 -56 21 -167 28 -199 14z"/>
<path d="M7155 11080 c-18 -8 -18 -9 5 -10 41 -1 106 -36 131 -69 12 -16 34
-33 49 -36 36 -8 75 -50 90 -98 7 -21 12 -86 12 -145 0 -175 -51 -389 -152
-647 -51 -129 -62 -169 -79 -290 -35 -240 -53 -491 -55 -730 -1 -255 2 -273
61 -310 18 -11 32 -25 33 -30 0 -6 23 -24 50 -40 33 -19 49 -34 46 -45 -3 -8
-7 -38 -11 -65 -6 -49 -9 -53 -238 -286 -192 -195 -242 -241 -290 -264 -61
-29 -49 -29 -248 -11 -69 6 -124 28 -163 64 l-28 27 22 -43 c91 -183 295 -245
490 -151 56 27 97 64 305 274 132 134 246 244 253 246 8 3 19 54 30 147 l19
144 -92 43 c-75 36 -95 50 -105 75 -10 24 -12 89 -7 283 9 364 46 692 94 822
67 183 134 395 159 502 37 155 41 372 9 468 -25 76 -89 144 -160 168 -52 18
-194 22 -230 7z"/>
<path d="M10805 11062 c-17 -11 -51 -42 -77 -71 l-47 -52 -78 17 c-120 26
-401 24 -507 -4 -131 -36 -227 -94 -337 -202 -156 -154 -263 -341 -359 -628
-114 -343 -169 -664 -191 -1127 -21 -440 23 -639 180 -794 141 -141 349 -192
661 -162 304 30 540 130 711 300 217 218 344 589 429 1254 l20 158 55 54 c105
102 165 283 165 498 0 88 -3 109 -15 114 -14 5 -73 -30 -146 -86 l-26 -21 -7
106 c-26 401 -171 664 -366 664 -19 0 -49 -8 -65 -18z m-195 -260 c0 -10 -7
-94 -15 -187 -8 -94 -15 -276 -16 -405 -2 -198 1 -244 15 -295 23 -76 39 -107
81 -153 l33 -37 -24 -215 c-46 -421 -83 -629 -145 -814 -47 -142 -83 -209
-143 -264 -53 -49 -77 -56 -161 -50 -153 13 -279 147 -320 343 -47 225 12 850
121 1272 92 357 202 593 336 719 59 56 83 71 143 90 60 19 95 18 95 -4z"/>
<path d="M10495 10628 c-188 -220 -343 -697 -411 -1263 -22 -184 -36 -538 -24
-625 15 -120 66 -246 118 -293 26 -24 131 -29 156 -8 15 13 13 16 -18 35 -44
27 -70 60 -104 133 l-27 58 1 270 c0 218 5 302 22 435 61 454 167 836 296
1058 29 49 34 70 40 150 4 56 3 92 -3 92 -5 0 -26 -19 -46 -42z"/>
<path d="M10630 9725 c0 -18 19 -40 26 -32 4 4 0 15 -9 24 -9 10 -17 13 -17 8z"/>
<path d="M8380 11061 l-25 -7 32 -11 c17 -6 48 -27 70 -46 21 -19 55 -42 75
-52 21 -9 51 -35 67 -57 l29 -39 22 67 23 68 -33 28 c-60 50 -178 72 -260 49z"/>
<path d="M24550 11062 l-35 -7 56 -18 c32 -10 75 -34 100 -55 24 -21 61 -48
81 -61 114 -69 188 -259 205 -527 l6 -102 -153 -171 c-84 -94 -154 -171 -156
-171 -3 0 -22 12 -44 26 l-40 27 -18 -24 -19 -23 -37 22 -37 22 3 -42 c3 -42
3 -42 108 -105 58 -35 110 -63 115 -62 9 0 259 281 292 328 7 9 29 100 49 201
40 205 40 255 3 377 -69 226 -204 358 -375 368 -38 2 -85 1 -104 -3z"/>
<path d="M20045 11052 c-16 -7 -11 -10 24 -16 48 -7 111 -36 131 -61 7 -9 35
-25 61 -37 61 -25 113 -82 150 -163 44 -93 59 -192 59 -388 0 -508 -84 -828
-244 -935 -116 -77 -429 -132 -757 -132 -59 0 -110 -4 -113 -8 -2 -4 -8 -122
-12 -262 -7 -281 -1 -341 42 -427 31 -60 45 -66 133 -53 63 9 93 20 54 20 -30
0 -66 41 -88 102 -18 48 -20 75 -18 272 1 120 3 220 5 221 2 2 80 8 173 14
401 27 590 84 712 214 134 144 200 377 224 791 22 379 -20 594 -145 732 -25
28 -73 65 -108 84 -57 31 -71 34 -163 37 -55 1 -109 -1 -120 -5z"/>
<path d="M10342 11040 c-51 -4 -96 -11 -99 -14 -4 -3 59 -6 138 -6 79 -1 175
-7 214 -14 62 -12 71 -12 82 3 7 9 13 19 13 24 0 4 -42 7 -92 7 -51 0 -109 2
-128 4 -19 2 -77 0 -128 -4z"/>
<path d="M7045 11016 c-114 -29 -274 -137 -361 -244 -55 -66 -107 -172 -128
-257 -8 -33 -38 -249 -66 -480 -28 -231 -59 -481 -69 -556 l-17 -137 -56 -68
c-70 -85 -289 -319 -343 -366 -65 -57 -83 -63 -113 -41 -37 28 -43 64 -32 186
18 184 54 376 149 787 95 413 130 621 138 835 6 171 -2 217 -48 269 -42 48
-104 70 -177 63 -67 -6 -149 -40 -332 -138 -74 -40 -180 -91 -235 -113 l-100
-42 -9 -73 -9 -74 42 -34 c48 -40 71 -80 71 -120 0 -15 -45 -253 -99 -528
-163 -818 -191 -986 -211 -1267 -18 -235 7 -410 70 -499 54 -75 177 -92 288
-39 127 60 162 92 562 525 216 234 395 423 397 422 2 -2 -1 -26 -6 -53 -18
-95 -42 -370 -43 -485 -1 -130 11 -196 53 -285 67 -143 181 -188 316 -124 36
17 106 83 273 253 124 126 228 234 231 240 4 7 9 37 13 68 l6 55 -44 21 c-63
31 -111 77 -131 126 -25 58 -30 228 -16 474 23 383 61 643 116 771 47 111 120
349 146 475 43 210 25 393 -44 436 -42 26 -120 33 -182 17z"/>
<path d="M21723 11023 c9 -2 25 -2 35 0 9 3 1 5 -18 5 -19 0 -27 -2 -17 -5z"/>
<path d="M19480 11001 c-43 -6 -41 -7 34 -14 99 -9 235 -8 260 2 18 7 18 8 -5
14 -29 8 -226 6 -289 -2z"/>
<path d="M24198 11003 c12 -2 32 -2 45 0 12 2 2 4 -23 4 -25 0 -35 -2 -22 -4z"/>
<path d="M26665 11001 c-16 -8 -11 -10 24 -10 68 -1 159 -31 190 -61 14 -15
48 -37 74 -48 72 -32 87 -71 87 -241 0 -185 -23 -374 -82 -656 -187 -905 -211
-1043 -212 -1215 -1 -139 10 -164 79 -181 36 -9 44 -16 47 -37 2 -22 11 -29
52 -41 l48 -15 -6 -44 c-3 -25 -6 -52 -6 -62 0 -17 -247 -234 -353 -309 -34
-24 -96 -60 -137 -80 -68 -32 -83 -36 -155 -35 -101 1 -223 17 -255 34 -14 7
-41 24 -60 38 l-34 26 23 -39 c57 -95 136 -156 234 -181 80 -21 153 -13 254
26 105 40 197 103 391 264 90 74 170 139 178 144 9 5 23 54 39 142 14 73 25
138 25 145 0 6 -36 19 -82 29 -144 31 -168 54 -168 156 0 138 42 377 213 1200
69 332 81 427 81 655 1 200 1 200 -27 253 -32 61 -88 105 -161 128 -59 18
-271 29 -301 15z"/>
<path d="M19957 10989 c-27 -4 -81 -17 -120 -29 -64 -20 -98 -22 -292 -24
-245 -2 -280 -9 -415 -83 -86 -48 -222 -184 -295 -296 -205 -315 -357 -843
-416 -1442 -8 -71 -13 -242 -13 -380 -1 -247 0 -251 27 -332 31 -93 106 -211
168 -268 179 -161 513 -142 878 51 182 96 332 201 478 334 l60 55 12 85 c6 47
14 98 17 114 6 28 5 27 -55 -23 -187 -155 -358 -230 -524 -231 -114 0 -175 38
-229 145 -51 99 -60 186 -48 435 5 118 10 232 10 253 l0 37 113 0 c302 0 599
45 727 110 47 24 112 96 143 157 81 159 127 446 127 783 -1 294 -56 457 -177
522 -57 30 -110 38 -176 27z m-240 -274 c44 -51 56 -124 50 -300 -16 -450
-137 -702 -398 -828 -52 -25 -107 -48 -122 -52 l-29 -6 7 68 c39 390 129 778
225 970 80 159 200 226 267 148z"/>
<path d="M19668 10613 c-79 -84 -159 -313 -229 -652 -18 -89 -49 -278 -49
-301 0 -17 38 7 91 57 45 42 48 47 64 136 41 228 94 428 146 551 29 69 37 135
23 205 -8 38 -13 38 -46 4z"/>
<path d="M22358 10988 c-61 -16 -123 -79 -168 -171 -71 -146 -84 -211 -161
-834 l-72 -578 -112 -130 c-146 -168 -367 -383 -427 -415 -38 -19 -52 -22 -74
-15 -92 33 -97 163 -23 615 98 597 170 893 264 1080 38 76 109 146 185 185 58
29 224 75 273 75 l30 0 -6 68 c-4 37 -7 78 -7 91 l0 24 -202 -6 c-314 -8 -504
-53 -688 -161 -192 -112 -303 -266 -376 -519 -96 -332 -292 -1168 -315 -1341
-17 -131 -7 -379 20 -486 28 -110 98 -257 150 -313 50 -54 136 -95 218 -103
48 -5 69 -2 107 15 176 77 422 339 850 904 49 64 90 116 92 114 2 -1 -4 -57
-12 -122 -21 -175 -30 -526 -15 -621 34 -211 99 -294 228 -294 118 0 187 52
471 355 98 104 104 113 109 161 l5 51 -56 31 c-107 61 -136 140 -136 377 0
505 63 967 186 1357 31 96 29 160 -6 268 -55 167 -138 297 -214 331 -45 21
-63 22 -118 7z"/>
<path d="M24355 10979 c-38 -10 -124 -23 -190 -29 -180 -14 -279 -50 -397
-144 -347 -277 -604 -1086 -649 -2048 -15 -322 -3 -408 77 -535 120 -189 315
-243 572 -158 146 49 239 106 467 286 94 74 197 155 230 181 l61 46 12 112 c7
62 16 133 19 158 l6 46 -74 -60 c-41 -33 -119 -93 -174 -133 -192 -140 -270
-162 -344 -96 -21 19 -49 59 -62 88 -22 47 -24 66 -24 192 1 77 6 174 13 215
69 402 231 1060 312 1266 57 144 99 184 144 135 39 -43 77 -193 92 -359 6 -80
8 -85 38 -103 17 -10 34 -18 38 -16 3 1 70 74 147 162 160 182 153 163 130
350 -29 235 -102 390 -211 446 -48 25 -139 24 -233 -2z"/>
<path d="M22035 10704 c-77 -20 -186 -79 -233 -126 -109 -108 -192 -381 -306
-1008 -52 -284 -63 -365 -72 -531 -8 -140 -7 -141 77 -52 46 48 46 49 58 148
37 293 141 844 197 1038 80 274 124 339 275 395 21 8 29 23 43 77 10 36 17 67
15 69 -2 2 -26 -3 -54 -10z"/>
<path d="M7720 10465 c0 -42 2 -46 36 -60 46 -19 44 -20 44 14 0 28 -49 91
-71 91 -5 0 -9 -20 -9 -45z"/>
<path d="M5236 10493 c-3 -4 -6 -20 -6 -38 0 -26 6 -34 35 -48 34 -16 35 -16
35 4 0 42 -45 100 -64 82z"/>
<path d="M24322 10204 c-92 -288 -214 -790 -274 -1129 -34 -198 -29 -390 14
-448 12 -16 16 -15 65 7 l52 24 -16 49 c-37 119 15 444 169 1058 39 154 70
298 70 320 -2 58 -24 218 -32 234 -4 8 -23 -37 -48 -115z"/>
<path d="M1111 9476 c-41 -11 -76 -27 -78 -33 -3 -7 1 -29 7 -49 13 -37 15
-38 83 -18 12 4 17 0 17 -13 0 -16 79 112 80 130 0 11 -28 7 -109 -17z"/>
<path d="M25913 9353 c-98 -205 -313 -723 -497 -1199 -31 -79 -57 -131 -76
-149 -48 -46 -120 -46 -342 0 -67 14 -157 53 -190 83 -26 22 -22 2 10 -49 75
-118 251 -195 432 -187 76 3 93 7 136 33 26 17 61 48 76 70 15 22 97 218 182
435 84 217 181 460 214 540 43 107 65 175 81 260 29 157 51 303 47 307 -1 2
-35 -63 -73 -144z"/>
<path d="M14850 9427 c0 -17 45 -86 69 -105 72 -56 113 -61 494 -51 483 12
752 -7 986 -67 174 -46 276 -97 384 -194 65 -58 65 -57 6 31 -122 181 -376
307 -709 350 -63 8 -271 13 -615 14 -341 1 -530 5 -550 12 -16 6 -38 14 -47
18 -12 5 -18 2 -18 -8z"/>
<path d="M1151 9324 c0 -11 3 -14 6 -6 3 7 2 16 -1 19 -3 4 -6 -2 -5 -13z"/>
<path d="M20240 9001 l-136 -149 -12 -87 c-7 -48 -11 -89 -9 -91 2 -2 31 21
65 52 70 63 68 67 47 -81 -8 -55 -15 -105 -15 -112 0 -29 -184 -182 -345 -288
-341 -224 -626 -310 -908 -275 -207 25 -280 55 -381 155 l-60 60 24 -43 c70
-119 168 -210 281 -261 85 -38 151 -51 262 -51 346 0 761 193 1132 526 l100
90 47 335 c26 184 47 342 45 352 -1 12 -46 -31 -137 -132z"/>
<path d="M21770 8655 c-187 -237 -426 -494 -530 -572 -127 -95 -167 -104 -357
-79 -119 16 -191 46 -251 103 -48 46 -51 45 -20 -6 84 -140 202 -219 358 -241
147 -21 284 43 478 224 61 57 258 278 341 383 l42 52 -3 102 -3 103 -55 -69z"/>
<path d="M16038 8659 c-43 -21 -78 -42 -78 -46 0 -3 11 -26 25 -50 25 -42 26
-43 54 -29 l27 15 34 -62 c86 -159 180 -268 245 -286 89 -25 284 -25 244 0 -8
5 -25 9 -38 9 -13 0 -52 14 -86 30 -105 50 -207 180 -305 388 -19 39 -37 72
-40 72 -3 -1 -40 -19 -82 -41z"/>
<path d="M12936 6505 c-179 -46 -306 -181 -346 -370 -17 -76 -17 -232 0 -310
27 -131 117 -263 217 -317 90 -49 156 -63 298 -62 190 1 275 34 387 151 83 86
121 210 120 393 0 107 -3 137 -26 207 -47 146 -141 244 -281 294 -79 28 -282
36 -369 14z m252 -254 c79 -40 104 -93 110 -231 7 -164 -19 -250 -91 -304 -24
-17 -43 -21 -111 -21 -74 0 -86 3 -118 27 -57 44 -81 104 -86 222 -7 169 28
269 109 309 47 23 140 22 187 -2z"/>
<path d="M11450 5985 l0 -525 155 0 155 0 0 210 0 210 168 -2 167 -3 0 -208 0
-207 158 0 157 0 0 525 0 525 -137 0 c-76 0 -147 -3 -158 -6 -19 -5 -20 -12
-17 -184 l3 -180 -170 0 -171 0 -2 183 -3 182 -152 3 -153 3 0 -526z"/>
<path d="M13674 6497 c-2 -7 -3 -67 -2 -133 l3 -119 158 -3 157 -3 0 -389 0
-390 155 0 155 0 0 390 0 389 158 3 157 3 0 130 0 130 -468 3 c-379 2 -469 0
-473 -11z"/>
<path d="M14756 6502 c-2 -4 -5 -241 -4 -525 l0 -517 423 0 424 0 3 104 c2 57
2 111 0 120 -3 14 -32 16 -268 16 l-264 0 0 100 0 100 240 0 240 0 0 110 0
110 -240 0 -240 0 0 80 0 80 260 0 261 0 -3 113 -3 112 -412 3 c-226 1 -414
-1 -417 -6z"/>
<path d="M15770 5985 l0 -525 398 2 397 3 3 104 c2 57 1 115 -3 128 l-5 23
-240 0 -240 0 -2 393 -3 392 -152 3 -153 3 0 -526z"/>
<path d="M13391 5070 c-148 -32 -230 -172 -172 -294 31 -64 88 -101 206 -137
137 -42 154 -49 170 -73 21 -30 18 -53 -10 -81 -19 -20 -34 -25 -74 -25 -62 0
-107 33 -117 87 l-7 36 -81 -7 c-44 -3 -93 -6 -108 -6 -26 0 -27 -2 -21 -32
19 -107 85 -186 174 -212 61 -19 225 -21 283 -5 178 49 251 258 135 384 -44
48 -97 72 -237 109 -104 28 -122 38 -122 71 0 41 52 61 114 44 31 -8 41 -18
55 -49 l16 -39 100 6 c55 3 102 7 104 9 2 2 -2 25 -8 51 -28 110 -110 162
-264 168 -50 2 -112 0 -136 -5z"/>
<path d="M14152 5065 c-168 -47 -251 -187 -240 -401 6 -101 23 -156 68 -223
72 -103 150 -135 315 -129 89 3 118 8 152 26 56 29 100 76 128 137 40 85 41
84 -55 116 -46 16 -89 29 -95 29 -6 0 -20 -22 -32 -49 -24 -57 -57 -82 -116
-88 -31 -3 -51 1 -75 17 -49 30 -65 78 -66 190 0 110 18 160 68 191 65 39 159
14 186 -51 10 -25 17 -30 34 -26 12 3 55 13 96 22 41 9 77 18 78 19 2 2 -6 25
-18 52 -27 62 -93 130 -150 155 -61 27 -206 34 -278 13z"/>
<path d="M15770 5064 c-158 -42 -250 -178 -250 -368 0 -176 68 -301 195 -357
62 -29 230 -38 303 -19 69 19 146 74 180 128 49 76 65 148 60 271 -3 90 -8
115 -32 169 -31 66 -80 119 -143 150 -83 42 -212 53 -313 26z m189 -182 c56
-28 76 -79 76 -192 -1 -81 -4 -101 -24 -137 -58 -101 -192 -95 -245 12 -26 51
-27 192 -3 249 34 79 119 108 196 68z"/>
<path d="M16624 5070 c-101 -21 -196 -96 -235 -186 -54 -121 -47 -295 15 -409
62 -113 163 -165 323 -165 183 0 294 71 348 225 28 78 25 251 -5 330 -29 77
-113 162 -185 188 -57 21 -200 30 -261 17z m191 -200 c42 -40 58 -98 53 -198
-5 -103 -25 -147 -78 -175 -44 -23 -107 -18 -148 12 -48 33 -65 93 -60 203 4
103 19 136 73 170 42 27 125 20 160 -12z"/>
<path d="M10210 4695 l0 -375 113 0 112 0 -3 87 -3 88 60 65 59 65 73 -152 73
-153 139 0 138 0 -32 58 c-18 31 -79 135 -136 231 l-102 175 92 99 c51 54 109
119 130 143 l39 44 -150 0 -150 0 -28 -37 c-30 -40 -168 -208 -191 -233 -13
-13 -14 -13 -13 5 1 11 2 75 1 143 l-1 122 -110 0 -110 0 0 -375z"/>
<path d="M11050 4695 l0 -375 115 0 115 0 -2 373 -3 372 -112 3 -113 3 0 -376z"/>
<path d="M11380 4975 l0 -95 115 0 115 0 0 -280 0 -280 110 0 110 0 0 280 0
280 115 0 115 0 0 95 0 95 -340 0 -340 0 0 -95z"/>
<path d="M12157 5063 c-4 -3 -7 -172 -7 -375 l0 -368 305 0 305 0 0 85 0 85
-190 0 -190 0 0 70 0 70 170 0 170 0 0 80 0 80 -170 0 -170 0 0 55 0 55 185 0
185 0 0 85 0 85 -293 0 c-162 0 -297 -3 -300 -7z"/>
<path d="M14717 5064 c-4 -4 -7 -173 -7 -376 l0 -368 115 0 115 0 0 150 0 150
121 0 120 0 -3 -150 -3 -150 113 0 112 0 0 375 0 375 -110 0 -110 0 0 -130 0
-130 -120 0 -119 0 -3 128 -3 127 -106 3 c-58 1 -108 -1 -112 -4z"/>
<path d="M17217 5063 c-4 -3 -7 -172 -7 -375 l0 -368 288 0 287 0 -3 95 -3 95
-170 0 -169 0 0 280 0 280 -108 0 c-60 0 -112 -3 -115 -7z"/>
<path d="M18705 2092 c-190 -64 -307 -170 -443 -401 -124 -211 -193 -440 -222
-740 -23 -237 -8 -460 47 -720 40 -187 54 -213 29 -53 -30 190 -17 602 25 802
60 277 127 439 254 607 83 111 231 233 282 233 l23 0 1 -280 c1 -154 2 -287 2
-295 0 -47 6 -45 -173 -45 l-170 0 0 -65 0 -65 255 0 255 0 0 379 c0 209 3
386 6 395 3 8 12 12 19 10 24 -9 27 16 20 142 l-7 124 -62 0 c-40 0 -89 -10
-141 -28z"/>
<path d="M15757 2094 c-4 -4 -7 -234 -7 -511 l0 -503 454 0 c262 0 476 4 507
10 80 15 140 49 166 96 20 34 23 54 23 155 0 154 -17 190 -109 235 l-63 31 36
7 c43 8 99 54 116 95 8 19 11 72 8 154 -4 146 -13 166 -94 207 l-49 25 -490 3
c-270 2 -494 0 -498 -4z m888 -189 c22 -21 25 -33 25 -95 0 -62 -3 -74 -25
-96 l-24 -24 -313 2 -313 3 -3 104 c-1 58 0 111 2 118 4 10 68 13 316 13 l311
0 24 -25z m-12 -396 c34 -18 37 -28 37 -120 0 -131 22 -123 -353 -127 -245 -2
-312 0 -318 10 -10 15 -12 232 -2 241 12 13 612 8 636 -4z"/>
<path d="M7235 2075 c-55 -19 -91 -63 -104 -124 -15 -71 -15 -663 0 -733 16
-71 56 -111 127 -127 70 -15 802 -15 871 0 105 22 133 68 139 231 l4 116 -58
12 c-33 7 -87 18 -121 25 l-63 13 0 -109 0 -109 -335 0 -334 0 2 318 2 317
333 3 332 2 0 -96 c0 -86 2 -95 18 -90 9 3 53 10 97 16 141 19 128 5 123 123
-5 124 -24 169 -83 200 -39 21 -51 22 -475 24 -357 2 -442 0 -475 -12z"/>
<path d="M9407 1902 c-16 -3 -17 -39 -17 -413 l0 -409 80 0 80 0 0 297 0 297
33 -50 c17 -28 101 -139 186 -248 127 -162 159 -196 177 -194 15 2 69 64 174
198 84 107 166 215 182 239 l28 45 0 -292 0 -292 90 0 90 0 -2 411 -3 410 -74
2 -74 3 -46 -56 c-25 -31 -113 -142 -196 -248 -82 -105 -152 -191 -155 -192
-3 0 -95 110 -203 245 -109 135 -201 245 -205 245 -55 4 -132 4 -145 2z"/>
<path d="M20190 1902 c-7 -3 -10 -141 -10 -413 l0 -409 100 0 100 0 0 410 c0
321 -3 410 -12 411 -36 3 -169 4 -178 1z"/>
<path d="M8350 1544 c0 -406 1 -412 74 -445 37 -17 72 -19 406 -19 402 0 409
1 454 63 20 27 21 42 24 393 l3 364 -101 0 -100 0 0 -335 0 -335 -285 0 -285
0 0 335 0 335 -95 0 -95 0 0 -356z"/>
<path d="M10650 1485 l0 -416 393 3 392 3 49 25 c75 37 90 65 95 167 5 130
-23 188 -104 216 l-38 13 47 18 c71 27 86 58 86 176 0 116 -16 156 -75 185
-38 19 -63 20 -442 23 l-403 3 0 -416z m722 258 c14 -12 18 -31 18 -79 0 -98
12 -94 -291 -94 l-259 0 0 95 0 95 257 0 c225 0 259 -2 275 -17z m-4 -329 c19
-13 22 -24 22 -89 0 -109 10 -105 -297 -105 l-253 0 0 105 0 105 253 0 c212 0
256 -2 275 -16z"/>
<path d="M11722 1537 c3 -398 3 -393 65 -434 24 -16 64 -18 397 -21 430 -3
444 -1 477 72 17 38 19 71 19 394 l0 352 -95 0 -95 0 0 -335 0 -335 -285 0
-285 0 0 335 0 335 -100 0 -101 0 3 -363z"/>
<path d="M14045 1891 c-50 -13 -72 -29 -91 -68 -17 -35 -19 -64 -19 -338 0
-268 2 -303 18 -332 38 -70 23 -68 507 -68 484 0 469 -2 507 68 16 29 18 64
18 332 0 274 -2 303 -19 338 -36 72 -32 72 -486 74 -223 1 -418 -2 -435 -6z
m745 -401 l0 -260 -330 0 -330 0 0 260 0 260 330 0 330 0 0 -260z"/>
<path d="M16990 1490 l0 -410 95 0 95 0 0 155 0 155 94 0 95 0 171 -155 172
-155 141 0 c114 1 139 3 126 13 -8 7 -95 75 -193 152 l-178 140 105 5 c115 6
144 18 177 73 17 28 20 51 20 182 0 131 -3 154 -20 182 -42 70 -29 68 -487 71
l-413 3 0 -411z m708 254 c20 -14 22 -24 22 -99 0 -120 13 -115 -292 -115
l-248 0 0 115 0 115 248 0 c208 0 251 -2 270 -16z"/>
<path d="M19280 1891 c-124 -16 -150 -56 -150 -239 0 -148 16 -190 81 -217 39
-16 82 -19 352 -23 l307 -4 0 -89 0 -89 -300 0 -300 0 0 45 c0 25 -3 45 -7 45
-5 0 -46 -7 -92 -17 l-83 -16 6 -55 c9 -77 31 -117 74 -139 34 -16 69 -18 402
-18 333 0 368 2 402 18 61 31 73 69 73 232 0 123 -2 144 -21 175 -37 63 -44
65 -401 68 l-323 3 0 89 0 90 280 0 280 0 0 -45 c0 -25 3 -45 8 -45 15 1 163
38 168 42 9 10 -10 99 -28 128 -35 59 -61 64 -383 66 -159 1 -315 -1 -345 -5z"/>
<path d="M20480 1485 l0 -415 404 0 c222 0 411 3 420 6 13 5 16 22 16 80 l0
74 -325 0 -325 0 0 335 0 335 -95 0 -95 0 0 -415z"/>
<path d="M12985 1878 c-46 -16 -72 -45 -84 -93 -15 -58 -15 -556 0 -610 28
-101 57 -107 489 -103 372 3 382 5 413 70 8 18 18 72 22 120 8 100 10 98 -95
117 -36 7 -73 14 -82 17 -15 5 -18 -5 -20 -83 l-3 -88 -267 -3 -268 -2 0 265
0 265 268 -2 267 -3 3 -78 3 -78 27 5 c15 3 50 8 77 12 96 13 96 13 89 101 -7
93 -26 138 -68 161 -27 15 -73 17 -386 19 -232 1 -365 -2 -385 -9z"/>
<path d="M15190 1535 l0 -85 215 0 215 0 0 85 0 85 -215 0 -215 0 0 -85z"/>
</g>
</svg>
