<?xml version="1.0" standalone="no"?>
<!DOCTYPE svg PUBLIC "-//W3C//DTD SVG 20010904//EN"
 "http://www.w3.org/TR/2001/REC-SVG-20010904/DTD/svg10.dtd">
<svg version="1.0" xmlns="http://www.w3.org/2000/svg"
 width="2720.000000pt" height="1502.000000pt" viewBox="0 0 2720.000000 1502.000000"
 preserveAspectRatio="xMidYMid meet">
<metadata>
Created by potrace 1.13, written by Peter Selinger 2001-2015
</metadata>
<g transform="translate(0.000000,1502.000000) scale(0.100000,-0.100000)"
fill="#000000" stroke="none">
<path d="M13585 15009 c-889 -47 -1677 -162 -2470 -360 -2404 -601 -4344
-1891 -5293 -3520 -34 -58 -62 -108 -62 -111 0 -3 33 5 72 19 116 40 208 24
300 -53 26 -21 61 -48 79 -59 19 -11 44 -42 58 -70 24 -47 26 -59 25 -185 -1
-191 -33 -420 -100 -705 -109 -467 -167 -763 -179 -911 l-6 -79 71 74 c39 41
73 84 75 95 2 12 14 73 25 136 12 63 50 243 86 400 116 506 153 730 160 965
l5 150 71 120 c382 645 941 1252 1619 1761 105 79 127 94 311 222 352 244 852
521 1313 729 1807 814 4029 1126 6115 857 469 -61 861 -134 1298 -243 1497
-375 2772 -1023 3737 -1901 323 -294 620 -634 854 -980 104 -153 195 -300 189
-305 -2 -2 -39 -7 -83 -13 l-80 -9 106 -2 c58 0 134 -4 168 -7 l61 -7 0 -37
c0 -41 11 -50 61 -50 21 0 38 9 54 28 13 15 47 41 75 56 45 25 60 28 119 24
60 -3 73 -8 127 -46 32 -24 77 -56 100 -71 115 -81 251 -411 217 -529 -154
-540 -195 -812 -197 -1322 -1 -286 0 -297 21 -344 24 -51 80 -110 130 -137 27
-15 30 -21 32 -72 l1 -56 -73 -70 c-40 -39 -111 -113 -157 -166 -100 -113
-187 -185 -265 -221 -49 -23 -65 -25 -118 -20 -184 17 -208 23 -253 54 l-44
32 20 -41 c69 -135 229 -207 376 -170 25 7 48 10 51 8 7 -7 -106 -344 -162
-481 -621 -1537 -2136 -2848 -4165 -3604 -903 -336 -1883 -557 -2890 -652
-436 -41 -545 -45 -1140 -45 -610 1 -736 6 -1218 55 -1141 117 -2283 417
-3257 857 -1784 806 -3013 2035 -3483 3483 -66 204 -132 476 -148 612 l-7 56
164 177 c90 96 166 181 170 188 3 7 9 57 13 112 7 98 6 100 -12 80 -11 -11
-139 -149 -286 -307 -146 -158 -286 -301 -311 -318 -25 -17 -79 -47 -120 -67
-81 -38 -100 -39 -275 -14 -74 10 -94 17 -133 43 -39 28 -35 4 11 -57 21 -27
62 -65 92 -83 l55 -32 23 -93 c86 -344 198 -640 373 -987 879 -1744 2887
-3144 5419 -3780 2453 -616 5182 -473 7465 390 1845 698 3294 1830 4057 3170
263 461 460 990 544 1458 10 56 21 102 24 102 4 0 17 -19 30 -42 36 -65 142
-163 213 -197 68 -34 177 -61 248 -61 64 0 202 25 274 50 82 28 226 103 305
157 74 52 470 362 470 369 0 23 46 398 66 537 14 98 24 180 22 183 -3 2 -50
-42 -105 -99 l-100 -102 -7 -69 c-4 -38 -5 -71 -2 -73 3 -3 28 16 56 43 27 26
52 45 54 43 2 -2 -7 -82 -18 -177 l-21 -173 -155 -120 c-336 -259 -366 -280
-485 -340 -199 -99 -298 -114 -540 -80 -202 29 -354 170 -413 384 -14 50 -16
99 -15 262 3 300 27 558 79 852 l25 143 -31 137 c-38 172 -60 252 -117 427
-37 115 -44 145 -36 170 22 70 -16 251 -85 406 -54 124 -143 230 -227 273 -22
11 -50 47 -94 124 -734 1251 -2100 2332 -3816 3020 -1218 489 -2512 760 -3964
833 -232 11 -991 11 -1216 -1z"/>
<path d="M1967 13019 l-29 -11 74 -40 c40 -22 113 -69 161 -104 l88 -65 75 7
c41 4 74 11 74 15 0 17 -136 110 -227 156 -98 49 -164 62 -216 42z"/>
<path d="M17370 12969 c-154 -14 -146 -15 72 -11 297 7 431 -20 568 -111 36
-24 81 -54 101 -65 48 -29 132 -119 158 -170 54 -107 67 -278 31 -412 -72
-264 -317 -609 -734 -1038 -194 -199 -624 -594 -843 -776 -34 -28 -61 -52 -60
-53 1 -1 67 -7 147 -13 249 -20 447 -64 619 -138 127 -54 365 -216 440 -299
119 -132 180 -287 188 -479 7 -155 -9 -232 -81 -379 -133 -275 -355 -554 -780
-977 -393 -392 -685 -617 -919 -709 -72 -28 -94 -32 -177 -33 -172 0 -280 25
-337 77 -30 27 -29 16 3 -36 97 -157 246 -209 447 -157 289 73 640 332 1132
832 468 475 715 815 807 1108 20 65 23 95 23 230 -1 170 -16 245 -74 374 -144
317 -482 521 -979 590 -62 9 -134 16 -160 17 -96 1 -95 5 40 123 469 414 833
780 1053 1061 173 221 309 460 357 629 32 114 32 299 1 401 -63 200 -212 335
-439 396 -67 19 -111 22 -294 25 -118 1 -258 -2 -310 -7z"/>
<path d="M1843 12923 c-9 -21 -18 -77 -21 -125 l-4 -87 -52 -6 c-88 -10 -542
-25 -751 -25 -285 0 -335 17 -424 148 -20 28 -28 32 -67 32 -34 0 -46 -4 -51
-17 -3 -10 -61 -153 -128 -318 -183 -446 -211 -546 -203 -713 7 -148 54 -236
160 -299 153 -91 347 -92 1006 -2 206 28 376 48 379 45 6 -6 -21 -225 -83
-686 -94 -694 -197 -1107 -353 -1418 -49 -97 -51 -105 -41 -142 12 -46 33 -55
110 -48 79 8 173 61 266 150 163 157 271 356 338 626 31 126 38 168 147 939
l92 651 136 26 c527 99 1129 154 1388 126 390 -41 618 -264 679 -663 19 -122
14 -395 -11 -552 -72 -462 -274 -862 -603 -1194 -416 -420 -935 -601 -1610
-561 -285 16 -460 46 -646 109 -257 88 -432 243 -492 434 -10 32 -23 56 -28
54 -6 -2 -34 -10 -62 -17 l-50 -13 -47 -251 c-26 -138 -52 -285 -58 -326 -15
-108 -14 -276 1 -340 61 -260 312 -415 725 -451 151 -13 448 -1 655 26 986
131 1736 657 2237 1570 298 541 456 1160 494 1932 29 598 -61 958 -289 1146
-160 133 -458 197 -915 197 -269 0 -478 -18 -1164 -100 l-262 -31 -54 44
c-118 96 -244 167 -297 167 -26 0 -34 -6 -47 -37z"/>
<path d="M3555 12939 c-242 -13 -234 -14 85 -15 477 0 745 -50 924 -169 36
-24 84 -54 106 -65 53 -27 148 -121 192 -190 118 -183 168 -422 168 -800 0
-960 -228 -1778 -681 -2446 -130 -190 -246 -332 -393 -480 -223 -223 -427
-371 -701 -510 -415 -209 -837 -308 -1375 -320 -216 -6 -264 -4 -405 15 -316
43 -492 111 -624 242 l-44 44 24 -45 c35 -65 154 -181 235 -229 93 -55 233
-104 376 -133 100 -20 142 -23 363 -22 336 0 563 26 860 98 900 219 1598 806
2045 1721 267 546 397 1103 432 1844 22 469 -19 748 -145 996 -42 83 -66 115
-142 191 -77 78 -105 98 -185 137 -162 78 -361 119 -667 137 -186 11 -217 11
-448 -1z"/>
<path d="M26314 12941 c3 -4 24 -11 47 -14 26 -3 55 -17 78 -36 20 -17 59 -42
87 -56 33 -16 62 -40 80 -67 28 -40 29 -45 28 -162 -2 -269 -88 -580 -268
-969 -90 -195 -261 -475 -387 -632 l-56 -70 -102 -425 c-113 -476 -163 -698
-159 -711 2 -5 49 75 105 179 l102 187 85 353 85 353 59 77 c262 341 497 819
597 1212 39 154 56 266 62 412 l6 138 -32 65 c-61 123 -156 175 -322 175 -55
0 -98 -4 -95 -9z"/>
<path d="M510 12910 c0 -5 21 -10 48 -10 45 -1 48 -3 74 -45 22 -37 33 -45 56
-45 22 0 35 -8 53 -35 17 -25 34 -37 59 -41 44 -9 811 5 905 16 72 8 37 8
-455 -6 -327 -9 -364 2 -427 122 l-28 54 -142 0 c-89 0 -143 -4 -143 -10z"/>
<path d="M17355 12910 c-508 -32 -993 -154 -1546 -390 -166 -72 -512 -239
-678 -328 -63 -34 -115 -61 -116 -59 -1 1 -22 45 -47 97 -73 153 -151 242
-225 256 -84 16 -120 -103 -130 -426 l-6 -185 -147 -145 c-161 -159 -237 -249
-336 -397 -209 -312 -291 -616 -324 -1203 -16 -292 -13 -1531 4 -1661 15 -111
45 -213 77 -265 34 -56 104 -112 160 -128 104 -31 162 -17 195 47 30 57 35 90
44 287 13 266 58 615 156 1195 56 332 232 1174 257 1230 51 115 229 251 517
394 407 202 958 392 1335 460 352 63 565 49 654 -43 61 -63 53 -173 -19 -285
-110 -170 -428 -433 -801 -664 -309 -191 -568 -300 -847 -357 -251 -51 -374
-130 -534 -345 -160 -214 -216 -450 -120 -513 24 -16 68 -17 537 -17 534 0
577 -3 810 -51 329 -68 556 -222 660 -449 46 -100 65 -183 72 -315 5 -101 3
-123 -17 -179 -12 -35 -34 -83 -50 -106 -47 -69 -145 -151 -226 -192 -72 -35
-83 -38 -168 -37 -166 1 -267 45 -384 169 -62 66 -169 220 -184 267 -2 5 -29
-3 -60 -18 l-56 -27 -7 -61 c-4 -34 -18 -115 -31 -181 -84 -408 -99 -508 -89
-600 12 -110 48 -203 99 -258 75 -80 237 -77 408 9 251 125 494 319 869 694
479 478 732 818 821 1100 31 99 31 275 -1 393 -90 341 -394 556 -891 632 -146
22 -423 30 -539 16 -51 -7 -95 -10 -96 -9 -2 2 92 85 208 184 617 529 1033
942 1275 1263 229 303 326 520 324 721 -1 205 -83 340 -255 421 -121 56 -292
75 -552 59z"/>
<path d="M26165 12879 c-237 -34 -413 -157 -515 -360 -52 -103 -189 -525 -279
-863 -239 -893 -548 -2616 -596 -3328 -6 -84 -4 -102 13 -142 38 -84 189 -152
319 -144 58 4 69 8 93 35 16 18 55 102 95 204 296 761 384 969 511 1219 84
166 152 269 200 304 24 18 25 18 39 0 30 -40 11 -232 -65 -654 -116 -643 -117
-830 -7 -1003 104 -162 256 -162 484 0 91 64 337 273 344 292 4 9 10 34 13 57
l7 41 -61 22 c-73 27 -127 71 -151 126 -48 104 -13 369 151 1140 43 204 88
433 100 510 23 158 37 406 26 479 -14 93 -78 128 -241 130 -81 1 -96 -2 -156
-30 -79 -38 -185 -134 -267 -243 -75 -99 -165 -253 -352 -601 -243 -450 -383
-685 -403 -673 -26 16 14 324 84 648 29 131 193 821 218 911 6 22 36 71 67
110 219 272 454 726 565 1090 73 243 111 562 75 632 -47 90 -136 116 -311 91z"/>
<path d="M14791 12549 l-34 -10 44 -25 c24 -14 53 -33 64 -43 11 -10 41 -30
66 -44 52 -29 97 -77 141 -148 l29 -49 50 25 c27 14 49 28 49 31 0 15 -80 124
-121 166 -83 83 -202 123 -288 97z"/>
<path d="M3360 11709 c-189 -12 -584 -63 -811 -105 -254 -46 -238 -40 -244
-78 -3 -17 -34 -233 -70 -481 -149 -1042 -145 -1021 -197 -1184 -101 -319
-302 -567 -522 -643 -52 -18 -137 -24 -150 -11 -4 4 -35 6 -69 5 -53 -3 -67 0
-91 19 l-30 23 29 -52 c16 -29 61 -83 100 -120 61 -59 83 -72 165 -104 254
-96 675 -147 1015 -122 l120 8 -225 7 c-242 7 -396 25 -556 63 -167 41 -352
119 -323 137 8 5 21 9 29 9 9 0 48 16 88 35 280 134 503 474 592 905 12 58 64
404 116 770 52 365 96 665 97 666 7 7 520 87 672 105 253 29 700 37 805 15 95
-20 199 -70 274 -131 l59 -49 -19 35 c-10 18 -53 68 -94 110 -59 60 -93 85
-160 117 -47 23 -105 46 -130 51 -52 12 -276 12 -470 0z"/>
<path d="M16890 11649 c-627 -65 -1668 -469 -1958 -760 -95 -95 -93 -89 -203
-625 -132 -642 -150 -743 -194 -1064 -9 -63 -27 -185 -40 -270 -43 -272 -56
-391 -65 -576 -11 -220 -20 -263 -71 -316 l-38 -41 -103 8 c-174 12 -239 32
-315 98 l-37 32 25 -44 c66 -121 183 -202 315 -221 117 -16 192 6 252 75 68
77 87 154 97 385 4 85 13 216 21 290 16 142 110 774 145 970 42 236 213 1066
230 1118 15 46 105 132 213 204 256 170 917 437 1330 537 240 59 346 74 534
75 l172 1 -6 30 c-20 98 -81 117 -304 94z"/>
<path d="M210 11500 c29 -57 112 -137 177 -173 129 -70 328 -90 623 -63 150
13 599 72 606 79 1 1 6 31 10 66 l7 63 -29 -6 c-107 -21 -464 -67 -589 -76
-210 -14 -322 -12 -460 5 -172 22 -258 53 -331 117 l-37 32 23 -44z"/>
<path d="M9295 11383 c-60 -13 -112 -27 -116 -31 -10 -11 -39 -105 -34 -110 2
-3 28 0 57 6 29 5 54 9 56 7 2 -2 -15 -64 -37 -138 -119 -393 -140 -566 -85
-689 18 -40 27 -44 70 -28 35 14 38 9 23 -34 -16 -45 -6 -58 55 -66 l44 -5
-63 -173 c-71 -192 -128 -290 -196 -338 -37 -25 -51 -29 -108 -28 -100 1 -212
14 -250 30 -19 8 -35 13 -37 11 -1 -1 -60 -326 -129 -722 -116 -657 -130 -725
-158 -778 -36 -68 -95 -122 -220 -201 -152 -95 -221 -109 -455 -94 -61 4 -79
10 -117 37 -25 18 -45 29 -45 24 0 -18 43 -77 88 -120 67 -66 120 -87 212 -85
247 5 562 188 657 382 32 66 47 140 235 1235 17 99 31 181 32 182 1 2 26 -7
55 -18 74 -28 184 -28 247 0 60 27 128 82 160 131 14 21 40 94 59 166 41 158
92 304 151 435 24 55 44 101 44 104 0 3 -44 -11 -97 -30 -54 -19 -101 -35
-105 -35 -15 0 -58 107 -58 146 0 120 39 292 146 636 35 115 64 210 64 213 0
8 -29 4 -145 -22z"/>
<path d="M8944 11267 l-141 -30 -118 -361 -118 -361 -14 60 c-71 294 -82 335
-104 365 -49 66 -123 77 -234 35 -77 -29 -159 -76 -352 -201 l-143 -94 0 -52
c0 -52 1 -54 48 -88 73 -54 85 -89 90 -256 7 -239 -21 -626 -69 -942 -33 -222
-114 -618 -184 -899 -74 -295 -74 -287 0 -351 47 -42 74 -47 163 -33 187 29
410 168 475 298 22 42 52 202 187 978 88 511 163 931 165 934 3 2 5 -39 5 -91
0 -119 13 -188 48 -258 31 -64 74 -96 139 -106 67 -10 120 10 173 65 56 58 86
118 155 307 l53 149 -33 6 c-66 11 -121 67 -156 159 -25 66 -25 197 0 328 17
88 98 387 122 449 10 28 22 29 -157 -10z"/>
<path d="M10950 11143 c-8 -2 -22 -7 -30 -9 -8 -3 8 -13 38 -23 29 -10 69 -31
90 -48 20 -16 58 -41 84 -56 62 -36 113 -97 154 -182 38 -81 81 -224 90 -301
6 -48 9 -54 30 -54 34 0 63 -33 70 -79 l6 -40 34 16 c28 14 35 14 50 2 15 -12
16 -31 11 -159 -8 -233 -51 -357 -158 -462 l-58 -57 -16 -128 c-55 -449 -139
-788 -255 -1028 -140 -289 -373 -460 -732 -536 -140 -30 -387 -36 -558 -14
-223 29 -338 75 -443 177 l-59 57 28 -47 c145 -250 413 -358 826 -331 432 28
752 187 957 476 168 236 269 566 346 1131 l24 172 51 58 c90 100 148 252 171
451 21 172 -3 288 -68 335 -15 11 -49 22 -80 24 -29 2 -53 6 -53 7 0 25 -37
184 -57 243 -74 221 -191 359 -338 397 -58 15 -125 18 -155 8z"/>
<path d="M7155 11080 c-18 -8 -18 -9 5 -10 41 -1 106 -36 131 -69 12 -17 31
-31 41 -31 30 0 84 -56 97 -102 7 -23 13 -89 13 -147 0 -174 -51 -389 -152
-646 -51 -129 -62 -169 -79 -290 -35 -240 -53 -491 -55 -730 -1 -255 2 -273
61 -310 18 -11 32 -25 33 -30 0 -6 23 -24 50 -40 33 -19 49 -34 46 -45 -3 -8
-7 -38 -11 -65 -6 -49 -9 -53 -238 -286 -192 -195 -242 -241 -290 -264 -61
-29 -49 -29 -248 -11 -69 6 -124 28 -163 64 l-28 27 22 -43 c91 -182 296 -245
490 -151 56 27 97 64 305 274 132 134 246 244 253 246 8 3 19 54 30 147 l19
144 -92 43 c-65 31 -95 51 -103 70 -17 37 -15 342 3 569 21 257 51 458 82 541
125 339 182 558 190 726 12 236 -51 372 -191 414 -53 16 -188 19 -221 5z"/>
<path d="M10805 11062 c-17 -11 -51 -42 -77 -71 l-47 -52 -78 17 c-120 27
-401 25 -506 -4 -246 -67 -451 -266 -597 -576 -166 -351 -263 -809 -292 -1379
-17 -336 2 -496 79 -657 68 -143 199 -244 371 -287 94 -24 379 -23 517 1 359
63 617 243 763 531 114 227 192 539 252 1008 l20 158 55 54 c105 102 165 283
165 498 0 142 -13 146 -135 48 l-50 -41 -3 53 c-10 205 -65 438 -129 546 -38
66 -102 131 -148 152 -52 24 -122 24 -160 1z m-195 -259 c0 -10 -7 -92 -15
-183 -8 -91 -15 -275 -16 -410 -2 -227 -1 -250 19 -311 20 -60 70 -144 96
-161 12 -8 10 -45 -15 -273 -73 -660 -175 -989 -331 -1071 -76 -40 -222 -2
-303 80 -104 103 -145 234 -145 461 0 517 122 1154 290 1511 59 125 112 204
182 270 59 56 83 71 143 90 60 19 95 18 95 -3z"/>
<path d="M10495 10628 c-188 -220 -343 -696 -411 -1263 -22 -184 -36 -538 -24
-625 15 -119 66 -246 118 -293 25 -23 132 -28 156 -8 14 12 11 17 -28 41 -62
40 -114 146 -125 253 -14 151 7 507 45 767 52 352 167 740 273 920 34 58 39
75 45 158 4 56 3 92 -3 92 -5 0 -26 -19 -46 -42z"/>
<path d="M8380 11061 l-25 -7 32 -11 c17 -6 48 -27 70 -46 21 -19 55 -42 75
-52 21 -9 51 -35 67 -57 l29 -39 22 67 23 68 -33 28 c-60 50 -178 72 -260 49z"/>
<path d="M24550 11062 l-35 -7 56 -18 c32 -10 75 -34 100 -55 24 -21 61 -48
81 -61 114 -69 188 -259 205 -527 l6 -102 -153 -171 c-84 -94 -154 -171 -156
-171 -3 0 -22 12 -44 26 l-40 27 -18 -24 -19 -23 -37 22 -37 22 3 -42 c3 -42
3 -42 108 -105 58 -35 110 -63 115 -62 9 0 259 281 292 328 7 9 29 100 49 201
40 205 40 255 3 377 -69 226 -204 358 -375 368 -38 2 -85 1 -104 -3z"/>
<path d="M20045 11051 c-16 -6 -11 -9 24 -15 48 -7 111 -36 131 -61 7 -9 35
-25 61 -37 93 -39 166 -153 194 -302 28 -144 16 -537 -21 -751 -35 -197 -106
-358 -186 -418 -109 -84 -342 -132 -706 -145 l-187 -7 -8 -160 c-12 -249 -4
-428 22 -495 35 -90 42 -95 115 -93 35 2 74 7 87 11 22 8 21 9 -8 15 -39 8
-67 51 -89 138 -14 54 -16 94 -10 259 4 107 8 196 10 197 1 2 79 7 172 13 394
25 589 83 710 212 135 145 201 379 225 791 18 305 -3 482 -74 625 -44 90 -105
155 -184 194 -59 29 -77 33 -162 35 -53 2 -105 -1 -116 -6z"/>
<path d="M7054 11020 c-105 -22 -292 -148 -375 -252 -47 -59 -111 -189 -127
-258 -5 -25 -40 -295 -77 -600 -59 -488 -70 -559 -89 -587 -61 -89 -390 -434
-439 -460 -27 -14 -32 -13 -56 4 -34 26 -39 57 -29 183 13 173 44 338 173 905
73 322 106 536 112 727 6 166 6 167 -21 222 -23 47 -35 59 -82 82 -102 50
-184 29 -456 -117 -81 -44 -182 -93 -225 -109 -112 -44 -107 -38 -117 -120
l-9 -73 42 -34 c48 -40 71 -80 71 -120 0 -16 -29 -175 -65 -353 -181 -901
-225 -1159 -246 -1446 -21 -293 23 -488 124 -541 97 -51 224 -22 372 84 14 10
188 194 388 408 470 507 440 476 433 445 -16 -68 -47 -400 -48 -515 -1 -141
13 -219 58 -306 75 -149 217 -180 357 -79 24 17 137 128 252 246 l209 216 8
61 c6 43 5 63 -2 65 -6 2 -39 23 -73 46 -89 59 -109 102 -115 254 -5 133 11
443 34 642 26 230 51 359 88 446 117 278 189 608 167 769 -13 90 -31 129 -70
149 -37 19 -116 27 -167 16z"/>
<path d="M26665 11001 c-16 -8 -11 -10 24 -10 68 -1 159 -31 190 -61 14 -15
48 -37 74 -48 40 -18 51 -29 69 -69 20 -44 20 -59 15 -238 -7 -221 -23 -335
-102 -706 -149 -702 -188 -927 -189 -1094 -1 -145 9 -168 79 -186 36 -9 44
-16 47 -37 2 -22 11 -29 52 -41 l48 -15 -6 -44 c-3 -25 -6 -52 -6 -62 0 -17
-247 -234 -353 -309 -34 -24 -96 -60 -137 -80 -68 -32 -83 -36 -155 -35 -101
1 -223 17 -255 34 -14 7 -41 24 -60 38 l-34 26 23 -39 c57 -95 136 -156 234
-181 80 -21 153 -13 254 26 105 40 197 103 391 264 90 74 170 139 178 144 9 5
23 54 39 142 14 73 25 138 25 145 0 6 -36 19 -82 29 -144 31 -168 54 -168 156
0 36 11 142 25 235 22 154 52 307 188 965 69 332 81 427 81 655 1 200 1 200
-27 253 -32 61 -88 105 -161 128 -59 18 -271 29 -301 15z"/>
<path d="M19893 10976 c-51 -14 -98 -28 -104 -32 -6 -3 -98 -6 -204 -5 -229 2
-300 -10 -423 -70 -374 -186 -651 -836 -743 -1749 -18 -174 -18 -599 0 -670
33 -137 134 -289 234 -355 140 -91 362 -93 615 -3 225 79 497 250 704 440 45
42 46 45 57 128 7 47 14 98 17 114 6 28 5 27 -55 -23 -187 -155 -358 -230
-524 -231 -140 0 -211 64 -263 235 -20 67 -23 167 -10 456 l8 176 202 6 c408
14 616 63 715 171 124 136 191 442 191 873 0 232 -31 369 -105 466 -68 89
-165 111 -312 73z m-182 -252 c43 -39 54 -99 53 -284 -2 -471 -134 -738 -428
-870 -80 -36 -116 -44 -116 -28 0 29 31 279 45 363 69 408 168 692 275 788 28
25 61 48 73 50 34 7 79 -2 98 -19z"/>
<path d="M19668 10613 c-63 -68 -124 -219 -182 -452 -46 -182 -96 -448 -96
-507 0 -12 63 34 99 71 38 39 40 45 71 205 37 191 87 370 130 471 30 72 38
137 24 208 -8 38 -13 38 -46 4z"/>
<path d="M22354 10989 c-56 -16 -121 -84 -164 -172 -70 -142 -84 -216 -161
-832 -41 -333 -76 -578 -83 -590 -32 -49 -244 -281 -357 -390 -180 -173 -237
-197 -293 -122 -19 26 -21 41 -20 175 2 128 9 188 57 472 94 553 156 807 241
985 51 108 114 172 212 216 67 31 209 69 257 69 31 0 32 8 21 119 l-7 61 -153
0 c-397 0 -687 -90 -882 -274 -108 -102 -173 -217 -228 -408 -97 -337 -292
-1168 -315 -1343 -19 -144 -7 -389 25 -503 46 -165 123 -294 206 -347 47 -30
132 -55 184 -55 165 0 417 251 930 922 50 65 91 116 93 115 1 -2 -4 -55 -13
-118 -21 -164 -30 -529 -15 -625 34 -208 101 -295 226 -296 43 -1 70 7 122 32
69 34 131 91 352 325 99 105 104 112 108 161 l5 51 -56 32 c-71 40 -109 97
-126 188 -16 83 -7 494 15 730 25 262 80 547 152 783 29 97 34 125 29 176 -6
75 -34 162 -86 269 -79 163 -167 226 -276 194z"/>
<path d="M24355 10979 c-38 -10 -124 -23 -190 -29 -66 -5 -145 -17 -175 -26
-290 -86 -521 -408 -679 -946 -119 -408 -180 -812 -196 -1308 -8 -216 4 -300
57 -406 131 -265 407 -311 759 -127 92 48 104 56 401 290 l194 152 18 151 c10
83 16 153 14 155 -2 2 -30 -19 -63 -46 -98 -81 -286 -214 -344 -244 -118 -59
-207 -11 -252 136 -19 64 -21 86 -16 193 10 191 60 452 182 936 120 479 189
660 249 660 56 0 97 -108 125 -326 17 -134 18 -139 47 -156 16 -10 32 -17 36
-15 3 1 70 74 147 162 l140 160 1 55 c1 199 -64 429 -148 522 -73 80 -161 97
-307 57z"/>
<path d="M22009 10696 c-149 -52 -230 -117 -284 -231 -79 -167 -140 -406 -229
-895 -52 -284 -63 -365 -72 -531 -8 -140 -8 -141 77 -52 43 44 47 53 53 113
23 228 145 877 202 1071 80 277 124 341 275 397 20 8 29 23 42 71 19 67 21 81
10 80 -5 0 -38 -10 -74 -23z"/>
<path d="M24322 10204 c-92 -288 -214 -790 -274 -1129 -34 -198 -29 -390 14
-448 12 -16 16 -15 65 7 l52 24 -16 49 c-38 121 27 512 188 1133 30 114 50
215 50 244 -1 64 -21 217 -31 235 -4 8 -23 -35 -48 -115z"/>
<path d="M1111 9476 c-41 -11 -76 -27 -78 -33 -3 -7 1 -29 7 -49 13 -37 15
-38 81 -18 13 3 20 -5 28 -33 8 -30 10 -31 7 -8 -3 21 6 49 30 91 19 33 34 64
34 67 0 11 -30 6 -109 -17z"/>
<path d="M25913 9353 c-98 -205 -313 -723 -497 -1199 -31 -79 -57 -131 -76
-149 -48 -46 -120 -46 -342 0 -67 14 -157 53 -190 83 -26 22 -22 2 10 -49 75
-118 251 -195 432 -187 76 3 93 7 136 33 26 17 61 48 76 70 15 22 97 218 182
435 84 217 181 460 214 540 43 107 65 175 81 260 29 157 51 303 47 307 -1 2
-35 -63 -73 -144z"/>
<path d="M14850 9425 c0 -15 47 -85 69 -103 72 -57 114 -61 500 -51 769 20
1139 -51 1362 -261 33 -31 59 -54 59 -53 0 2 -18 33 -41 68 -121 192 -376 322
-719 366 -63 8 -271 13 -615 14 -446 1 -527 3 -567 17 -37 12 -48 13 -48 3z"/>
<path d="M20239 9001 l-134 -149 -12 -84 c-7 -46 -11 -87 -10 -91 1 -4 30 17
65 48 34 31 62 50 62 43 0 -8 -7 -65 -16 -128 -15 -113 -16 -116 -57 -158 -93
-97 -321 -261 -477 -344 -271 -144 -502 -197 -733 -168 -207 25 -282 56 -381
155 l-60 60 24 -43 c148 -254 383 -351 717 -297 311 50 702 265 995 546 l66
64 47 343 c26 189 45 345 43 347 -2 3 -65 -63 -139 -144z"/>
<path d="M21770 8655 c-188 -237 -426 -495 -530 -572 -130 -97 -164 -105 -357
-79 -119 16 -191 46 -251 103 -23 22 -42 37 -42 33 0 -4 22 -38 49 -76 97
-137 225 -206 386 -206 189 -1 388 153 718 555 l88 106 -3 103 -3 102 -55 -69z"/>
<path d="M16038 8659 c-43 -21 -78 -42 -78 -46 0 -3 11 -26 25 -50 25 -42 26
-43 54 -29 l27 15 34 -62 c86 -159 180 -268 245 -286 89 -25 284 -25 244 0 -8
5 -25 9 -39 9 -41 0 -126 46 -180 96 -65 60 -134 164 -196 293 -27 55 -51 100
-54 100 -3 0 -40 -18 -82 -40z"/>
<path d="M12931 6504 c-174 -47 -297 -178 -341 -364 -17 -69 -17 -236 0 -315
26 -127 111 -256 207 -311 143 -85 400 -97 552 -27 121 56 210 168 247 314 21
82 24 274 5 349 -47 191 -177 321 -359 359 -73 15 -246 13 -311 -5z m271 -263
c31 -20 53 -44 69 -77 22 -44 24 -62 24 -184 0 -117 -3 -141 -21 -181 -33 -70
-82 -103 -164 -107 -151 -9 -220 81 -220 288 0 200 63 289 206 290 50 0 68 -5
106 -29z"/>
<path d="M11450 5985 l0 -525 155 0 155 0 0 210 0 210 168 -2 167 -3 3 -207 2
-208 155 0 155 0 0 525 0 526 -156 -3 -156 -3 2 -182 1 -183 -171 0 -170 0 0
185 0 185 -155 0 -155 0 0 -525z"/>
<path d="M13674 6497 c-2 -7 -3 -67 -2 -133 l3 -119 158 -3 157 -3 0 -389 0
-390 155 0 155 0 0 390 0 390 160 0 161 0 -3 133 -3 132 -468 3 c-379 2 -469
0 -473 -11z"/>
<path d="M14757 6503 c-4 -3 -7 -240 -7 -525 l0 -518 425 0 425 0 0 120 0 120
-265 0 -265 0 0 100 0 100 240 0 240 0 0 110 0 110 -240 0 -240 0 0 80 0 80
260 0 261 0 -3 113 -3 112 -411 3 c-226 1 -413 -1 -417 -5z"/>
<path d="M15770 5985 l0 -525 394 0 395 0 3 113 c2 61 1 120 -1 130 -3 16 -23
17 -242 17 l-239 0 0 395 0 395 -155 0 -155 0 0 -525z"/>
<path d="M13379 5067 c-145 -41 -215 -167 -161 -290 33 -74 83 -104 273 -161
95 -28 112 -42 112 -88 0 -44 -33 -68 -95 -68 -41 0 -54 5 -79 29 -16 16 -32
44 -36 62 l-6 32 -81 -7 c-45 -3 -94 -6 -109 -6 -27 0 -28 -2 -22 -32 23 -109
87 -186 176 -212 68 -21 229 -21 295 -1 55 16 126 71 149 115 46 90 37 195
-23 262 -46 51 -83 69 -222 108 -63 17 -121 36 -128 42 -7 6 -12 23 -10 37 4
33 48 55 93 47 35 -7 85 -55 85 -82 0 -12 17 -13 103 -8 56 4 104 9 106 11 3
2 -1 25 -8 51 -29 111 -113 163 -270 169 -59 2 -114 -2 -142 -10z"/>
<path d="M14153 5065 c-100 -28 -165 -84 -209 -179 -22 -48 -28 -79 -32 -157
-5 -110 8 -180 46 -252 55 -103 131 -153 255 -166 142 -15 256 19 321 95 30
36 78 143 70 156 -8 12 -175 60 -190 54 -8 -3 -14 -13 -14 -23 0 -32 -40 -84
-75 -99 -46 -19 -84 -18 -121 5 -48 29 -67 80 -67 185 -1 147 43 216 138 216
49 0 91 -24 111 -63 9 -17 18 -33 19 -35 3 -3 188 38 194 44 1 1 -8 27 -22 57
-30 67 -85 123 -146 149 -62 26 -207 34 -278 13z"/>
<path d="M15770 5064 c-158 -42 -250 -177 -250 -368 0 -176 68 -299 195 -358
44 -20 66 -23 175 -23 122 0 127 1 193 33 120 59 177 171 177 346 0 172 -55
282 -174 343 -83 43 -213 54 -316 27z m203 -190 c47 -34 62 -79 61 -184 0 -77
-4 -103 -22 -136 -27 -52 -78 -79 -135 -71 -90 12 -130 75 -131 206 0 118 24
170 94 203 26 13 106 2 133 -18z"/>
<path d="M16580 5058 c-86 -29 -167 -107 -198 -190 -66 -177 -21 -396 103
-489 66 -51 129 -69 239 -69 149 0 241 40 305 134 49 71 64 129 64 251 0 145
-22 207 -102 285 -71 70 -126 91 -251 96 -79 4 -106 1 -160 -18z m218 -178
c54 -33 75 -94 70 -204 -3 -68 -9 -101 -24 -126 -26 -47 -77 -72 -131 -67 -94
10 -133 71 -133 207 0 102 22 159 72 190 42 26 104 26 146 0z"/>
<path d="M10210 4695 l0 -375 113 0 114 0 -4 84 c-3 92 -4 91 83 185 l32 34
73 -152 73 -151 138 0 c131 0 150 4 129 26 -5 5 -66 105 -134 223 l-126 215
102 109 c56 60 115 125 130 143 l28 34 -148 0 -149 0 -109 -134 c-60 -74 -112
-133 -115 -131 -4 2 -7 62 -7 132 l-1 128 -111 3 -111 3 0 -376z"/>
<path d="M11050 4695 l0 -375 115 0 115 0 -2 373 -3 372 -112 3 -113 3 0 -376z"/>
<path d="M11380 4975 l0 -95 115 0 115 0 0 -280 0 -280 110 0 110 0 0 280 0
280 115 0 115 0 0 95 0 95 -340 0 -340 0 0 -95z"/>
<path d="M12157 5063 c-4 -3 -7 -172 -7 -375 l0 -368 305 0 305 0 0 85 0 85
-190 0 -190 0 0 70 0 70 170 0 170 0 0 80 0 80 -170 0 -170 0 0 55 0 55 185 0
185 0 0 85 0 85 -293 0 c-162 0 -297 -3 -300 -7z"/>
<path d="M14717 5063 c-4 -3 -7 -172 -7 -375 l0 -368 115 0 115 0 0 150 0 150
120 0 120 0 0 -150 0 -150 110 0 110 0 0 375 0 375 -110 0 -110 0 0 -130 0
-130 -120 0 -120 0 0 130 0 130 -108 0 c-60 0 -112 -3 -115 -7z"/>
<path d="M17217 5063 c-4 -3 -7 -172 -7 -375 l0 -368 285 0 285 0 0 95 0 95
-170 0 -170 0 0 280 0 280 -108 0 c-60 0 -112 -3 -115 -7z"/>
<path d="M18705 2092 c-190 -64 -307 -170 -443 -401 -124 -211 -193 -440 -222
-740 -23 -237 -8 -460 47 -720 40 -187 54 -213 29 -53 -30 190 -17 602 25 802
60 277 127 439 254 607 83 111 231 233 282 233 l23 0 1 -280 c1 -154 2 -287 2
-295 0 -47 6 -45 -173 -45 l-170 0 0 -65 0 -65 255 0 255 0 0 379 c0 209 3
386 6 395 3 8 12 12 19 10 24 -9 27 16 20 142 l-7 124 -62 0 c-40 0 -89 -10
-141 -28z"/>
<path d="M15757 2094 c-4 -4 -7 -234 -7 -511 l0 -503 454 0 c262 0 476 4 507
10 80 15 140 49 166 96 20 34 23 54 23 155 0 154 -17 190 -109 235 l-63 31 36
7 c43 8 99 54 116 95 8 19 11 72 8 154 -4 146 -13 166 -94 207 l-49 25 -490 3
c-270 2 -494 0 -498 -4z m888 -189 c22 -21 25 -33 25 -95 0 -62 -3 -74 -25
-96 l-24 -24 -313 2 -313 3 -3 104 c-1 58 0 111 2 118 4 10 68 13 316 13 l311
0 24 -25z m-12 -396 c34 -18 37 -28 37 -120 0 -131 22 -123 -353 -127 -245 -2
-312 0 -318 10 -10 15 -12 232 -2 241 12 13 612 8 636 -4z"/>
<path d="M7235 2075 c-55 -19 -91 -63 -104 -124 -15 -71 -15 -663 0 -733 16
-71 56 -111 127 -127 70 -15 802 -15 871 0 105 22 133 68 139 231 l4 116 -58
12 c-33 7 -87 18 -121 25 l-63 13 0 -109 0 -109 -330 0 -330 0 -5 23 c-3 12
-4 155 -3 317 l3 295 333 3 332 2 0 -96 c0 -86 2 -95 18 -90 9 3 53 10 97 16
141 19 128 5 123 123 -5 124 -24 169 -83 200 -39 21 -51 22 -475 24 -357 2
-442 0 -475 -12z"/>
<path d="M9407 1902 c-16 -3 -17 -39 -17 -413 l0 -409 80 0 80 0 0 297 0 297
33 -50 c17 -28 101 -139 186 -248 127 -162 159 -196 177 -194 15 2 69 64 174
198 84 107 166 215 182 239 l28 45 0 -292 0 -292 90 0 90 0 -2 411 -3 410 -74
2 -74 3 -46 -56 c-25 -31 -113 -142 -196 -248 -82 -105 -152 -191 -155 -192
-3 0 -95 110 -203 245 -109 135 -201 245 -205 245 -55 4 -132 4 -145 2z"/>
<path d="M20190 1902 c-7 -3 -10 -141 -10 -413 l0 -409 100 0 100 0 0 410 c0
321 -3 410 -12 411 -36 3 -169 4 -178 1z"/>
<path d="M8350 1544 c0 -406 1 -412 74 -445 37 -17 72 -19 406 -19 402 0 409
1 454 63 20 27 21 42 24 393 l3 364 -101 0 -100 0 0 -335 0 -335 -285 0 -285
0 0 335 0 335 -95 0 -95 0 0 -356z"/>
<path d="M10650 1485 l0 -416 393 3 392 3 49 25 c75 37 90 65 95 167 5 130
-23 188 -104 216 l-38 13 47 18 c71 27 86 58 86 176 0 116 -16 156 -75 185
-38 19 -63 20 -442 23 l-403 3 0 -416z m722 258 c14 -12 18 -31 18 -79 0 -98
12 -94 -291 -94 l-259 0 0 95 0 95 257 0 c225 0 259 -2 275 -17z m-4 -329 c19
-13 22 -24 22 -89 0 -109 10 -105 -297 -105 l-253 0 0 105 0 105 253 0 c212 0
256 -2 275 -16z"/>
<path d="M11722 1537 c3 -398 3 -393 65 -434 24 -16 64 -18 397 -21 430 -3
444 -1 477 72 17 38 19 71 19 394 l0 352 -95 0 -95 0 0 -335 0 -335 -285 0
-285 0 0 335 0 335 -100 0 -101 0 3 -363z"/>
<path d="M14045 1891 c-50 -12 -71 -28 -91 -68 -17 -35 -19 -64 -19 -338 0
-268 2 -303 18 -332 38 -70 23 -68 507 -68 484 0 469 -2 507 68 16 29 18 64
18 332 0 284 -1 302 -21 340 -37 71 -57 74 -504 74 -212 -1 -398 -4 -415 -8z
m745 -401 l0 -260 -330 0 -330 0 0 260 0 260 330 0 330 0 0 -260z"/>
<path d="M16990 1490 l0 -410 95 0 95 0 0 155 0 155 94 0 95 0 171 -155 172
-155 141 0 c114 1 139 3 126 13 -8 7 -95 75 -193 152 l-178 140 105 5 c115 6
144 18 177 73 17 28 20 51 20 182 0 131 -3 154 -20 182 -42 70 -29 68 -487 71
l-413 3 0 -411z m708 254 c20 -14 22 -24 22 -99 0 -120 13 -115 -292 -115
l-248 0 0 115 0 115 248 0 c208 0 251 -2 270 -16z"/>
<path d="M19280 1891 c-124 -16 -150 -56 -150 -239 0 -148 16 -190 81 -217 39
-16 82 -19 352 -23 l307 -4 0 -89 0 -89 -300 0 -300 0 0 45 c0 25 -3 45 -7 45
-5 0 -46 -7 -92 -17 l-83 -16 6 -55 c9 -77 31 -117 74 -139 34 -16 69 -18 402
-18 333 0 368 2 402 18 61 31 73 69 73 232 0 123 -2 144 -21 175 -37 63 -44
65 -401 68 l-323 3 0 89 0 90 280 0 280 0 0 -45 c0 -25 3 -45 8 -45 17 1 163
38 168 43 10 10 -8 95 -27 127 -36 59 -62 64 -384 66 -159 1 -315 -1 -345 -5z"/>
<path d="M20480 1485 l0 -415 404 0 c222 0 411 3 420 6 13 5 16 22 16 80 l0
74 -325 0 -325 0 0 335 0 335 -95 0 -95 0 0 -415z"/>
<path d="M12985 1878 c-46 -16 -72 -45 -84 -93 -15 -58 -15 -556 0 -610 28
-101 57 -107 489 -103 372 3 382 5 413 70 8 18 18 72 22 120 8 100 10 98 -95
117 -36 7 -73 14 -82 17 -15 5 -18 -5 -20 -83 l-3 -88 -267 -3 -268 -2 0 265
0 265 268 -2 267 -3 3 -78 3 -78 27 5 c15 3 50 8 77 12 96 13 96 13 89 101 -7
93 -26 138 -68 161 -27 15 -73 17 -386 19 -232 1 -365 -2 -385 -9z"/>
<path d="M15190 1535 l0 -85 215 0 215 0 0 85 0 85 -215 0 -215 0 0 -85z"/>
</g>
</svg>
