<?xml version="1.0" standalone="no"?>
<!DOCTYPE svg PUBLIC "-//W3C//DTD SVG 20010904//EN"
 "http://www.w3.org/TR/2001/REC-SVG-20010904/DTD/svg10.dtd">
<svg version="1.0" xmlns="http://www.w3.org/2000/svg"
 width="645.000000pt" height="299.000000pt" viewBox="0 0 645.000000 299.000000"
 preserveAspectRatio="xMidYMid meet">
<metadata>
Created by potrace 1.13, written by Peter Selinger 2001-2015
</metadata>
<g transform="translate(0.000000,299.000000) scale(0.100000,-0.100000)"
fill="#000000" stroke="none">
<path d="M414 2351 c-5 -25 -11 -29 -51 -35 -25 -3 -81 -6 -123 -6 -63 0 -82
4 -104 21 -14 11 -31 19 -37 17 -6 -2 -29 -49 -50 -103 -48 -125 -51 -185 -13
-220 23 -21 37 -25 92 -25 36 0 105 5 154 11 49 7 91 10 93 7 8 -7 -24 -240
-45 -340 -11 -48 -30 -115 -44 -149 -14 -35 -23 -66 -20 -71 10 -16 53 -8 81
16 34 28 77 104 92 161 6 22 22 121 36 219 13 99 28 183 32 187 12 11 237 39
312 39 90 0 147 -28 181 -90 22 -39 25 -57 24 -135 -1 -313 -234 -533 -539
-512 -143 11 -227 49 -255 117 -7 16 -19 30 -26 30 -19 0 -29 -29 -43 -127
-22 -151 11 -202 149 -224 78 -12 221 4 319 37 244 82 414 293 493 611 18 72
22 119 22 253 1 158 0 168 -24 215 -52 100 -169 123 -453 91 l-147 -17 -33 26
c-45 33 -66 32 -73 -4z"/>
<path d="M4030 2350 c-109 -23 -210 -60 -334 -121 -109 -53 -116 -56 -116 -35
0 22 -40 66 -60 66 -21 0 -30 -27 -30 -93 0 -43 -5 -54 -54 -111 -126 -149
-137 -190 -143 -536 -5 -294 0 -332 49 -360 51 -28 61 -10 75 137 12 126 73
474 94 541 6 18 25 43 42 56 83 62 299 144 439 166 69 11 80 11 103 -4 16 -10
25 -26 25 -42 0 -71 -247 -246 -404 -287 -99 -26 -169 -100 -170 -181 l-1 -41
160 -5 c176 -6 225 -17 281 -63 85 -71 87 -209 3 -253 -56 -29 -121 0 -171 76
-14 22 -18 23 -31 10 -31 -33 -49 -240 -23 -275 20 -27 76 -23 133 10 61 35
277 252 327 329 55 83 69 137 55 204 -21 103 -109 159 -272 171 l-79 6 98 90
c213 196 333 366 321 455 -14 104 -117 133 -317 90z"/>
<path d="M6210 2342 c-59 -31 -103 -141 -165 -417 -55 -244 -122 -694 -111
-739 9 -37 82 -60 104 -33 5 6 35 79 66 160 58 152 108 261 126 272 15 9 12
-46 -10 -175 -24 -138 -25 -191 -5 -230 31 -59 87 -49 173 30 42 40 54 70 27
70 -8 0 -22 11 -31 25 -19 29 -16 63 26 275 43 220 46 254 21 279 -25 25 -51
26 -91 6 -41 -21 -69 -62 -138 -200 -33 -66 -69 -131 -81 -145 l-22 -25 7 53
c3 30 21 116 39 192 25 108 40 151 67 192 97 147 166 368 128 413 -17 21 -87
19 -130 -3z"/>
<path d="M2128 1957 c-36 -9 -39 -12 -59 -80 -26 -88 -34 -99 -42 -52 -13 77
-46 83 -135 25 -65 -41 -71 -52 -47 -84 19 -26 19 -113 0 -281 -13 -107 -35
-259 -47 -317 -2 -6 5 -14 15 -16 37 -8 87 9 120 41 33 31 34 35 66 232 39
240 38 240 56 198 10 -24 20 -33 38 -33 31 0 53 25 73 83 16 46 16 48 -8 66
-27 23 -29 72 -4 166 8 33 14 60 13 60 -1 1 -19 -3 -39 -8z"/>
<path d="M2560 1895 c-9 -11 -33 -15 -87 -15 -44 0 -85 -6 -101 -14 -102 -54
-171 -233 -180 -472 -5 -148 5 -186 62 -227 25 -18 44 -22 106 -22 183 0 269
95 302 334 6 47 18 94 26 103 35 41 56 158 29 158 -7 0 -18 -5 -25 -12 -9 -9
-12 -3 -12 28 -1 47 -21 108 -46 135 -20 23 -57 25 -74 4z m-40 -173 c0 -89 4
-123 15 -139 14 -20 14 -33 0 -125 -26 -176 -56 -238 -106 -219 -13 5 -33 19
-44 31 -18 20 -20 35 -19 139 1 122 25 251 63 337 20 45 62 94 81 94 6 0 10
-43 10 -118z"/>
<path d="M1310 1854 c-68 -37 -89 -64 -64 -84 21 -18 18 -51 -22 -248 -56
-280 -49 -372 29 -372 32 0 69 33 190 169 l57 65 -6 -85 c-8 -107 8 -149 58
-149 27 0 43 11 95 68 63 68 76 95 48 106 -8 3 -20 18 -26 33 -16 42 6 241 36
336 24 75 32 148 19 181 -4 10 -18 16 -40 16 -39 0 -104 -52 -123 -98 -7 -15
-20 -94 -29 -174 l-18 -147 -51 -58 c-28 -32 -54 -57 -59 -56 -19 5 -13 76 21
245 37 185 42 237 25 269 -16 29 -66 23 -140 -17z"/>
<path d="M4690 1880 c-42 -4 -90 -15 -107 -24 -91 -47 -168 -246 -180 -467 -7
-130 -1 -165 36 -209 27 -33 32 -35 92 -35 50 0 77 6 119 27 80 40 139 95 147
138 l6 35 -24 -21 c-60 -54 -132 -69 -164 -34 -20 22 -31 101 -21 153 l6 34
75 7 c106 10 132 21 158 70 19 36 22 57 22 169 0 123 -1 130 -24 148 -13 10
-33 18 -45 18 -11 -1 -55 -5 -96 -9z m36 -85 c17 -70 -23 -206 -73 -245 -42
-33 -54 -27 -47 23 12 92 35 184 54 215 24 39 57 43 66 7z"/>
<path d="M5151 1879 c-120 -21 -154 -68 -207 -289 -56 -234 -58 -350 -8 -409
52 -62 96 -44 196 77 40 48 81 99 90 112 16 24 17 22 16 -76 0 -136 24 -173
91 -135 30 16 111 102 111 117 0 4 -10 19 -22 32 -21 22 -23 32 -21 140 2 79
9 143 23 196 11 44 20 94 20 113 0 42 -21 92 -47 116 -17 15 -25 16 -46 6 -38
-17 -54 -69 -74 -240 l-18 -152 -63 -68 c-64 -69 -91 -84 -93 -51 -5 56 28
280 53 364 14 46 52 84 98 95 28 7 35 14 35 34 0 21 -5 24 -40 26 -22 0 -64
-3 -94 -8z"/>
<path d="M5789 1880 c-25 -4 -60 -15 -78 -25 -84 -43 -158 -248 -176 -489 -9
-118 -2 -156 34 -195 52 -56 127 -39 241 54 61 48 68 58 72 95 4 46 0 49 -31
16 -12 -13 -38 -32 -57 -42 l-36 -19 -19 24 c-25 30 -24 58 6 210 47 231 86
311 100 204 12 -89 17 -92 68 -30 34 41 34 44 26 97 -15 98 -46 118 -150 100z"/>
<path d="M2872 740 c-57 -26 -87 -89 -78 -164 6 -54 25 -87 70 -120 36 -27
136 -28 184 -2 70 37 94 173 43 245 -41 58 -141 77 -219 41z m133 -83 c20 -28
19 -97 -1 -125 -10 -15 -25 -22 -49 -22 -42 0 -65 29 -65 83 0 47 14 76 43 86
29 11 55 3 72 -22z"/>
<path d="M2440 595 l0 -155 45 0 44 0 3 63 3 62 53 3 52 3 0 -65 0 -66 50 0
50 0 0 155 0 155 -50 0 -50 0 0 -56 0 -55 -52 3 -53 3 -3 53 -3 52 -45 0 -44
0 0 -155z"/>
<path d="M3140 716 c0 -34 1 -35 48 -38 l47 -3 3 -117 3 -118 49 0 50 0 0 120
0 120 50 0 50 0 0 35 0 35 -150 0 -150 0 0 -34z"/>
<path d="M3480 595 l0 -155 135 0 135 0 0 35 0 35 -85 0 -85 0 0 30 0 30 75 0
75 0 0 35 0 35 -75 0 c-73 0 -75 1 -75 25 0 25 1 25 80 25 l80 0 0 30 0 30
-130 0 -130 0 0 -155z"/>
<path d="M3800 595 l0 -155 125 0 125 0 0 40 0 40 -75 0 -75 0 0 115 0 115
-50 0 -50 0 0 -155z"/>
</g>
</svg>
