<?xml version="1.0" standalone="no"?>
<!DOCTYPE svg PUBLIC "-//W3C//DTD SVG 20010904//EN"
 "http://www.w3.org/TR/2001/REC-SVG-20010904/DTD/svg10.dtd">
<svg version="1.0" xmlns="http://www.w3.org/2000/svg"
 width="1581.000000pt" height="945.000000pt" viewBox="0 0 1581.000000 945.000000"
 preserveAspectRatio="xMidYMid meet">

<g transform="translate(0.000000,945.000000) scale(0.100000,-0.100000)"
fill="#000000" stroke="none">
<path d="M4 4725 l-2 -4725 7904 0 7904 0 0 4725 0 4725 -7903 0 -7902 0 -1
-4725z m7734 4708 c-10 -2 -26 -2 -35 0 -10 3 -2 5 17 5 19 0 27 -2 18 -5z
m1080 0 c-10 -2 -26 -2 -35 0 -10 3 -2 5 17 5 19 0 27 -2 18 -5z m-1180 -10
c-10 -2 -28 -2 -40 0 -13 2 -5 4 17 4 22 1 32 -1 23 -4z m1290 0 c-10 -2 -26
-2 -35 0 -10 3 -2 5 17 5 19 0 27 -2 18 -5z m-1400 -10 c-10 -2 -26 -2 -35 0
-10 3 -2 5 17 5 19 0 27 -2 18 -5z m1505 0 c-7 -2 -21 -2 -30 0 -10 3 -4 5 12
5 17 0 24 -2 18 -5z m-1590 -10 c-7 -2 -21 -2 -30 0 -10 3 -4 5 12 5 17 0 24
-2 18 -5z m1670 0 c-7 -2 -19 -2 -25 0 -7 3 -2 5 12 5 14 0 19 -2 13 -5z
m-1750 -10 c-7 -2 -19 -2 -25 0 -7 3 -2 5 12 5 14 0 19 -2 13 -5z m1830 0 c-7
-2 -19 -2 -25 0 -7 3 -2 5 12 5 14 0 19 -2 13 -5z m-1910 -10 c-7 -2 -19 -2
-25 0 -7 3 -2 5 12 5 14 0 19 -2 13 -5z m1990 0 c-7 -2 -21 -2 -30 0 -10 3 -4
5 12 5 17 0 24 -2 18 -5z m-2060 -10 c-7 -2 -19 -2 -25 0 -7 3 -2 5 12 5 14 0
19 -2 13 -5z m2124 1 c-3 -3 -12 -4 -19 -1 -8 3 -5 6 6 6 11 1 17 -2 13 -5z
m-2184 -11 c-7 -2 -19 -2 -25 0 -7 3 -2 5 12 5 14 0 19 -2 13 -5z m2244 1 c-3
-3 -12 -4 -19 -1 -8 3 -5 6 6 6 11 1 17 -2 13 -5z m-2304 -11 c-7 -2 -19 -2
-25 0 -7 3 -2 5 12 5 14 0 19 -2 13 -5z m2364 1 c-3 -3 -12 -4 -19 -1 -8 3 -5
6 6 6 11 1 17 -2 13 -5z m-2424 -11 c-7 -2 -19 -2 -25 0 -7 3 -2 5 12 5 14 0
19 -2 13 -5z m2490 0 c-7 -2 -19 -2 -25 0 -7 3 -2 5 12 5 14 0 19 -2 13 -5z
m-2546 -9 c-3 -3 -12 -4 -19 -1 -8 3 -5 6 6 6 11 1 17 -2 13 -5z m2600 0 c-3
-3 -12 -4 -19 -1 -8 3 -5 6 6 6 11 1 17 -2 13 -5z m-2650 -10 c-3 -3 -12 -4
-19 -1 -8 3 -5 6 6 6 11 1 17 -2 13 -5z m2700 0 c-3 -3 -12 -4 -19 -1 -8 3 -5
6 6 6 11 1 17 -2 13 -5z m-2750 -10 c-3 -3 -12 -4 -19 -1 -8 3 -5 6 6 6 11 1
17 -2 13 -5z m2800 0 c-3 -3 -12 -4 -19 -1 -8 3 -5 6 6 6 11 1 17 -2 13 -5z
m-2850 -10 c-3 -3 -12 -4 -19 -1 -8 3 -5 6 6 6 11 1 17 -2 13 -5z m2900 0 c-3
-3 -12 -4 -19 -1 -8 3 -5 6 6 6 11 1 17 -2 13 -5z m-2950 -10 c-3 -3 -12 -4
-19 -1 -8 3 -5 6 6 6 11 1 17 -2 13 -5z m3000 0 c-3 -3 -12 -4 -19 -1 -8 3 -5
6 6 6 11 1 17 -2 13 -5z m-3050 -10 c-3 -3 -12 -4 -19 -1 -8 3 -5 6 6 6 11 1
17 -2 13 -5z m3100 0 c-3 -3 -12 -4 -19 -1 -8 3 -5 6 6 6 11 1 17 -2 13 -5z
m-3140 -10 c-3 -3 -12 -4 -19 -1 -8 3 -5 6 6 6 11 1 17 -2 13 -5z m3180 0 c-3
-3 -12 -4 -19 -1 -8 3 -5 6 6 6 11 1 17 -2 13 -5z m40 -10 c-3 -3 -12 -4 -19
-1 -8 3 -5 6 6 6 11 1 17 -2 13 -5z m-3310 -10 c-3 -3 -12 -4 -19 -1 -8 3 -5
6 6 6 11 1 17 -2 13 -5z m-40 -10 c-3 -3 -12 -4 -19 -1 -8 3 -5 6 6 6 11 1 17
-2 13 -5z m3440 0 c-3 -3 -12 -4 -19 -1 -8 3 -5 6 6 6 11 1 17 -2 13 -5z
m-3480 -10 c-3 -3 -12 -4 -19 -1 -8 3 -5 6 6 6 11 1 17 -2 13 -5z m3520 0 c-3
-3 -12 -4 -19 -1 -8 3 -5 6 6 6 11 1 17 -2 13 -5z m40 -10 c-3 -3 -12 -4 -19
-1 -8 3 -5 6 6 6 11 1 17 -2 13 -5z m-3640 -10 c-3 -3 -12 -4 -19 -1 -8 3 -5
6 6 6 11 1 17 -2 13 -5z m3750 -20 c-3 -3 -12 -4 -19 -1 -8 3 -5 6 6 6 11 1
17 -2 13 -5z m-3860 -10 c-3 -3 -12 -4 -19 -1 -8 3 -5 6 6 6 11 1 17 -2 13 -5z
m3970 -20 c-3 -3 -12 -4 -19 -1 -8 3 -5 6 6 6 11 1 17 -2 13 -5z m-4080 -10
c-3 -3 -12 -4 -19 -1 -8 3 -5 6 6 6 11 1 17 -2 13 -5z m4310 -60 c-3 -3 -12
-4 -19 -1 -8 3 -5 6 6 6 11 1 17 -2 13 -5z m-2697 -382 c23 -191 38 -348 34
-352 -15 -14 -174 -24 -174 -11 0 22 -60 494 -63 498 -2 1 -19 -117 -37 -262
-38 -301 -25 -273 -138 -278 l-63 -2 -97 247 c-53 136 -98 246 -99 244 -1 -1
11 -108 27 -237 16 -129 30 -244 30 -255 0 -23 -10 -27 -121 -39 l-56 -7 -43
351 c-24 193 -41 353 -39 356 5 4 233 35 265 35 19 0 32 -26 100 -200 50 -126
81 -193 85 -182 3 9 16 101 29 204 13 103 27 193 30 199 8 12 271 49 281 40 4
-3 26 -161 49 -349z m720 336 c67 -31 110 -94 110 -162 0 -47 -40 -116 -79
-137 l-33 -18 40 -20 c111 -56 132 -198 43 -291 -56 -59 -90 -65 -364 -64
-131 1 -240 4 -243 6 -2 3 -1 163 3 357 l6 353 241 -4 c194 -3 248 -7 276 -20z
m2110 2 c8 -5 11 -10 5 -10 -5 0 -17 5 -25 10 -8 5 -10 10 -5 10 6 0 17 -5 25
-10z m-1657 -16 c37 -4 69 -10 71 -13 3 -4 -6 -94 -20 -201 -30 -245 -30 -289
-3 -323 45 -58 156 -58 194 -1 11 18 26 97 46 257 17 127 32 234 35 236 4 4
206 -18 212 -24 2 -1 -10 -108 -26 -237 -38 -302 -57 -349 -172 -416 -42 -25
-53 -27 -155 -26 -173 1 -270 41 -335 136 -30 43 -34 58 -38 131 -2 49 4 152
17 257 33 266 26 243 69 237 20 -4 68 -9 105 -13z m1957 -94 c8 -5 11 -10 5
-10 -5 0 -17 5 -25 10 -8 5 -10 10 -5 10 6 0 17 -5 25 -10z m-5400 -10 c-8 -5
-19 -10 -25 -10 -5 0 -3 5 5 10 8 5 20 10 25 10 6 0 3 -5 -5 -10z m5450 -10
c8 -5 11 -10 5 -10 -5 0 -17 5 -25 10 -8 5 -10 10 -5 10 6 0 17 -5 25 -10z
m-5500 -10 c-8 -5 -19 -10 -25 -10 -5 0 -3 5 5 10 8 5 20 10 25 10 6 0 3 -5
-5 -10z m1289 -222 c71 -250 78 -312 44 -388 -11 -25 -32 -60 -47 -77 -52 -62
-226 -123 -349 -123 -99 0 -184 59 -232 163 -28 59 -141 454 -133 463 7 6 201
65 204 61 1 -1 30 -99 64 -217 34 -118 68 -226 75 -240 47 -91 225 -45 225 57
0 10 -29 119 -64 243 -36 124 -64 225 -63 226 7 6 176 52 193 53 18 1 27 -22
83 -221z m-1339 202 c-8 -5 -19 -10 -25 -10 -5 0 -3 5 5 10 8 5 20 10 25 10 6
0 3 -5 -5 -10z m5650 -10 c8 -5 11 -10 5 -10 -5 0 -17 5 -25 10 -8 5 -10 10
-5 10 6 0 17 -5 25 -10z m-973 -51 c125 -39 201 -118 224 -232 7 -31 10 -59 8
-61 -2 -2 -47 -1 -99 1 l-95 5 -15 47 c-34 104 -158 124 -232 36 -22 -26 -56
-126 -63 -190 -11 -91 47 -155 139 -155 34 0 46 7 86 48 l47 49 82 -54 82 -53
-18 -31 c-38 -65 -124 -122 -203 -134 -103 -15 -290 52 -354 127 -116 135 -96
391 42 532 89 92 209 113 369 65z m-4807 6 c-14 -8 -29 -14 -35 -14 -5 0 1 6
15 14 14 8 30 14 35 14 6 0 -1 -6 -15 -14z m5920 -15 c8 -5 11 -10 5 -10 -5 0
-17 5 -25 10 -8 5 -10 10 -5 10 6 0 17 -5 25 -10z m-6010 -25 c-14 -8 -29 -14
-35 -14 -5 0 1 6 15 14 14 8 30 14 35 14 6 0 -1 -6 -15 -14z m6110 -20 c14 -8
21 -14 15 -14 -5 0 -21 6 -35 14 -14 8 -20 14 -15 14 6 0 21 -6 35 -14z
m-6221 -29 c-10 -9 -269 -136 -269 -131 0 6 251 134 264 134 5 1 7 -1 5 -3z
m6447 -82 c18 -14 18 -14 -6 -3 -31 14 -36 19 -24 19 6 0 19 -7 30 -16z m184
-99 c0 -3 -18 4 -40 15 -22 11 -40 23 -40 25 0 3 18 -4 40 -15 22 -11 40 -23
40 -25z m-6950 20 c0 -2 -18 -14 -40 -25 -22 -11 -40 -18 -40 -15 0 2 17 13
38 24 42 23 42 23 42 16z m1045 -39 c28 -14 63 -39 79 -55 l28 -29 -54 -39
c-108 -80 -101 -77 -144 -48 -31 21 -47 26 -77 22 -80 -11 -131 -72 -123 -148
7 -70 47 -158 92 -206 34 -36 47 -43 80 -43 88 0 144 60 144 153 0 43 2 47 23
47 13 0 59 3 102 7 l78 6 -5 -79 c-7 -122 -60 -201 -173 -257 -245 -122 -444
-37 -535 229 -25 71 -26 173 -3 240 41 122 246 242 387 229 28 -2 73 -16 101
-29z m5036 15 c263 -90 344 -282 225 -531 -89 -185 -258 -248 -458 -169 -198
78 -281 226 -233 414 35 132 103 228 197 274 52 27 72 31 138 31 49 0 97 -7
131 -19z m959 -47 c0 -2 -13 2 -30 11 -16 9 -30 18 -30 21 0 2 14 -2 30 -11
17 -9 30 -18 30 -21z m-7150 11 c0 -2 -10 -9 -22 -15 -22 -11 -22 -10 -4 4 21
17 26 19 26 11z m7220 -51 c0 -2 -13 2 -30 11 -16 9 -30 18 -30 21 0 2 14 -2
30 -11 17 -9 30 -18 30 -21z m-7290 11 c0 -2 -10 -9 -22 -15 -22 -11 -22 -10
-4 4 21 17 26 19 26 11z m7340 -41 c0 -2 -9 0 -20 6 -11 6 -20 13 -20 16 0 2
9 0 20 -6 11 -6 20 -13 20 -16z m-7390 11 c0 -2 -10 -9 -22 -15 -22 -11 -22
-10 -4 4 21 17 26 19 26 11z m7440 -41 c0 -2 -9 0 -20 6 -11 6 -20 13 -20 16
0 2 9 0 20 -6 11 -6 20 -13 20 -16z m-7490 11 c0 -2 -10 -9 -22 -15 -22 -11
-22 -10 -4 4 21 17 26 19 26 11z m7570 -61 c0 -2 -9 0 -20 6 -11 6 -20 13 -20
16 0 2 9 0 20 -6 11 -6 20 -13 20 -16z m-7665 0 c-26 -20 -55 -36 -55 -30 0 5
63 46 70 46 3 -1 -4 -8 -15 -16z m7841 -115 c3 -6 -5 -3 -20 6 -14 10 -26 19
-26 22 0 7 39 -17 46 -28z m-8026 -4 c0 -2 -20 -18 -45 -35 -25 -17 -45 -29
-45 -26 0 4 80 64 88 66 1 0 2 -2 2 -5z m8130 -71 c0 -3 -13 4 -30 16 -16 12
-30 24 -30 26 0 3 14 -4 30 -16 17 -12 30 -24 30 -26z m-8230 2 c0 -2 -8 -10
-17 -17 -16 -13 -17 -12 -4 4 13 16 21 21 21 13z m8261 -23 c13 -16 12 -17 -3
-4 -10 7 -18 15 -18 17 0 8 8 3 21 -13z m-8301 -7 c0 -2 -34 -29 -75 -60 -41
-31 -75 -54 -75 -52 0 5 141 115 148 116 1 0 2 -2 2 -4z m8423 -85 c7 -8 -14
5 -45 28 -32 24 -58 45 -58 48 0 7 89 -59 103 -76z m-4128 19 c599 -27 1087
-116 1620 -294 1106 -371 1958 -1046 2380 -1886 38 -76 97 -212 118 -272 6
-17 9 -16 52 2 25 11 69 22 98 26 28 3 84 12 123 20 97 19 128 8 196 -65 61
-65 83 -124 97 -252 l7 -69 -64 -78 c-35 -42 -68 -81 -73 -86 -5 -6 -18 -5
-33 2 -19 8 -26 8 -29 -1 -3 -9 -14 -7 -40 7 -36 19 -47 44 -47 111 0 53 -13
48 -32 -12 -24 -77 -91 -372 -114 -498 -18 -100 -25 -267 -12 -280 16 -16 106
43 195 128 l95 91 -8 -75 -7 -74 25 22 24 23 -11 -90 -10 -90 -85 -71 c-125
-104 -215 -166 -279 -190 -47 -18 -71 -20 -147 -16 -166 8 -244 72 -279 232
-6 27 -9 22 -26 -45 -166 -651 -622 -1241 -1305 -1687 -646 -420 -1466 -683
-2354 -753 -187 -15 -633 -15 -820 0 -1009 80 -1895 404 -2565 939 -139 111
-360 328 -459 451 -166 207 -321 475 -405 700 l-40 105 40 7 c63 11 103 42
196 151 48 55 99 107 114 116 23 13 29 25 34 66 3 27 8 62 11 76 4 22 0 28
-23 37 -15 5 -39 18 -51 29 -23 18 -24 24 -23 153 1 122 12 257 27 350 3 19
26 94 49 165 104 312 78 465 -84 491 -28 4 -41 3 -41 -5 0 -6 4 -11 9 -11 13
0 85 -71 99 -97 30 -55 1 -254 -58 -404 -12 -30 -28 -89 -36 -132 -18 -107
-37 -364 -32 -444 4 -57 8 -69 31 -87 15 -12 27 -27 27 -33 0 -6 9 -15 20 -18
36 -11 16 -65 -49 -132 -31 -32 -79 -86 -108 -119 -68 -81 -103 -97 -188 -88
-129 13 -167 66 -175 238 l-5 109 -117 -130 c-198 -220 -220 -234 -343 -214
-117 18 -155 81 -155 255 0 136 16 233 100 636 61 296 63 368 10 385 -13 4
-19 13 -16 23 2 9 7 38 11 65 4 30 11 47 20 47 19 0 309 149 317 163 4 7 34
69 66 139 145 309 336 579 597 847 315 324 672 582 1110 806 677 344 1472 547
2290 584 253 12 300 12 540 1z m4166 -47 c13 -16 12 -17 -3 -4 -10 7 -18 15
-18 17 0 8 8 3 21 -13z m-8621 -6 c0 -2 -10 -12 -22 -23 l-23 -19 19 23 c18
21 26 27 26 19z m8740 -94 c0 -3 -22 14 -50 37 -27 23 -50 44 -50 47 0 3 23
-14 50 -37 28 -23 50 -44 50 -47z m-8790 54 c0 -2 -10 -12 -22 -23 l-23 -19
19 23 c18 21 26 27 26 19z m-50 -40 c0 -2 -12 -14 -27 -28 l-28 -24 24 28 c23
25 31 32 31 24z m8880 -42 c13 -14 21 -25 18 -25 -2 0 -15 11 -28 25 -13 14
-21 25 -18 25 2 0 15 -11 28 -25z m-8940 -8 c0 -2 -17 -19 -37 -38 l-38 -34
34 38 c33 34 41 42 41 34z m9015 -57 c21 -22 37 -40 34 -40 -3 0 -23 18 -44
40 -21 22 -37 40 -34 40 3 0 23 -18 44 -40z m-9095 -13 c0 -1 -24 -25 -52 -52
l-53 -50 50 53 c46 48 55 57 55 49z m9225 -107 c44 -44 77 -80 75 -80 -3 0
-41 36 -85 80 -44 44 -77 80 -75 80 3 0 41 -36 85 -80z m-9335 7 c0 -1 -51
-52 -112 -112 l-113 -110 110 113 c102 104 115 117 115 109z m9515 -187 c21
-22 37 -40 34 -40 -3 0 -23 18 -44 40 -21 22 -37 40 -34 40 3 0 23 -18 44 -40z
m-12692 -47 c-7 -2 -19 -2 -25 0 -7 3 -2 5 12 5 14 0 19 -2 13 -5z m15000 0
c-7 -2 -19 -2 -25 0 -7 3 -2 5 12 5 14 0 19 -2 13 -5z m-15056 -9 c-3 -3 -12
-4 -19 -1 -8 3 -5 6 6 6 11 1 17 -2 13 -5z m15110 0 c-3 -3 -12 -4 -19 -1 -8
3 -5 6 6 6 11 1 17 -2 13 -5z m-15198 -28 c-2 -2 -15 -9 -29 -15 -24 -11 -24
-11 -6 3 16 13 49 24 35 12z m15297 -12 c18 -14 18 -14 -6 -3 -31 14 -36 19
-24 19 6 0 19 -7 30 -16z m-15386 -37 c0 -1 -24 -25 -52 -52 l-53 -50 50 53
c46 48 55 57 55 49z m15495 -47 c27 -27 47 -50 44 -50 -3 0 -27 23 -54 50 -27
28 -47 50 -44 50 3 0 27 -22 54 -50z m-15654 -181 c-5 -13 -10 -19 -10 -12 -1
15 10 45 15 40 3 -2 0 -15 -5 -28z m15768 -9 c0 -10 -3 -8 -9 5 -12 27 -12 43
0 25 5 -8 9 -22 9 -30z m-15782 -42 c-3 -8 -6 -5 -6 6 -1 11 2 17 5 13 3 -3 4
-12 1 -19z m1896 -464 c18 -9 53 -33 78 -54 l46 -38 259 30 c424 49 662 41
812 -27 61 -28 163 -121 199 -183 82 -140 100 -448 48 -804 -82 -555 -357
-1027 -741 -1273 -218 -140 -446 -204 -749 -212 -334 -9 -492 43 -561 184 -42
84 -43 176 -6 391 17 96 32 175 34 176 2 1 27 9 55 18 l53 16 8 -31 c14 -56
37 -45 76 35 77 162 142 474 192 926 8 74 26 69 -181 42 -170 -22 -261 -25
-355 -9 -121 19 -178 70 -201 177 -16 79 2 156 90 380 39 99 71 187 71 196 0
22 98 23 106 2 3 -8 22 -27 41 -42 l35 -27 187 2 c207 2 281 8 281 25 0 26 22
86 36 101 20 19 47 19 87 -1z m11900 -36 c12 -6 39 -29 59 -50 37 -38 38 -42
38 -113 0 -219 -134 -572 -302 -794 -39 -52 -44 -66 -99 -300 -82 -353 -82
-353 9 -165 140 285 212 386 307 430 89 42 166 28 234 -41 41 -41 45 -51 49
-103 5 -72 -18 -237 -65 -452 -65 -305 -94 -507 -79 -563 4 -17 17 -29 40 -37
26 -8 33 -15 29 -29 -3 -13 2 -20 20 -25 23 -5 24 -9 17 -42 -5 -20 -13 -40
-17 -43 -5 -3 -47 -38 -94 -77 -120 -102 -155 -118 -243 -110 -39 3 -74 6 -78
6 -4 0 -23 14 -42 31 -50 44 -76 119 -76 223 0 66 38 338 66 475 5 25 4 25
-12 -4 -25 -44 -65 -142 -176 -435 -55 -146 -107 -273 -116 -284 -15 -16 -27
-18 -100 -13 -94 7 -155 31 -187 75 -17 23 -20 41 -18 122 4 169 94 768 184
1220 100 509 219 898 303 998 35 40 105 82 165 98 59 16 156 17 184 2z m-9853
-2828 c201 -445 547 -860 1006 -1208 569 -430 1350 -750 2164 -887 380 -64
586 -80 1020 -80 367 0 473 6 755 41 831 103 1587 369 2219 781 243 159 405
291 611 497 318 320 532 644 669 1014 l32 87 69 6 c39 4 71 5 73 4 1 -1 -16
-54 -38 -118 -348 -1010 -1325 -1845 -2632 -2251 -493 -153 -999 -237 -1541
-255 -1011 -33 -1945 161 -2774 577 -917 460 -1570 1152 -1839 1947 l-47 140
54 55 54 55 51 -155 c28 -85 71 -198 94 -250z m-3943 -382 c-3 -8 -6 -5 -6 6
-1 11 2 17 5 13 3 -3 4 -12 1 -19z m128 -218 c21 -22 37 -40 34 -40 -3 0 -23
18 -44 40 -21 22 -37 40 -34 40 3 0 23 -18 44 -40z m15575 37 c0 -2 -19 -21
-42 -42 l-43 -40 40 43 c36 39 45 47 45 39z m-15460 -123 c0 -2 -9 0 -20 6
-11 6 -20 13 -20 16 0 2 9 0 20 -6 11 -6 20 -13 20 -16z m15340 21 c0 -2 -10
-9 -22 -15 -22 -11 -22 -10 -4 4 21 17 26 19 26 11z m-15300 -35 c8 -5 11 -10
5 -10 -5 0 -17 5 -25 10 -8 5 -10 10 -5 10 6 0 17 -5 25 -10z m15240 0 c-8 -5
-19 -10 -25 -10 -5 0 -3 5 5 10 8 5 20 10 25 10 6 0 3 -5 -5 -10z m-15163 -26
c-3 -3 -12 -4 -19 -1 -8 3 -5 6 6 6 11 1 17 -2 13 -5z m15090 0 c-3 -3 -12 -4
-19 -1 -8 3 -5 6 6 6 11 1 17 -2 13 -5z m-13389 -11 c-307 -2 -809 -2 -1115 0
-307 1 -56 2 557 2 613 0 864 -1 558 -2z m12582 0 l-756 -3 -49 -101 c-28 -55
-54 -103 -58 -106 -4 -3 17 45 48 106 l55 111 758 -2 757 -3 -755 -2z m-11976
-110 c20 -40 34 -73 31 -73 -5 0 -75 136 -75 146 0 12 6 1 44 -73z m81 -153
c9 -16 13 -30 11 -30 -3 0 -12 14 -21 30 -9 17 -13 30 -11 30 3 0 12 -13 21
-30z m10995 -20 c-6 -11 -13 -20 -16 -20 -2 0 0 9 6 20 6 11 13 20 16 20 2 0
0 -9 -6 -20z m-10950 -60 c6 -11 8 -20 6 -20 -3 0 -10 9 -16 20 -6 11 -8 20
-6 20 3 0 10 -9 16 -20z m10910 -10 c-6 -11 -13 -20 -16 -20 -2 0 0 9 6 20 6
11 13 20 16 20 2 0 0 -9 -6 -20z m-10880 -40 c6 -11 8 -20 6 -20 -3 0 -10 9
-16 20 -6 11 -8 20 -6 20 3 0 10 -9 16 -20z m10850 -10 c-6 -11 -13 -20 -16
-20 -2 0 0 9 6 20 6 11 13 20 16 20 2 0 0 -9 -6 -20z m-10800 -70 c6 -11 8
-20 6 -20 -3 0 -10 9 -16 20 -6 11 -8 20 -6 20 3 0 10 -9 16 -20z m10754 -2
c-23 -39 -105 -158 -109 -158 -3 0 20 38 51 85 32 47 59 85 61 85 2 0 1 -6 -3
-12z m-10664 -133 c17 -25 29 -45 26 -45 -3 0 -19 20 -36 45 -17 25 -29 45
-26 45 3 0 19 -20 36 -45z m10530 -65 c-12 -16 -24 -30 -26 -30 -3 0 4 14 16
30 12 17 24 30 26 30 3 0 -4 -13 -16 -30z m-10449 -47 c23 -32 36 -53 28 -46
-17 14 -83 103 -76 103 3 0 24 -26 48 -57z m10419 3 c0 -2 -8 -10 -17 -17 -16
-13 -17 -12 -4 4 13 16 21 21 21 13z m-60 -76 c-17 -22 -34 -40 -37 -40 -2 0
10 18 27 40 17 22 34 40 37 40 2 0 -10 -18 -27 -40z m-10299 -7 c13 -16 12
-17 -3 -4 -17 13 -22 21 -14 21 2 0 10 -8 17 -17z m59 -73 c23 -27 40 -50 37
-50 -3 0 -24 23 -47 50 -23 28 -40 50 -37 50 3 0 24 -22 47 -50z m10200 27 c0
-2 -10 -12 -22 -23 l-23 -19 19 23 c18 21 26 27 26 19z m-40 -50 c0 -2 -15
-16 -32 -33 l-33 -29 29 33 c28 30 36 37 36 29z m-10084 -69 l29 -33 -32 29
c-31 28 -38 36 -30 36 2 0 16 -15 33 -32z m10024 -1 c0 -2 -17 -19 -37 -38
l-38 -34 34 38 c33 34 41 42 41 34z m-9910 -124 c0 -8 -9 0 -50 45 l-45 47 48
-45 c26 -24 47 -45 47 -47z m9840 44 c0 -1 -33 -34 -72 -72 l-73 -70 70 73
c64 67 75 77 75 69z m-9715 -177 c60 -60 107 -110 105 -110 -3 0 -55 50 -115
110 -60 61 -107 110 -105 110 3 0 55 -49 115 -110z m9515 -23 c0 -1 -37 -38
-82 -82 l-83 -80 80 83 c74 76 85 87 85 79z m-9345 -137 c27 -27 47 -50 44
-50 -3 0 -27 23 -54 50 -27 28 -47 50 -44 50 3 0 27 -22 54 -50z m9175 -23 c0
-2 -19 -21 -42 -42 l-43 -40 40 43 c36 39 45 47 45 39z m-9080 -62 c19 -19 32
-35 29 -35 -3 0 -20 16 -39 35 -19 19 -32 35 -29 35 3 0 20 -16 39 -35z m8990
-18 c0 -2 -12 -14 -27 -28 l-28 -24 24 28 c23 25 31 32 31 24z m-8920 -42 c13
-14 21 -25 18 -25 -2 0 -15 11 -28 25 -13 14 -21 25 -18 25 2 0 15 -11 28 -25z
m8860 -9 c0 -2 -24 -23 -52 -46 l-53 -42 50 46 c50 46 55 49 55 42z m-8805
-36 c10 -11 16 -20 13 -20 -3 0 -13 9 -23 20 -10 11 -16 20 -13 20 3 0 13 -9
23 -20z m50 -40 c10 -11 16 -20 13 -20 -3 0 -13 9 -23 20 -10 11 -16 20 -13
20 3 0 13 -9 23 -20z m8645 -14 c0 -2 -8 -10 -17 -17 -16 -13 -17 -12 -4 4 13
16 21 21 21 13z m-8470 -123 c0 -6 -82 54 -122 89 -18 16 2 4 45 -28 42 -31
77 -58 77 -61z m2214 47 c113 -27 222 -56 243 -65 74 -31 113 -86 113 -160 0
-82 -35 -135 -105 -159 l-36 -13 34 -26 c105 -80 81 -244 -46 -309 -57 -29
-142 -20 -387 40 -175 43 -195 50 -192 67 3 21 136 574 153 638 5 20 11 37 14
37 2 0 96 -22 209 -50z m6208 37 c-6 -7 -33 -28 -59 -47 -56 -39 -47 -26 17
24 49 38 59 43 42 23z m-2592 -199 c28 -90 63 -201 78 -248 14 -47 29 -89 33
-93 5 -7 235 59 315 90 13 5 71 -154 60 -164 -3 -3 -124 -43 -268 -88 -178
-56 -265 -79 -269 -71 -11 20 -211 667 -207 671 3 3 188 62 200 64 4 1 30 -72
58 -161z m2480 118 c0 -2 -8 -10 -17 -17 -16 -13 -17 -12 -4 4 13 16 21 21 21
13z m-8279 -23 c13 -16 12 -17 -3 -4 -17 13 -22 21 -14 21 2 0 10 -8 17 -17z
m8239 -7 c0 -3 -15 -14 -32 -26 l-33 -22 30 26 c31 27 35 29 35 22z m-8130
-72 c0 -3 -20 9 -45 26 -25 17 -45 33 -45 36 0 3 20 -9 45 -26 25 -17 45 -33
45 -36z m5309 -300 c34 -190 61 -347 59 -350 -5 -4 -212 -44 -214 -41 -3 5
-124 677 -124 689 0 11 24 20 83 30 45 9 93 16 107 17 l25 1 64 -346z m-2434
286 c266 -35 324 -53 365 -109 38 -54 43 -159 11 -220 -19 -35 -82 -81 -128
-92 l-46 -12 27 -14 c14 -8 37 -30 49 -51 25 -40 109 -263 102 -271 -3 -2 -46
1 -97 8 -159 21 -140 5 -193 149 -27 70 -54 137 -62 149 -11 16 -59 43 -78 43
-1 0 -10 -62 -20 -137 -9 -76 -20 -141 -24 -145 -5 -6 -211 17 -216 24 -1 2
90 687 94 706 1 2 13 1 29 -2 15 -3 99 -15 187 -26z m5147 8 c-6 -7 -25 -22
-44 -32 -39 -23 -32 -13 14 20 38 26 45 29 30 12z m-3167 -55 c3 -27 7 -59 9
-72 3 -18 -36 -77 -169 -250 -96 -124 -172 -227 -170 -229 2 -2 92 6 200 18
108 12 198 20 200 18 3 -2 7 -36 11 -75 l7 -72 -34 -5 c-19 -3 -158 -19 -309
-36 -151 -17 -287 -32 -302 -35 -25 -4 -27 -2 -33 43 -3 26 -8 59 -10 74 -3
22 25 65 166 249 95 124 165 225 159 227 -7 3 -84 -4 -171 -13 -88 -10 -161
-16 -163 -14 -2 2 -7 37 -11 77 -6 57 -4 72 6 73 8 0 142 15 299 33 157 19
290 34 297 35 7 1 14 -19 18 -46z m-4670 -58 l20 -16 -20 10 c-11 5 -29 17
-40 26 l-20 16 20 -10 c11 -5 29 -17 40 -26z m3833 -319 c67 -194 122 -359
122 -366 0 -9 -11 -11 -37 -6 -21 3 -73 6 -115 6 l-77 0 -12 56 c-7 31 -17 58
-23 59 -6 2 -64 5 -129 7 l-118 3 -17 -57 -17 -58 -107 0 c-59 0 -109 4 -112
8 -3 5 59 165 137 355 l141 347 122 0 121 0 121 -354z m3832 319 c0 -2 -10 -9
-22 -15 -22 -11 -22 -10 -4 4 21 17 26 19 26 11z m-7570 -61 c0 -2 -9 0 -20 6
-11 6 -20 13 -20 16 0 2 9 0 20 -6 11 -6 20 -13 20 -16z m7490 11 c0 -2 -10
-9 -22 -15 -22 -11 -22 -10 -4 4 21 17 26 19 26 11z m-7440 -41 c0 -2 -9 0
-20 6 -11 6 -20 13 -20 16 0 2 9 0 20 -6 11 -6 20 -13 20 -16z m7390 11 c0 -2
-10 -9 -22 -15 -22 -11 -22 -10 -4 4 21 17 26 19 26 11z m-7340 -41 c0 -2 -9
0 -20 6 -11 6 -20 13 -20 16 0 2 9 0 20 -6 11 -6 20 -13 20 -16z m7290 11 c0
-2 -13 -11 -30 -20 -38 -19 -40 -11 -2 9 31 17 32 18 32 11z m-7220 -51 c0 -2
-9 0 -20 6 -11 6 -20 13 -20 16 0 2 9 0 20 -6 11 -6 20 -13 20 -16z m7150 11
c0 -2 -13 -11 -30 -20 -38 -19 -40 -11 -2 9 31 17 32 18 32 11z m-7040 -70 c0
-3 -18 4 -40 15 -22 11 -40 23 -40 25 0 3 18 -4 40 -15 22 -11 40 -23 40 -25z
m6950 20 c0 -2 -18 -14 -40 -25 -22 -11 -40 -18 -40 -15 0 2 17 13 38 24 42
23 42 23 42 16z m-6634 -183 c-5 -4 -266 126 -266 133 0 3 61 -25 135 -62 74
-37 133 -69 131 -71z m6450 83 c-11 -8 -25 -15 -30 -15 -6 1 0 7 14 15 32 19
40 18 16 0z m-226 -110 c-14 -8 -29 -14 -35 -14 -5 0 1 6 15 14 14 8 30 14 35
14 6 0 -1 -6 -15 -14z m-6110 -20 c14 -8 21 -14 15 -14 -5 0 -21 6 -35 14 -14
8 -20 14 -15 14 6 0 21 -6 35 -14z m6010 -25 c-8 -5 -19 -10 -25 -10 -5 0 -3
5 5 10 8 5 20 10 25 10 6 0 3 -5 -5 -10z m-5920 -15 c14 -8 21 -14 15 -14 -5
0 -21 6 -35 14 -14 8 -20 14 -15 14 6 0 21 -6 35 -14z m5780 -45 c-8 -5 -19
-10 -25 -10 -5 0 -3 5 5 10 8 5 20 10 25 10 6 0 3 -5 -5 -10z m-5650 -10 c8
-5 11 -10 5 -10 -5 0 -17 5 -25 10 -8 5 -10 10 -5 10 6 0 17 -5 25 -10z m50
-20 c8 -5 11 -10 5 -10 -5 0 -17 5 -25 10 -8 5 -10 10 -5 10 6 0 17 -5 25 -10z
m5500 -10 c-8 -5 -19 -10 -25 -10 -5 0 -3 5 5 10 8 5 20 10 25 10 6 0 3 -5 -5
-10z m-5450 -10 c8 -5 11 -10 5 -10 -5 0 -17 5 -25 10 -8 5 -10 10 -5 10 6 0
17 -5 25 -10z m5400 -10 c-8 -5 -19 -10 -25 -10 -5 0 -3 5 5 10 8 5 20 10 25
10 6 0 3 -5 -5 -10z m-433 -156 c-3 -3 -12 -4 -19 -1 -8 3 -5 6 6 6 11 1 17
-2 13 -5z m-4310 -60 c-3 -3 -12 -4 -19 -1 -8 3 -5 6 6 6 11 1 17 -2 13 -5z
m4080 -10 c-3 -3 -12 -4 -19 -1 -8 3 -5 6 6 6 11 1 17 -2 13 -5z m-3970 -20
c-3 -3 -12 -4 -19 -1 -8 3 -5 6 6 6 11 1 17 -2 13 -5z m3860 -10 c-3 -3 -12
-4 -19 -1 -8 3 -5 6 6 6 11 1 17 -2 13 -5z m-3750 -20 c-3 -3 -12 -4 -19 -1
-8 3 -5 6 6 6 11 1 17 -2 13 -5z m3640 -10 c-3 -3 -12 -4 -19 -1 -8 3 -5 6 6
6 11 1 17 -2 13 -5z m-3560 -10 c-3 -3 -12 -4 -19 -1 -8 3 -5 6 6 6 11 1 17
-2 13 -5z m3520 0 c-3 -3 -12 -4 -19 -1 -8 3 -5 6 6 6 11 1 17 -2 13 -5z
m-3480 -10 c-3 -3 -12 -4 -19 -1 -8 3 -5 6 6 6 11 1 17 -2 13 -5z m3440 0 c-3
-3 -12 -4 -19 -1 -8 3 -5 6 6 6 11 1 17 -2 13 -5z m-3400 -10 c-3 -3 -12 -4
-19 -1 -8 3 -5 6 6 6 11 1 17 -2 13 -5z m3310 -10 c-3 -3 -12 -4 -19 -1 -8 3
-5 6 6 6 11 1 17 -2 13 -5z m-3220 -10 c-3 -3 -12 -4 -19 -1 -8 3 -5 6 6 6 11
1 17 -2 13 -5z m3180 0 c-3 -3 -12 -4 -19 -1 -8 3 -5 6 6 6 11 1 17 -2 13 -5z
m-3140 -10 c-3 -3 -12 -4 -19 -1 -8 3 -5 6 6 6 11 1 17 -2 13 -5z m3100 0 c-3
-3 -12 -4 -19 -1 -8 3 -5 6 6 6 11 1 17 -2 13 -5z m-3050 -10 c-3 -3 -12 -4
-19 -1 -8 3 -5 6 6 6 11 1 17 -2 13 -5z m3000 0 c-3 -3 -12 -4 -19 -1 -8 3 -5
6 6 6 11 1 17 -2 13 -5z m-2950 -10 c-3 -3 -12 -4 -19 -1 -8 3 -5 6 6 6 11 1
17 -2 13 -5z m2900 0 c-3 -3 -12 -4 -19 -1 -8 3 -5 6 6 6 11 1 17 -2 13 -5z
m-2850 -10 c-3 -3 -12 -4 -19 -1 -8 3 -5 6 6 6 11 1 17 -2 13 -5z m2800 0 c-3
-3 -12 -4 -19 -1 -8 3 -5 6 6 6 11 1 17 -2 13 -5z m-2750 -10 c-3 -3 -12 -4
-19 -1 -8 3 -5 6 6 6 11 1 17 -2 13 -5z m2700 0 c-3 -3 -12 -4 -19 -1 -8 3 -5
6 6 6 11 1 17 -2 13 -5z m-2650 -10 c-3 -3 -12 -4 -19 -1 -8 3 -5 6 6 6 11 1
17 -2 13 -5z m2600 0 c-3 -3 -12 -4 -19 -1 -8 3 -5 6 6 6 11 1 17 -2 13 -5z
m-2544 -11 c-7 -2 -19 -2 -25 0 -7 3 -2 5 12 5 14 0 19 -2 13 -5z m2490 0 c-7
-2 -19 -2 -25 0 -7 3 -2 5 12 5 14 0 19 -2 13 -5z m-2430 -10 c-7 -2 -19 -2
-25 0 -7 3 -2 5 12 5 14 0 19 -2 13 -5z m2364 1 c-3 -3 -12 -4 -19 -1 -8 3 -5
6 6 6 11 1 17 -2 13 -5z m-2304 -11 c-7 -2 -19 -2 -25 0 -7 3 -2 5 12 5 14 0
19 -2 13 -5z m2244 1 c-3 -3 -12 -4 -19 -1 -8 3 -5 6 6 6 11 1 17 -2 13 -5z
m-2184 -11 c-7 -2 -19 -2 -25 0 -7 3 -2 5 12 5 14 0 19 -2 13 -5z m2124 1 c-3
-3 -12 -4 -19 -1 -8 3 -5 6 6 6 11 1 17 -2 13 -5z m-2054 -11 c-7 -2 -19 -2
-25 0 -7 3 -2 5 12 5 14 0 19 -2 13 -5z m1990 0 c-7 -2 -21 -2 -30 0 -10 3 -4
5 12 5 17 0 24 -2 18 -5z m-1910 -10 c-7 -2 -19 -2 -25 0 -7 3 -2 5 12 5 14 0
19 -2 13 -5z m1830 0 c-7 -2 -19 -2 -25 0 -7 3 -2 5 12 5 14 0 19 -2 13 -5z
m-1750 -10 c-7 -2 -21 -2 -30 0 -10 3 -4 5 12 5 17 0 24 -2 18 -5z m1670 0
c-7 -2 -19 -2 -25 0 -7 3 -2 5 12 5 14 0 19 -2 13 -5z m-1585 -10 c-10 -2 -26
-2 -35 0 -10 3 -2 5 17 5 19 0 27 -2 18 -5z m1505 0 c-7 -2 -21 -2 -30 0 -10
3 -4 5 12 5 17 0 24 -2 18 -5z m-1395 -10 c-10 -2 -28 -2 -40 0 -13 2 -5 4 17
4 22 1 32 -1 23 -4z m1290 0 c-10 -2 -26 -2 -35 0 -10 3 -2 5 17 5 19 0 27 -2
18 -5z m-1190 -10 c-10 -2 -26 -2 -35 0 -10 3 -2 5 17 5 19 0 27 -2 18 -5z
m1080 0 c-10 -2 -26 -2 -35 0 -10 3 -2 5 17 5 19 0 27 -2 18 -5z m-910 -10
c-16 -2 -40 -2 -55 0 -16 2 -3 4 27 4 30 0 43 -2 28 -4z m770 0 c-16 -2 -40
-2 -55 0 -16 2 -3 4 27 4 30 0 43 -2 28 -4z"/>
<path d="M8250 8855 l0 -65 75 0 c86 0 115 18 115 69 0 45 -31 61 -117 61
l-73 0 0 -65z"/>
<path d="M8250 8580 l0 -70 83 0 c99 0 127 14 127 63 0 60 -30 77 -134 77
l-76 0 0 -70z"/>
<path d="M10721 8365 c-63 -57 -109 -190 -90 -260 12 -41 57 -81 109 -95 86
-23 159 43 201 181 17 55 18 74 10 106 -18 65 -71 103 -145 103 -38 0 -52 -6
-85 -35z"/>
<path d="M7795 7884 c-1145 -73 -2171 -440 -2941 -1051 -142 -113 -437 -410
-540 -543 -137 -177 -272 -393 -338 -542 -25 -58 -25 -58 -68 -58 l-43 0 30
-19 c17 -10 47 -36 68 -58 30 -31 39 -49 43 -89 8 -68 -17 -242 -69 -489 -51
-235 -72 -356 -65 -376 2 -7 37 27 80 79 74 89 76 93 83 159 32 313 64 525 87
575 30 65 106 150 163 183 31 19 50 41 74 85 342 654 1021 1218 1871 1553 492
194 985 307 1565 358 180 16 680 16 855 1 759 -68 1380 -244 1968 -557 315
-168 559 -344 806 -585 238 -233 405 -455 538 -719 37 -74 68 -138 68 -143 0
-4 -15 1 -32 12 -20 12 -51 20 -78 20 l-45 0 30 -19 c71 -45 129 -128 159
-230 23 -77 21 -98 -24 -260 -47 -171 -63 -321 -58 -534 3 -128 5 -150 21
-161 9 -7 17 -17 17 -22 0 -5 9 -15 20 -22 14 -8 20 -23 20 -48 0 -31 -11 -48
-87 -129 -115 -124 -143 -140 -236 -130 -39 3 -79 11 -89 16 -31 17 -20 -7 20
-43 46 -41 95 -53 154 -38 61 17 96 44 208 162 l100 106 0 64 c0 62 -1 64 -34
82 -54 29 -60 54 -53 249 3 95 11 207 17 249 9 66 73 314 83 324 6 6 28 -119
47 -261 10 -71 18 -120 19 -108 0 11 16 81 35 155 37 146 98 303 146 374 l31
46 -17 51 c-28 83 -102 245 -162 352 -138 248 -280 433 -512 665 -320 321
-627 539 -1075 761 -576 286 -1188 456 -1920 534 -143 16 -790 28 -940 19z"/>
<path d="M9566 6649 c88 -13 129 -33 191 -92 67 -63 91 -109 99 -186 12 -114
-57 -265 -211 -458 -78 -99 -394 -424 -509 -523 l-74 -65 97 -12 c207 -25 315
-69 427 -175 53 -50 83 -90 106 -137 31 -62 33 -72 33 -176 0 -99 -3 -116 -28
-170 -125 -267 -571 -736 -807 -849 -57 -27 -74 -31 -143 -29 -45 1 -90 8
-107 17 -35 17 -37 14 -10 -24 29 -41 97 -64 167 -57 132 14 330 152 558 389
345 359 466 577 436 785 -22 151 -107 274 -237 345 -69 37 -215 78 -307 85
-43 3 -76 9 -75 13 2 4 55 56 118 115 154 144 335 339 425 457 144 190 204
319 205 439 0 102 -23 163 -83 224 -65 64 -121 85 -242 90 -88 4 -88 4 -29 -6z"/>
<path d="M9335 6620 c-276 -32 -574 -130 -910 -300 l-173 -87 -27 58 c-29 63
-83 119 -116 119 -33 0 -50 -60 -56 -195 l-6 -120 -86 -90 c-179 -186 -256
-343 -292 -600 -6 -45 -13 -282 -16 -535 -5 -485 0 -557 45 -633 27 -47 79
-79 122 -75 55 5 69 44 80 229 15 242 34 366 131 869 l61 315 67 66 c56 55 88
76 201 132 290 142 731 264 875 243 131 -20 128 -141 -8 -274 -160 -159 -490
-354 -687 -407 -137 -37 -189 -66 -269 -150 -77 -81 -111 -153 -111 -234 0
-81 -1 -81 276 -80 253 1 362 -9 466 -42 187 -61 287 -190 289 -373 1 -86 -14
-126 -69 -181 -46 -47 -93 -67 -154 -67 -91 1 -167 53 -234 158 -20 33 -38 60
-40 62 -1 2 -15 -3 -30 -11 -24 -13 -30 -24 -40 -83 -7 -38 -22 -125 -34 -193
-42 -239 3 -344 139 -328 110 13 265 121 476 332 224 224 371 419 428 565 26
67 29 83 25 165 -5 116 -38 193 -112 263 -107 101 -246 144 -473 146 -84 0
-152 3 -150 6 1 3 70 67 152 142 462 417 715 751 715 941 0 110 -58 200 -150
232 -56 20 -199 27 -305 15z"/>
<path d="M8159 6443 c-12 -3 2 -22 51 -71 37 -37 70 -74 72 -82 4 -12 8 -12
31 3 24 15 26 21 16 40 -34 67 -119 121 -170 110z"/>
<path d="M9095 5964 c-298 -58 -730 -230 -853 -339 -29 -26 -59 -60 -68 -76
-15 -30 -55 -218 -118 -556 -51 -270 -75 -453 -86 -635 -10 -163 -21 -207 -58
-227 -27 -14 -136 3 -178 28 l-36 21 20 -27 c43 -61 102 -92 174 -93 47 0 99
43 117 97 7 21 16 105 22 188 5 82 20 226 34 320 27 179 139 777 156 832 30
95 253 216 614 333 160 52 275 78 383 86 67 6 82 10 82 23 0 10 -5 22 -12 29
-16 16 -104 14 -193 -4z"/>
<path d="M5482 5855 c-61 -14 -68 -19 -78 -58 -6 -27 -5 -28 21 -21 25 6 27 5
21 -12 -28 -70 -68 -259 -69 -321 -2 -80 8 -97 45 -88 23 6 24 9 20 65 -5 68
14 165 65 328 19 63 33 115 31 116 -2 2 -27 -2 -56 -9z"/>
<path d="M5289 5792 l-67 -15 -53 -173 c-30 -95 -56 -170 -60 -166 -3 4 -13
42 -22 84 -35 170 -87 178 -285 45 -89 -60 -108 -77 -110 -101 -3 -20 3 -32
18 -43 53 -37 61 -124 35 -379 -26 -245 -53 -458 -86 -662 -35 -218 -35 -222
37 -222 89 0 221 76 258 149 8 14 47 225 87 469 42 250 77 435 81 425 4 -10
10 -36 13 -57 13 -78 94 -121 153 -80 27 19 41 46 85 162 25 65 31 92 22 92
-28 0 -73 50 -83 92 -15 61 5 195 52 351 17 53 22 51 -75 29z"/>
<path d="M6283 5716 c38 -17 125 -103 147 -146 10 -19 25 -67 35 -107 13 -53
22 -73 36 -76 11 -3 24 -19 30 -35 6 -18 17 -29 27 -28 15 1 17 -10 16 -79 -1
-98 -23 -169 -68 -221 -32 -37 -35 -48 -55 -185 -66 -457 -169 -624 -436 -705
-46 -14 -92 -19 -195 -18 -153 0 -214 13 -295 65 l-49 31 25 -33 c36 -47 111
-96 177 -115 79 -23 280 -15 377 16 268 84 391 281 456 728 19 130 25 150 50
182 45 56 71 134 77 232 2 47 2 98 -2 112 -8 33 -44 66 -71 66 -18 0 -23 11
-39 77 -22 93 -53 157 -98 200 -41 39 -76 53 -131 52 -42 -1 -42 -1 -14 -13z"/>
<path d="M6176 5668 l-33 -33 -149 0 c-145 0 -151 -1 -204 -29 -162 -85 -277
-313 -341 -672 -19 -107 -23 -165 -24 -345 l0 -216 35 -69 c27 -53 46 -76 83
-101 65 -43 104 -53 217 -53 222 1 378 73 477 224 62 94 110 258 144 495 18
122 25 150 44 171 44 47 75 132 82 223 7 96 -1 110 -47 77 -16 -12 -34 -18
-40 -15 -5 3 -10 29 -10 56 0 127 -59 272 -123 303 -51 23 -75 20 -111 -16z
m-80 -180 c-3 -40 -7 -140 -8 -223 -1 -154 8 -202 48 -246 13 -14 12 -34 -6
-173 -33 -257 -67 -393 -116 -468 -55 -85 -169 -53 -223 61 -24 53 -26 64 -25
196 4 372 99 740 225 867 40 40 57 49 103 57 4 0 5 -32 2 -71z"/>
<path d="M6035 5445 c-112 -148 -197 -508 -199 -845 -1 -193 19 -240 104 -240
l32 0 -25 30 c-44 52 -50 89 -44 274 8 241 56 487 126 640 23 50 49 176 36
176 -1 0 -15 -16 -30 -35z"/>
<path d="M5074 5640 c29 -27 56 -50 59 -50 3 0 9 14 12 32 10 43 -20 68 -81
68 l-43 0 53 -50z"/>
<path d="M10738 5676 c19 -9 56 -39 83 -67 66 -68 79 -116 79 -283 -1 -259
-45 -419 -130 -469 -47 -28 -149 -47 -282 -54 l-128 -6 -2 -91 c-4 -130 0
-221 12 -250 8 -23 15 -26 56 -26 l46 0 -23 19 c-23 18 -24 24 -24 153 l0 133
105 7 c117 7 216 29 272 61 96 53 149 204 163 467 15 268 -50 404 -201 416
l-59 5 33 -15z"/>
<path d="M5971 5676 c2 -2 40 -6 84 -10 55 -4 75 -3 65 4 -13 9 -159 15 -149
6z"/>
<path d="M11683 5673 c21 -3 27 -10 27 -29 0 -15 6 -24 15 -24 21 0 76 41 69
52 -3 4 -35 7 -72 7 -37 -1 -55 -4 -39 -6z"/>
<path d="M3643 5585 l-148 -76 -6 -39 c-4 -34 -1 -42 24 -66 29 -28 29 -30 23
-102 -3 -41 -33 -207 -66 -371 -72 -360 -83 -442 -78 -579 5 -148 33 -192 124
-192 68 0 107 33 311 260 108 121 198 218 200 216 2 -1 -1 -36 -7 -77 -13
-103 -12 -264 2 -311 35 -117 166 -117 255 1 15 20 58 68 94 106 39 41 69 82
73 100 5 26 2 33 -30 53 -65 42 -74 104 -54 357 14 177 27 247 70 375 49 149
63 222 58 311 -3 60 -8 74 -27 90 -28 23 -88 25 -136 5 -74 -31 -171 -146
-194 -231 -6 -22 -26 -167 -45 -321 l-33 -282 -86 -100 c-84 -97 -131 -142
-148 -142 -41 0 -30 128 41 465 97 461 102 578 24 614 -51 23 -89 13 -241 -64z"/>
<path d="M10650 5648 c-19 -5 -96 -13 -171 -17 -167 -10 -222 -31 -304 -116
-156 -162 -273 -583 -276 -992 -1 -178 24 -260 105 -331 124 -109 406 -32 622
170 55 52 64 65 69 106 4 26 9 56 12 67 4 13 -12 4 -48 -29 -77 -70 -147 -100
-231 -101 -56 0 -70 4 -92 24 -42 39 -50 82 -48 245 1 82 3 151 5 152 1 1 65
7 142 13 255 20 320 55 360 195 37 130 48 408 20 504 -28 92 -84 130 -165 110z
m-100 -158 c17 -40 8 -233 -15 -315 -21 -81 -73 -162 -131 -207 -42 -33 -91
-55 -100 -46 -5 6 24 218 41 298 30 144 76 256 117 284 38 27 74 21 88 -14z"/>
<path d="M10496 5427 c-16 -26 -39 -80 -51 -120 -22 -67 -69 -316 -62 -323 2
-2 18 11 36 30 26 27 35 48 51 124 10 50 30 131 45 181 20 68 24 97 17 123
l-8 33 -28 -48z"/>
<path d="M12780 5645 c-30 -8 -69 -14 -86 -15 -17 0 -55 -7 -84 -16 -71 -21
-170 -119 -222 -219 -108 -208 -178 -528 -194 -881 -6 -131 -5 -158 11 -209
24 -76 82 -138 144 -155 110 -29 222 17 411 170 122 99 125 102 132 148 3 26
7 64 7 85 l1 39 -62 -57 c-119 -108 -190 -133 -234 -82 -46 53 -42 160 16 446
56 272 119 487 150 506 7 4 18 1 26 -7 16 -16 44 -134 44 -188 0 -24 6 -39 20
-48 22 -14 23 -13 122 106 l44 54 -8 76 c-12 113 -36 181 -79 225 -41 42 -65
45 -159 22z"/>
<path d="M11454 5640 c-135 -18 -203 -48 -274 -119 -74 -74 -101 -144 -174
-452 -83 -350 -99 -440 -100 -564 0 -79 5 -116 24 -175 43 -132 146 -209 227
-167 72 38 217 196 363 394 75 102 98 124 86 81 -14 -50 -19 -304 -7 -360 20
-94 67 -135 140 -122 29 5 57 28 144 116 92 94 107 113 107 142 0 22 -8 40
-26 57 -49 45 -54 67 -54 227 0 211 15 336 58 492 48 176 49 237 2 338 -35 77
-77 122 -113 122 -36 0 -85 -37 -107 -80 -33 -65 -47 -139 -85 -439 l-36 -283
-58 -72 c-80 -97 -186 -203 -213 -212 -31 -10 -58 27 -58 80 0 117 91 625 131
732 33 88 102 142 209 165 l51 11 -3 46 -3 47 -85 1 c-47 1 -113 -2 -146 -6z"/>
<path d="M11625 5479 c-60 -29 -103 -77 -125 -137 -43 -113 -145 -710 -126
-730 4 -4 20 7 35 23 24 27 29 48 50 190 27 182 73 415 96 486 15 44 37 70
104 119 25 19 40 70 20 70 -8 -1 -32 -10 -54 -21z"/>
<path d="M4692 5374 c1 -9 9 -19 16 -22 9 -3 13 2 10 14 -1 9 -9 19 -16 22 -9
3 -13 -2 -10 -14z"/>
<path d="M5498 5366 c-34 -7 -49 -15 -57 -34 -13 -28 -13 -28 16 -39 21 -8 21
-9 -22 -118 -31 -77 -53 -118 -76 -138 -29 -27 -35 -28 -93 -22 -33 4 -71 11
-83 16 -26 10 -17 50 -89 -386 -63 -385 -68 -400 -156 -457 -96 -62 -150 -73
-275 -55 -59 9 -68 -2 -35 -43 17 -21 27 -23 118 -24 92 -1 103 1 166 32 75
36 145 99 170 153 10 20 43 190 74 378 50 296 60 341 73 335 30 -14 102 -16
130 -4 52 21 72 54 107 179 18 66 45 145 59 177 14 31 24 58 23 58 -2 1 -24
-2 -50 -8z"/>
<path d="M8170 4842 c0 -11 39 -46 66 -60 14 -8 108 -11 275 -10 328 2 454
-20 557 -99 47 -36 50 -22 5 24 -52 54 -115 89 -209 115 -71 20 -106 22 -351
24 -149 1 -288 5 -307 8 -20 4 -36 3 -36 -2z"/>
<path d="M10811 4672 c-65 -75 -81 -107 -81 -157 l1 -40 20 24 c11 13 21 22
23 20 2 -2 0 -31 -5 -64 -9 -53 -16 -66 -62 -113 -98 -101 -237 -186 -354
-216 -121 -32 -279 -16 -351 34 -49 35 -44 15 10 -37 58 -56 121 -78 218 -77
178 2 370 95 533 261 l57 59 25 179 c13 99 23 181 21 183 -2 1 -26 -24 -55
-56z"/>
<path d="M8756 4475 c-10 -8 -24 -16 -30 -18 -15 -5 9 -57 26 -57 7 0 24 -20
37 -45 41 -77 113 -125 189 -125 30 0 28 16 -4 24 -41 11 -110 88 -146 165
-18 39 -37 71 -43 70 -5 0 -19 -6 -29 -14z"/>
<path d="M11500 4407 c-76 -97 -215 -242 -257 -268 -30 -19 -44 -21 -103 -15
-80 7 -116 19 -147 48 -36 34 -27 12 14 -33 71 -78 176 -105 253 -64 45 23
143 117 232 222 67 80 69 83 66 131 l-3 49 -55 -70z"/>
<path d="M7330 3316 c-187 -40 -290 -179 -290 -391 0 -137 38 -235 121 -309
52 -48 105 -71 193 -87 141 -24 286 8 371 83 157 138 162 484 8 619 -95 83
-256 117 -403 85z m191 -198 c54 -30 73 -75 76 -178 4 -110 -17 -174 -67 -208
-30 -20 -45 -23 -97 -20 -95 6 -131 47 -148 169 -8 64 9 163 36 200 42 60 131
76 200 37z"/>
<path d="M6170 2925 l0 -395 120 0 120 0 0 160 0 160 130 0 130 0 0 -160 0
-160 120 0 120 0 0 395 0 396 -117 -3 -118 -3 -3 -137 -3 -138 -129 0 -129 0
-3 138 -3 137 -117 3 -118 3 0 -396z"/>
<path d="M7897 3313 c-4 -3 -7 -48 -7 -100 l0 -93 120 0 120 0 2 -292 3 -293
120 0 120 0 3 293 2 292 120 0 120 0 0 100 0 100 -358 0 c-197 0 -362 -3 -365
-7z"/>
<path d="M8725 3307 c-3 -6 -4 -183 -3 -392 l3 -380 328 -3 327 -2 0 95 0 95
-205 0 -205 0 0 70 0 70 185 0 185 0 0 85 0 85 -185 0 -185 0 0 55 0 55 200 0
200 0 0 90 0 90 -320 0 c-248 0 -322 -3 -325 -13z"/>
<path d="M9517 3313 c-4 -3 -7 -181 -7 -395 l0 -388 308 2 307 3 3 98 3 97
-191 0 -190 0 0 295 0 295 -113 0 c-63 0 -117 -3 -120 -7z"/>
<path d="M1831 6619 c-6 -18 -11 -46 -11 -64 l0 -32 -122 -6 c-66 -4 -177 -7
-246 -7 -138 0 -178 11 -215 62 -24 32 -64 38 -73 11 -3 -10 -28 -76 -56 -148
-28 -71 -61 -161 -75 -200 -60 -174 -32 -294 79 -341 61 -25 183 -22 431 11
114 15 209 26 211 24 2 -2 0 -35 -5 -74 -70 -539 -92 -662 -146 -830 -19 -60
-46 -132 -60 -159 -33 -65 -26 -96 23 -96 94 0 182 86 260 255 48 105 67 195
120 585 25 190 50 348 53 353 22 24 450 77 640 79 121 2 142 -1 195 -21 177
-70 253 -245 226 -522 -27 -285 -123 -492 -312 -675 -134 -130 -249 -198 -415
-246 -71 -21 -98 -23 -293 -22 -239 0 -311 13 -437 74 -73 36 -147 113 -165
172 -13 46 -24 53 -59 39 -23 -8 -27 -20 -48 -133 -28 -149 -38 -307 -22 -365
46 -168 255 -239 601 -203 530 55 916 326 1169 820 137 265 207 545 231 922
26 394 -47 607 -231 675 -107 40 -166 48 -364 46 -140 -1 -254 -9 -435 -31
l-245 -29 -33 26 c-114 89 -153 100 -171 50z"/>
<path d="M2480 5995 c-186 -20 -412 -58 -416 -69 -2 -6 -24 -164 -49 -351 -55
-403 -71 -480 -130 -601 -59 -123 -111 -185 -178 -219 -50 -24 -60 -25 -121
-17 -36 5 -66 5 -66 2 0 -18 43 -58 87 -82 72 -40 181 -66 325 -79 304 -28
550 44 750 218 225 195 338 439 354 758 12 229 -48 364 -191 431 -43 20 -64
24 -150 23 -55 -1 -152 -7 -215 -14z"/>
<path d="M13625 6596 c-132 -42 -180 -107 -260 -356 -82 -256 -171 -653 -249
-1112 -81 -473 -125 -825 -112 -893 8 -43 48 -72 120 -87 82 -17 91 -8 155
163 188 501 249 643 303 705 16 18 35 31 40 28 15 -10 3 -125 -38 -364 -54
-315 -49 -427 23 -502 66 -69 147 -41 318 108 53 46 74 71 77 93 4 26 0 31
-33 44 -50 20 -79 67 -79 129 0 77 28 260 75 478 59 280 68 340 69 452 1 88
-1 99 -21 119 -33 33 -125 38 -180 11 -84 -43 -172 -171 -287 -416 -65 -138
-144 -278 -181 -321 l-26 -30 6 75 c8 93 39 252 103 523 45 189 53 212 89 260
63 84 98 145 157 267 96 201 146 380 146 526 0 100 -14 114 -107 113 -38 0
-86 -6 -108 -13z"/>
<path d="M6278 1153 c-9 -35 -13 -65 -9 -67 16 -10 119 -28 141 -25 50 8 66
94 22 118 -10 5 -46 16 -79 24 l-60 14 -15 -64z"/>
<path d="M6227 943 c-8 -14 -29 -124 -24 -129 2 -2 38 -12 80 -21 88 -19 122
-11 133 32 12 49 -2 72 -59 93 -64 24 -124 35 -130 25z"/>
<path d="M7106 1018 c-3 -18 -8 -49 -11 -69 l-5 -36 46 -7 c78 -10 110 -7 138
15 31 24 35 68 8 92 -19 18 -90 36 -139 37 -29 0 -33 -4 -37 -32z"/>
<path d="M7976 814 c-21 -64 -36 -118 -33 -120 2 -3 36 -4 74 -2 l70 3 -31
112 c-17 61 -33 114 -36 117 -3 3 -23 -47 -44 -110z"/>
</g>
</svg>
