<?xml version="1.0" standalone="no"?>
<!DOCTYPE svg PUBLIC "-//W3C//DTD SVG 20010904//EN"
 "http://www.w3.org/TR/2001/REC-SVG-20010904/DTD/svg10.dtd">
<svg version="1.0" xmlns="http://www.w3.org/2000/svg"
 width="714.000000pt" height="441.000000pt" viewBox="0 0 714.000000 441.000000"
 preserveAspectRatio="xMidYMid meet">
<metadata>
Created by potrace 1.13, written by Peter Selinger 2001-2015
</metadata>
<g transform="translate(0.000000,441.000000) scale(0.100000,-0.100000)"
fill="#000000" stroke="none">
<path d="M3369 4280 c-157 -10 -268 -26 -439 -60 -560 -112 -1062 -360 -1432
-709 l-96 -91 -559 0 c-521 0 -561 -2 -599 -19 -51 -23 -99 -81 -113 -137 -15
-60 -15 -1578 0 -1638 13 -54 59 -110 110 -136 36 -19 60 -20 438 -20 l401 0
34 -67 c207 -411 635 -786 1149 -1008 840 -364 1742 -366 2583 -5 454 195 830
496 1067 855 32 50 74 120 93 157 l34 67 419 3 419 3 43 30 c23 17 53 50 66
74 l23 44 0 822 0 822 -23 44 c-13 24 -43 58 -66 74 l-43 30 -580 3 -580 2
-97 91 c-496 467 -1221 749 -1986 773 -82 2 -202 1 -266 -4z m568 -649 c270
-41 471 -103 708 -221 192 -95 313 -180 456 -317 126 -122 220 -250 286 -390
l48 -102 88 6 c77 5 87 4 87 -11 0 -20 9 -20 34 -1 27 20 49 19 80 -6 36 -29
66 -90 66 -137 0 -21 -8 -72 -19 -113 -10 -41 -22 -122 -26 -181 -6 -93 -5
-111 11 -137 10 -17 22 -31 26 -31 23 0 1 -41 -49 -92 -49 -50 -63 -58 -94
-58 -21 0 -45 3 -54 6 -26 10 -45 59 -45 116 l-1 53 -25 -30 c-14 -16 -51 -56
-81 -87 -50 -52 -60 -58 -97 -58 -41 0 -83 20 -99 48 -7 10 -15 0 -33 -38 -71
-154 -240 -353 -402 -475 -252 -189 -567 -313 -942 -371 -160 -25 -510 -25
-670 0 -577 90 -1033 363 -1249 749 -28 48 -30 57 -15 57 9 0 50 33 89 74 84
85 99 125 57 152 -24 16 -25 17 -20 138 5 96 11 137 33 201 36 107 38 184 6
219 -14 14 -35 26 -49 26 -23 0 -23 0 7 -26 28 -23 31 -32 31 -81 0 -32 -10
-85 -25 -129 -16 -46 -29 -118 -36 -194 -10 -109 -9 -122 7 -150 10 -16 22
-30 26 -30 24 0 0 -43 -55 -102 -57 -61 -68 -68 -101 -68 -20 0 -46 5 -58 11
-25 14 -48 68 -48 116 l-1 38 -77 -82 c-73 -78 -81 -83 -119 -83 -55 0 -71 7
-88 41 -24 45 -18 148 20 336 36 178 43 253 25 253 -5 0 -10 15 -10 33 0 30 5
34 71 67 l71 35 39 84 c239 517 861 888 1610 961 142 13 453 4 606 -19z
m-3129 -555 l29 -25 129 15 c165 20 345 15 394 -10 49 -25 88 -64 113 -111 26
-51 35 -227 17 -358 -53 -395 -276 -673 -593 -742 -107 -24 -295 -18 -352 10
-57 29 -85 75 -85 143 0 65 19 182 32 198 17 23 49 24 57 2 7 -19 8 -19 24 5
36 56 71 211 102 456 l7 54 -28 -7 c-68 -14 -231 -19 -268 -6 -45 15 -76 60
-76 110 1 50 83 264 104 268 9 2 30 -8 47 -22 33 -28 49 -30 173 -19 52 4 79
11 82 20 2 7 6 20 9 28 7 23 50 18 83 -9z m5870 -19 c16 -15 22 -32 22 -61 -1
-91 -56 -245 -126 -351 -38 -59 -50 -90 -75 -194 -16 -68 -28 -125 -27 -127 2
-1 25 39 51 91 66 129 109 175 168 182 41 5 48 2 78 -27 32 -32 32 -35 26 -94
-4 -34 -19 -124 -35 -201 -15 -77 -31 -168 -35 -203 -7 -59 -6 -64 14 -69 12
-3 21 -12 21 -19 0 -8 5 -14 10 -14 22 0 7 -30 -34 -68 -63 -58 -100 -75 -147
-67 -81 14 -100 80 -71 253 10 62 15 109 12 105 -4 -4 -36 -82 -70 -173 -35
-91 -68 -171 -74 -179 -7 -9 -23 -11 -54 -7 -55 7 -81 22 -91 49 -25 70 89
738 171 997 46 147 75 183 161 199 51 10 75 5 105 -22z m-433 -482 c22 -23 35
-49 40 -77 3 -24 9 -50 11 -59 6 -23 -63 -104 -92 -106 -26 -2 -37 10 -51 51
-8 27 -11 22 -31 -60 -32 -130 -57 -287 -49 -307 9 -23 33 -11 100 52 l50 46
-7 -39 c-7 -37 -6 -39 10 -25 16 13 17 12 11 -4 -4 -10 -7 -31 -7 -46 0 -22
-13 -38 -64 -79 -86 -71 -146 -96 -204 -88 -98 13 -126 58 -123 196 3 202 54
402 127 497 41 54 104 78 208 82 32 1 44 -5 71 -34z m-4505 -688 c0 -25 88
-192 141 -267 70 -101 233 -260 349 -343 126 -89 375 -214 530 -264 295 -96
519 -128 860 -120 397 8 680 73 995 227 319 156 540 349 688 603 34 59 54 83
83 97 21 11 39 18 40 17 6 -6 -86 -180 -132 -249 -77 -117 -288 -321 -424
-410 -291 -192 -602 -305 -995 -360 -135 -19 -523 -16 -665 5 -475 71 -854
237 -1161 509 -131 116 -272 307 -334 451 -27 64 -27 66 -9 91 21 28 34 33 34
13z"/>
<path d="M3250 3555 c-679 -82 -1234 -415 -1468 -881 l-31 -61 30 -29 c39 -37
38 -70 -6 -291 -20 -97 -34 -180 -33 -184 2 -4 18 10 37 33 33 39 35 47 53
192 19 150 20 151 80 269 73 143 150 250 258 355 269 263 666 440 1130 503
122 17 459 17 575 1 452 -63 815 -221 1075 -469 147 -139 246 -291 300 -460
l27 -84 27 45 c14 24 37 53 51 64 l25 20 -30 67 c-211 470 -798 829 -1486 910
-155 18 -465 18 -614 0z"/>
<path d="M4579 3086 c53 -18 97 -58 112 -103 31 -96 -46 -221 -275 -445 -97
-94 -107 -108 -85 -108 20 0 54 29 150 128 132 135 221 256 240 325 30 111
-27 196 -141 211 l-45 6 44 -14z"/>
<path d="M4435 3074 c-142 -21 -282 -67 -440 -147 l-91 -45 -19 36 c-22 38
-50 61 -62 49 -4 -5 -10 -39 -14 -76 -5 -64 -9 -71 -62 -134 -119 -140 -128
-179 -134 -532 -4 -255 -2 -283 14 -315 20 -38 65 -62 84 -43 6 6 15 60 19
120 9 124 9 124 57 377 32 170 39 192 66 223 63 72 383 192 513 193 46 0 79
-30 70 -64 -20 -82 -239 -235 -402 -281 -32 -10 -74 -28 -91 -41 -46 -35 -85
-105 -81 -146 l3 -33 165 -6 c97 -3 179 -11 200 -19 56 -20 101 -59 121 -104
69 -152 -76 -277 -184 -157 -19 21 -36 44 -38 50 -3 7 -11 9 -20 6 -11 -4 -20
-36 -32 -109 -14 -87 -15 -111 -5 -143 12 -35 16 -38 53 -41 73 -5 199 91 340
260 126 149 158 242 116 334 -36 78 -115 118 -261 130 l-78 7 126 121 c141
136 234 247 268 321 40 85 28 162 -30 192 -30 16 -118 24 -171 17z"/>
<path d="M4295 2744 c-206 -50 -394 -136 -425 -194 -23 -44 -87 -397 -104
-574 -13 -138 -19 -147 -88 -129 l-43 11 28 -24 c27 -23 71 -31 93 -16 24 16
35 56 44 169 10 126 74 488 95 538 8 19 33 42 70 65 72 43 314 126 395 135 39
5 60 11 57 19 -5 16 -54 17 -122 0z"/>
<path d="M2433 2663 c-19 -4 -28 -20 -49 -89 -18 -57 -30 -81 -35 -72 -5 7 -9
22 -9 33 0 11 -7 31 -16 44 -21 29 -49 23 -121 -25 -56 -36 -64 -55 -37 -82
14 -14 16 -32 11 -122 -7 -116 -32 -320 -51 -418 -11 -53 -11 -65 1 -69 27
-11 86 9 119 40 33 32 34 34 71 256 30 182 39 218 46 195 14 -41 26 -54 52
-54 28 0 38 12 62 75 l20 51 -24 17 c-28 22 -31 74 -8 160 8 32 15 60 15 62 0
5 -12 5 -47 -2z"/>
<path d="M2966 2604 c23 -23 45 -58 53 -84 7 -25 25 -55 38 -68 23 -21 25 -29
20 -75 -4 -29 -16 -64 -28 -81 -15 -20 -27 -58 -35 -115 -29 -191 -76 -278
-176 -321 -75 -33 -195 -34 -258 -3 l-45 22 32 -29 c92 -83 280 -57 378 52 51
57 79 132 98 263 7 50 20 92 34 113 40 60 44 170 7 186 -14 6 -25 26 -34 59
-15 58 -53 103 -94 113 l-29 7 39 -39z"/>
<path d="M2879 2604 c-12 -11 -39 -16 -96 -17 -70 -2 -84 -5 -117 -30 -95 -73
-156 -263 -156 -486 0 -118 13 -159 63 -195 44 -33 166 -28 241 8 31 15 67 42
81 60 34 44 63 132 81 244 10 61 22 104 36 123 14 18 23 49 26 85 5 54 4 56
-16 45 -19 -10 -22 -8 -27 26 -12 76 -26 112 -52 132 -31 25 -44 26 -64 5z
m-39 -172 c0 -84 4 -123 14 -137 12 -17 12 -35 0 -120 -24 -182 -56 -249 -111
-229 -14 5 -35 22 -47 37 -18 25 -21 41 -19 127 2 112 30 262 63 338 21 48 69
102 91 102 5 0 9 -52 9 -118z"/>
<path d="M2787 2450 c-80 -168 -104 -490 -37 -490 18 0 18 2 3 38 -26 63 -2
273 47 405 12 31 20 67 17 79 -3 19 -8 13 -30 -32z"/>
<path d="M5170 2574 l42 -46 -4 -122 c-6 -182 -28 -211 -170 -228 -46 -5 -85
-11 -86 -13 -2 -2 -6 -30 -9 -62 -5 -63 8 -113 31 -113 12 0 13 7 4 36 -5 20
-7 53 -3 74 l6 38 62 7 c34 4 81 15 105 26 55 23 80 77 92 193 15 144 -5 217
-65 242 -51 21 -51 18 -5 -32z"/>
<path d="M1632 2563 c-76 -40 -94 -63 -68 -89 22 -21 21 -30 -18 -232 -45
-229 -50 -279 -37 -330 9 -32 18 -43 37 -48 41 -10 74 13 173 124 51 56 94
102 96 102 1 0 1 -39 -2 -87 -5 -105 7 -136 53 -141 26 -3 39 6 92 63 67 72
74 93 41 114 -21 12 -22 18 -16 139 4 98 11 145 31 208 49 153 45 214 -14 214
-34 0 -93 -47 -116 -92 -8 -16 -23 -96 -33 -178 l-19 -150 -52 -60 c-29 -33
-58 -59 -64 -57 -18 6 -9 99 24 255 16 78 30 168 30 200 0 94 -26 103 -138 45z"/>
<path d="M5070 2590 c-14 -4 -52 -8 -86 -9 -102 -2 -160 -58 -210 -204 -35
-105 -53 -214 -54 -325 0 -100 12 -144 50 -177 33 -30 119 -27 192 7 73 34
148 102 148 135 l0 24 -35 -27 c-24 -18 -52 -29 -84 -32 -67 -6 -81 15 -81
124 l0 81 90 11 c49 6 98 16 109 22 32 17 51 63 63 155 13 104 4 170 -27 201
-25 25 -35 27 -75 14z m-25 -93 c8 -43 -9 -140 -33 -186 -10 -20 -34 -46 -53
-59 l-34 -24 -3 32 c-5 44 25 185 49 232 14 28 26 38 44 38 19 0 25 -6 30 -33z"/>
<path d="M5428 2576 c-95 -34 -120 -80 -173 -311 -52 -224 -50 -321 7 -382 49
-53 108 -17 229 139 l67 87 -1 -102 c-2 -121 8 -147 55 -147 26 0 43 11 85 56
29 31 53 60 53 65 0 6 -10 23 -21 39 -20 26 -21 38 -17 152 3 85 12 151 28
213 l24 90 -27 58 c-21 47 -30 57 -51 57 -54 0 -69 -39 -95 -242 -21 -160 -24
-169 -104 -247 -81 -78 -93 -45 -57 166 36 212 50 242 127 268 25 9 39 20 41
34 3 20 -1 21 -65 21 -37 -1 -85 -7 -105 -14z"/>
<path d="M5558 2504 c-15 -8 -34 -28 -43 -43 -19 -38 -67 -300 -63 -343 l4
-33 11 25 c7 14 15 52 20 85 l7 60 6 -59 5 -60 26 35 c23 29 29 54 43 164 9
72 19 142 22 158 6 31 0 32 -38 11z"/>
<path d="M2525 2444 c-13 -13 -14 -19 -4 -25 10 -6 8 -18 -6 -56 -27 -73 -42
-86 -93 -80 -50 5 -41 26 -77 -193 -14 -85 -29 -165 -35 -177 -5 -12 -30 -34
-55 -48 -38 -23 -54 -27 -95 -23 -36 4 -50 2 -50 -7 0 -31 93 -34 149 -5 75
38 85 60 116 252 l28 174 33 -4 c52 -6 66 9 99 112 31 96 28 118 -10 80z"/>
<path d="M4423 2419 c78 -18 161 -80 194 -144 26 -48 21 -131 -10 -191 -60
-117 -263 -332 -366 -388 -45 -24 -61 -28 -109 -24 -55 5 -55 5 -33 -14 31
-25 96 -23 148 5 143 75 380 345 414 471 23 85 -17 191 -89 238 -42 28 -132
59 -166 57 -12 -1 -4 -5 17 -10z"/>
<path d="M5161 2105 c-19 -21 -31 -47 -31 -63 0 -21 2 -24 10 -12 15 23 13
-30 -3 -58 -19 -36 -125 -109 -185 -127 -63 -20 -140 -15 -181 11 l-26 17 20
-22 c73 -84 226 -58 356 58 l52 46 12 90 c7 50 11 91 10 93 -1 1 -16 -13 -34
-33z"/>
<path d="M735 3078 c-2 -7 -5 -22 -7 -33 -3 -19 -12 -20 -130 -23 -118 -2
-129 -1 -148 18 -12 12 -27 20 -33 17 -20 -8 -87 -202 -87 -252 0 -70 30 -95
112 -95 35 1 107 7 161 14 l98 13 -6 -41 c-33 -250 -50 -342 -76 -416 -38
-110 -39 -114 -11 -118 35 -5 103 70 130 144 13 34 34 141 50 254 l27 195 70
12 c39 7 127 16 197 19 124 7 127 6 171 -19 66 -39 92 -97 90 -202 -2 -158
-48 -271 -152 -374 -104 -103 -196 -140 -351 -141 -150 0 -260 42 -294 114
-31 67 -57 19 -71 -135 -8 -83 12 -125 75 -157 42 -22 54 -23 175 -19 105 4
146 10 211 31 239 77 420 293 493 588 29 118 45 311 32 393 -28 186 -115 223
-446 191 l-184 -18 -34 26 c-37 29 -55 33 -62 14z"/>
<path d="M955 2753 c-55 -8 -101 -16 -102 -17 -2 -1 -14 -88 -29 -192 -28
-205 -45 -268 -92 -337 -34 -49 -76 -72 -122 -65 l-30 5 21 -23 c47 -50 225
-76 347 -50 94 19 163 57 233 127 93 91 149 228 149 364 0 87 -15 128 -60 169
-40 36 -41 36 -128 35 -48 -1 -132 -8 -187 -16z"/>
<path d="M6533 3051 c-51 -24 -70 -57 -117 -215 -57 -188 -147 -670 -163 -874
-7 -89 2 -104 64 -106 l36 -1 64 165 c67 176 112 271 131 278 17 5 15 -35 -8
-168 -11 -63 -20 -137 -20 -163 0 -87 46 -136 102 -106 39 20 118 90 118 104
0 7 -11 20 -25 29 -22 14 -25 24 -25 74 0 31 14 122 30 202 38 183 47 274 30
295 -7 9 -29 15 -50 15 -59 0 -91 -35 -164 -178 -36 -70 -76 -145 -90 -167
l-25 -40 -1 44 c0 25 16 113 36 198 29 125 41 162 71 205 80 117 136 278 131
371 l-3 52 -40 3 c-23 1 -57 -6 -82 -17z"/>
<path d="M6103 2585 c-78 -15 -102 -31 -141 -92 -63 -99 -105 -278 -106 -455
-1 -103 1 -119 20 -145 44 -59 122 -53 212 15 97 74 99 76 107 122 l8 45 -41
-37 c-118 -106 -149 -36 -96 213 45 213 78 269 99 162 6 -28 13 -54 16 -58 8
-8 79 74 79 91 0 38 -25 119 -41 135 -21 21 -29 22 -116 4z"/>
</g>
</svg>
